<svg width="11" height="12" viewBox="0 0 11 12" fill="none" xmlns="http://www.w3.org/2000/svg">
<path d="M10.1752 6.06496L5.75473 10.613C5.21319 11.1702 4.4787 11.4832 3.71285 11.4832C2.947 11.4832 2.21251 11.1702 1.67097 10.613C1.12943 10.0558 0.825195 9.30016 0.825195 8.5122C0.825195 7.72424 1.12943 6.96856 1.67097 6.41138L6.09144 1.86333C6.45246 1.49188 6.94212 1.2832 7.45269 1.2832C7.96326 1.2832 8.45292 1.49188 8.81394 1.86333C9.17497 2.23477 9.37779 2.73857 9.37779 3.26387C9.37779 3.78918 9.17497 4.29297 8.81394 4.66442L4.38867 9.21247C4.20815 9.3982 3.96332 9.50253 3.70804 9.50253C3.45276 9.50253 3.20793 9.3982 3.02741 9.21247C2.8469 9.02675 2.74549 8.77485 2.74549 8.5122C2.74549 8.24955 2.8469 7.99765 3.02741 7.81193L7.11117 3.61524" stroke="#8C9095" stroke-linecap="round" stroke-linejoin="round"/>
</svg>
