<svg width="170" height="65" viewBox="0 0 170 65" fill="none" xmlns="http://www.w3.org/2000/svg">
<path d="M168.758 19.6567C168.09 19.273 167.517 18.9853 166.848 18.7935C166.18 18.6016 165.607 18.4098 165.034 18.4098C164.365 18.4098 163.792 18.5057 163.41 18.7935C163.028 19.0812 162.837 19.4649 162.837 20.0404C162.837 20.4241 163.028 20.8077 163.315 21.0955C163.601 21.3832 163.983 21.671 164.461 21.9588C164.938 22.2465 165.416 22.4383 165.989 22.6302C166.466 22.822 166.944 23.0139 167.421 23.3016C167.899 23.5894 168.281 23.8771 168.663 24.2608C169.045 24.6445 169.331 25.1241 169.522 25.6037C169.713 26.1792 169.904 26.8506 169.904 27.6179C169.904 28.4812 169.713 29.2486 169.236 29.92C168.758 30.6873 168.185 31.2628 167.326 31.6465C166.466 32.1261 165.416 32.3179 164.27 32.3179C163.601 32.3179 163.028 32.222 162.359 32.1261C161.691 32.0302 161.022 31.8384 160.449 31.5506C159.781 31.2628 159.208 30.9751 158.635 30.5914L160.067 28.0016C160.449 28.2894 160.831 28.5771 161.309 28.769C161.786 28.9608 162.264 29.1526 162.646 29.2486C163.124 29.3445 163.506 29.4404 163.888 29.4404C164.27 29.4404 164.652 29.3445 165.034 29.2486C165.416 29.1526 165.798 28.9608 165.989 28.673C166.466 28.1935 166.562 27.2343 166.084 26.6588C165.893 26.371 165.607 26.1792 165.225 25.8914C164.843 25.6996 164.461 25.5077 163.983 25.3159C163.506 25.1241 162.933 24.9322 162.455 24.6445C161.882 24.3567 161.404 24.069 160.927 23.6853C160.449 23.3016 160.067 22.822 159.781 22.3424C159.494 21.7669 159.303 21.0955 159.303 20.3281C159.303 19.369 159.494 18.5057 159.972 17.8343C160.354 17.1628 161.022 16.5873 161.786 16.2037C162.55 15.82 163.506 15.5322 164.461 15.5322C165.798 15.5322 166.848 15.7241 167.708 16.0118C168.567 16.2996 169.236 16.6832 169.904 17.1628L168.758 19.6567Z" fill="#131314"/>
<path d="M94.2633 22.8218V30.4953C94.0723 30.6871 93.7858 30.879 93.3083 31.1667C92.9263 31.3585 92.4487 31.5504 91.8757 31.7422C91.3027 31.9341 90.7296 32.03 90.2521 32.2218C89.6791 32.3177 89.106 32.4136 88.6285 32.4136C87.2914 32.4136 86.0499 32.2218 84.9993 31.8381C83.9487 31.4545 82.9937 30.879 82.2296 30.2075C81.4656 29.5361 80.8926 28.6728 80.5105 27.7136C80.1285 26.7545 79.9375 25.6994 79.9375 24.5483C79.9375 23.0136 80.1285 21.6708 80.606 20.6157C81.0836 19.4647 81.6566 18.6014 82.4207 17.8341C83.1847 17.0667 84.1397 16.4912 85.0948 16.2034C86.1454 15.8198 87.1959 15.6279 88.342 15.6279C89.3926 15.6279 90.3476 15.7238 91.2072 16.0116C92.0667 16.2034 92.8308 16.4912 93.4993 16.8749L91.4937 19.4647C91.4937 19.4647 91.3982 19.4647 91.3982 19.3687C90.9206 19.1769 90.5386 19.081 90.0611 18.9851C89.5836 18.8892 89.2015 18.7932 88.8195 18.7932C87.96 18.7932 87.1004 18.8892 86.4319 19.1769C85.7633 19.3687 85.1903 19.7524 84.7128 20.232C84.2353 20.7116 83.8532 21.1912 83.6622 21.8626C83.4712 22.5341 83.2802 23.3014 83.2802 24.1647C83.2802 24.932 83.3757 25.6994 83.6622 26.2749C83.9487 26.8504 84.3308 27.4259 84.8083 27.9055C85.2858 28.3851 85.8588 28.6728 86.5274 28.8647C87.1959 29.0565 87.96 29.2483 88.724 29.2483C89.2015 29.2483 89.5836 29.2483 89.9656 29.1524C90.3476 29.0565 90.6341 28.9606 90.9206 28.8647V26.1789H88.0555L90.3476 23.0136H94.2633V22.8218Z" fill="#131314"/>
<path d="M98.7527 15.6279H110.022V18.7932H102V22.3422H109.163L106.775 25.5075H101.904V29.0565H110.213V32.2218H98.6572V15.6279H98.7527Z" fill="#131314"/>
<path d="M125.972 15.6285L126.068 25.604L114.512 14.957H114.416V32.2223H117.663V22.4387L129.124 32.8938H129.219V15.6285H125.972Z" fill="#131314"/>
<path d="M134.281 15.6279H137.528V32.2218H134.281V15.6279Z" fill="#131314"/>
<path d="M145.455 26.083C145.455 26.5626 145.646 27.1381 145.932 27.6177C146.219 28.0973 146.696 28.481 147.174 28.7687C147.651 29.0565 148.224 29.2483 148.893 29.2483C149.562 29.2483 150.135 29.0565 150.708 28.7687C151.185 28.481 151.663 28.0973 151.949 27.6177C152.236 27.1381 152.427 26.6585 152.427 26.083V15.6279H155.674V26.1789C155.674 27.4259 155.387 28.481 154.814 29.4402C154.241 30.3994 153.382 31.0708 152.427 31.6463C151.376 32.2218 150.326 32.4136 149.084 32.4136C147.842 32.4136 146.696 32.1259 145.741 31.6463C144.691 31.0708 143.927 30.3994 143.354 29.4402C142.781 28.481 142.494 27.4259 142.494 26.1789V20.1361L145.741 15.7238V26.083H145.455Z" fill="#131314"/>
<path d="M92.928 55.1473C92.6415 55.3391 92.355 55.531 91.973 55.6269C91.5909 55.8187 91.2089 55.9146 90.7314 56.0106C90.2539 56.1065 89.8718 56.2024 89.3943 56.2983C88.9168 56.3942 88.5348 56.3942 88.0572 56.3942C86.8157 56.3942 85.6696 56.2024 84.619 55.8187C83.5685 55.435 82.7089 54.8595 82.0404 54.0922C81.2763 53.3248 80.7988 52.5575 80.4168 51.5024C80.0348 50.5432 79.8438 49.4881 79.8438 48.3371C79.8438 47.0901 80.0348 46.035 80.5123 44.9799C80.8943 43.9248 81.5629 43.0616 82.2314 42.2942C82.9954 41.5269 83.855 40.9514 84.81 40.5677C85.7651 40.184 86.8157 39.9922 87.9617 39.9922C88.8213 39.9922 89.5853 40.0881 90.3494 40.2799C91.1134 40.4718 91.782 40.7595 92.355 41.1432L91.973 42.1024C91.5909 41.9106 91.2089 41.7187 90.8269 41.5269C90.3494 41.335 89.9673 41.2391 89.4898 41.1432C89.0123 41.0473 88.5348 41.0473 88.1527 41.0473C87.1022 41.0473 86.1471 41.2391 85.2876 41.6228C84.428 42.0065 83.664 42.4861 82.9954 43.1575C82.3269 43.8289 81.8494 44.5963 81.4674 45.4595C81.0853 46.3228 80.8943 47.282 80.8943 48.3371C80.8943 49.2963 81.0853 50.2555 81.3718 51.1187C81.7539 51.982 82.2314 52.7493 82.8044 53.3248C83.3775 53.9963 84.1415 54.4759 85.0011 54.8595C85.8606 55.2432 86.8157 55.435 87.8662 55.435C88.5348 55.435 89.1078 55.3391 89.8718 55.2432C90.5404 55.0514 91.1134 54.8595 91.6864 54.5718V50.1595H88.0572V49.1044H92.737V55.1473H92.928Z" fill="#131314"/>
<path d="M101.618 40.2793C102.192 40.2793 102.765 40.3752 103.433 40.5671C104.006 40.7589 104.579 41.0466 105.057 41.3344C105.534 41.7181 105.916 42.1977 106.203 42.7732C106.489 43.3487 106.68 44.0201 106.68 44.7875C106.68 45.363 106.585 45.9385 106.394 46.514C106.203 47.0895 105.916 47.5691 105.534 48.0487C105.152 48.5283 104.579 48.816 104.006 49.1038C103.338 49.3915 102.574 49.4875 101.618 49.4875H99.1353V56.2017H97.9893V40.2793H101.618ZM101.523 48.5283C102.287 48.5283 102.956 48.4324 103.529 48.1446C104.006 47.9528 104.484 47.665 104.77 47.2813C105.057 46.8977 105.248 46.514 105.439 46.1303C105.534 45.7466 105.63 45.2671 105.63 44.8834C105.63 44.4038 105.534 43.9242 105.343 43.5405C105.152 43.1568 104.961 42.7732 104.579 42.3895C104.293 42.1017 103.815 41.814 103.433 41.6222C102.956 41.4303 102.478 41.3344 101.905 41.3344H99.2308V48.5283H101.523ZM103.815 49.0079L108.208 56.2977H106.967L102.574 49.0079H103.815Z" fill="#131314"/>
<path d="M110.5 48.2412C110.5 47.0901 110.691 46.035 111.169 45.0759C111.551 44.1167 112.124 43.2534 112.888 42.4861C113.652 41.7187 114.511 41.1432 115.466 40.6636C116.421 40.2799 117.472 39.9922 118.618 39.9922C119.764 39.9922 120.815 40.184 121.77 40.6636C122.725 41.1432 123.584 41.7187 124.348 42.4861C125.112 43.2534 125.685 44.1167 126.067 45.0759C126.449 46.035 126.736 47.0901 126.736 48.2412C126.736 49.3922 126.545 50.4473 126.067 51.4065C125.685 52.3657 125.017 53.2289 124.348 53.9963C123.584 54.7636 122.725 55.3391 121.77 55.7228C120.815 56.1065 119.764 56.3942 118.618 56.3942C117.472 56.3942 116.421 56.2024 115.466 55.8187C114.511 55.435 113.652 54.8595 112.888 54.0922C112.124 53.3248 111.551 52.4616 111.169 51.5024C110.787 50.5432 110.5 49.4881 110.5 48.2412ZM111.646 48.3371C111.646 49.2963 111.837 50.2555 112.219 51.1187C112.601 51.982 113.079 52.7493 113.747 53.3248C114.416 53.9963 115.18 54.4759 115.944 54.8595C116.803 55.2432 117.663 55.435 118.618 55.435C119.573 55.435 120.528 55.2432 121.388 54.8595C122.247 54.4759 123.011 53.9963 123.584 53.3248C124.253 52.6534 124.73 51.8861 125.112 51.1187C125.494 50.2555 125.685 49.2963 125.685 48.3371C125.685 47.3779 125.494 46.4187 125.112 45.5555C124.73 44.6922 124.253 43.9248 123.584 43.2534C122.916 42.582 122.152 42.1024 121.388 41.7187C120.528 41.335 119.669 41.1432 118.618 41.1432C117.663 41.1432 116.708 41.335 115.848 41.7187C114.989 42.1024 114.225 42.582 113.652 43.2534C112.983 43.9248 112.506 44.6922 112.124 45.5555C111.837 46.4187 111.646 47.3779 111.646 48.3371Z" fill="#131314"/>
<path d="M131.893 50.8303C131.893 51.7895 132.084 52.5568 132.466 53.2283C132.848 53.8997 133.325 54.3793 133.994 54.763C134.662 55.1466 135.426 55.3385 136.191 55.3385C137.05 55.3385 137.814 55.1466 138.483 54.763C139.151 54.3793 139.629 53.8997 140.011 53.2283C140.393 52.5568 140.584 51.7895 140.584 50.8303V40.2793H141.634V50.9262C141.634 52.0773 141.348 53.0364 140.87 53.8997C140.393 54.763 139.724 55.3385 138.865 55.8181C138.005 56.2977 137.146 56.4895 136.095 56.4895C135.044 56.4895 134.089 56.2977 133.325 55.8181C132.561 55.3385 131.797 54.763 131.32 53.8997C130.842 53.0364 130.556 52.0773 130.556 50.9262V40.2793H131.702V50.8303H131.893Z" fill="#131314"/>
<path d="M150.422 40.2793C151.377 40.2793 152.237 40.4711 153.001 40.7589C153.765 41.1426 154.338 41.6222 154.72 42.2936C155.102 42.965 155.293 43.8283 155.293 44.7875C155.293 45.363 155.197 45.9385 155.006 46.514C154.815 47.0895 154.529 47.5691 154.147 48.0487C153.765 48.5283 153.192 48.816 152.619 49.1038C151.95 49.3915 151.186 49.4875 150.326 49.4875H147.843V56.2017H146.697V40.2793H150.422ZM150.326 48.5283C151.091 48.5283 151.759 48.4324 152.237 48.1446C152.714 47.8568 153.192 47.5691 153.478 47.1854C153.765 46.8017 153.956 46.4181 154.147 45.9385C154.242 45.5548 154.338 45.1711 154.338 44.7875C154.338 44.3079 154.242 43.8283 154.051 43.3487C153.86 42.965 153.669 42.5813 153.287 42.2936C153.001 42.0058 152.619 41.7181 152.141 41.5262C151.664 41.3344 151.186 41.2385 150.517 41.2385H147.843V48.4324H150.326V48.5283Z" fill="#131314"/>
<path d="M63.9888 33.3729C63.9888 47.2811 55.2022 59.1749 42.882 63.5872C42.4045 62.5321 40.3034 57.2566 39.9213 56.2015C34.9551 54.6668 34.2865 54.1872 32.0899 52.5566C39.3483 53.0362 46.0337 51.3096 51.191 47.0892C50.0449 45.0749 48.9944 43.0606 47.9438 41.1423C46.8933 39.128 45.7472 37.1137 44.6966 35.0994C46.0337 34.3321 47.3708 33.7566 48.6124 33.0851C47.0843 30.4953 45.1742 27.1382 43.6461 24.4525C39.6348 17.2586 34.0955 14.5729 28.6517 14.5729C19.3876 14.5729 10.6011 22.63 10.6011 30.3035C10.6011 33.4688 11.7472 36.73 13.6573 40.3749C18.7191 34.2362 22.0618 31.7423 30.5618 29.2484C30.5618 29.2484 28.2697 30.7831 25.5955 33.5647C20.7247 38.4566 17.382 44.0198 17.382 51.0219C17.382 56.4892 19.2921 61.1892 20.2472 63.3953C8.4045 58.5994 0 46.9933 0 33.3729C0 15.628 14.3258 1.24023 31.9944 1.24023C49.6629 1.24023 63.9888 15.628 63.9888 33.3729ZM29.3202 26.5627L33.618 26.2749L34.0955 24.4525L35.2416 26.0831L39.5393 25.7953L36.7697 28.1933L38.8708 31.5504L35.1461 29.6321L32.7584 31.7423L33.236 28.6729L29.3202 26.5627Z" fill="#131314"/>
</svg>
