<svg width="175" height="21" viewBox="0 0 175 21" fill="none" xmlns="http://www.w3.org/2000/svg">
<path d="M90.7655 6.13243C90.0898 5.74368 89.5107 5.45212 88.835 5.25774C88.1594 5.06337 87.5803 4.86899 87.0011 4.86899C86.3255 4.86899 85.7464 4.96618 85.3603 5.25774C84.9742 5.5493 84.7811 5.93806 84.7811 6.52118C84.7811 6.90993 84.9742 7.29868 85.2637 7.59024C85.5533 7.8818 85.9394 8.17337 86.422 8.46493C86.9046 8.75649 87.3872 8.95086 87.9664 9.14524C88.449 9.33961 88.9316 9.53399 89.4142 9.82555C89.8968 10.1171 90.2829 10.4087 90.669 10.7974C91.0551 11.1862 91.3446 11.6721 91.5377 12.1581C91.7307 12.7412 91.9237 13.4215 91.9237 14.199C91.9237 15.0737 91.7307 15.8512 91.2481 16.5315C90.7655 17.309 90.1863 17.8921 89.3177 18.2809C88.449 18.7668 87.3872 18.9612 86.229 18.9612C85.5533 18.9612 84.9742 18.864 84.2985 18.7668C83.6229 18.6696 82.9472 18.4752 82.3681 18.1837C81.6924 17.8921 81.1133 17.6005 80.5342 17.2118L81.982 14.5877C82.3681 14.8793 82.7542 15.1709 83.2368 15.3652C83.7194 15.5596 84.202 15.754 84.5881 15.8512C85.0707 15.9484 85.4568 16.0455 85.8429 16.0455C86.229 16.0455 86.615 15.9484 87.0011 15.8512C87.3872 15.754 87.7733 15.5596 87.9664 15.2681C88.449 14.7821 88.5455 13.8102 88.0629 13.2271C87.8698 12.9356 87.5803 12.7412 87.1942 12.4496C86.8081 12.2552 86.422 12.0609 85.9394 11.8665C85.4568 11.6721 84.8777 11.4777 84.395 11.1862C83.8159 10.8946 83.3333 10.6031 82.8507 10.2143C82.3681 9.82555 81.982 9.33962 81.6924 8.85368C81.4029 8.27055 81.2098 7.59024 81.2098 6.81274C81.2098 5.84087 81.4029 4.96618 81.8855 4.28587C82.2716 3.60556 82.9472 3.02243 83.7194 2.63368C84.4916 2.24493 85.4568 1.95337 86.422 1.95337C87.7733 1.95337 88.8351 2.14774 89.7037 2.43931C90.5724 2.73087 91.2481 3.11962 91.9237 3.60556L90.7655 6.13243Z" fill="#131314"/>
<path d="M15.4783 9.3396V17.1146C15.2852 17.309 14.9957 17.5033 14.513 17.7949C14.127 17.9893 13.6443 18.1837 13.0652 18.378C12.4861 18.5724 11.907 18.6696 11.4244 18.864C10.8452 18.9612 10.2661 19.0583 9.78348 19.0583C8.43218 19.0583 7.17739 18.864 6.11566 18.4752C5.05392 18.0865 4.0887 17.5033 3.31652 16.823C2.54435 16.1427 1.96522 15.268 1.57914 14.2962C1.19305 13.3243 1 12.2552 1 11.089C1 9.53397 1.19305 8.17335 1.67566 7.10429C2.15827 5.93804 2.7374 5.06335 3.50957 4.28585C4.28175 3.50835 5.24696 2.92522 6.21218 2.63366C7.27391 2.24491 8.33566 2.05054 9.49392 2.05054C10.5557 2.05054 11.5209 2.14772 12.3896 2.43929C13.2583 2.63366 14.0304 2.92522 14.7061 3.31397L12.6791 5.93804C12.6791 5.93804 12.5826 5.93803 12.5826 5.84085C12.1 5.64647 11.7139 5.54929 11.2313 5.4521C10.7487 5.35491 10.3626 5.25772 9.97653 5.25772C9.10783 5.25772 8.23913 5.35491 7.56348 5.64647C6.88783 5.84085 6.3087 6.2296 5.82609 6.71553C5.34348 7.20147 4.95739 7.68741 4.76435 8.36772C4.57131 9.04803 4.37826 9.82553 4.37826 10.7002C4.37826 11.4777 4.47478 12.2552 4.76435 12.8383C5.05391 13.4215 5.44001 14.0046 5.92261 14.4905C6.40522 14.9765 6.98435 15.268 7.66 15.4624C8.33565 15.6568 9.10783 15.8512 9.88 15.8512C10.3626 15.8512 10.7487 15.8512 11.1348 15.754C11.5209 15.6568 11.8104 15.5596 12.1 15.4624V12.7412H9.20435L11.5209 9.53397H15.4783V9.3396Z" fill="#131314"/>
<path d="M20.0155 2.05054H31.405V5.25772H23.2972V8.85366H30.5363L28.1233 12.0608H23.2007V15.6568H31.5981V18.864H19.9189V2.05054H20.0155Z" fill="#131314"/>
<path d="M47.5229 2.05043L47.6194 12.1579L35.9403 1.37012H35.8438V18.8639H39.1255V8.95074L50.7081 19.5442H50.8046V2.05043H47.5229Z" fill="#131314"/>
<path d="M55.9209 2.05054H59.2026V18.864H55.9209V2.05054Z" fill="#131314"/>
<path d="M67.2139 12.644C67.2139 13.1299 67.4069 13.713 67.6965 14.199C67.986 14.6849 68.4686 15.0737 68.9513 15.3652C69.4339 15.6568 70.013 15.8512 70.6886 15.8512C71.3643 15.8512 71.9434 15.6568 72.5226 15.3652C73.0052 15.0737 73.4878 14.6849 73.7773 14.199C74.0669 13.713 74.26 13.2271 74.26 12.644V2.05054H77.5417V12.7412C77.5417 14.0046 77.2521 15.0737 76.673 16.0455C76.0939 17.0174 75.2252 17.6977 74.26 18.2808C73.1982 18.864 72.1365 19.0583 70.8817 19.0583C69.6269 19.0583 68.4686 18.7668 67.5034 18.2808C66.4417 17.6977 65.6695 17.0174 65.0904 16.0455C64.5113 15.0737 64.2217 14.0046 64.2217 12.7412V6.61835L67.5034 2.14772V12.644H67.2139Z" fill="#131314"/>
<path d="M110.971 17.2331C110.681 17.4274 110.391 17.6218 110.005 17.719C109.619 17.9134 109.233 18.0106 108.751 18.1077C108.268 18.2049 107.882 18.3021 107.399 18.3993C106.917 18.4965 106.531 18.4965 106.048 18.4965C104.793 18.4965 103.635 18.3021 102.573 17.9134C101.511 17.5246 100.643 16.9415 99.9671 16.164C99.1949 15.3865 98.7123 14.609 98.3262 13.5399C97.9401 12.5681 97.7471 11.499 97.7471 10.3327C97.7471 9.06931 97.9401 8.00025 98.4227 6.93119C98.8088 5.86212 99.4845 4.98744 100.16 4.20994C100.932 3.43244 101.801 2.84931 102.766 2.46056C103.731 2.07181 104.793 1.87744 105.951 1.87744C106.82 1.87744 107.592 1.97463 108.364 2.169C109.137 2.36338 109.812 2.65494 110.391 3.04369L110.005 4.01556C109.619 3.82119 109.233 3.62681 108.847 3.43244C108.364 3.23806 107.978 3.14088 107.496 3.04369C107.013 2.9465 106.531 2.9465 106.144 2.9465C105.083 2.9465 104.118 3.14088 103.249 3.52963C102.38 3.91838 101.608 4.40431 100.932 5.08463C100.257 5.76494 99.774 6.54244 99.3879 7.41712C99.0019 8.29181 98.8088 9.26368 98.8088 10.3327C98.8088 11.3046 99.0019 12.2765 99.2914 13.1512C99.6775 14.0259 100.16 14.8034 100.739 15.3865C101.318 16.0668 102.091 16.5527 102.959 16.9415C103.828 17.3302 104.793 17.5246 105.855 17.5246C106.531 17.5246 107.11 17.4274 107.882 17.3302C108.558 17.1359 109.137 16.9415 109.716 16.6499V12.1793H106.048V11.1102H110.778V17.2331H110.971Z" fill="#131314"/>
<path d="M119.755 2.16895C120.334 2.16895 120.913 2.26613 121.589 2.46051C122.168 2.65488 122.747 2.94644 123.23 3.23801C123.712 3.62676 124.098 4.11269 124.388 4.69582C124.677 5.27894 124.87 5.95926 124.87 6.73676C124.87 7.31988 124.774 7.903 124.581 8.48613C124.388 9.06925 124.098 9.55519 123.712 10.0411C123.326 10.5271 122.747 10.8186 122.168 11.1102C121.492 11.4018 120.72 11.4989 119.755 11.4989H117.245V18.3021H116.087V2.16895H119.755ZM119.658 10.5271C120.43 10.5271 121.106 10.4299 121.685 10.1383C122.168 9.94394 122.65 9.65238 122.94 9.26363C123.23 8.87488 123.423 8.48613 123.616 8.09738C123.712 7.70863 123.809 7.22269 123.809 6.83394C123.809 6.348 123.712 5.86207 123.519 5.47332C123.326 5.08457 123.133 4.69582 122.747 4.30707C122.457 4.01551 121.975 3.72394 121.589 3.52957C121.106 3.33519 120.623 3.23801 120.044 3.23801H117.342V10.5271H119.658ZM121.975 11.013L126.415 18.3993H125.16L120.72 11.013H121.975Z" fill="#131314"/>
<path d="M128.731 10.2356C128.731 9.06931 128.924 8.00025 129.407 7.02838C129.793 6.0565 130.372 5.18181 131.144 4.40431C131.917 3.62681 132.785 3.04369 133.751 2.55775C134.716 2.169 135.778 1.87744 136.936 1.87744C138.094 1.87744 139.156 2.07181 140.121 2.55775C141.086 3.04369 141.955 3.62681 142.727 4.40431C143.499 5.18181 144.078 6.0565 144.464 7.02838C144.851 8.00025 145.14 9.06931 145.14 10.2356C145.14 11.4018 144.947 12.4709 144.464 13.4427C144.078 14.4146 143.403 15.2893 142.727 16.0668C141.955 16.8443 141.086 17.4274 140.121 17.8162C139.156 18.2049 138.094 18.4965 136.936 18.4965C135.778 18.4965 134.716 18.3021 133.751 17.9134C132.785 17.5246 131.917 16.9415 131.144 16.164C130.372 15.3865 129.793 14.5118 129.407 13.5399C129.021 12.5681 128.731 11.499 128.731 10.2356ZM129.89 10.3327C129.89 11.3046 130.083 12.2765 130.469 13.1512C130.855 14.0259 131.338 14.8034 132.013 15.3865C132.689 16.0668 133.461 16.5527 134.233 16.9415C135.102 17.3302 135.971 17.5246 136.936 17.5246C137.901 17.5246 138.866 17.3302 139.735 16.9415C140.604 16.5527 141.376 16.0668 141.955 15.3865C142.631 14.7062 143.113 13.9287 143.499 13.1512C143.885 12.2765 144.078 11.3046 144.078 10.3327C144.078 9.36087 143.885 8.389 143.499 7.51431C143.113 6.63963 142.631 5.86212 141.955 5.18181C141.279 4.5015 140.507 4.01556 139.735 3.62681C138.866 3.23807 137.998 3.04369 136.936 3.04369C135.971 3.04369 135.005 3.23807 134.137 3.62681C133.268 4.01556 132.496 4.5015 131.917 5.18181C131.241 5.86212 130.758 6.63963 130.372 7.51431C130.083 8.389 129.89 9.36087 129.89 10.3327Z" fill="#131314"/>
<path d="M150.351 12.8596C150.351 13.8314 150.544 14.6089 150.93 15.2893C151.317 15.9696 151.799 16.4555 152.475 16.8442C153.15 17.233 153.923 17.4274 154.695 17.4274C155.563 17.4274 156.336 17.233 157.011 16.8442C157.687 16.4555 158.17 15.9696 158.556 15.2893C158.942 14.6089 159.135 13.8314 159.135 12.8596V2.16895H160.197V12.9568C160.197 14.123 159.907 15.0949 159.424 15.9696C158.942 16.8443 158.266 17.4274 157.397 17.9133C156.529 18.3993 155.66 18.5936 154.598 18.5936C153.537 18.5936 152.571 18.3993 151.799 17.9133C151.027 17.4274 150.255 16.8443 149.772 15.9696C149.29 15.0949 149 14.123 149 12.9568V2.16895H150.158V12.8596H150.351Z" fill="#131314"/>
<path d="M169.078 2.16895C170.043 2.16895 170.912 2.36332 171.684 2.65488C172.456 3.04363 173.035 3.52957 173.421 4.20988C173.807 4.89019 174 5.76488 174 6.73676C174 7.31988 173.904 7.903 173.711 8.48613C173.518 9.06925 173.228 9.55519 172.842 10.0411C172.456 10.5271 171.877 10.8186 171.298 11.1102C170.622 11.4018 169.85 11.4989 168.981 11.4989H166.472V18.3021H165.313V2.16895H169.078ZM168.981 10.5271C169.753 10.5271 170.429 10.4299 170.912 10.1383C171.394 9.84675 171.877 9.55519 172.167 9.16644C172.456 8.77769 172.649 8.38894 172.842 7.903C172.939 7.51425 173.035 7.12551 173.035 6.73676C173.035 6.25082 172.939 5.76488 172.746 5.27894C172.553 4.89019 172.36 4.50144 171.973 4.20988C171.684 3.91832 171.298 3.62676 170.815 3.43238C170.333 3.23801 169.85 3.14082 169.174 3.14082H166.472V10.4299H168.981V10.5271Z" fill="#131314"/>
</svg>
