<svg width="123" height="32" viewBox="0 0 123 32" fill="none" xmlns="http://www.w3.org/2000/svg">
<path d="M33.4192 0.666504H0.364746V5.80034H31.7692V5.80427C32.6773 5.80427 33.4076 6.54653 33.4076 7.45984V24.7086L33.4008 24.7204C33.393 25.6337 32.6598 26.3671 31.7595 26.3671H7.08163C6.17736 26.3671 5.44033 25.6278 5.44033 24.7086V17.7373C5.44033 16.8221 6.17736 16.0818 7.08163 16.0818H28.3164V10.9499H5.42769C2.63028 10.9499 0.364746 13.2376 0.364746 16.0651V26.3799C0.364746 29.2064 2.63028 31.5 5.42769 31.5H33.4192C36.2186 31.5 38.4822 29.2064 38.4822 26.3799V5.78559C38.4822 2.95815 36.2186 0.666504 33.4192 0.666504Z" fill="#0096D7"/>
<path d="M57.3709 0.676392L61.3409 12.6852C61.8164 14.149 62.147 14.4892 62.9774 14.4892H63.7873V16.6019H55.116V14.4892H55.8249C56.5395 14.4892 57.1366 14.3919 57.1366 14.1284C57.1366 13.8865 57.1093 13.6231 57.017 13.2642L56.5181 11.533H51.6691L51.3862 12.4935C51.1227 13.334 51.0293 13.6938 51.0293 14.0301C51.0293 14.4184 51.8597 14.4902 52.5044 14.4902H53.1889V16.6029H46.2075V14.4892H47.0136C47.8449 14.4892 48.1765 14.149 48.6549 12.6852L52.622 0.676392H57.3709ZM52.3527 9.42122H55.8035L54.0922 4.25297H54.0474L52.3527 9.42122Z" fill="#131314"/>
<path d="M65.1629 3.63066C65.1629 2.95624 64.9967 2.59839 64.3073 2.59839H63.2163V0.676392H69.1086V6.65669C69.9847 5.64605 71.1029 4.99916 72.1705 4.99916C75.7341 4.99916 77.0614 7.81185 77.0614 10.9795C77.0614 14.149 75.7341 16.9568 72.1705 16.9568C70.6751 16.9568 69.3449 16.4318 68.5107 15.1095L67.8232 16.6019H65.1619V3.63066M69.1086 10.9795C69.1086 13.4294 69.6532 14.8962 70.9833 14.8962C72.3164 14.8962 72.8609 13.4294 72.8609 10.9795C72.8609 8.52953 72.3164 7.06763 70.9833 7.06763C69.6532 7.06763 69.1086 8.52953 69.1086 10.9795Z" fill="#131314"/>
<path d="M78.4915 3.63066C78.4915 2.95624 78.3223 2.59839 77.6378 2.59839H76.5439V0.676392H82.4373V6.65669C83.3153 5.64605 84.4325 4.99916 85.5011 4.99916C89.0627 4.99916 90.3948 7.81185 90.3948 10.9795C90.3948 14.149 89.0627 16.9568 85.5011 16.9568C84.0017 16.9568 82.6745 16.4318 81.8393 15.1095L81.1518 16.6019H78.4915V3.63066ZM82.4363 10.9795C82.4363 13.4294 82.9837 14.8962 84.3109 14.8962C85.643 14.8962 86.1885 13.4294 86.1885 10.9795C86.1885 8.52953 85.643 7.06763 84.3109 7.06763C82.9847 7.06763 82.4363 8.52953 82.4363 10.9795Z" fill="#131314"/>
<path d="M103.794 10.9794C103.794 14.8224 101.204 16.9568 97.6647 16.9568C94.1225 16.9568 91.5322 14.8224 91.5322 10.9794C91.5322 7.13546 94.1225 4.99915 97.6647 4.99915C101.204 4.99915 103.794 7.13546 103.794 10.9794ZM95.7395 10.9794C95.7395 13.8118 96.2373 15.0378 97.6647 15.0378C99.0902 15.0378 99.589 13.8118 99.589 10.9794C99.589 8.14512 99.0902 6.92114 97.6647 6.92114C96.2373 6.92114 95.7395 8.14512 95.7395 10.9794Z" fill="#131314"/>
<path d="M120.732 11.173V13.0478C120.732 14.1479 120.496 14.8007 119.592 14.8007C119.044 14.8007 118.785 14.3908 118.785 13.8855V7.2789H121.705V5.36084H118.785V0.892578H116.433C116.24 2.88536 115.625 5.36084 113.25 5.36084H109.544V0.892578H107.193C106.999 2.88536 106.384 5.36084 104.008 5.36084V7.2789H105.602V13.3103C105.602 15.7603 106.954 16.9567 109.4 16.9567C112.254 16.9567 113.39 15.6639 113.39 13.3103V11.172H111.495V13.0469C111.495 14.147 111.255 14.7997 110.352 14.7997C109.804 14.7997 109.545 14.3898 109.545 13.8845V7.27792H114.845V13.3093C114.845 15.7593 116.196 16.9557 118.642 16.9557C121.495 16.9557 122.635 15.6629 122.635 13.3093V11.1711H120.732" fill="#131314"/>
</svg>
