<svg width="134" height="28" viewBox="0 0 134 28" fill="none" xmlns="http://www.w3.org/2000/svg">
<g clip-path="url(#clip0_959_15977)">
<path d="M18.4865 27.3774V23.6422H0.799805V27.3774H18.4865ZM50.3855 4.91016C47.8597 5.25878 46.1348 6.29841 45.2107 8.02906C44.0648 10.0585 43.7938 12.0444 44.3975 13.9867C45.4448 17.1118 47.4408 18.7242 50.3855 18.8238V23.6609H53.6567V18.8238C56.5891 18.7118 58.5789 17.0994 59.6262 13.9867C60.2299 12.0444 59.9589 10.0585 58.813 8.02906C57.8889 6.29841 56.1702 5.25878 53.6567 4.91016V0.110417H50.3855V4.91016ZM51.1247 8.01038C50.866 8.04774 50.6196 8.09754 50.3855 8.15979V15.6489C50.6196 15.6987 50.866 15.7298 51.1247 15.7423C50.866 15.7298 50.6196 15.6987 50.3855 15.6489C49.1534 15.375 48.2909 14.5096 47.7981 13.0529C47.4654 11.9697 47.6194 10.8678 48.2601 9.74726C48.6667 8.96286 49.3752 8.43371 50.3855 8.15979C50.6196 8.09754 50.866 8.04774 51.1247 8.01038ZM52.9359 8.01038C53.1947 8.04774 53.4349 8.09754 53.6567 8.15979C54.667 8.43371 55.3816 8.96286 55.8005 9.74726C56.4412 10.8678 56.5952 11.9697 56.2626 13.0529C55.7574 14.5096 54.8888 15.375 53.6567 15.6489C53.4349 15.6987 53.1947 15.7298 52.9359 15.7423C53.1947 15.7298 53.4349 15.6987 53.6567 15.6489V8.15979C53.4349 8.09754 53.1947 8.04774 52.9359 8.01038ZM35.6927 5.41441H32.3661V18.4503H39.3705C41.1324 18.2137 42.2413 17.3173 42.6972 15.7609L42.7342 12.3246C42.3769 10.4694 41.2372 9.44221 39.3151 9.243H35.6927V5.41441ZM35.6558 12.2125H38.465C39.8449 13.1961 39.8449 14.2233 38.465 15.294H35.6558V12.2125ZM23.458 8.34655H26.526V18.469H30.0189V5.20898H20.2792V14.2295C19.9712 15.0264 19.3798 15.3189 18.505 15.1073V18.4316L20.6119 18.1888C21.8686 17.8776 22.6449 17.1803 22.9406 16.0971C23.2239 15.0139 23.3225 14.3727 23.2363 14.1735L23.458 8.34655ZM11.3157 0.446585C10.3054 -0.0887952 9.24582 -0.119922 8.13693 0.353205C6.9418 1.95934 4.61314 7.917 1.15095 18.2262H4.69939L6.06701 14.8271H12.8867L14.1064 18.4503H17.8027C16.1887 12.3868 14.0263 6.38557 11.3157 0.446585ZM9.46759 4.29385L11.7408 11.2974H7.08349L9.46759 4.29385ZM124.773 5.45177H121.484V18.3196H124.699V13.1089L129.486 18.2262H133.866L127.934 11.4094L133.275 5.47044H129.098L124.773 10.3075V5.45177ZM111.134 5.45177H107.844V18.3196H111.06V13.2957H115.828V18.3196H119.044V5.45177H115.754V10.1208H115.699H111.189L111.134 5.45177ZM96.3118 10.2515C94.858 10.8118 94.1002 11.7643 94.0386 13.1089C93.6813 15.9228 94.5931 17.6161 96.7739 18.1888C98.7206 18.9981 100.482 18.6184 102.06 17.0496C103.045 18.3569 104.376 18.774 106.052 18.3009V15.4808L104.998 14.6964V8.45861C104.715 6.85247 103.594 5.73813 101.634 5.1156C100.242 4.67982 98.9177 4.67982 97.661 5.1156C95.628 5.94979 94.5068 7.24467 94.2974 9.00021H97.6979C97.7965 8.45238 98.0922 8.15979 98.585 8.12244H100.71C101.363 8.47106 101.628 9.03757 101.505 9.82196C99.4722 9.6352 97.7411 9.77838 96.3118 10.2515ZM98.123 12.8662H101.69V14.2855C101.37 14.8583 101.006 15.238 100.6 15.4248C99.7001 15.9353 98.8746 15.9353 98.123 15.4248C97.125 14.4785 97.125 13.6256 98.123 12.8662ZM82.9498 3.64019H91.5251V0.110417H79.1241V18.3009H88.2724C90.5887 17.8527 91.9502 16.6449 92.3568 14.6777L92.3198 10.6437C92.0488 9.00021 90.7612 7.93568 88.4572 7.4501C86.7446 7.21354 84.9088 7.10148 82.9498 7.11393V3.64019ZM82.7834 10.4383L87.1081 10.4196C89.6832 11.9884 89.6832 13.5074 87.1081 14.9766H82.7834V10.4383ZM72.1751 8.45861C71.8917 6.85247 70.7705 5.73813 68.8115 5.1156C67.4192 4.67982 66.0947 4.67982 64.838 5.1156C62.805 5.94979 61.6838 7.24467 61.4743 9.00021H64.8749C64.9735 8.45238 65.2692 8.15979 65.762 8.12244H67.8874C68.5404 8.47106 68.8053 9.03757 68.6821 9.82196C66.6491 9.6352 64.918 9.77838 63.4888 10.2515C62.0349 10.8118 61.2772 11.7643 61.2156 13.1089C60.8583 15.9228 61.77 17.6161 63.9509 18.1888C65.8976 18.9981 67.6595 18.6184 69.2365 17.0496C70.2222 18.3569 71.5529 18.774 73.2285 18.3009V15.4808L72.1751 14.6964V8.45861ZM68.8669 14.2855C68.5466 14.8583 68.1831 15.238 67.7765 15.4248C66.8771 15.9353 66.0516 15.9353 65.3 15.4248C64.302 14.4785 64.302 13.6256 65.3 12.8662H68.8669V14.2855Z" fill="#F03024"/>
</g>
<defs>
<clipPath id="clip0_959_15977">
<rect width="133.762" height="27.9684" fill="white" transform="translate(0.227539 0.0158691)"/>
</clipPath>
</defs>
</svg>
