<svg width="138" height="33" viewBox="0 0 138 33" fill="none" xmlns="http://www.w3.org/2000/svg">
<g clip-path="url(#clip0_959_15805)">
<path d="M14.9246 0.717896H14.9196C13.6004 0.719185 12.5279 1.82746 12.5298 3.18783C12.5323 4.54304 13.6067 5.64681 14.924 5.64681C16.2457 5.64359 17.3219 4.53595 17.32 3.17687C17.3175 1.82166 16.2426 0.717896 14.9246 0.717896Z" fill="#00B9BF"/>
<path d="M14.9246 26.8989H14.9196C13.6004 26.9003 12.5279 28.0085 12.5298 29.3688C12.5323 30.7241 13.6067 31.8278 14.924 31.8278C16.2457 31.8246 17.3219 30.7177 17.32 29.3579C17.3175 28.002 16.2426 26.8989 14.9246 26.8989Z" fill="#00B9BF"/>
<path d="M23.962 3.80334H23.9544C22.1786 3.80657 20.7347 5.29782 20.7378 7.12948C20.7409 8.95599 22.1867 10.442 23.9607 10.442C25.7422 10.4382 27.1899 8.94697 27.1874 7.11595C27.1849 5.28944 25.7366 3.80334 23.962 3.80334Z" fill="#00B9BF"/>
<path d="M23.962 22.1097H23.9544C22.1786 22.1123 20.7347 23.6042 20.7378 25.4359C20.7409 27.2623 22.1867 28.7478 23.9607 28.7478C25.7422 28.7446 27.1899 27.2527 27.1874 25.4223C27.1849 23.5958 25.7366 22.1097 23.962 22.1097Z" fill="#00B9BF"/>
<path d="M3.58795 16.2156C3.58795 17.0196 2.95527 17.6714 2.1735 17.6714C1.39174 17.6714 0.757812 17.0196 0.757812 16.2156C0.757812 15.411 1.39174 14.7592 2.1735 14.7592C2.95527 14.7592 3.58795 15.411 3.58795 16.2156Z" fill="#00B9BF"/>
<path d="M7.52616 7.1234C7.52616 8.10596 6.75254 8.90219 5.79789 8.90219C4.8426 8.90219 4.06836 8.10596 4.06836 7.1234C4.06836 6.14148 4.8426 5.3446 5.79789 5.3446C6.75254 5.3446 7.52616 6.14148 7.52616 7.1234Z" fill="#00B9BF"/>
<path d="M7.52616 25.4288C7.52616 26.4113 6.75254 27.2076 5.79789 27.2076C4.8426 27.2076 4.06836 26.4113 4.06836 25.4288C4.06836 24.4469 4.8426 23.65 5.79789 23.65C6.75254 23.65 7.52616 24.4469 7.52616 25.4288Z" fill="#00B9BF"/>
<path d="M27.6246 11.8514H27.6152C25.2806 11.8559 23.3832 13.8171 23.3857 16.2246C23.3908 18.6243 25.2913 20.5784 27.6234 20.5784C29.9656 20.5732 31.8692 18.612 31.8661 16.2058C31.8617 13.8042 29.9587 11.8514 27.6246 11.8514Z" fill="#00B9BF"/>
<path d="M95.596 7.84351C92.333 7.84351 87.3984 9.52622 87.3984 16.0844C87.3984 22.6438 92.7771 24.2685 95.596 24.2685C98.4149 24.2685 103.796 22.6438 103.796 16.0844C103.796 9.52622 98.859 7.84351 95.596 7.84351ZM99.6667 16.056C99.6667 20.3092 97.3108 21.3634 95.6005 21.3634C93.8884 21.3634 91.5298 20.3092 91.5289 16.056V16.0554C91.5289 11.8021 94.0263 10.748 95.596 10.748C97.1657 10.748 99.6667 11.8021 99.6667 16.056Z" fill="#00B9BF"/>
<path d="M80.9405 15.4015L87.2929 8.01554H82.6781L76.8544 14.8509V3.25038C76.8544 2.20399 76.2311 0.697916 73.7573 0.728863C73.4861 0.732087 73.1879 0.750784 72.8779 0.797848V24.0601H76.8544V15.927L83.1367 24.0627H87.6663L80.9405 15.4015Z" fill="#00B9BF"/>
<path d="M114.633 7.85899C112.238 7.85899 110.794 8.73388 110.162 9.23484V9.22902C110.078 9.28579 109.995 9.3431 109.912 9.40372C109.531 8.62428 108.697 7.84351 106.974 7.84351C106.694 7.84351 106.388 7.86544 106.069 7.9125V24.077H110.162V11.9691C111.249 10.8918 114.268 10.3238 115.643 11.7789C116.42 12.599 116.574 13.757 116.574 14.8407V24.077H120.668V14.0464C120.668 9.93177 117.584 7.85899 114.633 7.85899Z" fill="#00B9BF"/>
<path d="M47.8387 7.82715C43.9123 7.82715 41.116 9.73622 41.116 9.73622L42.3488 12.0153C44.1992 10.9695 46.9441 10.4344 48.6248 10.8258C49.8589 11.1127 50.3801 11.9791 50.6438 12.7896C50.781 13.2106 50.7503 14.5445 50.7503 14.5445V14.1145C48.5697 13.6084 40.3462 12.5059 40.3462 19.2046C40.3462 21.6997 41.8897 23.7235 45.2247 24.1652C47.2279 24.4307 49.0834 24.002 50.7503 22.866C50.8336 22.8093 50.9175 22.7519 51.0002 22.6912C51.3805 23.4707 52.2149 24.2515 53.9374 24.2515C54.2174 24.2515 54.5238 24.2296 54.8433 24.1825V13.3195C54.8433 8.8858 50.4489 7.82715 47.8387 7.82715ZM50.7503 16.5502V20.126C49.1367 21.1652 47.7567 21.3464 46.9542 21.3464C46.0196 21.3464 44.3953 20.9724 44.2975 18.9538C44.126 15.4085 48.5422 15.9404 50.7503 16.4317V16.5502Z" fill="#00B9BF"/>
<path d="M62.6385 13.7678C61.0668 13.2192 60.9597 12.5712 61.1075 11.909C61.5335 9.99553 65.9403 10.6389 68.3865 11.911L69.5935 9.61514C68.2813 8.73185 65.9459 7.82666 63.3833 7.82666C61.1558 7.82666 59.1205 8.39853 57.9892 10.1503C56.9087 11.8227 57.0684 14.3557 58.907 15.7187C60.3095 16.7587 62.9248 17.5317 64.7702 17.9372C65.9072 18.1868 66.8593 18.6903 66.5686 19.9906C66.2454 21.4362 63.0218 22.538 58.6639 19.0797L57.1123 21.1499C57.1123 21.1499 59.5258 24.0157 63.513 24.2504C67.6097 24.4915 70.6341 22.1917 70.4298 19.0332C70.1824 15.1939 66.422 15.0882 62.6385 13.7678Z" fill="#00B9BF"/>
<path d="M130.31 7.82715C126.384 7.82715 123.587 9.73622 123.587 9.73622L124.82 12.0153C126.671 10.9695 129.416 10.4344 131.096 10.8258C132.331 11.1127 132.851 11.9791 133.115 12.7896C133.252 13.2106 133.222 14.5445 133.222 14.5445V14.1145C131.04 13.6084 122.817 12.5059 122.817 19.2046C122.817 21.6997 124.36 23.7235 127.696 24.1652C129.699 24.4307 131.554 24.002 133.222 22.866C133.305 22.8093 133.388 22.7519 133.471 22.6912C133.851 23.4707 134.686 24.2515 136.409 24.2515C136.689 24.2515 136.995 24.2296 137.314 24.1825V13.3195C137.314 8.8858 132.92 7.82715 130.31 7.82715ZM133.222 16.5502V20.126C131.607 21.1652 130.228 21.3464 129.426 21.3464C128.491 21.3464 126.867 20.9724 126.768 18.9538C126.597 15.4085 131.013 15.9404 133.222 16.4317V16.5502Z" fill="#00B9BF"/>
</g>
<defs>
<clipPath id="clip0_959_15805">
<rect width="137.541" height="32.2362" fill="white" transform="translate(0.229492 0.263794)"/>
</clipPath>
</defs>
</svg>
