<svg width="104" height="44" viewBox="0 0 104 44" fill="none" xmlns="http://www.w3.org/2000/svg">
<path d="M9.67391 35.3063C6.68183 35.3063 3.68975 35.3063 0.687897 35.3063C0.375 35.3063 0.375 35.3063 0.375 34.9934C0.375 33.3115 0.375 31.6297 0.375 29.9479C0.375 29.635 0.384778 29.6252 0.687897 29.6252C1.91015 29.6252 3.14218 29.6252 4.36444 29.6252C4.65778 29.6252 4.65778 29.635 4.65778 29.9186C4.65778 30.2119 4.66756 30.515 4.65778 30.8084C4.65778 30.955 4.71645 31.0235 4.86312 31.0137C4.91201 31.0137 4.9609 31.0137 5.01957 31.0137C9.39035 31.0137 13.7611 31.0137 18.1319 31.0137C19.0902 31.0137 19.8528 30.427 20.0582 29.5372C20.332 28.3639 19.4422 27.2394 18.2395 27.2394C12.4802 27.2394 6.71116 27.2394 0.951904 27.2394C0.854124 27.2394 0.766121 27.2394 0.668341 27.2394C0.394556 27.2394 0.375 27.2198 0.375 26.946C0.375 25.7238 0.375 24.4918 0.375 23.2695C0.375 22.937 0.384778 22.9273 0.717231 22.9273C5.38135 22.9273 10.0357 22.9273 14.6998 22.9273C15.6092 22.9273 16.3523 22.3406 16.5674 21.4606C16.8412 20.3068 15.9612 19.1529 14.778 19.1529C11.5024 19.1432 8.22676 19.1529 4.95112 19.1432C4.72622 19.1432 4.65778 19.2214 4.66756 19.4365C4.68711 19.7005 4.66756 19.9547 4.66756 20.2188C4.66756 20.5316 4.66756 20.5414 4.35466 20.5414C3.19107 20.5414 2.01771 20.5414 0.854124 20.5414C0.795455 20.5414 0.736787 20.5414 0.678119 20.5414C0.394556 20.5414 0.375 20.5219 0.375 20.2481C0.375 19.6712 0.375 19.0845 0.375 18.5076C0.375 17.3929 0.375 16.2782 0.375 15.1537C0.375 14.8604 0.384778 14.8604 0.668341 14.8604C5.45958 14.8604 10.2508 14.8408 15.042 14.8702C16.4305 14.8799 17.6626 15.408 18.7088 16.3173C20.0386 17.4516 20.772 18.9085 20.8893 20.6588C20.948 21.4899 20.8306 22.2917 20.5569 23.0739C20.4591 23.3477 20.4591 23.3477 20.7329 23.4748C23.0014 24.4918 24.4583 26.7798 24.4094 29.2634C24.3312 32.4804 21.7987 35.1107 18.5915 35.3063C18.4937 35.316 18.4057 35.3063 18.3079 35.3063C15.4332 35.3063 12.5486 35.3063 9.67391 35.3063Z" fill="#0D295F"/>
<path d="M40.6509 30.427C38.8126 30.427 36.9645 30.427 35.1263 30.427C34.9209 30.427 34.7938 30.4955 34.6765 30.6519C33.5618 32.1382 32.4275 33.6244 31.3128 35.1107C31.215 35.2476 31.1075 35.3063 30.9315 35.3063C29.3181 35.2965 27.695 35.3063 26.0816 35.2965C26.0034 35.2965 25.8958 35.3356 25.8567 35.2574C25.8078 35.1694 25.9154 35.1009 25.9642 35.0423C28.4576 31.7471 30.9608 28.4421 33.464 25.1469C36.3192 21.3726 39.1841 17.5982 42.0393 13.8337C42.2056 13.6186 42.2056 13.6186 42.3718 13.8337C43.7309 15.6231 45.0901 17.4125 46.4394 19.2018C49.9791 23.8757 53.5187 28.5496 57.0584 33.2235C57.5277 33.8396 57.9971 34.4556 58.4664 35.0814C58.5055 35.14 58.5935 35.1889 58.5544 35.2671C58.5153 35.3356 58.4273 35.3063 58.3589 35.3063C56.7259 35.3063 55.093 35.3063 53.4699 35.3063C53.3036 35.3063 53.2058 35.2378 53.1081 35.1205C51.5631 33.0769 50.0182 31.043 48.4733 28.9994C46.4394 26.3203 44.4056 23.6411 42.3816 20.9619C42.2153 20.737 42.2153 20.737 42.0491 20.9521C40.8073 22.5948 39.5655 24.2375 38.3237 25.8705C38.2748 25.9389 38.1672 25.9976 38.2161 26.0954C38.265 26.1834 38.3726 26.1442 38.4606 26.1442C39.9762 26.1442 41.4918 26.154 43.0074 26.1442C43.2225 26.1442 43.3691 26.2127 43.4963 26.3887C44.435 27.6501 45.3932 28.9016 46.3417 30.1532C46.3808 30.2021 46.4199 30.2608 46.459 30.3097C46.5079 30.3879 46.4786 30.427 46.3906 30.4368C46.3221 30.4368 46.2439 30.4368 46.1754 30.4368C44.3274 30.427 42.4891 30.427 40.6509 30.427Z" fill="#0D295F"/>
<path d="M85.3268 26.1145C85.3268 25.9678 85.4343 25.919 85.5126 25.8505C86.9891 24.6967 88.358 23.4256 89.4922 21.9197C90.3625 20.7562 91.0665 19.5046 91.4087 18.077C92.0052 15.6031 91.3598 13.4422 89.6976 11.5648C88.4851 10.1959 86.9891 9.23763 85.3561 8.46517C82.5498 7.13535 79.5675 6.42156 76.5168 5.99132C74.6785 5.72732 72.8305 5.59042 70.9726 5.53176C68.5281 5.46331 66.0934 5.54153 63.6587 5.76643C63.4142 5.78598 63.4142 5.78598 63.2871 5.73709C63.3458 5.65887 63.4338 5.65887 63.5218 5.63931C66.465 4.92552 69.4473 4.38773 72.4687 4.07483C73.9256 3.92816 75.3825 3.8206 76.8492 3.77171C78.0226 3.7326 79.196 3.71304 80.3693 3.75215C83.4396 3.84993 86.4708 4.21172 89.4238 5.08197C91.0469 5.56109 92.6016 6.17711 93.9803 7.19402C95.3884 8.23049 96.4444 9.54075 96.9333 11.2519C97.344 12.6991 97.1778 14.1071 96.5911 15.476C96.0435 16.7765 95.2124 17.8912 94.2932 18.9472C92.5919 20.9028 90.5972 22.5162 88.4949 24.0122C87.5464 24.6869 86.5686 25.3323 85.6006 25.9776C85.5028 26.0167 85.4148 26.0558 85.3268 26.1145Z" fill="#0D295F"/>
<path d="M67.3444 14.8601C71.4902 14.8601 75.6361 14.8601 79.782 14.8601C80.1536 14.8601 80.1536 14.8601 80.1536 15.2219C80.1536 16.4148 80.1536 17.598 80.1536 18.7909C80.1536 19.1429 80.1536 19.1527 79.8113 19.1527C71.5 19.1527 63.1985 19.1527 54.8871 19.1527C54.5547 19.1527 54.5547 19.1527 54.5547 18.8104C54.5547 17.6077 54.5547 16.405 54.5547 15.2023C54.5547 14.8601 54.5547 14.8601 54.9067 14.8601C59.0526 14.8601 63.1985 14.8601 67.3444 14.8601Z" fill="#0D295F"/>
<path d="M78.2373 1.95343C78.2862 1.84588 78.3644 1.85565 78.4329 1.84588C81.024 1.32764 83.6446 0.92674 86.2748 0.643177C87.6242 0.496507 88.9736 0.37917 90.323 0.300946C90.9683 0.261834 91.6137 0.252056 92.259 0.242278C93.9897 0.212944 95.7204 0.300946 97.4316 0.594287C98.4583 0.770292 99.4752 1.01474 100.433 1.46453C101.343 1.88499 102.135 2.45211 102.653 3.34191C103.005 3.94815 103.142 4.60328 103.171 5.29752C103.23 6.79356 102.77 8.17226 102.154 9.50208C101.313 11.2915 100.14 12.8657 98.869 14.3715C98.8298 14.4106 98.7907 14.4889 98.7321 14.4498C98.6538 14.4009 98.7223 14.3324 98.7418 14.2738C99.0841 13.3448 99.2894 12.3964 99.3774 11.4186C99.573 9.12073 98.9374 7.11623 97.2556 5.49308C96.1115 4.38816 94.7426 3.66459 93.2564 3.14635C91.3985 2.501 89.482 2.20766 87.5264 2.04144C85.5219 1.87521 83.5174 1.84588 81.5129 1.87521C80.496 1.88499 79.4693 1.94366 78.4524 1.97299C78.3742 1.98277 78.3058 1.99255 78.2373 1.95343Z" fill="#0D295F"/>
<path d="M65.2129 28.4322C65.2129 26.2419 65.2129 24.0516 65.2129 21.8711C65.2129 21.568 65.2129 21.568 65.5258 21.5582C66.748 21.5582 67.9703 21.5582 69.2023 21.5582C69.4957 21.5582 69.5054 21.568 69.5054 21.8418C69.5054 26.2321 69.5054 30.6225 69.5054 35.0128C69.5054 35.2181 69.4468 35.3061 69.2219 35.3061C67.9899 35.2964 66.7578 35.3061 65.5258 35.2964C65.2129 35.2964 65.2129 35.2964 65.2129 34.9932C65.2129 32.803 65.2129 30.6127 65.2129 28.4322Z" fill="#0D295F"/>
<path d="M66.3173 43.5002C66.1511 43.0602 65.9751 42.6299 65.8088 42.1899C65.5742 41.5935 65.3493 41.0068 65.1244 40.4103C65.095 40.3321 64.9777 40.2343 65.1048 40.1463C65.2319 40.0681 65.5057 40.1463 65.5546 40.2832C65.6719 40.5765 65.7893 40.8797 65.9066 41.173C66.0337 41.4957 66.1511 41.8183 66.288 42.141C66.3075 42.1997 66.3075 42.2975 66.3857 42.2877C66.4542 42.2877 66.464 42.1899 66.4835 42.1312C66.7084 41.5054 66.9333 40.8797 67.1582 40.2441C67.1875 40.1659 67.1973 40.0779 67.3049 39.9996C67.4124 40.293 67.52 40.5765 67.6178 40.8503C67.7742 41.2903 67.9307 41.7206 68.0969 42.1606C68.1165 42.2095 68.1262 42.2877 68.1947 42.2877C68.2631 42.2877 68.2729 42.2095 68.2925 42.1606C68.5369 41.5543 68.7716 40.9481 69.016 40.3419C69.0552 40.2441 69.0747 40.1365 69.2214 40.117C69.5049 40.0876 69.5343 40.1267 69.4365 40.3908C69.0551 41.3686 68.6738 42.3464 68.2925 43.3242C68.2729 43.3828 68.2631 43.4513 68.1653 43.4904C68.0773 43.2557 67.9893 43.021 67.9013 42.7864C67.7351 42.3268 67.5689 41.877 67.3929 41.4174C67.3733 41.349 67.3635 41.2414 67.2853 41.2414C67.1875 41.2414 67.1875 41.3588 67.168 41.4272C66.9431 42.0139 66.728 42.6104 66.5129 43.197C66.4738 43.2948 66.4444 43.3828 66.4053 43.4806C66.3662 43.5002 66.3369 43.5002 66.3173 43.5002Z" fill="#0D295F"/>
<path d="M45.7347 40.0094C45.7836 40.0778 45.7739 40.1365 45.7739 40.1952C45.7739 41.1828 45.7739 42.1703 45.7739 43.1481C45.7739 43.3144 45.7347 43.4024 45.5392 43.3926C45.373 43.3926 45.3241 43.3242 45.3241 43.1677C45.3338 42.6299 45.3241 42.0921 45.3241 41.5543C45.3241 41.4761 45.3436 41.3979 45.2947 41.3197C45.197 41.3294 45.1774 41.4174 45.1285 41.4761C44.8058 41.9063 44.4734 42.3268 44.1605 42.757C44.0529 42.9037 43.9943 42.8939 43.8867 42.757C43.564 42.317 43.2413 41.8868 42.9089 41.4566C42.8796 41.4174 42.8502 41.3392 42.7818 41.3588C42.7133 41.3783 42.7329 41.4566 42.7329 41.5152C42.7329 42.0628 42.7231 42.6006 42.7329 43.1481C42.7329 43.3437 42.6547 43.3926 42.4689 43.3926C42.2635 43.3828 42.2831 43.2459 42.2831 43.1188C42.2831 42.1508 42.2831 41.173 42.2831 40.205C42.2831 40.1463 42.2635 40.0681 42.3515 40.0094C42.4884 40.1854 42.6253 40.3614 42.7622 40.5374C43.1338 41.0165 43.5054 41.5054 43.8671 41.9943C43.9845 42.1606 44.0627 42.141 44.1703 41.9943C44.6103 41.4077 45.0503 40.8308 45.5001 40.2441C45.5881 40.1659 45.6272 40.0681 45.7347 40.0094Z" fill="#0D295F"/>
<path d="M7.10254 41.7697C7.10254 41.3004 7.11232 40.831 7.10254 40.3617C7.10254 40.1954 7.16121 40.127 7.32743 40.1368C7.73811 40.1563 8.14879 40.1172 8.56924 40.1661C9.3026 40.2541 9.61549 40.9484 9.19504 41.5644C9.14615 41.6426 9.0777 41.7013 9.21459 41.7599C9.77194 42.0044 9.69372 42.9822 9.11681 43.2657C8.95059 43.344 8.78436 43.4026 8.59858 43.4026C8.16834 43.4026 7.74789 43.4026 7.31766 43.4026C7.16121 43.4026 7.10254 43.344 7.10254 43.1875C7.10254 42.7084 7.10254 42.2391 7.10254 41.7697ZM8.22701 42.0044C8.22701 41.9946 8.22701 41.9946 8.22701 41.9848C8.09012 41.9848 7.95323 41.9946 7.81633 41.9848C7.611 41.9653 7.54255 42.0435 7.54255 42.2586C7.54255 42.9333 7.53277 42.9333 8.21723 42.9333C8.43235 42.9333 8.65725 42.9529 8.86258 42.8844C9.0777 42.8062 9.18526 42.64 9.1657 42.3955C9.14615 42.1706 9.03859 42.0435 8.79414 42.0142C8.59858 41.9848 8.4128 42.0044 8.22701 42.0044ZM8.06079 41.5155C8.1879 41.5155 8.32479 41.5253 8.45191 41.5155C8.72569 41.4959 8.93103 41.2808 8.94081 41.0266C8.94081 40.7626 8.79414 40.6257 8.47146 40.6061C8.23679 40.5866 7.99234 40.5963 7.75767 40.5866C7.60122 40.5768 7.53277 40.655 7.54255 40.8115C7.54255 40.8701 7.54255 40.9288 7.54255 40.9875C7.53277 41.5253 7.53277 41.5253 8.06079 41.5155Z" fill="#0D295F"/>
<path d="M27.4795 41.7598C27.4795 41.3002 27.4795 40.8308 27.4795 40.3713C27.4795 40.1953 27.5382 40.1268 27.724 40.1268C28.164 40.1366 28.604 40.1268 29.0538 40.1268C29.6013 40.1366 29.9631 40.4104 30.0609 40.8797C30.1783 41.4078 29.9729 41.8478 29.484 42.0824C29.3569 42.1411 29.3667 42.1998 29.4253 42.2976C29.6209 42.5811 29.8067 42.8647 29.9925 43.1482C30.0316 43.2069 30.1196 43.2754 30.0707 43.3536C30.0316 43.422 29.9338 43.3829 29.8654 43.3927C29.6894 43.422 29.572 43.3438 29.4742 43.1874C29.2885 42.894 29.0831 42.6105 28.8876 42.3269C28.8093 42.2096 28.7213 42.1607 28.5844 42.1607C27.7924 42.1704 27.9293 42.0727 27.9098 42.806C27.9098 42.9233 27.9098 43.0407 27.9098 43.158C27.9195 43.3242 27.8706 43.4123 27.6751 43.4123C27.4893 43.4123 27.46 43.3145 27.46 43.1678C27.46 43.158 27.46 43.1385 27.46 43.1287C27.4795 42.6593 27.4795 42.2096 27.4795 41.7598ZM28.6235 41.6913C28.7996 41.6913 28.9756 41.7011 29.1418 41.6913C29.4547 41.6718 29.6307 41.486 29.6502 41.1731C29.66 40.8504 29.4938 40.6451 29.1711 40.606C28.8191 40.5668 28.4573 40.5864 28.1053 40.5864C27.9782 40.5864 27.9195 40.6548 27.9195 40.7722C27.9195 41.0166 27.9195 41.2611 27.9195 41.5153C27.9195 41.6326 27.9782 41.6815 28.0955 41.6815C28.2715 41.6913 28.4475 41.6913 28.6235 41.6913Z" fill="#0D295F"/>
<path d="M56.7744 41.7499C56.7744 41.2903 56.7842 40.8405 56.7744 40.3809C56.7744 40.2049 56.8135 40.1169 57.0189 40.1267C57.4784 40.1365 57.9282 40.1267 58.3878 40.1365C58.7985 40.1463 59.1309 40.3125 59.2874 40.7036C59.4438 41.0752 59.4243 41.4565 59.1798 41.7988C59.0918 41.9259 58.9647 42.0236 58.818 42.0725C58.6322 42.1312 58.6518 42.2094 58.7496 42.3463C58.9451 42.6201 59.1309 42.9037 59.3265 43.1872C59.3558 43.2361 59.4243 43.2948 59.3852 43.3632C59.3558 43.4219 59.2776 43.3926 59.2287 43.4024C59.0234 43.4317 58.8865 43.3632 58.7691 43.1677C58.5931 42.8743 58.3878 42.6006 58.202 42.317C58.1336 42.2094 58.0456 42.1605 57.9184 42.1605C57.0775 42.1703 57.2535 42.0628 57.2242 42.8157C57.2242 42.9232 57.2144 43.0308 57.2242 43.1383C57.234 43.2948 57.2046 43.3926 57.0091 43.3926C56.8135 43.3926 56.7842 43.2948 56.794 43.1383C56.7842 42.6788 56.7744 42.2192 56.7744 41.7499ZM57.9087 41.6912C58.0847 41.6912 58.2607 41.701 58.4269 41.6912C58.7398 41.6716 58.9256 41.4859 58.9451 41.1827C58.9647 40.8503 58.7985 40.6449 58.466 40.6058C58.114 40.5667 57.7522 40.5961 57.4002 40.5863C57.2633 40.5863 57.2046 40.6547 57.2144 40.7818C57.2242 41.0165 57.2144 41.261 57.2144 41.4956C57.2144 41.6228 57.2633 41.6814 57.3904 41.6814C57.5664 41.6912 57.7424 41.6912 57.9087 41.6912Z" fill="#0D295F"/>
<path d="M52.4722 41.7697C52.4722 41.3004 52.482 40.831 52.4722 40.3617C52.4722 40.1954 52.5211 40.127 52.6971 40.1368C53.1469 40.1466 53.5967 40.1368 54.0464 40.1368C54.5647 40.1466 54.946 40.4203 55.0438 40.8506C55.1514 41.3786 54.9949 41.8968 54.4767 42.0924C54.3202 42.1511 54.3593 42.2195 54.4278 42.3173C54.6331 42.6106 54.8287 42.904 55.0242 43.1973C55.0536 43.2462 55.1122 43.2951 55.0829 43.3537C55.0536 43.432 54.9656 43.3929 54.9069 43.4026C54.7113 43.432 54.5745 43.3635 54.4669 43.1777C54.2909 42.8844 54.0856 42.6106 53.8998 42.3271C53.8216 42.2097 53.7335 42.151 53.5967 42.1608C53.4402 42.1706 53.2935 42.1706 53.1371 42.1608C52.9709 42.151 52.9024 42.2195 52.9024 42.3857C52.9122 42.6302 52.9024 42.8746 52.9024 43.1289C52.9024 43.2951 52.8926 43.4026 52.6775 43.4026C52.4722 43.4026 52.4624 43.2951 52.4624 43.1386C52.4722 42.6791 52.4722 42.2195 52.4722 41.7697ZM53.6064 41.6915C53.7824 41.6915 53.9584 41.7013 54.1247 41.6915C54.4376 41.6719 54.6233 41.4861 54.6429 41.183C54.6625 40.8506 54.4865 40.6452 54.1638 40.6061C53.8118 40.567 53.4598 40.5963 53.098 40.5866C52.9611 40.5866 52.9024 40.655 52.9122 40.7821C52.922 41.0168 52.9122 41.2612 52.9122 41.4959C52.9122 41.623 52.9611 41.6817 53.0882 41.6817C53.2544 41.6915 53.4304 41.6915 53.6064 41.6915Z" fill="#0D295F"/>
<path d="M64.1272 41.7694C64.1272 42.7081 63.3939 43.4708 62.4747 43.461C61.5556 43.4512 60.8223 42.6983 60.8223 41.7596C60.8223 40.8307 61.5654 40.0582 62.4747 40.0582C63.4037 40.0582 64.1272 40.8111 64.1272 41.7694ZM61.2427 41.7401C61.2329 42.4343 61.7805 42.9916 62.465 43.0112C63.1494 43.021 63.7361 42.4441 63.7361 41.7596C63.7361 41.0849 63.169 40.508 62.4943 40.508C61.8001 40.508 61.2525 41.0556 61.2427 41.7401Z" fill="#0D295F"/>
<path d="M37.4634 41.7498C37.4634 40.8111 38.187 40.0582 39.0865 40.0582C40.0252 40.0582 40.7586 40.8111 40.7488 41.7792C40.7488 42.7081 40.0154 43.4512 39.1061 43.461C38.1772 43.461 37.4634 42.7179 37.4634 41.7498ZM39.0963 43.0112C39.7906 43.0112 40.3577 42.4441 40.3479 41.7498C40.3381 41.0654 39.771 40.4982 39.0963 40.508C38.4118 40.5178 37.8545 41.0751 37.8545 41.7596C37.8545 42.4441 38.4216 43.0112 39.0963 43.0112Z" fill="#0D295F"/>
<path d="M47.3774 41.7695C47.3774 40.8112 48.0912 40.0681 49.0104 40.0681C49.9393 40.0681 50.6629 40.8112 50.6726 41.7793C50.6726 42.718 49.9393 43.4709 49.0201 43.4709C48.101 43.4611 47.3774 42.718 47.3774 41.7695ZM50.262 41.7597C50.262 41.0753 49.6948 40.5081 49.0201 40.5081C48.3357 40.5081 47.7588 41.085 47.7686 41.7793C47.7783 42.454 48.3357 43.0113 49.0006 43.0211C49.6948 43.0211 50.2717 42.4442 50.262 41.7597Z" fill="#0D295F"/>
<path d="M11.336 41.7598C11.336 41.3002 11.336 40.8308 11.336 40.3713C11.336 40.2051 11.3946 40.1268 11.5706 40.1268C12.1573 40.1366 12.744 40.1366 13.3307 40.1268C13.4969 40.1268 13.5654 40.1855 13.5654 40.3517C13.5654 40.5082 13.4969 40.5668 13.3405 40.5668C12.9004 40.5571 12.4604 40.5668 12.0106 40.5668C11.8444 40.5668 11.7662 40.6255 11.776 40.7917C11.7858 40.9384 11.7858 41.0851 11.776 41.222C11.7662 41.4078 11.8346 41.486 12.0302 41.4762C12.3627 41.4664 12.6951 41.4762 13.0276 41.4762C13.1742 41.4762 13.2329 41.5251 13.2329 41.6815C13.2329 41.8282 13.184 41.8967 13.0373 41.8967C12.6853 41.8967 12.3431 41.9064 11.9911 41.8967C11.8151 41.8967 11.7369 41.9553 11.7466 42.1411C11.7564 42.3464 11.7564 42.5518 11.7466 42.7473C11.7369 42.9136 11.8053 42.9625 11.9618 42.9625C12.4115 42.9527 12.8613 42.9625 13.3111 42.9625C13.4676 42.9625 13.5556 42.9918 13.5556 43.1776C13.5556 43.3634 13.4676 43.4123 13.3013 43.4025C12.7244 43.3927 12.1378 43.3927 11.5609 43.4025C11.3751 43.4025 11.3164 43.334 11.3164 43.158C11.336 42.6887 11.336 42.2291 11.336 41.7598Z" fill="#0D295F"/>
<path d="M23.6069 41.7598C23.6069 41.3002 23.6069 40.8308 23.6069 40.3713C23.6069 40.1953 23.6656 40.1268 23.8514 40.1268C24.4381 40.1366 25.0247 40.1366 25.6114 40.1268C25.7874 40.1268 25.8363 40.1953 25.8363 40.3615C25.8363 40.5277 25.7679 40.5766 25.6114 40.5668C25.1714 40.5571 24.7314 40.5668 24.2816 40.5668C24.1154 40.5668 24.0469 40.6353 24.0469 40.8015C24.0567 40.958 24.0567 41.1046 24.0469 41.2611C24.0372 41.4273 24.1056 41.4958 24.2816 41.486C24.6238 41.4762 24.9661 41.486 25.2985 41.486C25.4452 41.486 25.5039 41.5446 25.5039 41.6913C25.5039 41.838 25.455 41.9064 25.2985 41.9064C24.9465 41.9064 24.6043 41.9162 24.2523 41.9064C24.0763 41.9064 24.0078 41.9749 24.0176 42.1509C24.0274 42.3464 24.0274 42.542 24.0176 42.7376C24.0078 42.9233 24.0861 42.9722 24.2621 42.9722C24.7021 42.9625 25.1421 42.9722 25.5919 42.9722C25.7483 42.9722 25.8363 43.0113 25.8363 43.1874C25.8363 43.3536 25.7679 43.4123 25.6017 43.4123C25.015 43.4025 24.4283 43.4025 23.8416 43.4123C23.6558 43.4123 23.6069 43.334 23.6069 43.1678C23.6069 42.6887 23.6069 42.2193 23.6069 41.7598Z" fill="#0D295F"/>
<path d="M1.97816 42.6399C1.96839 42.6399 1.94883 42.6399 1.93905 42.6399C1.42082 42.5519 1.03947 42.6888 0.912359 43.2559C0.883025 43.383 0.531016 43.4612 0.443014 43.3732C0.374568 43.3146 0.433236 43.2559 0.46257 43.1972C0.755911 42.5714 1.04925 41.9554 1.34259 41.3296C1.52838 40.9385 1.71416 40.5474 1.89994 40.1562C1.9195 40.1074 1.93905 40.0487 1.98794 40.0487C2.05639 40.0389 2.07595 40.1171 2.0955 40.166C2.56485 41.1536 3.02441 42.1412 3.48398 43.1385C3.51332 43.2168 3.62087 43.295 3.52309 43.383C3.44487 43.4514 3.14175 43.3928 3.09286 43.295C3.01464 43.1483 2.93641 43.0017 2.87774 42.8452C2.81908 42.6985 2.7213 42.6301 2.55507 42.6399C2.35951 42.6496 2.17373 42.6399 1.97816 42.6399ZM1.96839 42.2194C2.10528 42.2194 2.24217 42.2194 2.37906 42.2194C2.4964 42.2194 2.56485 42.1901 2.4964 42.0532C2.34973 41.7403 2.20306 41.4176 2.06617 41.1047C2.04661 41.0656 2.03683 41.0167 1.97816 41.0167C1.92927 41.0167 1.9195 41.0754 1.89994 41.1145C1.75327 41.4274 1.61638 41.7501 1.46971 42.063C1.41104 42.1803 1.45993 42.2194 1.57727 42.2194C1.71416 42.2194 1.84127 42.2194 1.96839 42.2194Z" fill="#0D295F"/>
<path d="M16.3232 41.9651C16.3232 41.5642 16.3232 41.1633 16.3232 40.7722C16.3232 40.6255 16.2743 40.5571 16.1179 40.5668C15.8832 40.5766 15.6387 40.5668 15.4041 40.5668C15.2378 40.5766 15.2085 40.4788 15.2085 40.3517C15.2085 40.2246 15.2378 40.1268 15.4041 40.1268C16.1765 40.1268 16.9588 40.1268 17.7312 40.1268C17.8975 40.1268 17.917 40.2246 17.917 40.3517C17.917 40.4886 17.8779 40.5668 17.7215 40.5668C17.5259 40.5571 17.3303 40.5668 17.1348 40.5668C16.7925 40.5668 16.7925 40.5668 16.7925 40.9189C16.7925 41.662 16.7925 42.3953 16.7925 43.1385C16.7925 43.2754 16.7925 43.3927 16.5872 43.4025C16.3916 43.4025 16.3134 43.3536 16.3232 43.1482C16.333 42.7473 16.3232 42.3562 16.3232 41.9651Z" fill="#0D295F"/>
<path d="M20.3808 41.9648C20.3808 41.5737 20.3808 41.1826 20.3808 40.7915C20.3808 40.6253 20.3222 40.5568 20.1462 40.5666C19.9115 40.5764 19.667 40.5666 19.4324 40.5666C19.2661 40.5666 19.2466 40.459 19.2466 40.3417C19.2466 40.2244 19.2759 40.1364 19.4226 40.1364C20.2048 40.1364 20.9871 40.1364 21.7693 40.1364C21.9258 40.1364 21.9453 40.2244 21.9453 40.3417C21.9453 40.4688 21.9355 40.5764 21.7595 40.5666C21.5249 40.5568 21.3 40.5764 21.0653 40.5666C20.8697 40.5568 20.8111 40.635 20.8111 40.8208C20.8208 41.5933 20.8111 42.3657 20.8111 43.148C20.8111 43.2849 20.8111 43.4022 20.6057 43.4022C20.4297 43.4022 20.3613 43.3435 20.3613 43.1675C20.3906 42.7569 20.3808 42.3657 20.3808 41.9648Z" fill="#0D295F"/>
<path d="M34.5884 41.9844C34.5884 41.6031 34.5786 41.2119 34.5884 40.8306C34.5981 40.6155 34.5199 40.547 34.3146 40.5666C34.0897 40.5764 33.8648 40.5666 33.6399 40.5666C33.4737 40.5764 33.4541 40.4786 33.4541 40.3515C33.4541 40.2146 33.4737 40.1364 33.6399 40.1364C34.4124 40.1461 35.1848 40.1461 35.9671 40.1364C36.1333 40.1364 36.1528 40.2244 36.1528 40.3515C36.1528 40.4884 36.1333 40.5764 35.9671 40.5666C35.7617 40.5568 35.5466 40.5666 35.3413 40.5666C35.0284 40.5666 35.0284 40.5666 35.0284 40.8697C35.0284 41.6324 35.0186 42.3951 35.0284 43.148C35.0284 43.3435 34.9599 43.4022 34.7741 43.3924C34.6275 43.3827 34.5884 43.324 34.5884 43.1969C34.5981 42.7862 34.5884 42.3853 34.5884 41.9844Z" fill="#0D295F"/>
</svg>
