<svg width="92" height="34" viewBox="0 0 92 34" fill="none" xmlns="http://www.w3.org/2000/svg">
<path d="M11.4819 7.40111C12.8232 6.878 13.555 5.91076 13.555 4.2222V4.20133C13.555 1.66774 11.7039 0.418823 7.41769 0.418823H0.900391V14.8469H7.88268C11.929 14.8469 13.941 13.4579 13.941 10.6426C13.941 8.8542 13.0751 7.88399 11.4819 7.40111ZM4.90496 3.53813H7.43856C8.92891 3.53813 9.51163 3.87942 9.51163 4.76468V4.78555C9.51163 5.69168 8.84694 6.05384 7.4788 6.05384H4.90496V3.53813ZM9.71432 10.1955C9.71432 11.1017 9.17183 11.5368 7.23885 11.5368H4.90496V8.8542H7.27909C9.11073 8.8542 9.71432 9.21636 9.71432 10.1627V10.1955Z" fill="#494C4F"/>
<path d="M19.4342 0.418823L13.8662 14.8469H18.0526L18.917 12.3312H24.33L25.2361 14.8469H29.421L23.7815 0.418823H19.4342ZM19.9975 9.21189L21.5877 4.60373L23.2182 9.21189H19.9975Z" fill="#494C4F"/>
<path d="M37.8615 8.02569C37.8615 10.4803 37.2177 11.3045 35.6483 11.3045C34.1192 11.3045 33.374 10.4192 33.374 8.02569V0.418945H29.1504V8.14641C29.1504 13.0362 31.2369 15.1898 35.6498 15.1898C39.7557 15.1898 42.109 13.0556 42.109 8.14641V0.418945H37.8615V8.02569Z" fill="#494C4F"/>
<path d="M51.1247 5.93313C48.8505 5.61121 47.7431 5.40852 47.7431 4.46364C47.7431 3.7587 48.2871 3.23559 49.6806 3.23559C51.2291 3.23559 51.9936 3.71847 52.1352 4.92565V4.94651H56.2963V4.92565C55.9743 1.66625 53.7806 0.0760498 49.7566 0.0760498C45.7714 0.0760498 43.6387 1.94793 43.6387 4.66484C43.6387 7.7439 45.9324 8.56806 48.77 8.98685C51.165 9.30877 52.4124 9.50997 52.4124 10.5771C52.4124 11.4012 51.7477 11.8841 50.2991 11.8841C48.609 11.8841 47.7238 11.2209 47.6031 9.91236V9.85275H43.2363V9.87212C43.4778 13.3327 45.2483 15.1852 50.1381 15.1852C54.3841 15.1852 56.5168 13.2478 56.5168 10.355C56.5168 7.24016 54.1054 6.3549 51.1247 5.93313Z" fill="#494C4F"/>
<path d="M67.4454 8.8899C67.2845 10.5412 66.4991 11.4861 64.7285 11.4861C62.8164 11.4861 61.8298 10.3803 61.8298 8.08511V7.26095C61.8298 4.86596 62.8373 3.73925 64.7479 3.73925C66.4797 3.73925 67.2815 4.62452 67.4305 6.19386V6.33395H71.8181V6.03588C71.5305 2.02833 68.8598 0.116211 64.7479 0.116211C60.4423 0.116211 57.624 2.5112 57.624 7.09999V8.24607C57.624 12.9556 60.2411 15.1896 64.6287 15.1896C69.0163 15.1896 71.5916 13.1568 71.8733 8.95101V8.7051H67.4469L67.4454 8.8899Z" fill="#494C4F"/>
<path d="M86.5245 5.77067V0.418823H82.4797V5.77067H82.4782H77.5079V0.418823H73.4229V14.8469H77.5079V9.55467H82.4782H82.4797V14.8469H86.5245V9.55467H91.4948V5.77067H86.5245Z" fill="#494C4F"/>
<path d="M86.5243 5.77075H82.4795V9.55326H86.5243V5.77075Z" fill="#00A1E4"/>
<path d="M10.1331 25.4822H2.86915V19.1914H0.900391V33.6195H2.86915V27.369H10.1331V33.6195H12.1019V19.1914H10.1331V25.4822Z" fill="#00A1E4"/>
<path d="M19.7323 21.7068C16.1406 21.7068 13.8887 24.1212 13.8887 27.7949V28.0378C13.8887 31.631 15.8366 33.9232 19.6712 33.9232C22.5327 33.9232 24.5015 32.564 25.1706 30.169H23.0409C22.5938 31.5282 21.4373 32.2555 19.7532 32.2555C17.3582 32.2555 15.9781 30.8546 15.8366 28.4804H25.3331V27.5519C25.3331 24.4267 23.5476 21.7068 19.7323 21.7068ZM15.8574 26.923C16.1004 24.6696 17.5207 23.3104 19.7532 23.3104C21.9857 23.3104 23.2019 24.7307 23.3718 26.923H15.8574Z" fill="#00A1E4"/>
<path d="M32.5986 21.7069C29.3199 21.7069 27.3437 23.4953 27.1604 26.0095H29.1291C29.2513 24.3851 30.4272 23.2494 32.6806 23.2494C34.7671 23.2494 35.6837 24.1213 35.6837 25.3359C35.6837 26.4105 34.5465 26.6131 32.5182 26.8978C30.1843 27.2421 29.2305 27.4656 28.2975 28.0752C27.8285 28.3655 27.4436 28.7733 27.1809 29.2583C26.9182 29.7432 26.7867 30.2884 26.7997 30.8398C26.7997 32.7057 28.0993 33.9233 30.5941 33.9233C33.1724 33.9233 34.9579 32.5239 35.7686 30.7369L35.9922 33.6193H37.5749L37.5958 25.6444C37.5913 23.3299 36.0488 21.7069 32.5986 21.7069ZM35.7045 28.1408C35.7045 30.0886 33.8565 32.3614 31.1992 32.3614C29.6776 32.3614 28.9056 31.6714 28.9056 30.5954C28.9056 29.9262 29.1694 29.4388 29.758 29.0528C30.387 28.6266 31.1783 28.4448 32.9444 28.1586C34.2023 27.9559 35.1799 27.7324 35.7045 27.2868V28.1408Z" fill="#00A1E4"/>
<path d="M40.0674 26.0321V33.6195H42.0361V25.9665V18.5416H40.0674V26.0321Z" fill="#00A1E4"/>
<path d="M47.7187 19.2106H46.2165C46.1971 19.6368 46.136 20.7128 46.0346 21.0586C45.8856 21.7874 45.7366 21.9528 45.0808 22.0318C44.7827 22.1138 44.0048 22.1138 43.6396 22.1138V23.777H45.8752V29.1348C45.8752 32.585 46.7277 33.6193 49.8321 33.6193H51.151V31.7727H50.2777C48.2076 31.7727 47.7217 31.3465 47.7217 28.8502V23.783H51.1495V22.0318H47.7217L47.7187 19.2106Z" fill="#00A1E4"/>
<path d="M59.2043 21.707C57.1551 21.707 55.7139 22.7622 55.003 24.3658V18.5415H53.1162V33.6194H55.003V27.5313C55.003 25.1363 56.2817 23.4313 58.4934 23.4313C60.7662 23.4313 61.6798 24.9142 61.6798 27.0246V33.6194H63.6485V26.5372C63.6485 23.5938 62.1671 21.707 59.2043 21.707Z" fill="#00A1E4"/>
</svg>
