<svg width="120" height="40" viewBox="0 0 120 40" fill="none" xmlns="http://www.w3.org/2000/svg">
<path fill-rule="evenodd" clip-rule="evenodd" d="M23.6531 31.9249C24.9468 36.2161 28.9506 39.1404 35.0311 39.1404H91.0025C93.6702 39.1404 97.39 39.717 103.109 35.1338C113.839 26.5265 114.843 11.9813 113.754 7.90376C112.767 4.20477 109.749 1.5042 105.841 1.5042H46.5987C43.6464 1.5042 40.4419 1.35413 34.872 6.28004C30.1775 10.432 27.6077 15.3254 24.6952 22.3367C25.3286 18.7756 22.6205 15.2788 22.6205 15.2788C24.2528 13.7673 25.2719 11.6088 25.2719 9.20706C25.2719 4.64483 21.5831 0.949219 17.0316 0.949219C12.4822 0.949219 8.45412 4.49409 8.45412 9.05497C8.45412 9.99662 8.61397 10.8957 8.89996 11.7407C8.89996 11.7393 5.90184 9.83843 4.95485 9.36322C4.00719 8.89138 2.35131 8.49187 1.55878 9.52343C0.772326 10.5523 0.692062 12.4484 1.55878 13.8754C2.42753 15.2984 5.27051 19.4915 8.03256 20.9969C8.03256 20.9969 7.71555 24.5553 9.92721 25.8992C9.92721 25.8992 9.84897 28.353 10.8749 28.9837C10.8749 28.9837 11.0354 30.1761 11.5865 30.4885V33.0214C11.5865 33.02 8.58295 35.5536 10.083 37.7668C11.5865 39.9807 15.137 38.8741 15.8499 38.3988C15.8499 38.3988 20.9039 39.8245 21.9251 37.6079C22.9544 35.3927 22.0843 33.813 20.9039 33.0214V30.8839L23.6531 31.9249Z" fill="#FEFEFE"/>
<path fill-rule="evenodd" clip-rule="evenodd" d="M35.3471 35.8695C27.295 35.8695 25.3646 30.6245 28.5596 22.5782C31.0067 16.4092 33.2163 12.21 37.2437 8.65157C41.8539 4.5747 44.5046 4.6984 46.9503 4.6984H104.419C107.659 4.6984 110.815 6.83114 110.975 9.99813C111.133 13.1611 109.362 25.4228 100.475 32.5463C95.7364 36.344 92.6546 35.8695 90.4443 35.8695H35.3471Z" fill="#F49831"/>
<path fill-rule="evenodd" clip-rule="evenodd" d="M31.2376 34.4169C32.3242 34.8502 33.6908 35.0787 35.346 35.0787H90.4425C90.5053 35.0787 90.8115 35.0841 91.119 35.0902C93.1553 35.1308 95.9228 35.1855 99.9839 31.9307C106.16 26.9804 108.802 19.4398 109.749 14.4226C109.935 13.4364 110.055 12.5569 110.123 11.8194C110.19 11.0927 110.207 10.4999 110.189 10.0767L110.187 10.0348C110.09 8.11364 108.655 6.62715 106.814 5.9275C106.442 5.78622 106.055 5.67671 105.661 5.60303C105.262 5.52867 104.859 5.48879 104.461 5.48609V5.48947H104.418H46.9492V5.48609H46.7388C44.4914 5.48271 42.0174 5.47933 37.7627 9.24186V9.24457C35.8141 10.967 34.3032 12.8469 32.9832 15.0432C31.6423 17.2739 30.4943 19.8285 29.289 22.8684C28.3602 25.2066 27.8827 27.2893 27.8827 29.0489C27.8827 30.3712 28.1552 31.4967 28.7123 32.3937C29.2607 33.2779 30.0991 33.9627 31.2376 34.4169ZM35.346 36.6605C33.4965 36.6605 31.9364 36.3922 30.6582 35.8818C29.1905 35.2964 28.1006 34.3987 27.3741 33.2279C26.6558 32.0699 26.3037 30.6645 26.3037 29.0489C26.3037 27.098 26.8217 24.8206 27.8267 22.2877C29.0678 19.1593 30.2502 16.5283 31.6322 14.2279C33.0358 11.8938 34.6438 9.89351 36.7206 8.05821L36.7226 8.06024C41.4245 3.90225 44.2095 3.90631 46.7388 3.90969L46.9492 3.91036V3.90698H104.418H104.461L104.463 3.91036C104.968 3.91307 105.468 3.96174 105.95 4.05232C106.438 4.14358 106.914 4.2781 107.369 4.45048C109.761 5.359 111.629 7.34775 111.759 9.96044L111.761 10.0023V10.0051C111.782 10.4877 111.763 11.1542 111.689 11.9614C111.616 12.7583 111.489 13.6905 111.296 14.7133C110.303 19.9813 107.514 27.9112 100.964 33.1609C96.4576 36.7727 93.3638 36.7112 91.088 36.6666C90.939 36.6639 90.8041 36.6605 90.4425 36.6605H35.346Z" fill="#1D1D1B"/>
<path fill-rule="evenodd" clip-rule="evenodd" d="M41.4248 26.2153L45.1332 20.5978H50.1075C51.0552 20.5978 51.9226 21.313 51.5321 23.0909C51.1362 24.8714 48.2534 26.2153 47.386 26.2153H41.4248ZM47.7428 17.1591L50.5433 13.0058H54.489C55.0435 13.0058 56.5827 13.0829 56.5011 14.7039C56.4255 16.329 53.6217 17.1591 52.6753 17.1591C51.7277 17.1591 47.7428 17.1591 47.7428 17.1591ZM32.8203 29.8561H52.3995C54.6105 29.8561 59.976 28.1486 60.5278 23.5289C60.7672 21.5483 58.909 19.9658 57.8453 19.569C57.8453 19.569 64.829 18.701 64.829 13.4783C64.829 11.0678 62.2268 9.87939 60.2519 9.87939H42.8055L32.8203 29.8561Z" fill="#1D1D1B"/>
<path fill-rule="evenodd" clip-rule="evenodd" d="M60.7871 29.856H70.1025L75.7082 14.3888H69.9825L60.7871 29.856Z" fill="#1D1D1B"/>
<path fill-rule="evenodd" clip-rule="evenodd" d="M74.733 13.9514C76.3194 13.7432 77.4721 12.5149 77.3035 11.2028C77.1267 9.89545 75.7029 9.00112 74.1151 9.2073C72.526 9.4128 71.3801 10.6438 71.5487 11.9559C71.7187 13.2679 73.1459 14.1589 74.733 13.9514Z" fill="#1D1D1B"/>
<path fill-rule="evenodd" clip-rule="evenodd" d="M95.773 18.7013H99.8402L107.811 10.0757H99.6055L98.7772 11.5798C98.7772 11.5798 97.3129 9.40308 92.1058 9.40308C86.894 9.40308 79.3194 12.37 77.4983 19.1751C75.6859 25.9803 80.5052 30.1761 86.7382 30.1761C92.9691 30.1761 96.6849 28.353 99.7613 24.871L97.356 22.578C97.356 22.578 93.9593 27.8021 87.6089 26.2939C84.8786 25.6511 84.9204 20.0478 88.4736 16.3286C92.0248 12.61 94.4341 13.0453 95.2624 13.5185C96.09 13.9923 97.5908 14.9448 95.773 18.7013Z" fill="#1D1D1B"/>
<path fill-rule="evenodd" clip-rule="evenodd" d="M11.0352 9.52333C11.0352 6.37797 13.5739 3.8241 16.7164 3.8241C19.8568 3.8241 22.4024 6.37797 22.4024 9.52333C22.4024 12.668 19.8568 15.2185 16.7164 15.2185C13.5739 15.2185 11.0352 12.668 11.0352 9.52333Z" fill="#1D1D1B"/>
<path fill-rule="evenodd" clip-rule="evenodd" d="M12.8906 8.41686C12.8906 7.30148 13.789 6.40039 14.8999 6.40039C16.0115 6.40039 16.9106 7.30148 16.9106 8.41686C16.9106 9.5275 16.0115 10.432 14.8999 10.432C13.789 10.432 12.8906 9.5275 12.8906 8.41686Z" fill="#FEFEFE"/>
<path fill-rule="evenodd" clip-rule="evenodd" d="M3.21377 12.4748C3.75876 14.9192 6.54711 17.4426 8.66434 19.0379C8.82419 19.1562 9.17493 19.5693 9.10006 18.8385C9.10006 18.8385 9.10006 18.4809 9.37525 18.7567C9.65179 19.0379 21.508 28.1955 22.0456 28.6119C22.3808 28.8641 22.6864 28.9837 22.9143 29.0824C23.3231 29.2697 23.6253 29.4758 23.8377 29.5597C24.2175 29.6989 24.3146 29.6192 24.119 29.3041C24.0252 29.1581 23.7102 28.6356 23.5868 28.4321C23.3716 28.088 23.2111 27.8204 22.9298 27.5831C22.5306 27.2377 11.8223 17.8692 11.8223 17.8692C11.8223 17.8685 4.44674 11.3777 4.08521 10.9849C3.81069 10.6895 3.53415 10.432 3.43702 10.8883C3.36688 11.2026 3.16048 12.2098 3.21377 12.4748Z" fill="#1D1D1B"/>
<path fill-rule="evenodd" clip-rule="evenodd" d="M16.1768 16.1677C16.2726 16.3502 16.3933 16.6456 16.3825 16.7612C16.2793 17.7474 15.9252 17.834 15.8085 17.546C15.6244 17.085 15.4619 16.7524 15.3155 16.5124C15.7789 16.6774 16.0439 16.3975 16.1768 16.1677ZM17.9197 16.6327L17.8995 16.6841C17.8226 16.8876 17.4671 17.7589 17.2499 17.7589C17.0314 17.7589 16.7744 16.8599 16.8547 16.7233C16.8978 16.6469 16.9471 16.5259 17.0017 16.3907C17.2007 16.5888 17.5116 16.7754 17.9197 16.6327ZM20.4848 26.0195L21.0089 25.8904C20.8126 25.3956 21.2456 25.0636 21.2928 24.8331C21.3974 24.3768 21.5114 20.0654 21.1559 19.2529C20.8659 18.5958 18.7271 15.971 18.4559 15.9331C18.2812 15.9067 18.1328 16.144 18.0303 16.3651C17.5872 16.6246 17.2614 16.3941 17.0827 16.192C17.1056 16.1386 17.1285 16.0832 17.1528 16.0318C17.2681 15.7736 17.0496 15.7546 16.9113 15.7736C16.7387 15.7945 16.2328 15.7736 16.2328 15.7736C16.0763 15.7587 16.0338 15.8696 16.0608 15.9649C15.9684 16.1744 15.6777 16.6213 15.0174 16.1176L15.0147 16.121C14.6869 15.8114 14.4386 15.9743 14.1715 16.0318C13.7169 16.1264 12.8671 16.3103 12.318 16.5618C11.7656 16.8234 10.6386 22.4787 10.559 23.0357C10.4794 23.5859 10.6561 23.5859 10.7782 23.6833C10.8908 23.7827 11.5862 24.1768 11.9801 24.3768C12.3747 24.5749 12.4314 24.7142 12.4314 24.8933V27.5033C12.4314 27.7378 12.343 28.3929 12.8516 28.3699C13.3696 28.353 13.3797 28.6653 13.4013 28.8066C13.4208 28.9465 13.2407 29.9544 13.6974 29.9936C14.15 30.0335 14.1898 30.0653 14.1898 30.4715V33.9698C14.1898 34.4666 14.1803 34.666 14.0515 34.7411C13.0242 35.3332 12.0361 36.6446 12.6101 36.936C13.4208 37.3504 15.2966 35.632 15.9084 35.6516C16.2287 35.6624 16.3825 35.8889 16.8371 35.9119C17.1103 35.9207 17.3093 36.1654 18.0195 36.4824C18.7304 36.8008 19.3152 36.6359 19.3415 36.0275C19.3591 35.5935 18.9841 35.2568 18.4917 34.9594C17.9986 34.6606 17.9393 34.4233 17.9393 34.4233C17.9393 32.7253 18.1005 32.1318 18.1005 31.933C18.1005 30.1139 18.4235 30.1842 18.7095 29.9328C18.8465 29.8158 18.75 29.2061 18.75 28.9465C18.75 28.6876 18.6906 28.4125 19.0839 28.4125C19.4798 28.4125 19.8744 28.2942 19.8346 27.9386C19.786 27.4884 19.7941 26.7529 20.1826 27.1396L20.4848 26.0195Z" fill="#1D1D1B"/>
<path fill-rule="evenodd" clip-rule="evenodd" d="M11.2584 23.52C11.5336 23.7782 11.9963 23.8404 12.3551 23.9621C12.7301 24.0946 12.6721 23.2841 12.6721 23.1509C12.6721 22.8143 12.1433 22.575 12.1979 22.241C12.3079 21.5711 12.6815 20.4409 12.9136 19.9237C12.9257 19.869 13.008 19.7385 13.0768 19.7385C13.1449 19.7385 13.1658 19.7872 13.1692 19.9758C13.0242 22.5682 12.867 24.8219 12.867 27.4644C12.867 28.2938 13.5975 28.112 13.8963 28.112C15.5643 28.1403 17.2283 28.137 18.9988 28.0079C19.2868 27.9889 19.4062 27.5955 19.4224 27.4022C19.4798 26.1421 19.2261 24.8638 19.3003 23.5457C19.3489 22.7291 19.2019 20.9972 19.5749 20.9972C19.9532 20.9972 19.3239 24.8328 19.9323 25.723C21.4324 25.308 21.0985 22.0686 20.9603 20.0035C20.9036 19.1558 19.2592 17.1799 18.5139 16.5452C18.2124 17.0819 17.8556 17.6957 17.5244 18.2257C17.2681 18.6427 16.8762 19.3917 16.5376 19.3917C16.2631 19.3917 15.6142 18.0492 15.3094 17.2989C15.1738 16.9548 14.8514 16.3187 14.527 16.366C13.8552 16.4634 12.4718 16.6837 12.318 17.2178C11.7305 19.191 11.2482 20.9397 10.9933 23.0258C10.9474 23.3976 11.085 23.3523 11.2584 23.52Z" fill="#F49831"/>
<path fill-rule="evenodd" clip-rule="evenodd" d="M16.8961 28.3528C17.2508 28.3528 17.6252 28.4582 17.9408 28.4711C18.4852 28.488 18.3361 29.0267 18.3543 29.3039C18.3745 29.5777 18.0623 29.6987 17.7635 29.6987C17.4687 29.6987 17.1726 29.7176 16.9359 29.6987C16.7018 29.6811 16.3841 29.6 16.3841 29.2627C16.3841 29.0024 16.3888 28.9159 16.3841 28.8375C16.3619 28.5819 16.5001 28.3528 16.8961 28.3528Z" fill="#F49831"/>
<path fill-rule="evenodd" clip-rule="evenodd" d="M14.4307 28.4711C14.627 28.4562 15.1767 28.4711 15.3561 28.4711C15.5348 28.4711 15.69 28.588 15.69 28.8469C15.69 29.1079 15.8087 29.6872 14.9885 29.6872C14.5373 29.6872 14.0132 29.6 13.9134 29.4993C13.8169 29.3999 13.8297 29.1106 13.8553 28.8868C13.8965 28.5231 14.1906 28.488 14.4307 28.4711Z" fill="#F49831"/>
<path fill-rule="evenodd" clip-rule="evenodd" d="M16.5214 30.0945C16.7393 29.9633 17.1622 30.0242 17.3794 30.0147C17.6161 30.0019 17.8185 30.1932 17.8029 30.884C17.7834 31.5756 17.7213 31.7554 17.7031 31.971C17.6876 32.1887 17.5251 32.3658 17.1939 32.3901C16.8553 32.4097 16.5787 32.3901 16.4425 32.3475C16.3022 32.311 16.2219 32.1691 16.2037 31.7736C16.1815 31.3788 16.2219 30.5474 16.2462 30.3899C16.2644 30.2297 16.3218 30.2128 16.5214 30.0945Z" fill="#FEFEFE"/>
<path fill-rule="evenodd" clip-rule="evenodd" d="M14.7073 30.0336C14.9589 30.0336 15.3784 29.9755 15.6152 30.0147C15.8506 30.0539 15.9706 30.1925 15.9484 30.884C15.9302 31.5755 15.916 31.7925 15.8991 32.0122C15.8755 32.2285 15.6725 32.3658 15.3386 32.3901C15 32.4097 14.8038 32.3901 14.6662 32.3475C14.5279 32.311 14.4476 32.169 14.4308 31.7736C14.4078 31.3788 14.4476 30.5474 14.4658 30.3899C14.4867 30.2296 14.4476 30.0336 14.7073 30.0336Z" fill="#FEFEFE"/>
<path fill-rule="evenodd" clip-rule="evenodd" d="M16.8433 30.8838C16.7981 30.9508 16.7172 31.0684 16.7125 31.163C16.7017 31.426 16.8507 31.5382 17.0227 31.5382C17.1941 31.5382 17.2824 31.3854 17.331 31.163C17.3795 30.9602 17.1941 30.7852 17.0227 30.7852C16.9256 30.7852 16.9 30.8027 16.8433 30.8838Z" fill="#1D1D1B"/>
<path fill-rule="evenodd" clip-rule="evenodd" d="M15.0694 30.9301C15.0559 30.9301 14.9723 30.9301 14.9541 31.2194C14.9413 31.4385 15.0559 31.5973 15.236 31.6135C15.3278 31.623 15.5099 31.4283 15.5099 31.2093C15.5099 30.9923 15.4748 30.8226 15.2913 30.8226C15.2124 30.8226 15.1011 30.9301 15.0694 30.9301Z" fill="#1D1D1B"/>
<path fill-rule="evenodd" clip-rule="evenodd" d="M17.1283 34.3672C17.2544 34.3672 17.564 34.1549 17.564 34.0265L17.5984 33.17C17.6153 32.9503 17.419 32.7793 17.2207 32.7793L16.4228 32.8043C16.2953 32.8043 16.1436 33.1511 16.1436 33.2802V33.9481C16.1436 34.1739 16.5509 34.3672 16.6751 34.3672H17.1283Z" fill="#F49831"/>
<path fill-rule="evenodd" clip-rule="evenodd" d="M15.5991 34.3516C15.7239 34.3516 15.8271 34.2502 15.8271 34.1217V33.0645C15.8271 32.9415 15.7239 32.8394 15.5991 32.8394L14.8808 32.8421C14.5044 32.8049 14.5226 33.1571 14.5226 33.2828L14.5455 34.1278C14.5435 34.3495 14.9145 34.3887 15.0379 34.3887L15.5991 34.3516Z" fill="#F49831"/>
<path fill-rule="evenodd" clip-rule="evenodd" d="M18.0618 35.2566C17.9054 35.1904 17.7037 35.2566 17.6254 35.135C17.5546 35.0315 17.5749 34.73 17.4197 34.6604C17.0912 34.5205 16.3264 34.5016 16.2967 34.8625C16.2346 35.5426 16.7985 35.383 17.2612 35.6325C17.8568 35.9482 18.4342 36.4991 19.0264 36.0881C19.1646 35.8319 18.6298 35.4527 18.3546 35.4527C18.3546 35.4527 18.159 35.4716 18.0618 35.2566Z" fill="#F49831"/>
<path fill-rule="evenodd" clip-rule="evenodd" d="M14.4078 34.9417C14.4705 34.7227 14.6041 34.6443 14.861 34.6605C15.12 34.6828 15.3103 34.651 15.4337 34.6605C15.8418 34.6923 15.8087 35.3027 15.5106 35.4528C15.0681 35.6772 15.0485 35.5629 14.8516 35.6826C14.511 35.8874 14.4476 36.1125 14.1508 36.2977C13.856 36.4694 13.1262 36.7784 12.9671 36.6391C12.8099 36.4992 12.9893 35.976 13.3057 35.7597C13.6206 35.5427 13.8001 35.5704 13.8965 35.5339C13.9936 35.4913 14.1306 35.2567 14.2122 35.2567C14.2891 35.2567 14.3902 35.0059 14.4078 34.9417Z" fill="#F49831"/>
<path fill-rule="evenodd" clip-rule="evenodd" d="M8.52548 18.4554C8.57876 18.5081 8.71366 18.4784 8.76222 18.4256L8.81821 18.3432C8.87419 18.2877 8.87419 18.2012 8.81551 18.1539L5.34794 14.8645C5.29533 14.8132 5.14425 14.8875 5.09029 14.945L5.15369 14.8693C5.10378 14.9206 4.9763 15.0612 5.11322 15.2181L8.52548 18.4554Z" fill="#FEFEFE"/>
<path fill-rule="evenodd" clip-rule="evenodd" d="M116.549 6.5517C116.86 6.5517 117.046 6.48748 117.046 6.12447C117.046 5.78783 116.683 5.76215 116.42 5.76215H115.929V6.5517H116.549ZM115.929 8.48231H115.231V5.20784H116.451C117.295 5.20784 117.792 5.44714 117.792 6.19613C117.792 6.80114 117.439 7.01745 117.006 7.05125L117.84 8.48231H117.012L116.259 7.10601H115.929V8.48231ZM116.435 4.51495C115.231 4.51495 114.259 5.44714 114.259 6.84913C114.259 8.25045 115.231 9.19007 116.435 9.18331V9.19007C117.608 9.19007 118.603 8.25045 118.603 6.84913C118.603 5.44714 117.608 4.51495 116.435 4.51495ZM116.435 9.89107C114.821 9.89107 113.382 8.77164 113.382 6.84913C113.382 4.92595 114.821 3.80652 116.435 3.80652C118.041 3.80652 119.481 4.92595 119.481 6.84913C119.481 8.77164 118.041 9.89107 116.435 9.89107Z" fill="#1D1D1B"/>
</svg>
