<svg width="127" height="26" viewBox="0 0 127 26" fill="none" xmlns="http://www.w3.org/2000/svg">
<path d="M109.569 12.3353L125.147 2.07205C125.697 1.7055 125.514 0.880782 124.826 0.880782H119.237C118.916 0.880782 118.595 0.972418 118.366 1.10987L103.475 11.144V1.61387C103.475 1.2015 103.109 0.834961 102.696 0.834961H99.0309C98.6185 0.834961 98.252 1.2015 98.252 1.61387V24.3397C98.252 24.752 98.6185 25.1186 99.0309 25.1186H102.696C103.109 25.1186 103.475 24.752 103.475 24.3397V13.8015L119.145 24.8437C119.374 25.0269 119.695 25.1186 120.016 25.1186H125.651C126.338 25.1186 126.522 24.3397 125.972 23.9273L109.569 12.3353Z" fill="#131314"/>
<path d="M61.3221 15.3594H55.8239V20.9492H38.8712V15.3594H33.373V20.4452C33.373 23.6983 35.0225 25.1186 38.6421 25.1186C38.8254 25.1186 55.9614 25.1186 56.1447 25.1186C59.7643 25.1186 61.4138 23.6525 61.4138 20.4452L61.3221 15.3594Z" fill="#131314"/>
<path d="M56.0988 0.926514C55.9155 0.926514 38.7795 0.926514 38.5962 0.926514C34.9766 0.926514 33.3271 2.39269 33.3271 5.59996V8.76142V10.7316H38.8253V5.14178H55.7781V10.7316H61.2762V8.76142V5.64579C61.322 2.34688 59.7184 0.926514 56.0988 0.926514Z" fill="#131314"/>
<path d="M24.2556 12.9315C26.2258 12.6566 27.7378 11.0072 27.7378 8.99116V5.5548C27.7378 2.34753 26.0883 0.881348 22.4687 0.881348H1.57562C1.07162 0.881348 0.705078 1.29371 0.705078 1.75189V24.2486C0.705078 24.7526 1.11744 25.1192 1.57562 25.1192H21.7356C25.7676 25.1192 27.8752 23.4697 27.8752 20.3541V16.7802C27.9211 14.7642 26.2716 13.069 24.2556 12.9315ZM5.88253 5.0508H20.3611C21.7814 5.0508 22.5145 5.73807 22.5145 7.11261V8.99116C22.5145 10.3199 21.7814 11.0072 20.3611 11.0072H5.88253V5.0508ZM22.6062 19.0253C22.6062 20.3541 21.8731 21.0413 20.4527 21.0413H5.88253V15.1308H20.4527C21.8731 15.1308 22.6062 15.8181 22.6062 17.1926V19.0253Z" fill="#131314"/>
<path d="M93.7157 23.973L84.2772 15.9549C84.2772 15.9549 87.4386 15.9549 87.4845 15.9549C91.1041 15.9549 92.7536 14.4887 92.7536 11.2814V5.59996C92.7536 2.39269 91.1041 0.926514 87.4845 0.926514H67.8285C67.3245 0.926514 66.9121 1.33888 66.9121 1.84288V24.3854C66.9121 24.7978 67.2787 25.1643 67.691 25.1643H71.3107C71.723 25.1643 72.0896 24.8436 72.0896 24.3854V15.9549H77.1754C77.1754 15.9549 77.1754 15.9549 77.2212 15.9549L87.5761 24.752C87.851 24.981 88.1717 25.1185 88.6299 25.1185H93.395C93.9906 25.1643 94.2656 24.4312 93.7157 23.973ZM72.0437 5.05015H85.331C86.7514 5.05015 87.4845 5.73742 87.4845 7.11196V9.90687C87.4845 11.2356 86.7514 11.9229 85.331 11.9229H72.0437V5.05015Z" fill="#131314"/>
</svg>
