<svg width="65" height="46" viewBox="0 0 65 46" fill="none" xmlns="http://www.w3.org/2000/svg">
<g clip-path="url(#clip0_959_16110)">
<path d="M1.40674 39.7401C1.45646 39.6904 1.55591 39.6572 1.57248 39.6075C1.73823 38.381 2.33492 37.3036 3.47856 36.6241C3.8432 36.4086 4.27414 36.2429 4.73823 36.2594C5.31834 36.2926 5.9316 36.1766 6.49514 36.4252C6.61116 36.4749 6.72718 36.5246 6.8432 36.5909C7.30729 36.8396 7.77138 37.1047 8.05315 37.5854C7.80453 38.0992 7.30729 38.3313 6.89293 38.6628C6.85978 38.6959 6.76033 38.6959 6.72718 38.6628C6.62773 38.5799 6.51171 38.4804 6.42884 38.381C5.96475 37.7512 4.55591 37.834 4.0421 38.3478C3.46199 38.928 3.24652 39.6241 3.09735 40.3699C2.9316 41.0992 3.11392 41.8451 3.44541 42.4418C3.7769 43.0384 4.29072 43.602 5.16917 43.5854C5.91503 43.5854 6.52829 43.4031 7.02552 42.8561C7.17469 42.707 7.29072 42.6904 7.42331 42.8561C7.55591 43.0053 7.68851 43.1379 7.83768 43.2705C8.02 43.4528 8.18574 43.6186 8.36806 43.8009C8.16917 44.0163 8.00342 44.265 7.77138 44.4307C6.94265 45.0605 6.01447 45.5081 4.93712 45.3755C4.19127 45.276 3.47856 45.0771 2.89845 44.4804C2.33492 43.9003 1.90398 43.2705 1.60563 42.5246C1.52276 42.3257 1.77138 42.0108 1.42331 41.9114C1.40674 41.1655 1.40674 40.4528 1.40674 39.7401Z" fill="#131314"/>
<path d="M41.1693 45.2429C40.8544 45.2097 40.4731 45.2594 40.2245 45.1103C40.0256 44.9942 39.9925 44.613 39.8599 44.3644C39.5284 43.718 39.1969 43.0882 38.8654 42.4583C38.8157 42.3754 38.766 42.3091 38.7162 42.2263C38.6499 42.2926 38.5671 42.3423 38.5339 42.4252C38.0864 43.2373 37.6223 44.0329 37.2245 44.8616C37.0919 45.1434 36.9428 45.2263 36.6776 45.2097C36.2632 45.1931 35.8488 45.2097 35.4345 45.2097C35.2853 45.2097 35.1859 45.2429 35.335 45.0108C36.0975 43.8174 36.5781 42.4749 37.3737 41.2981C37.5726 41.0163 37.6389 40.6683 37.4068 40.2705C36.9096 39.4086 36.5118 38.497 36.0643 37.602C35.882 37.2373 35.6334 36.8893 35.4345 36.5412C35.3682 36.4086 35.3847 36.276 35.5836 36.276C36.114 36.276 36.6278 36.276 37.1582 36.276C37.3571 36.6904 37.5394 37.1047 37.7383 37.5191C38.0035 38.0495 38.2853 38.5633 38.5505 39.0937C38.5836 39.16 38.6334 39.1931 38.6831 39.2594C38.7494 39.1931 38.8323 39.1434 38.882 39.0771C39.3295 38.2152 39.777 37.3533 40.1914 36.4749C40.2742 36.3092 40.324 36.276 40.4731 36.276C40.8544 36.276 41.2521 36.276 41.6334 36.276C41.766 36.276 41.9649 36.276 41.998 36.3423C42.114 36.5246 41.882 36.6075 41.8157 36.7401C41.4345 37.4694 41.0864 38.1987 40.7052 38.9279C40.4566 39.4086 40.3074 39.939 39.893 40.3368C39.8102 40.4196 39.7439 40.5522 39.7439 40.6683C39.7439 40.7843 39.8433 40.9003 39.9096 41.0163C40.7052 42.3091 41.335 43.6848 42.0809 45.0108C42.1472 45.1268 42.2963 45.2263 42.0312 45.2263C41.7494 45.2429 41.4842 45.2263 41.2024 45.2263C41.1693 45.2097 41.1693 45.2263 41.1693 45.2429Z" fill="#131314"/>
<path d="M34.042 45.2097C33.0475 45.2097 33.0475 45.2097 32.6166 44.3313C32.2685 43.6186 31.9204 42.9059 31.5889 42.1931C31.5226 42.044 31.5061 42.0108 31.4232 42.1766C30.9259 43.1048 30.4121 44.0164 29.948 44.9611C29.8486 45.16 29.8155 45.2097 29.6331 45.1931C29.2188 45.1931 28.8044 45.1931 28.39 45.1931C28.0585 45.1931 28.0585 45.1766 28.2409 44.8285C28.9038 43.5523 29.5668 42.276 30.2298 41.0164C30.3624 40.7512 30.3624 40.5357 30.2298 40.2705C29.6497 39.2097 29.0862 38.149 28.5392 37.0882C28.4232 36.9059 28.3237 36.7235 28.2574 36.5246C28.2243 36.4086 28.2243 36.2429 28.4398 36.2429C28.4895 36.2429 28.5558 36.2429 28.6055 36.2429C29.0364 36.2594 29.4674 36.2926 29.8983 36.3092C30.0972 36.6738 30.2961 37.0219 30.4784 37.3865C30.7768 37.9501 31.0585 38.5302 31.2409 39.1434C31.274 39.2429 31.39 39.3092 31.4729 39.3755C31.5061 39.2926 31.5392 39.1931 31.5889 39.1103C31.9536 38.3478 32.3514 37.602 32.6829 36.8396C32.8652 36.4086 33.1138 36.1932 33.5945 36.2429C33.8762 36.276 34.1414 36.2429 34.4232 36.2429C34.7547 36.2429 34.7381 36.2594 34.5889 36.6241C34.0585 37.8175 33.4121 38.9611 32.7657 40.0882C32.5337 40.486 32.5668 40.8009 32.7492 41.1655C33.3956 42.4418 34.1746 43.6517 34.7547 44.9777C34.8044 45.1103 34.9536 45.1931 34.6884 45.1931C34.4729 45.2097 34.2574 45.2097 34.042 45.2097Z" fill="#131314"/>
<path d="M51.7935 41.9777C52.5228 42.3257 52.8543 42.8727 52.8046 43.7014C52.7715 44.2981 51.8598 45.2263 51.2797 45.2097C50.1858 45.1932 49.0753 45.1932 47.9814 45.2097C47.7328 45.2097 47.6499 45.16 47.6499 44.8948C47.6665 43.3865 47.6499 41.8617 47.6499 40.3534C47.6499 39.9059 47.6499 39.4749 47.6499 39.0274C47.6499 38.8451 47.6499 38.7291 47.8985 38.7291C48.8598 38.7456 49.8212 38.7456 50.7825 38.7291C51.0974 38.7291 51.3792 38.8948 51.6941 38.928C52.1913 38.9777 52.6057 39.6241 52.6057 40.1545C52.6057 40.486 52.7052 40.8672 52.5726 41.1324C52.4234 41.4639 52.0587 41.6959 51.7935 41.9777ZM50.0864 43.8838C50.3018 43.8838 50.5339 43.9003 50.7494 43.8838C50.9814 43.8506 51.1471 43.7346 51.1306 43.4694C51.1306 43.3534 51.1306 43.2539 51.1306 43.1379C51.1306 42.8727 50.9648 42.7401 50.7494 42.7235C50.3681 42.707 49.9869 42.7401 49.6057 42.707C49.3239 42.6904 49.3074 42.823 49.3074 43.055C49.2908 43.8838 49.2908 43.8838 50.0864 43.8838ZM50.0035 40.2374C49.8377 40.2374 49.672 40.2208 49.5063 40.2374C49.4234 40.2539 49.3074 40.3368 49.3074 40.4031C49.1748 41.3313 49.2411 41.4141 50.1527 41.3976C50.2853 41.3976 50.4344 41.4141 50.5505 41.381C50.8985 41.2981 50.9482 41.1987 50.9482 40.834C50.9482 40.3699 50.8488 40.2705 50.4013 40.2539C50.2853 40.2208 50.1361 40.2374 50.0035 40.2374Z" fill="#131314"/>
<path d="M56.8156 42.7235C56.2687 42.7235 55.7051 42.7235 55.1582 42.7235C54.9261 42.7235 54.8598 42.823 54.9924 43.0218C55.1582 43.287 55.3737 43.5357 55.5725 43.7677C55.6223 43.8174 55.7051 43.8672 55.7714 43.8672C56.3516 43.8672 56.9648 43.9832 57.4289 43.4528C57.5615 43.3036 57.6609 43.3202 57.7604 43.5522C57.893 43.8009 58.1416 43.9997 58.3405 44.2152C58.4731 44.3478 58.3902 44.4473 58.2908 44.5633C57.9261 44.9611 57.4455 45.2594 56.9648 45.3257C56.3184 45.4252 55.6057 45.4915 54.9759 45.1765C54.5449 44.9611 54.0974 44.7622 53.8654 44.2318C53.6333 43.718 53.5007 43.2207 53.3847 42.6738C53.2521 42.0439 53.4013 41.4638 53.4676 40.9003C53.5505 40.0716 54.0808 39.4417 54.8598 39.0108C55.904 38.4141 57.0974 38.6959 57.8267 39.4086C58.1582 39.7401 58.4565 40.2207 58.5394 40.6683C58.6389 41.2318 58.8212 41.8119 58.7549 42.4252C58.7217 42.6406 58.672 42.7069 58.4731 42.6904C57.9261 42.7069 57.3792 42.7235 56.8156 42.7235ZM55.9869 41.3975C56.2853 41.3975 56.5836 41.3975 56.8985 41.3975C56.9648 41.3975 57.0643 41.3478 57.0974 41.2981C57.2466 40.9832 56.7991 40.1047 56.4344 40.0881C56.1527 40.0716 55.8377 39.939 55.5725 40.1876C55.2908 40.4694 54.9593 40.718 54.9593 41.1655C54.9593 41.2484 55.0422 41.381 55.1085 41.381C55.3902 41.3975 55.6886 41.3975 55.9869 41.3975Z" fill="#131314"/>
<path d="M25.1086 42.0606C25.1086 43.0053 25.1086 43.9335 25.1086 44.8782C25.1086 45.0937 25.1086 45.2429 24.8103 45.2263C24.5119 45.1932 24.197 45.1932 23.8987 45.2263C23.6169 45.2429 23.5837 45.1103 23.6003 44.8782C23.6169 44.7125 23.534 44.6959 23.418 44.8119C22.8379 45.4086 22.0755 45.4749 21.3462 45.3589C20.6832 45.2595 20.2025 44.8119 19.9539 44.1655C19.8379 43.8672 19.7716 43.5688 19.7882 43.2374C19.8047 41.8617 19.8047 40.486 19.7882 39.0937C19.7882 38.7788 19.871 38.7125 20.1528 38.7456C20.5009 38.7788 20.8655 38.7622 21.2136 38.7622C21.2302 39.1103 21.2633 39.4583 21.2799 39.8064C21.2965 40.7677 21.2799 41.7291 21.2799 42.707C21.2799 42.9224 21.313 43.1048 21.4125 43.3202C21.5451 43.5854 21.6942 43.8506 21.9263 43.8672C22.2744 43.8838 22.6556 44.0164 23.0202 43.7346C23.2854 43.5191 23.4346 43.3699 23.4346 42.9887C23.4014 41.6628 23.4346 40.3368 23.418 39.0108C23.418 38.7954 23.4843 38.7291 23.6998 38.7291C23.9981 38.7456 24.313 38.7291 24.6114 38.7291C24.9594 38.7456 25.0755 38.8617 25.0755 39.2263C25.1086 40.1711 25.1086 41.1158 25.1086 42.0606Z" fill="#131314"/>
<path d="M14.169 41.9942C14.169 42.9887 14.169 43.9832 14.169 44.9777C14.169 45.1434 14.1359 45.2263 13.937 45.2263C13.6552 45.2097 13.39 45.2429 13.1083 45.2097C12.9591 45.1931 12.7768 45.1103 12.7105 44.9942C12.611 44.8451 12.611 44.5799 12.4121 44.8948C12.2298 45.1766 11.9315 45.2594 11.6663 45.2926C11.1856 45.3589 10.6718 45.4418 10.2409 45.3257C9.67734 45.16 9.2464 44.6793 9.0475 44.1158C8.93148 43.7843 8.83203 43.4362 8.83203 43.0384C8.89833 41.7125 8.86518 40.3865 8.86518 39.0605C8.86518 38.8119 8.9149 38.7125 9.1801 38.7456C9.56131 38.7788 9.94253 38.7788 10.3237 38.7953C10.3403 39.1766 10.3569 39.5578 10.3569 39.939C10.3569 40.7677 10.3735 41.5965 10.3569 42.4252C10.3569 42.7235 10.4066 42.9887 10.5226 43.2705C10.705 43.7677 10.8376 43.9003 11.3016 43.9003C11.4342 43.9003 11.5834 43.9003 11.716 43.9003C12.2961 43.8672 12.5282 43.6351 12.5282 43.0716C12.5282 41.8285 12.5282 40.5854 12.5282 39.3589C12.5282 38.8782 12.6276 38.7788 13.0751 38.7788C13.4232 38.7788 13.7878 38.7953 14.1359 38.8119C14.1525 39.16 14.169 39.5246 14.169 39.8727C14.169 40.5523 14.169 41.265 14.169 41.9942Z" fill="#131314"/>
<path d="M60.7438 42.4583C60.7438 43.4528 60.7438 44.2981 60.7438 45.1434C60.7438 45.2263 60.6609 45.3589 60.5946 45.3589C60.1637 45.4252 59.7825 45.0937 59.335 45.1931C59.335 45.1931 59.2521 45.0108 59.2521 44.9114C59.2521 43.9998 59.2521 43.0881 59.2521 42.1765C59.2521 41.1489 59.2521 40.1379 59.2521 39.1102C59.2521 38.8616 59.2355 38.6793 59.5836 38.729C59.9648 38.7788 60.346 38.7788 60.7106 38.7953C60.7106 39.1434 60.7272 39.508 60.7272 39.8561C60.7272 40.3202 60.7272 40.8009 60.7272 41.2649C60.7272 41.3644 60.7769 41.4473 60.8101 41.5467C60.893 41.4638 60.9758 41.3975 61.0421 41.3147C61.5228 40.5688 61.9703 39.823 62.451 39.0937C62.6001 38.8782 62.799 38.6793 63.1305 38.7456C63.2963 38.7788 63.462 38.7456 63.6278 38.7456C63.8598 38.7622 64.241 38.6959 64.3239 38.8285C64.4896 39.0937 64.1084 39.1931 63.9758 39.392C63.4289 40.171 62.8985 40.9335 62.335 41.6959C62.1526 41.9445 62.2024 42.0937 62.3681 42.3257C62.9648 43.1876 63.578 44.0495 64.241 44.8616C64.2908 44.9279 64.3239 44.9942 64.357 45.0605C64.4233 45.2263 64.3239 45.392 64.1416 45.392C63.9261 45.392 63.6941 45.3589 63.4786 45.4086C62.9814 45.5246 62.683 45.2263 62.451 44.8948C62.02 44.2815 61.6222 43.6351 61.1913 43.0219C61.125 42.823 60.9758 42.7069 60.7438 42.4583Z" fill="#131314"/>
<path d="M42.8433 40.7346C42.8433 39.3755 42.8433 38.0329 42.8433 36.6738C42.8433 36.2594 42.8433 36.2594 43.2079 36.2594C44.6333 36.2594 44.5007 36.1103 44.5007 37.5191C44.5007 39.9721 44.5007 42.4252 44.5007 44.8782C44.5007 45.1103 44.4841 45.2429 44.2024 45.2097C43.7714 45.1766 43.3239 45.1766 42.893 45.1766C42.8764 44.7456 42.8433 44.3147 42.8433 43.8672C42.8433 42.823 42.8433 41.7788 42.8433 40.7346Z" fill="#131314"/>
<path d="M16.1583 42.7401C16.1583 41.9942 16.1583 41.2484 16.1583 40.5025C16.1583 40.287 16.092 40.2042 15.8765 40.2373C15.8434 40.2373 15.8268 40.2373 15.7937 40.2373C15.429 40.2373 15.0809 40.2207 14.7163 40.2207C14.6997 39.823 14.6832 39.4086 14.65 39.0108C14.6334 38.7622 14.7495 38.7456 14.9483 38.7456C16.2246 38.7456 17.4843 38.7456 18.7605 38.7456C19.1749 38.7456 19.2909 38.8616 19.2909 39.2594C19.2909 40.0053 19.4898 40.3036 18.3793 40.2373C18.2964 40.2373 18.2135 40.2373 18.1307 40.2373C17.6334 40.2373 17.6334 40.2373 17.6334 40.7014C17.6334 42.1102 17.6334 43.5191 17.6334 44.9279C17.6334 45.1268 17.6003 45.2263 17.3682 45.2097C16.987 45.1931 16.6058 45.1931 16.208 45.1931C16.1914 44.8119 16.1417 44.4473 16.1417 44.066C16.1417 43.6185 16.1583 43.1876 16.1583 42.7401Z" fill="#131314"/>
<path d="M42.1093 15.8035V10.199C42.1093 9.9072 41.8734 9.67327 41.5825 9.67327H38.8457C38.5554 9.67327 38.3193 9.9072 38.3193 10.199V15.8035H42.1093Z" fill="#0077C0"/>
<path d="M21.9945 17.5712V14.2413C21.9945 13.9508 21.7577 13.7156 21.4678 13.7156H18.7313C18.4406 13.7156 18.2046 13.9508 18.2046 14.2413V17.5712H21.9945Z" fill="#588527"/>
<path d="M36.5252 13.7158V6.2498C36.5252 6.2498 36.0886 6.04899 35.325 6.04899C34.6654 6.04899 34.1294 6.2498 34.1294 6.2498V13.7158H36.5252Z" fill="#E7731E"/>
<path d="M44.1982 15.8032H46.2857V13.7157H44.1982V15.8032Z" fill="#006D64"/>
<path d="M25.9014 7.01227H27.9889V4.9252H25.9014V7.01227Z" fill="#0077C0"/>
<path d="M27.9894 13.7158V9.96279C27.9894 9.96279 27.2312 9.61484 25.9063 9.61484C24.7621 9.61484 23.8306 9.96279 23.8306 9.96279V13.7158H27.9894Z" fill="#E7731E"/>
<path d="M43.8376 27.2265V22.9287C43.8376 22.9287 42.8328 22.465 41.0737 22.465C39.5549 22.465 38.3188 22.9287 38.3188 22.9287V27.2265H43.8376Z" fill="#E7731E"/>
<path d="M29.0596 15.8035L30.9318 0.555747L32.8063 15.8035H29.0596Z" fill="#006D64"/>
<path d="M32.6493 21.2556L29.0903 24.0297V27.2263H36.2076V24.0297L32.6493 21.2556Z" fill="#588527"/>
<path d="M50.0262 19.8176L47.7817 21.568V23.584H52.2707V21.568L50.0262 19.8176Z" fill="#006D64"/>
<path d="M32.7759 18.7686C32.7759 19.7863 31.9502 20.6119 30.9315 20.6119C29.916 20.6119 29.0903 19.7863 29.0903 18.7686C29.0903 17.7497 29.916 16.9245 30.9315 16.9245C31.9502 16.9245 32.7759 17.7497 32.7759 18.7686Z" fill="#0077C0"/>
<path d="M41.0327 20.8514H46.2859V17.5711H41.0327V20.8514Z" fill="#588527"/>
<path d="M23.8262 29.5074H27.989V27.2265H23.8262V29.5074Z" fill="#006D64"/>
<path d="M29.0903 33.5713H36.2074V31.2924H29.0903V33.5713Z" fill="#0077C0"/>
<path d="M36.6452 15.0742H36.4739C36.0006 16.9538 33.7222 17.6771 33.7222 19.3672C33.7222 20.9351 34.98 21.5924 34.98 21.5924H38.1413C38.1413 21.5924 39.3994 20.9351 39.3994 19.3672C39.3994 17.6771 37.1203 16.9538 36.6452 15.0742Z" fill="#006D64"/>
<path d="M27.989 23.5842V18.1541C27.989 16.24 25.9034 15.0741 25.9034 15.0741C25.9034 15.0741 23.8262 16.24 23.8262 18.1541V23.5842H27.989Z" fill="#006D64"/>
<path d="M16.5287 23.5842V21.3131C16.5287 20.4881 15.8607 19.8199 15.035 19.8199C14.2102 19.8199 13.542 20.4881 13.542 21.3131V23.5842H16.5287Z" fill="#006D64"/>
<path d="M21.1916 23.5842V21.3131C21.1916 20.4881 20.5231 19.8199 19.6979 19.8199C18.8741 19.8199 18.2051 20.4881 18.2051 21.3131V23.5842H21.1916Z" fill="#006D64"/>
<path d="M40.4779 4.92529V2.39973C40.4779 1.80276 39.9954 1.32004 39.3992 1.32004C38.8023 1.32004 38.3193 1.80276 38.3193 2.39973V4.92529H40.4779Z" fill="#588527"/>
</g>
<defs>
<clipPath id="clip0_959_16110">
<rect width="63" height="45" fill="white" transform="translate(1.40674 0.5)"/>
</clipPath>
</defs>
</svg>
