<svg width="99" height="42" viewBox="0 0 99 42" fill="none" xmlns="http://www.w3.org/2000/svg">
<g clip-path="url(#clip0_959_16329)">
<path d="M94.6256 2.92915H94.0642V1.83832H94.77C94.8662 1.83832 94.9625 1.83832 95.0427 1.85436C95.139 1.85436 95.2192 1.90249 95.2833 1.93457C95.3635 1.96665 95.4117 2.03082 95.4598 2.09498C95.4919 2.15915 95.54 2.23936 95.54 2.36769C95.54 2.49602 95.5079 2.60832 95.4598 2.68852C95.4277 2.75269 95.3475 2.81686 95.2673 2.84894C95.1871 2.88102 95.0748 2.91311 94.9785 2.91311C94.8502 2.92915 94.7379 2.92915 94.6256 2.92915ZM95.8127 3.07352C95.9892 2.92915 96.0694 2.68852 96.0694 2.38373C96.0694 2.04686 95.9571 1.80624 95.7646 1.64582C95.556 1.4854 95.2673 1.4052 94.8502 1.4052H93.5188V4.85414H94.0642V3.36227H94.6417L95.5721 4.85414H96.1496L95.155 3.33019C95.4117 3.2981 95.6362 3.2179 95.8127 3.07352ZM96.9196 4.11623C96.7912 4.42102 96.6148 4.69372 96.4062 4.9183C96.1817 5.14289 95.925 5.31934 95.6202 5.44768C95.3315 5.57601 95.0106 5.64018 94.6577 5.64018C94.3208 5.64018 93.984 5.57601 93.6952 5.44768C93.3904 5.31934 93.1338 5.14289 92.9092 4.9183C92.7006 4.69372 92.5242 4.42102 92.3958 4.11623C92.2675 3.81143 92.2033 3.47456 92.2033 3.1056C92.2033 2.75269 92.2515 2.41582 92.3958 2.11103C92.5081 1.80624 92.7006 1.53353 92.9092 1.32499C93.1338 1.10041 93.3904 0.923948 93.6952 0.795616C93.984 0.667283 94.3208 0.603117 94.6577 0.603117C94.9946 0.603117 95.3315 0.667283 95.6202 0.795616C95.925 0.923948 96.1817 1.10041 96.3902 1.32499C96.6148 1.54957 96.7752 1.80624 96.9035 2.11103C97.0319 2.41582 97.096 2.73665 97.096 3.1056C97.1121 3.47456 97.0479 3.81143 96.9196 4.11623ZM97.4169 1.95061C97.2564 1.5977 97.0479 1.27686 96.7752 1.0202C96.5025 0.763532 96.1817 0.554992 95.8287 0.410617C95.4758 0.266243 95.0908 0.186035 94.6898 0.186035C94.2887 0.186035 93.9038 0.266243 93.5348 0.410617C93.1819 0.554992 92.861 0.763532 92.5883 1.0202C92.3156 1.27686 92.1071 1.5977 91.9467 1.95061C91.7863 2.30353 91.7061 2.68852 91.7061 3.1056C91.7061 3.53873 91.7863 3.92373 91.9467 4.29268C92.1071 4.66164 92.3156 4.96643 92.5883 5.23914C92.861 5.4958 93.1658 5.70434 93.5188 5.86476C93.8877 6.00913 94.2727 6.08934 94.6737 6.08934C95.0748 6.08934 95.4598 6.00913 95.8287 5.86476C96.1817 5.72038 96.5025 5.51184 96.7752 5.23914C97.0479 4.98247 97.2564 4.66164 97.4169 4.29268C97.5612 3.93977 97.6575 3.53873 97.6575 3.1056C97.6414 2.68852 97.5612 2.30353 97.4169 1.95061Z" fill="#005BAA"/>
<path d="M87.8402 34.4509L79.9798 23.0293L85.5463 15.0566H83.4128C82.4182 15.0566 81.7605 15.4096 81.2311 16.2277C81.0546 16.4843 78.8409 19.7729 78.2955 20.591C77.7822 19.821 75.7288 16.8212 75.2476 16.1314C74.7503 15.4096 74.0124 15.0566 73.0659 15.0566H73.0338H70.9164L76.5951 23.0293L71.173 31.002H74.638L78.2794 25.5158C79.0655 26.6547 82.9796 32.3976 85.5784 36.1995C83.0598 37.8357 80.0601 38.7982 76.8517 38.7982H20.8345C11.9475 38.7982 4.68062 31.5314 4.68062 22.6443C4.68062 13.7573 11.9475 6.49043 20.8345 6.49043H76.8517C85.7388 6.49043 93.0056 13.7573 93.0056 22.6443C93.0056 27.2964 91.0165 31.4993 87.8402 34.4509ZM76.8517 3.47461H20.8345C10.2631 3.47461 1.39209 12.0729 1.39209 22.6443C1.39209 33.2157 10.2631 41.814 20.8345 41.814H76.8517C87.4231 41.814 96.2941 33.2157 96.2941 22.6443C96.2941 12.0729 87.4231 3.47461 76.8517 3.47461ZM53.8962 17.8318C51.3135 17.9602 49.9019 19.7568 49.9019 22.8849V31.018H46.9021V15.0727H47.0625C47.7683 15.0727 48.5062 15.1048 49.0356 15.4416C49.5008 15.7464 49.7575 16.2437 49.8537 16.9816C50.8323 15.4096 52.661 14.7679 55.6768 14.9283H55.8212L55.8372 15.0727C55.8372 15.1208 55.8372 15.2171 55.8372 15.4256C55.8372 15.57 55.8212 15.7464 55.8372 15.8908C55.8212 17.11 55.1795 17.7677 53.8962 17.8318ZM43.6617 15.0727H43.9825V25.612C43.9825 27.4568 43.3409 28.9807 42.1057 29.9914C40.9988 30.9057 39.4267 31.403 37.6461 31.403H37.63C35.8655 31.403 34.3094 30.9218 33.1865 30.0074C31.9513 28.9968 31.2936 27.4728 31.2776 25.628V15.0566H31.438C32.6251 15.0566 34.3094 15.0566 34.3094 17.511V25.243C34.3255 27.521 35.4323 28.6599 37.614 28.6599H37.63C39.8277 28.6599 40.9507 27.5049 40.9346 25.227V17.4789C40.9346 16.6608 41.1432 16.0352 41.5442 15.6341C42.1377 15.0566 43.0681 15.0727 43.6617 15.0727ZM20.1928 28.692C18.7812 28.692 17.4818 28.1305 16.4872 27.1199C15.4926 26.0933 14.9472 24.7458 14.9472 23.302C14.9472 20.3183 17.2893 17.88 20.1768 17.88H20.1928C23.2247 17.88 25.4224 20.1579 25.4384 23.286C25.4224 26.5585 23.3691 28.692 20.1928 28.692ZM26.048 10.1158C25.6149 10.5008 25.4064 11.0623 25.4064 11.7681V17.0939C24.1391 15.8266 22.182 15.0887 20.0645 15.0887H20.0485C17.8508 15.0887 15.8135 15.9229 14.3056 17.4308C12.7816 18.9547 11.9635 21.0402 11.9635 23.302C11.9635 25.5639 12.8137 27.6493 14.3377 29.1572C15.8456 30.6491 17.8828 31.4672 20.0645 31.4672H20.0805C22.0857 31.4672 23.9466 30.7293 25.4064 29.3978V31.002H28.374V9.53833L28.2297 9.52229C28.1655 9.52229 26.8661 9.37792 26.048 10.1158ZM63.441 17.7516C65.6868 17.7516 67.5637 19.0831 68.1091 21.0562C68.1732 21.2968 68.1572 21.5214 68.0449 21.6658C67.9487 21.7941 67.7722 21.8583 67.5155 21.8583L58.3879 21.8743C58.9654 19.452 61.0026 17.7677 63.441 17.7516ZM63.4891 28.6439C61.0026 28.6439 58.9333 26.9435 58.3879 24.4731L68.2695 24.457C69.5689 24.457 70.2586 23.8795 70.6276 23.4143C71.173 22.6924 71.3174 21.6497 71.0286 20.6231C70.018 17.1581 67.0984 14.9925 63.4089 14.9925H63.3928C58.7729 15.0085 55.2918 18.5377 55.3079 23.2058C55.3079 25.4837 56.142 27.553 57.65 29.0449C59.1418 30.5207 61.1791 31.3389 63.4249 31.3389H63.441C66.8257 31.3389 69.7774 29.3176 70.9645 26.2055L70.9966 26.1253H67.8684C66.8418 27.7776 65.3499 28.6439 63.4891 28.6439Z" fill="#005BAA"/>
<path d="M94.6256 2.92915H94.0642V1.83832H94.77C94.8662 1.83832 94.9625 1.83832 95.0427 1.85436C95.139 1.85436 95.2192 1.90249 95.2833 1.93457C95.3635 1.96665 95.4117 2.03082 95.4598 2.09498C95.4919 2.15915 95.54 2.23936 95.54 2.36769C95.54 2.49602 95.5079 2.60832 95.4598 2.68852C95.4277 2.75269 95.3475 2.81686 95.2673 2.84894C95.1871 2.88102 95.0748 2.91311 94.9785 2.91311C94.8502 2.92915 94.7379 2.92915 94.6256 2.92915ZM95.8127 3.07352C95.9892 2.92915 96.0694 2.68852 96.0694 2.38373C96.0694 2.04686 95.9571 1.80624 95.7646 1.64582C95.556 1.4854 95.2673 1.4052 94.8502 1.4052H93.5188V4.85414H94.0642V3.36227H94.6417L95.5721 4.85414H96.1496L95.155 3.33019C95.4117 3.2981 95.6362 3.2179 95.8127 3.07352ZM96.9196 4.11623C96.7912 4.42102 96.6148 4.69372 96.4062 4.9183C96.1817 5.14289 95.925 5.31934 95.6202 5.44768C95.3315 5.57601 95.0106 5.64018 94.6577 5.64018C94.3208 5.64018 93.984 5.57601 93.6952 5.44768C93.3904 5.31934 93.1338 5.14289 92.9092 4.9183C92.7006 4.69372 92.5242 4.42102 92.3958 4.11623C92.2675 3.81143 92.2033 3.47456 92.2033 3.1056C92.2033 2.75269 92.2515 2.41582 92.3958 2.11103C92.5081 1.80624 92.7006 1.53353 92.9092 1.32499C93.1338 1.10041 93.3904 0.923948 93.6952 0.795616C93.984 0.667283 94.3208 0.603117 94.6577 0.603117C94.9946 0.603117 95.3315 0.667283 95.6202 0.795616C95.925 0.923948 96.1817 1.10041 96.3902 1.32499C96.6148 1.54957 96.7752 1.80624 96.9035 2.11103C97.0319 2.41582 97.096 2.73665 97.096 3.1056C97.1121 3.47456 97.0479 3.81143 96.9196 4.11623ZM97.4169 1.95061C97.2564 1.5977 97.0479 1.27686 96.7752 1.0202C96.5025 0.763532 96.1817 0.554992 95.8287 0.410617C95.4758 0.266243 95.0908 0.186035 94.6898 0.186035C94.2887 0.186035 93.9038 0.266243 93.5348 0.410617C93.1819 0.554992 92.861 0.763532 92.5883 1.0202C92.3156 1.27686 92.1071 1.5977 91.9467 1.95061C91.7863 2.30353 91.7061 2.68852 91.7061 3.1056C91.7061 3.53873 91.7863 3.92373 91.9467 4.29268C92.1071 4.66164 92.3156 4.96643 92.5883 5.23914C92.861 5.4958 93.1658 5.70434 93.5188 5.86476C93.8877 6.00913 94.2727 6.08934 94.6737 6.08934C95.0748 6.08934 95.4598 6.00913 95.8287 5.86476C96.1817 5.72038 96.5025 5.51184 96.7752 5.23914C97.0479 4.98247 97.2564 4.66164 97.4169 4.29268C97.5612 3.93977 97.6575 3.53873 97.6575 3.1056C97.6414 2.68852 97.5612 2.30353 97.4169 1.95061Z" fill="#005BAA"/>
</g>
<defs>
<clipPath id="clip0_959_16329">
<rect width="97.1318" height="41.6279" fill="white" transform="translate(0.934082 0.186035)"/>
</clipPath>
</defs>
</svg>
