<svg width="102" height="38" viewBox="0 0 102 38" fill="none" xmlns="http://www.w3.org/2000/svg">
<path fill-rule="evenodd" clip-rule="evenodd" d="M100.666 0.427856L100.881 1.76357C102.47 11.6333 99.2412 21.4171 92.1334 28.2313C86.5915 33.5537 78.6196 36.882 69.8912 37.4568C69.5684 37.4781 69.2482 37.4965 68.9301 37.512L67.9815 37.5497C65.3081 37.6311 62.742 37.4966 59.9164 37.1105L58.9079 36.9637L58.3943 36.8824L57.3467 36.7036L56.2686 36.503L55.1563 36.2804C54.9679 36.2414 54.7779 36.2015 54.5863 36.1607L53.4162 35.9041L52.2031 35.6246L50.9433 35.3217L49.6334 34.9952L48.2697 34.6446L46.8486 34.2696L45.3665 33.8699L43.0213 33.2231L38.9296 32.0827L36.6882 31.4725L35.1892 31.0757L34.2628 30.837L33.3857 30.617L32.1469 30.3184L31.3612 30.1378L30.2246 29.8903L29.4838 29.7385L28.3797 29.5263L27.2615 29.3279L26.8814 29.2638C16.7041 27.5636 8.88784 28.8135 2.43831 33.7111L0.748047 34.9952V33.6503C0.797149 21.9554 5.4365 11.516 14.5456 5.86352L15.0379 5.5653L15.8163 5.11643C21.2364 2.07411 26.113 1.11572 34.2899 1.42179L35.4809 1.47403L36.7193 1.54294L37.3571 1.58349L38.6712 1.67641L40.0389 1.78468L41.4628 1.90777L43.7093 2.11901L48.9134 2.63549L50.5138 2.7893L53.4406 3.05779L54.1356 3.11847C54.7893 3.17491 55.4269 3.22813 56.0492 3.27806L57.8701 3.41796L58.7466 3.48045L60.4337 3.59031C63.1733 3.75649 65.5555 3.83771 67.6377 3.82793L68.6556 3.81426C72.4147 3.73502 74.5675 3.33328 76.4303 2.12593L76.6716 1.96384L77.971 1.06121L77.9265 2.3893C77.8826 3.70089 76.9691 5.43011 75.7086 6.83201L75.5398 7.01254L77.0582 7.0242L78.3507 7.02394C78.7638 7.02212 79.1603 7.0185 79.5438 7.0129L80.6575 6.98997C81.7383 6.96071 82.7305 6.91198 83.7247 6.83883L84.7229 6.75734L85.1724 6.71561C91.3476 6.12175 96.0456 4.60176 99.2188 1.7892L99.553 1.48288L100.666 0.427856ZM70.5386 28.4119C68.6905 32.83 63.5436 33.8106 57.4209 33.1797L56.5989 33.0862L55.7667 32.9746C55.6272 32.9545 55.4873 32.9338 55.347 32.9123L54.5015 32.7752L53.6487 32.6225C53.5061 32.5957 53.3631 32.5684 53.22 32.5404L52.3586 32.3659L51.493 32.178L50.6243 31.9778L49.7539 31.7661L48.8829 31.544L48.0127 31.3124L46.7112 30.9493L45.418 30.5704L44.1487 30.1823C43.5905 30.0083 43.037 29.8316 42.4899 29.6533L41.6742 29.385C40.7285 29.0711 39.8047 28.7544 38.9112 28.4417L41.9211 28.8681L43.4669 29.0811L45.0127 29.286L46.5576 29.4794C54.7933 30.4749 62.9598 30.8476 70.5386 28.4119ZM78.9532 14.072C78.9682 14.2284 78.9532 14.3972 78.9532 14.5542V14.9966C79.6946 14.4606 80.5316 13.9352 81.5793 13.9352C82.3491 13.9352 83.0463 14.1247 83.6778 14.4903C84.2936 14.8693 84.7808 15.3711 85.1329 16.0024C85.4946 16.6315 85.6627 17.302 85.6627 18.0365C85.6627 18.8769 85.4512 19.6428 85.0454 20.3442C84.6285 21.0462 84.0687 21.5922 83.3416 21.9932C82.6144 22.3907 81.8334 22.6009 80.9501 22.6009C80.4599 22.6009 79.9338 22.5168 79.3725 22.3593L79.3419 22.3558L79.2477 22.3284C79.1752 22.3066 79.1229 22.3066 79.093 22.3066C79.0185 22.3066 78.9771 22.4128 78.9611 22.6297L78.9532 22.8835V24.9916C78.9532 25.1262 79.0235 25.2753 79.1483 25.4446C79.2724 25.6223 79.5556 25.7361 79.9861 25.7899C80.3948 25.8528 80.6026 25.9895 80.6026 26.2105C80.6026 26.4185 80.4599 26.5233 80.1699 26.5233H74.7862C74.4932 26.5233 74.3378 26.4185 74.3378 26.2105C74.3378 25.9895 74.5089 25.8421 74.8423 25.7899C75.3324 25.7361 75.6546 25.6223 75.7928 25.4446C75.934 25.2753 76.0043 25.1262 76.0043 24.9916V17.3138C76.0043 16.8299 75.9655 16.4964 75.8788 16.3158C75.7928 16.147 75.5858 16.0456 75.2495 16.0237L75.0302 16.0061C74.9953 16.0024 74.9616 15.9978 74.9297 15.9906C74.6367 15.9284 74.6225 15.6778 74.7735 15.5197C74.8291 15.4667 74.8922 15.4379 74.9603 15.4182L75.5603 15.2853C76.3355 15.1005 77.4773 14.7526 78.2007 14.0496C78.2822 13.9779 78.336 13.9032 78.392 13.8606C78.6887 13.6196 78.9248 13.799 78.9532 14.072ZM28.7492 10.9571C33.2063 14.0177 31.9335 22.6425 21.9553 23.9007C21.0889 24.0007 20.0915 23.9493 19.2208 23.7264L18.8561 23.6203C17.6926 23.313 16.869 22.5371 16.869 21.6355C16.869 20.4705 18.2545 19.5173 19.9555 19.5173C21.6497 19.5173 23.0314 20.4705 23.0314 21.6355C23.0314 22.1273 22.7819 22.5898 22.3604 22.9559C25.3085 22.0863 27.0438 18.6562 27.3495 16.5582C27.392 16.2952 27.4204 16.0457 27.4496 15.7917C25.8629 18.073 24.6189 18.1225 23.4361 17.7039L23.1741 17.6038L22.9136 17.4927L22.2633 17.1945L22.0091 17.0814C21.8391 17.0081 21.6679 16.94 21.495 16.8822C20.7737 16.6423 19.9955 16.8611 19.514 17.0318L19.1843 17.1538C19.0536 17.2009 19.0064 17.2077 19.0766 17.1255C20.7622 15.0791 21.692 14.9562 22.5978 15.2586L22.8152 15.3385L23.1443 15.479L23.4841 15.6303C23.9476 15.8324 24.4594 16.022 25.1008 16.0334C25.5783 16.0471 26.1624 15.8819 26.6557 15.7112L27.4631 15.4138C27.4716 15.0279 27.4476 14.6502 27.3948 14.2866L27.3327 13.9278C27.309 13.81 27.2822 13.6939 27.2525 13.5797L27.155 13.2437C27.1373 13.1888 27.1189 13.1344 27.0999 13.0806L26.978 12.7649C26.9132 12.6109 26.8428 12.4625 26.7672 12.3206L26.6093 12.0457C26.5818 12.0014 26.5539 11.9578 26.5254 11.9151L26.3486 11.6685C24.9776 9.89457 22.6342 9.85366 21.0077 14.0396L17.0187 14.045L16.3668 14.0491C17.8331 10.6515 23.8296 7.42096 28.7492 10.9571ZM48.2468 13.9355C50.1875 13.9355 51.3063 14.5023 51.3063 15.9724L51.3086 20.1114L51.3275 20.4291C51.3415 20.5707 51.3627 20.6862 51.3907 20.7751C51.4482 20.9629 51.5738 21.0464 51.7405 21.0464C51.9429 21.0464 52.2708 20.8721 52.5474 20.7005C52.6103 20.5043 52.7239 20.3237 52.8886 20.1784C53.2772 19.8207 54.1859 19.6199 54.5768 20.0836C54.7062 20.2384 54.788 20.4017 54.8548 20.5668L55.0438 21.0603C55.0788 21.1412 55.1183 21.2207 55.1664 21.298C55.3054 21.5081 55.4939 21.4381 55.6371 21.3134L55.7345 21.2132C55.7632 21.1787 55.7876 21.1443 55.8061 21.1136C55.9347 20.8916 56.0453 20.5439 56.1274 20.0836C56.2641 19.3096 56.2863 18.5158 56.2803 17.7228L56.2553 15.9487C56.2553 15.646 56.2276 15.4346 56.1857 15.2989C56.1439 15.1733 56.0602 15.0797 55.9347 15.0253C55.8061 14.9642 55.5849 14.9104 55.2635 14.856C54.842 14.856 54.5768 14.5022 54.842 14.2286C54.9257 14.1551 55.0274 14.1136 55.1388 14.1136H63.8705C63.9863 14.1136 64.0947 14.1551 64.1641 14.2286C64.419 14.4697 64.2479 14.856 63.8174 14.856C63.44 14.9104 63.1844 14.9642 63.0611 15.0169C62.9341 15.0572 62.8518 15.152 62.81 15.267C62.7844 15.3443 62.7696 15.4568 62.7619 15.6049L62.7547 15.9487V20.6903C62.7547 20.997 62.7674 21.2039 62.81 21.33C62.8518 21.4573 62.9341 21.5425 63.0611 21.5924C63.1844 21.6546 63.4265 21.6978 63.7621 21.7416C64.3771 21.7416 64.4728 22.4872 63.8862 22.4872H58.841C58.2692 22.4872 58.3617 21.8443 58.7913 21.7524L58.8963 21.7416C59.2468 21.6978 59.4979 21.6546 59.6406 21.6042C59.7774 21.5531 59.8618 21.4662 59.9022 21.3424C59.9363 21.2396 59.9522 21.0859 59.9572 20.867L59.9573 15.4171L59.9436 15.2229C59.9368 15.1698 59.9278 15.1282 59.9163 15.0982C59.8894 15.0169 59.8058 14.9732 59.6765 14.9524C59.6012 14.9403 59.4869 14.931 59.3348 14.9255L58.9808 14.9199H58.1961L57.8042 14.9268C57.6372 14.9344 57.513 14.9486 57.4278 14.9732C57.2768 15.0169 57.1917 15.0892 57.1505 15.2058L57.1168 15.3886C57.102 15.5022 57.0915 15.6488 57.0915 15.8254V18.3411C57.0915 19.0559 57.0511 19.7175 56.9548 20.313C56.8554 20.9112 56.5901 21.4662 56.1558 21.9613C55.5012 22.7277 53.8369 23.0226 52.9715 22.286C52.7451 22.0885 52.5902 21.8184 52.5177 21.5295L52.4243 21.6043C51.7262 22.1487 51.041 22.4335 50.3422 22.4335C49.9798 22.4335 49.7018 22.3707 49.4903 22.2351C49.2818 22.0982 49.0987 21.8751 48.9477 21.5622C48.8894 21.4451 48.8453 21.3302 48.7781 21.2264C48.7093 21.1515 48.6606 21.1297 48.5957 21.1622L48.476 21.2413L48.0524 21.5505C47.7049 21.8347 47.2991 22.0753 46.8485 22.286C45.241 23.0307 43.3854 22.3494 43.3854 20.8154C43.3854 19.7171 44.2904 19.0241 45.4375 18.4993L48.2631 17.2081C48.5128 17.0892 48.5717 17.0681 48.5833 16.9708L48.5796 15.7015C48.561 15.2149 48.4443 14.5635 47.7296 14.5635C47.1714 14.5635 46.7221 14.9536 46.3717 15.7089C46.2633 15.9601 46.1624 16.1467 46.0653 16.2751C45.7462 16.6822 43.4243 17.5232 43.4243 16.5891C43.4243 15.9909 44.1372 15.267 44.7089 14.8998C45.661 14.2612 46.8365 13.9355 48.2468 13.9355ZM69.9386 13.9355C71.8831 13.9355 73.0019 14.5023 73.0019 15.9724V19.9268L73.0104 20.2789C73.0218 20.4907 73.0453 20.6566 73.0826 20.7751C73.1386 20.9629 73.2523 21.0464 73.4316 21.0464C73.5586 21.0464 73.7126 20.9971 73.9061 20.8709L74.0689 20.7634C74.1607 20.7077 74.2634 20.6584 74.3553 20.6584C74.5205 20.6584 74.6049 20.733 74.6049 20.9113C74.6049 21.1221 74.4405 21.352 74.1177 21.6043C73.4197 22.1487 72.7359 22.4335 72.0371 22.4335C71.6709 22.4335 71.378 22.3707 71.1672 22.2351C70.9722 22.0982 70.7921 21.8751 70.6374 21.5622C70.5821 21.4451 70.5387 21.3302 70.4573 21.2264C70.3975 21.1515 70.3492 21.1297 70.2848 21.1622L69.9822 21.3682L69.7421 21.5505C69.3931 21.8347 68.9903 22.0753 68.5381 22.286C66.9329 23.0307 65.0765 22.3494 65.0765 20.8154C65.0765 19.7171 65.9688 19.0241 67.1175 18.4993L69.9521 17.2081C70.2427 17.0694 70.2752 17.0637 70.2753 16.915L70.2727 16.7461L70.2699 15.7015L70.2534 15.4682C70.2038 15.0298 70.0297 14.5635 69.423 14.5635C68.9085 14.5635 68.4776 14.8913 68.152 15.5277L68.0658 15.7089C67.9538 15.9601 67.8416 16.1467 67.7423 16.2751C67.4231 16.6822 65.1162 17.5232 65.1162 16.5891C65.1162 15.9909 65.8284 15.267 66.4023 14.8998C67.3514 14.2612 68.527 13.9355 69.9386 13.9355ZM32.8046 14.1349L37.5822 14.1455C37.7221 14.1455 37.8645 14.1467 38.0082 14.1499L38.4424 14.1652C40.114 14.2488 41.8174 14.6448 41.8174 16.1779C41.8174 17.2505 40.783 17.8476 38.7137 17.9743C40.5596 18.0281 42.2508 18.4895 42.2508 20.1043C42.2508 21.8973 40.2248 22.4871 38.2803 22.4871L32.6073 22.4647C32.5087 22.4647 32.413 22.4445 32.3256 22.38C32.2561 22.3184 32.2128 22.2348 32.2128 22.1389C32.2128 21.8973 32.3697 21.7723 32.6612 21.742C33.0281 21.7089 33.2791 21.6472 33.4301 21.5531C33.5722 21.4571 33.6544 21.3114 33.6969 21.1012L33.7087 21.0052L33.7262 20.7522L33.7387 20.218V16.3872L33.7312 16.0059L33.7138 15.7066C33.7099 15.6635 33.7057 15.6237 33.7007 15.5873L33.6842 15.4877C33.6544 15.2786 33.5579 15.1312 33.4167 15.0572C33.3067 14.9903 33.124 14.9367 32.8674 14.8899L32.6612 14.8558C32.3846 14.8267 32.2128 14.7118 32.2128 14.5116C32.2008 14.261 32.413 14.1349 32.8046 14.1349ZM80.2948 15.2057C79.7791 15.2057 79.3875 15.4048 79.0632 15.772C78.981 15.8668 78.9532 16.0563 78.9532 16.3394V19.8526C78.9532 21.2268 79.3875 21.908 80.2401 21.908C80.7834 21.908 81.2476 21.742 81.6085 21.4062C81.9702 21.0703 82.2235 20.6515 82.3955 20.1452C82.5599 19.6428 82.6428 19.1382 82.6428 18.6247C82.6428 18.1095 82.5599 17.597 82.4059 17.0711C82.2347 16.5491 81.9866 16.1067 81.6377 15.7501C81.2871 15.3958 80.8387 15.2057 80.2948 15.2057ZM36.9934 18.3623C36.799 18.3623 36.6728 18.4065 36.6182 18.4895C36.5621 18.5725 36.5337 18.72 36.5337 18.9274V20.5657C36.5337 20.7615 36.544 20.9264 36.5579 21.0607L36.589 21.289C36.6309 21.4453 36.7296 21.5833 36.8843 21.678C37.0352 21.7722 37.2915 21.816 37.6383 21.816C38.2391 21.816 38.6741 21.6641 38.9797 21.3736C39.2757 21.0703 39.4117 20.6711 39.4117 20.1682C39.4117 19.7998 39.3459 19.5077 39.1741 19.2762C39.0223 19.0441 38.7533 18.8231 38.3938 18.6247C38.2358 18.5292 38.0861 18.4653 37.9376 18.431L37.7892 18.4065C37.6084 18.3713 37.3461 18.3623 36.9934 18.3623ZM48.3752 17.9645C48.3595 17.9645 48.3318 17.9721 48.292 17.9874L48.1366 18.0569C48.1045 18.0724 48.0696 18.0898 48.0316 18.1093L47.607 18.3383L47.2319 18.5518C47.1633 18.5915 47.0915 18.6333 47.0166 18.677C46.3463 19.0762 46.0092 19.5355 46.0092 20.0529C46.0092 20.3445 46.1079 20.5974 46.2895 20.7952C46.486 21.0061 46.7364 21.1137 47.0301 21.1137C47.2827 21.1137 47.533 21.0386 47.8133 20.9113C48.0786 20.7751 48.2758 20.6091 48.4006 20.4191C48.5255 20.1976 48.583 19.9268 48.583 19.6005V18.7292C48.583 18.2151 48.5112 17.9645 48.3752 17.9645ZM70.0649 17.9645L70.0331 17.9702L69.915 18.0163L69.724 18.1093L69.2994 18.3383L68.9232 18.5518C68.8544 18.5915 68.7822 18.6333 68.707 18.677C68.0382 19.0762 67.6997 19.5355 67.6997 20.0529C67.6997 20.3445 67.7976 20.5974 67.9814 20.7952C68.163 21.0061 68.4156 21.1137 68.7198 21.1137C68.9754 21.1137 69.2257 21.0386 69.4895 20.9113C69.7697 20.7751 69.9655 20.6091 70.0911 20.4191C70.2024 20.1976 70.2727 19.9268 70.2727 19.6005V18.7292C70.2727 18.2151 70.2024 17.9645 70.0649 17.9645ZM37.4985 14.8054C37.0666 14.8054 36.7736 14.8693 36.6182 14.9943C36.5901 15.01 36.5691 15.0709 36.555 15.1759L36.539 15.3665L36.5337 15.6228L36.5355 17.2057L36.5467 17.3815L36.5621 17.491C36.589 17.5554 36.6309 17.597 36.7027 17.6171L36.7782 17.626L37.0082 17.6365C37.0552 17.6374 37.1066 17.6379 37.1622 17.6379C38.3625 17.6379 38.967 17.1254 38.967 16.1162C38.967 15.7086 38.8243 15.384 38.5754 15.1518C38.3228 14.9198 37.9597 14.8054 37.4985 14.8054Z" fill="#00A652"/>
</svg>
