<svg width="58" height="46" viewBox="0 0 58 46" fill="none" xmlns="http://www.w3.org/2000/svg">
<g clip-path="url(#clip0_959_16012)">
<path fill-rule="evenodd" clip-rule="evenodd" d="M3.68604 45.3297H5.4042L5.60543 44.0759H6.78183L6.98306 45.3297H8.70122L7.2462 38.0391H5.1101L3.68604 45.3297ZM6.20911 40.2371L6.53417 42.4661H5.89953L6.20911 40.2371Z" fill="#00487C"/>
<path fill-rule="evenodd" clip-rule="evenodd" d="M10.3422 40.8718C10.6208 40.8718 11.1161 40.7015 11.1161 40.1597C11.1161 39.5251 10.5279 39.4787 10.3731 39.4787C10.1719 39.4787 9.81589 39.5096 9.44439 39.6799L9.42891 38.101C10.0016 37.9617 10.4196 37.9153 10.8994 37.9153C12.277 37.9153 12.9117 38.8905 12.9117 39.8347C12.9117 40.7634 12.3699 41.3207 11.8591 41.5374V41.6148C12.3544 41.7695 13.02 42.2494 13.02 43.3639C13.02 44.7415 12.0603 45.5 10.8375 45.5C10.1719 45.5 9.75397 45.4071 9.24316 45.1285L9.27412 43.6115C9.75397 43.8128 10.079 43.8283 10.4041 43.8283C10.9459 43.8283 11.1626 43.4258 11.1626 43.1317C11.1626 42.7292 10.8994 42.4506 10.3267 42.4506H9.63014V40.8718H10.3422Z" fill="#00487C"/>
<path fill-rule="evenodd" clip-rule="evenodd" d="M18.4373 45.3297H16.7346V39.7882H15.5118V45.3297H13.8091V38.0391H18.4373V45.3297Z" fill="#00487C"/>
<path fill-rule="evenodd" clip-rule="evenodd" d="M19.397 45.3297H21.0842V42.9305H21.6569C23.3286 42.9305 23.8549 41.429 23.8549 40.4693C23.8549 39.5251 23.2667 38.0391 21.6569 38.0391H19.397V45.3297ZM21.0842 39.6489H21.4866C21.8736 39.6489 22.1058 39.8811 22.1058 40.4848C22.1058 41.2742 21.7033 41.3207 21.4866 41.3207H21.0842V39.6489Z" fill="#00487C"/>
<path fill-rule="evenodd" clip-rule="evenodd" d="M26.9816 45.4226C28.9938 45.4226 29.6594 43.5497 29.6594 41.6767C29.6594 39.8037 28.9784 37.9308 26.9816 37.9308C24.9693 37.9308 24.3037 39.8037 24.3037 41.6767C24.3037 43.5497 24.9848 45.4226 26.9816 45.4226ZM26.9816 43.658C26.3934 43.658 26.0838 42.9615 26.0838 41.6767C26.0838 40.3919 26.3934 39.6954 26.9816 39.6954C27.5853 39.6954 27.8794 40.3919 27.8794 41.6767C27.8948 42.9615 27.5853 43.658 26.9816 43.658Z" fill="#00487C"/>
<path fill-rule="evenodd" clip-rule="evenodd" d="M37.0278 45.3297H39.0556C39.489 45.3297 41.3155 45.144 41.331 42.946C41.331 41.0885 39.9069 40.7634 38.9937 40.7634H38.6996V39.8037H40.944V38.0391H37.0433V45.3297H37.0278ZM38.6996 43.8747V42.2184H38.9472C39.1485 42.2184 39.6747 42.2339 39.6747 42.9769C39.6747 43.7509 39.133 43.8747 38.9472 43.8747H38.6996Z" fill="#00487C"/>
<path fill-rule="evenodd" clip-rule="evenodd" d="M51.903 45.3297H50.2622V42.4197H49.0703V45.3297H47.4141V38.0391H49.0703V40.6706H50.2622V38.0391H51.903V45.3297Z" fill="#00487C"/>
<path fill-rule="evenodd" clip-rule="evenodd" d="M57.7851 38.0391L56.4849 41.5064L57.9709 45.3297H56.0205L55.0763 42.4042H54.6738V45.3297H53.0176V38.0391H54.6738V40.6706H55.0298L55.9895 38.0391H57.7851Z" fill="#00487C"/>
<path fill-rule="evenodd" clip-rule="evenodd" d="M0.419922 38.0391H3.88721V39.8656H2.13809V45.3297H0.419922V38.0391Z" fill="#00487C"/>
<path fill-rule="evenodd" clip-rule="evenodd" d="M34.2104 45.3297V40.8873L33.1888 42.1565L32.1672 40.8873V45.3297H30.48V38.0391H31.9195L33.1888 39.7573L34.4581 38.0391H35.8976V45.3297H34.2104Z" fill="#00487C"/>
<path fill-rule="evenodd" clip-rule="evenodd" d="M41.6558 45.3452H43.3739L43.5752 44.0914H44.7516L44.9683 45.3452H46.6864L45.2314 38.0546H43.0953L41.6558 45.3452ZM44.1788 40.2526L44.5039 42.4816H43.8693L44.1788 40.2526Z" fill="#00487C"/>
<path fill-rule="evenodd" clip-rule="evenodd" d="M12.8867 16.94C12.8867 26.0156 20.2511 33.3799 29.3267 33.3799C38.4023 33.3799 45.7667 26.0156 45.7667 16.94C45.7667 7.86437 38.4023 0.5 29.3267 0.5C20.2511 0.5 12.8867 7.86437 12.8867 16.94ZM13.4673 16.94C13.4673 8.16995 20.5872 1.05004 29.3572 1.05004C38.1273 1.05004 45.2472 8.16995 45.2472 16.94C45.2472 25.6794 38.1273 32.7993 29.3572 32.7993C20.5872 32.8299 13.4673 25.71 13.4673 16.94Z" fill="#00487C"/>
<path fill-rule="evenodd" clip-rule="evenodd" d="M18.0202 12.448C22.2371 9.69778 26.8819 8.07823 34.7657 9.45332C35.1935 9.20886 35.438 8.9644 35.5602 8.44492C33.6045 7.74209 31.4655 7.49763 28.7153 7.52819C26.2402 7.58931 21.7788 8.50603 19.3953 9.91168L20.1287 8.99495C21.8093 8.01711 26.1485 6.73369 29.3876 6.64202C31.6794 6.61146 32.8712 6.73369 35.5908 7.46708C35.3463 7.00871 34.7963 6.76425 33.9712 6.39756C31.3433 5.20582 26.393 5.11414 22.3594 6.88648C22.8788 6.55035 23.3678 6.24477 24.04 5.9392C25.3846 5.32805 27.5541 4.74745 30.2738 4.77801C32.4434 4.80857 35.0407 5.57251 36.6297 7.13094C36.9048 7.43652 37.0575 7.77265 37.1187 8.04767C38.3715 8.68938 39.1049 9.26997 39.5021 9.9728C39.6549 10.3395 39.7466 10.7367 39.6549 11.1645C40.1744 11.4701 40.4189 11.7451 40.6939 12.0813C40.8772 12.3563 41.03 12.6924 41.0606 12.998C41.1217 13.3952 41.1523 13.823 40.755 14.3425C41.1828 14.5564 41.5189 15.137 41.5801 15.412C41.7634 16.3593 41.1828 17.2761 40.3578 18.0094C39.441 18.8345 37.3937 19.7818 35.7436 20.2096C32.4434 21.0346 29.5404 21.4013 27.218 21.8291C28.257 22.0736 29.6626 22.4097 31.985 22.4097C36.9048 22.4097 41.2439 20.0873 41.2439 20.0873C41.2439 20.0873 41.1523 20.3929 41.0606 20.6679C37.9437 22.5625 32.9628 23.357 30.8544 23.2653C28.6848 23.1737 26.8819 22.8375 25.1095 22.2875C24.5595 22.4403 24.04 22.5931 23.5205 22.8375C26.2096 24.0598 28.257 24.3348 30.5793 24.5182C32.9323 24.7015 36.8131 24.1209 40.1133 22.9292C39.9605 23.082 39.8994 23.3264 39.7466 23.4487C38.0659 24.3348 34.4907 25.221 32.7184 25.2821C30.946 25.3432 28.7764 25.2821 26.8819 24.946C25.2623 24.6404 23.9178 24.1209 22.5427 23.5098C22.2982 23.6931 22.176 23.9376 22.1149 24.2126C27.4014 27.0239 32.4739 27.085 38.2493 25.2821L37.7298 25.8016C31.3738 28.3684 26.4235 27.36 22.5733 25.5266C22.451 25.4655 22.2982 25.4044 22.176 25.3432C22.5427 25.9544 25.4762 28.0934 28.7459 28.3684C31.0071 28.5518 33.7573 28.1545 35.4074 27.5128L34.4296 28.0018C33.6351 28.399 31.5266 29.2852 28.5931 29.0713C24.6817 28.7962 22.4816 27.085 21.4732 26.1683C21.0148 25.7405 20.8009 25.2516 20.6481 24.6404C19.762 24.1821 19.2119 23.6931 18.7536 22.9903C18.4786 22.5625 18.5397 22.1041 18.6008 21.7069L18.6925 21.3402C18.2646 21.0346 17.8368 20.6985 17.6535 20.3624C17.2562 19.6595 17.5007 19.0789 17.7757 18.59C17.5313 18.315 17.3174 18.0705 17.2257 17.7955C17.134 17.4594 17.1035 17.1538 17.134 16.8177C17.1951 16.2371 17.5313 15.6871 17.9285 15.2287C18.7841 14.2509 20.1287 13.4869 22.451 12.723C24.7123 11.9896 25.5985 11.8674 27.3097 11.4701C29.2959 11.0118 31.6794 10.859 33.6657 10.1561C28.1347 9.1783 22.3594 10.0645 17.6841 13.3036L18.0202 12.448ZM36.8742 9.02551C36.8131 9.30053 36.5075 9.6061 36.3242 9.82001C36.9353 9.9728 37.5465 10.1867 38.1271 10.4312C38.0354 9.88112 37.4242 9.36164 36.8742 9.02551ZM19.8231 20.0873C19.4564 19.8734 19.2119 19.7512 18.9369 19.5373C18.7841 19.8734 19.0897 20.2707 19.3953 20.454C19.5175 20.3318 19.6703 20.2096 19.8231 20.0873ZM38.4938 12.8452C38.891 13.0286 39.2577 13.1813 39.5938 13.4258C39.8383 12.9369 39.6855 12.6313 39.166 12.2035C38.9827 12.448 38.7382 12.6619 38.4938 12.8452ZM37.302 13.5786C36.5075 13.9453 35.3158 14.3425 33.6657 14.7703C32.3211 15.1065 28.9904 15.5954 25.4151 16.3593C24.2845 16.6038 21.2287 17.3372 19.7314 18.59C20.1592 18.9262 20.4037 19.0178 20.8926 19.2623C21.5037 18.865 22.3594 18.4984 23.6122 18.1622C25.8124 17.5816 27.4319 17.3372 29.4182 17.001C31.3738 16.6955 35.0407 15.9315 37.0881 15.1981C37.7604 14.9537 38.3715 14.6481 38.8299 14.2814C38.6771 14.1592 37.3631 13.5175 37.302 13.5786ZM21.901 22.1041C22.2066 21.9208 22.5733 21.7375 22.9705 21.5847C22.3899 21.3402 21.8093 21.0957 21.2287 20.8207C20.9537 20.9735 20.7093 21.1569 20.5259 21.3402C20.9843 21.5847 21.4121 21.8597 21.901 22.1041ZM20.0064 22.2875C20.0064 22.6542 20.2203 22.9903 20.7093 23.3876C20.7704 23.1737 20.862 23.0514 21.0148 22.8681C20.6481 22.6847 20.3426 22.4708 20.0064 22.2875ZM22.7872 15.5037C26.7902 14.3425 31.0071 13.9758 35.2852 12.8452C33.6045 12.3868 32.7184 12.2035 30.946 12.4174C28.3792 12.723 25.5679 13.273 23.1539 13.9758C22.2066 14.2509 17.2257 15.6565 18.6619 17.6427C18.6619 17.6733 19.5175 16.4816 22.7872 15.5037ZM37.8215 11.409C37.1798 11.1034 36.3547 10.8284 35.4686 10.5839C35.0713 10.8895 34.6435 11.1645 33.9712 11.409C35.0407 11.5923 35.8658 11.8979 36.7825 12.1729C36.9659 12.2646 37.6993 11.5618 37.8215 11.409ZM39.8077 15.2593C39.6855 15.3509 39.5633 15.4732 39.4105 15.5648C38.4938 16.2677 37.0575 16.8177 35.0713 17.3677C30.946 18.4678 27.9514 18.6511 24.5289 19.4762C23.8567 19.629 23.1844 19.8734 22.5427 20.1179C23.1844 20.454 23.8567 20.7291 24.5595 21.0041C25.9346 20.6068 26.6069 20.4235 28.6237 20.0873C29.3876 19.9651 31.7405 19.5373 33.4518 19.1706C36.5075 18.5595 40.9995 17.1233 39.8077 15.2593Z" fill="#00487C"/>
</g>
<defs>
<clipPath id="clip0_959_16012">
<rect width="58" height="45" fill="white" transform="translate(0 0.5)"/>
</clipPath>
</defs>
</svg>
