<svg width="113" height="30" viewBox="0 0 113 30" fill="none" xmlns="http://www.w3.org/2000/svg">
<g clip-path="url(#clip0_959_16336)">
<g clip-path="url(#clip1_959_16336)">
<path d="M1.00879 29.2275H112.037V20.2566H1.00879V29.2275Z" fill="#FFEE00"/>
<path d="M10.8921 0.414784L7.24 6.08671H5.7251V0.414784H1.00879V15.5403H5.7251V9.63135H7.1758L10.8501 15.5403H16.5973L11.376 7.56951L16.3183 0.403672H10.8933M30.1857 3.6162H33.6983V0.403672H30.1857V3.6162ZM17.0257 3.6162H20.5383V0.403672H17.0257V3.6162ZM27.0386 9.49184H23.5681L24.8361 5.53853L25.2978 3.97054H25.362L25.8028 5.53853L27.0386 9.49184ZM34.2144 15.5403L28.0807 0.414784H22.6125L16.5961 15.5403H21.6235L22.4297 12.9945H28.1128L28.8968 15.5403H34.2033M105.891 5.60273C105.891 7.03121 105.322 7.39666 103.936 7.39666H101.959V3.94832H103.957C105.407 3.94832 105.89 4.33476 105.89 5.60273H105.891ZM110.833 5.42C110.833 2.04697 108.47 0.41355 104.033 0.41355H97.2327V15.5391H101.949V10.5549H103.905L106.462 15.5391H112.026L108.159 9.65234C109.857 9.05107 110.824 7.37443 110.824 5.42M63.1135 0.758013C62.0283 0.392561 60.4702 0.134521 59.0417 0.134521C53.2302 0.134521 50.6511 3.1421 50.6511 7.92261C50.6511 13.0896 53.3908 15.8292 58.633 15.8292C60.1911 15.8292 61.8777 15.4638 63.1555 14.8946L62.6505 11.424C61.6838 11.8105 60.5121 12.0475 59.2553 12.0475C56.3761 12.0475 55.6242 11.0586 55.6242 7.93249C55.6242 4.96689 56.3119 3.97918 59.2121 3.97918C60.5652 3.97918 61.6937 4.1829 62.6394 4.44094L63.1012 0.745667M79.754 15.5403V0.414784H75.0488V6.00152H70.0312V0.414784H65.3149V15.5403H70.0312V9.85729H75.0488V15.5403H79.754ZM87.3174 11.813V9.51406H93.4733V6.20523H87.3174V4.18537H94.7622L94.6758 0.414784H82.5899V15.5403H94.977L95.0635 11.813H87.3174ZM44.3458 5.60273C44.3458 7.03121 43.7766 7.39666 42.3901 7.39666H40.4135V3.94832H42.4111C43.8618 3.94832 44.3446 4.33476 44.3446 5.60273H44.3458ZM49.2979 5.42C49.2979 2.04697 46.9348 0.41355 42.4975 0.41355H35.6972V15.5391H40.4135V10.5549H42.3691L44.9261 15.5391H50.4906L46.6237 9.65234C48.3213 9.05107 49.2881 7.37443 49.2881 5.42" fill="#131314"/>
<path d="M1.58864 0.414795H1.00879V0.85595H1.58864V0.414795Z" fill="#131314"/>
</g>
</g>
<defs>
<clipPath id="clip0_959_16336">
<rect width="111.764" height="29.7598" fill="white" transform="translate(0.617188 0.120117)"/>
</clipPath>
<clipPath id="clip1_959_16336">
<rect width="111.103" height="29.1073" fill="white" transform="translate(0.986328 0.120117)"/>
</clipPath>
</defs>
</svg>
