<svg width="99" height="48" viewBox="0 0 99 48" fill="none" xmlns="http://www.w3.org/2000/svg">
<path d="M43.5113 15.2521C41.9225 13.0882 41.3572 10.7295 41.825 8.166C42.1759 6.27509 43.0824 4.65709 44.5152 3.37049C47.4491 0.719307 51.7865 0.300186 55.0225 2.33731C56.9524 3.55568 58.2682 5.24191 58.892 7.45447C59.5061 9.63779 59.2721 11.7529 58.278 13.8387C58.9895 13.8095 59.6523 13.7803 60.3151 13.7413C69.6624 13.3027 79.0195 13.3124 88.3669 13.4391C90.6282 13.4684 92.8797 13.5171 95.141 13.5561C96.4666 13.5756 97.3731 14.4236 97.3828 15.7394C97.4121 19.9014 97.4121 24.0536 97.3926 28.2155C97.3828 29.4632 96.4374 30.3599 95.1898 30.4281C90.8329 30.662 86.4662 30.8667 82.1093 31.1396C77.382 31.432 72.645 31.7537 67.9275 32.1046C63.8045 32.4165 59.6718 32.7576 55.5683 33.2742C50.6558 33.898 45.8213 34.8922 41.0063 36.0229C29.2807 38.7715 17.7695 42.2512 6.35578 46.0525C5.57602 46.3157 4.79626 46.6081 4.00676 46.8323C2.90535 47.1539 1.85268 46.6276 1.52128 45.6334C1.43356 45.3702 1.41406 45.0973 1.41406 44.8147C1.41406 37.8943 1.41406 30.9739 1.41406 24.0536C1.41406 22.2211 2.13534 21.3537 3.94828 21.0418C8.14923 20.3107 12.3599 19.6382 16.5804 19.0144C21.0737 18.3418 25.5573 17.6596 30.0507 17.0163C33.9007 16.4704 37.7606 15.9538 41.6301 15.4957C42.2149 15.4275 42.8095 15.3495 43.5113 15.2521ZM8.86076 40.2141C10.7614 39.9704 14.5238 38.8885 16.1807 38.138C18.5005 37.0853 20.2452 35.4478 21.1127 33.0306C21.873 30.9057 21.951 28.6931 21.4636 26.5001C21.1712 25.1647 20.4499 24.0341 19.1243 23.4395C18.1496 23.0009 17.1262 23.0789 16.1125 23.2446C13.8122 23.6247 11.5607 24.229 9.28962 24.7846C8.94848 24.8723 8.85101 25.0185 8.85101 25.3597C8.86076 30.1649 8.86076 34.9702 8.86076 39.7755C8.86076 39.9119 8.86076 40.0484 8.86076 40.2141ZM39.1641 27.1044C39.2031 27.0849 39.2421 27.0654 39.2908 27.0459C39.3493 27.1239 39.398 27.2019 39.4565 27.2798C40.6262 28.7126 41.8056 30.1357 42.9557 31.588C43.2384 31.9486 43.521 32.0461 43.9401 31.9779C44.7881 31.8317 45.6361 31.7342 46.4841 31.6075C46.6206 31.588 46.835 31.5977 46.8837 31.51C46.9812 31.3443 46.7765 31.2371 46.679 31.1201C45.061 29.1123 43.443 27.1044 41.825 25.0965C41.6399 24.8723 41.5034 24.7066 41.7471 24.3947C43.1214 22.6695 44.4665 20.9248 45.8213 19.1801C45.987 18.9657 46.2014 18.7707 46.3087 18.4588C45.5679 18.566 44.8856 18.6732 44.1936 18.7707C43.9206 18.8097 43.7355 18.9364 43.5698 19.1703C42.3611 20.7981 41.1428 22.4161 39.9341 24.0438C39.7099 24.346 39.4663 24.6384 39.1641 25.0283C39.1641 24.8041 39.1641 24.7066 39.1641 24.6189C39.1641 22.9912 39.1544 21.3732 39.1641 19.7454C39.1641 19.453 39.1251 19.2873 38.7645 19.3458C37.9457 19.4822 37.127 19.609 36.3083 19.6967C35.9866 19.7259 35.9574 19.8721 35.9574 20.1353C35.9671 20.7396 35.9574 21.3342 35.9574 21.9385C35.9574 25.6228 35.9574 29.3072 35.9476 32.9916C35.9476 33.3717 36.0061 33.4984 36.4252 33.3912C37.1465 33.206 37.8873 33.0988 38.6183 32.9721C38.9984 32.9038 39.1641 32.7674 39.1641 32.3288C39.1446 30.5743 39.1641 28.8393 39.1641 27.1044ZM46.4744 26.773C46.4354 29.4242 48.1216 31.1981 50.6753 31.0812C53.6871 30.9544 55.7145 28.8978 56.2213 26.2467C56.7282 23.6247 54.8275 21.4316 52.8196 21.2854C52.381 21.2562 51.9424 21.3244 51.5135 21.3244C48.8916 21.3732 46.2697 23.8781 46.4744 26.773ZM68.2101 21.1977C68.2101 20.8273 68.1906 20.5642 68.2101 20.3107C68.2296 20.0281 68.1127 19.9891 67.869 20.0086C67.1282 20.0866 66.3874 20.1548 65.6369 20.2133C65.403 20.2328 65.2958 20.3107 65.2958 20.5642C65.3055 23.1958 65.3055 25.8178 65.2958 28.4495C65.2958 28.7224 65.3835 28.7711 65.6369 28.7419C66.3484 28.6639 67.06 28.5859 67.7715 28.5567C68.1419 28.5372 68.2101 28.391 68.2101 28.0498C68.1906 26.3344 68.1906 24.6092 68.2004 22.8937C68.2101 21.7533 69.2433 20.9443 70.3545 21.1977C70.9588 21.3342 71.2804 21.6753 71.3487 22.2991C71.3779 22.572 71.3974 22.845 71.3974 23.1276C71.3974 24.6092 71.3974 26.081 71.3974 27.5625C71.3974 28.2155 71.3974 28.2253 72.0309 28.2058C72.6353 28.1863 73.2298 28.1278 73.8341 28.1181C74.146 28.1181 74.2045 28.0011 74.2045 27.7087C74.1948 25.9932 74.1948 24.268 74.1948 22.5525C74.1948 22.1042 74.1265 21.6851 73.9024 21.2952C73.0056 19.7162 71.2024 19.2873 69.526 20.2523C69.0776 20.4764 68.6975 20.8176 68.2101 21.1977ZM75.5886 23.381C75.5593 25.2135 76.6803 26.9874 78.2593 27.465C79.7993 27.9329 81.3101 27.7184 82.7526 27.0167C83.24 26.773 83.6006 26.3831 83.8833 25.9055C84.1172 25.5156 83.8833 25.4474 83.5909 25.3889C83.4154 25.3499 83.3179 25.4669 83.2107 25.5546C82.8793 25.8178 82.5089 26.0225 82.1191 26.1784C80.5888 26.7535 78.9708 25.8275 78.6881 24.2193C78.6296 23.8879 78.6394 23.7027 79.0878 23.6734C80.6765 23.5857 82.2555 23.4298 83.8443 23.3128C84.01 23.3031 84.1757 23.3128 84.1659 23.0691C84.1172 22.1334 83.9613 21.2367 83.2887 20.5057C82.0898 19.1996 80.0527 18.7805 78.2593 19.4628C76.612 20.0768 75.6081 21.5584 75.5886 23.381ZM25.8205 27.582C25.8205 27.1336 25.801 26.6853 25.8303 26.2467C25.84 25.9737 25.7425 25.9153 25.4989 25.964C24.7386 26.1199 23.9783 26.2856 23.2083 26.4123C22.9744 26.4513 22.9354 26.5586 22.9354 26.773C22.9354 29.9213 22.9451 33.0793 22.9354 36.2276C22.9354 36.5492 23.0524 36.559 23.3058 36.4907C24.0076 36.3153 24.7191 36.1398 25.4404 36.0034C25.7718 35.9449 25.84 35.7889 25.84 35.4868C25.8302 33.6154 25.84 31.7537 25.8303 29.8823C25.8303 29.239 26.0447 28.7126 26.5515 28.313C27.1266 27.8549 27.7602 27.6307 28.5009 27.7769C28.6959 27.8159 28.9298 27.8939 28.9298 27.5235C28.92 26.7145 28.9298 25.8958 28.9298 25.0868C28.9298 24.8723 28.8713 24.8041 28.6471 24.8626C28.2085 24.9893 27.7991 25.1647 27.4385 25.4669C26.7172 26.0322 26.2591 26.7827 25.8205 27.582ZM60.8901 22.4161C60.8609 22.4063 60.8317 22.3966 60.8024 22.3868C60.8024 21.9287 60.7927 21.4804 60.8122 21.032C60.8219 20.7591 60.7439 20.6616 60.4613 20.6909C59.74 20.7688 59.009 20.8371 58.278 20.8858C58.044 20.9053 57.9758 20.993 57.9855 21.2172C57.9953 23.9269 57.9953 26.6365 57.9855 29.3462C57.9855 29.5899 58.0733 29.6483 58.2974 29.6191C58.97 29.5509 59.6523 29.4826 60.3346 29.4437C60.7147 29.4242 60.8024 29.2682 60.8024 28.8978C60.7829 27.387 60.8122 25.8763 60.7927 24.3752C60.7829 23.6929 61.0948 23.2446 61.6309 22.8937C62.2255 22.5038 62.8688 22.4453 63.5413 22.5623C63.7168 22.5915 63.902 22.6598 63.902 22.3576C63.8922 21.7241 63.8825 21.0905 63.8922 20.4569C63.8922 20.2035 63.785 20.1548 63.5706 20.2035C62.6154 20.3985 61.8064 20.7981 61.319 21.6948C61.1728 21.9385 61.0266 22.1724 60.8901 22.4161ZM88.6106 21.0515C88.5716 21.0418 88.5423 21.0223 88.5033 21.0125C88.5033 20.6129 88.4936 20.2133 88.5033 19.8039C88.5131 19.57 88.4351 19.492 88.2012 19.492C87.4897 19.5017 86.7684 19.5017 86.0568 19.492C85.8229 19.492 85.7449 19.5602 85.7449 19.7941C85.7547 22.1627 85.7547 24.5312 85.7449 26.9094C85.7449 27.1629 85.8229 27.2506 86.0763 27.2408C86.7099 27.2311 87.3434 27.2116 87.977 27.2506C88.3669 27.2701 88.5033 27.1726 88.4936 26.7535C88.4643 25.4571 88.4838 24.1608 88.4838 22.8547C88.4838 22.1237 88.6788 21.8313 89.3513 21.5584C89.9167 21.3244 90.5015 21.2075 91.1155 21.3147C91.4469 21.3732 91.5444 21.2659 91.5347 20.9443C91.5152 20.4277 91.5249 19.9014 91.5249 19.3848C91.5249 19.2191 91.5054 19.1021 91.2812 19.1411C90.4137 19.2971 89.6145 19.5602 89.0882 20.34C88.9517 20.5837 88.7763 20.8078 88.6106 21.0515ZM47.8487 13.6146C47.8974 13.2929 47.8097 12.9908 47.6927 12.7081C47.3613 11.9283 47.1371 11.1193 47.0982 10.2713C47.0787 9.9497 47.1664 9.50134 46.7375 9.40387C46.2892 9.3064 46.1235 9.76451 45.9383 10.0569C45.2462 11.1388 44.8759 12.3572 44.7686 13.6243C44.6809 14.6575 44.9636 15.6322 45.9285 16.2365C46.0747 16.3242 46.2307 16.4802 46.4549 16.295C47.2834 15.5835 47.8584 14.7452 47.8487 13.6146ZM55.2564 4.67658C55.2564 3.69214 55.1102 3.51669 54.5059 3.63365C53.8528 3.77011 53.2388 4.00404 52.7222 4.4524C51.4843 5.52457 51.1724 6.94763 51.1919 8.48765C51.1919 8.79955 51.3868 8.87753 51.6305 8.86778C52.2348 8.83854 52.8001 8.74107 53.3265 8.36094C54.6716 7.40574 55.0517 5.98268 55.2564 4.67658ZM48.5017 17.0845C50.4609 17.1722 51.8839 16.217 53.0438 14.7745C53.3265 14.4138 53.6091 13.946 53.3947 13.5268C53.2193 13.1759 52.7027 13.2539 52.3128 13.2734C50.4219 13.3709 48.9501 14.2579 47.8097 15.7199C47.5368 16.0708 47.0202 16.5094 47.1859 16.8311C47.3808 17.2112 48.0339 17.0845 48.5017 17.0845ZM47.7415 10.5638C47.683 11.3045 47.8877 12.055 48.3555 12.7373C48.5115 12.9615 48.6479 13.0687 48.8624 12.7763C49.8858 11.324 50.7045 9.80349 50.6558 7.95157C50.6461 7.49346 50.5876 7.0451 50.3244 6.65522C50.0125 6.17762 49.6811 6.12888 49.2425 6.51876C49.1353 6.61623 49.0378 6.72345 48.9403 6.84041C48.0534 7.88334 47.7512 9.1407 47.7415 10.5638ZM53.8041 9.00424C52.9269 9.04323 52.1471 9.27716 51.533 9.89122C50.8215 10.6125 50.2562 11.4312 49.8761 12.3767C49.6519 12.942 49.7591 13.1077 50.3731 13.1175C51.3576 13.1467 52.2153 12.7861 52.9658 12.172C53.7456 11.5385 54.5936 10.9731 54.9152 9.9497C55.1297 9.26741 55.0517 9.16019 54.3597 9.07247C54.1647 9.04323 53.9795 9.02373 53.8041 9.00424ZM30.4601 31.8902C29.5633 31.8804 28.7543 32.6699 28.7641 33.5374C28.7738 34.2879 29.4171 34.8922 30.1969 34.8825C31.0351 34.8727 31.8149 34.1125 31.8344 33.2645C31.8539 32.5042 31.2496 31.8999 30.4601 31.8902ZM54.964 18.9267C54.9542 18.2639 54.5254 17.8058 53.9405 17.8058C53.229 17.8155 52.5565 18.5758 52.5565 19.3653C52.5565 20.0086 52.9951 20.5154 53.5604 20.5154C54.2719 20.5349 54.9737 19.7357 54.964 18.9267ZM50.3829 19.4628C50.3829 18.7902 49.993 18.3418 49.3887 18.3321C48.6674 18.3224 48.0046 19.0144 47.9949 19.7941C47.9851 20.4764 48.414 20.9638 49.0183 20.9638C49.7201 20.9638 50.3829 20.2425 50.3829 19.4628ZM73.6684 19.0729C73.6684 19.8721 74.2922 20.4862 75.0915 20.4764C75.881 20.4667 76.5146 19.8234 76.4951 19.0436C76.4756 18.2444 75.8518 17.6498 75.0428 17.6596C74.2825 17.6693 73.6684 18.3029 73.6684 19.0729Z" fill="#056449"/>
<path d="M11.8823 31.7441C11.8823 29.9117 11.8921 28.0695 11.8726 26.2371C11.8726 25.9252 11.9506 25.7984 12.2722 25.7107C13.013 25.5255 13.7538 25.3501 14.5043 25.2234C16.4439 24.9017 17.906 25.8667 18.1789 27.8258C18.4615 29.8434 18.3933 31.8708 17.6428 33.8202C17.0482 35.37 15.9858 36.4227 14.4555 37.027C13.7732 37.2901 13.0812 37.4948 12.3697 37.68C11.9896 37.7775 11.8628 37.7287 11.8726 37.2999C11.8921 35.448 11.8823 33.596 11.8823 31.7441Z" fill="#056449"/>
<path d="M53.21 25.6522C53.2197 26.6269 53.132 27.5918 52.7908 28.5178C52.6057 29.0344 52.3035 29.473 51.8162 29.7459C51.2313 30.0675 50.6855 29.9506 50.2664 29.4242C49.7595 28.7712 49.5549 28.0109 49.5159 27.2019C49.4574 26.1785 49.4866 25.1648 49.6913 24.1511C49.7888 23.6638 50.0227 23.2447 50.3151 22.8548C50.6758 22.3772 51.1729 22.1627 51.7674 22.2602C52.362 22.3577 52.7421 22.7281 52.9371 23.3031C53.1807 24.0634 53.2197 24.8529 53.21 25.6522Z" fill="#056449"/>
<path d="M79.0784 22.7476C78.6885 22.8743 78.6008 22.6111 78.6398 22.1725C78.6983 21.5389 78.747 20.9054 79.3416 20.496C80.0336 20.0184 81.0863 20.3498 81.3202 21.1588C81.4274 21.5292 81.4177 21.9288 81.4469 22.309C81.4664 22.5429 81.3007 22.5624 81.135 22.5721C80.8134 22.5916 80.4917 22.6111 80.1701 22.6404C79.8484 22.6696 79.5268 22.7086 79.0784 22.7476Z" fill="#056449"/>
<path d="M46.7768 11.6456C47.1862 12.9712 47.8295 14.3163 46.5137 15.5152C47.0887 14.2578 47.0303 12.9517 46.7768 11.6456Z" fill="#056449"/>
<path d="M52.5566 7.99047C53.5118 7.19122 53.931 6.13855 54.2721 4.9884C54.6133 5.99234 53.5703 7.80528 52.5566 7.99047Z" fill="#056449"/>
<path d="M52.2739 14.5309C51.6111 15.72 49.613 16.7727 48.9307 16.4413C49.6032 16.2853 50.2075 16.0612 50.7339 15.6615C51.231 15.2717 51.7573 14.9013 52.2739 14.5309Z" fill="#056449"/>
<path d="M49.3208 11.2071C49.7399 10.1642 49.5255 9.01407 49.8569 7.88342C49.8374 9.07255 50.1493 10.2422 49.3208 11.2071Z" fill="#056449"/>
<path d="M54.155 10.0863C53.5214 10.6808 53.0048 11.4119 52.2056 11.8212C51.8352 12.0162 51.4746 12.2111 50.9385 12.3281C51.4941 11.9869 51.9522 11.7043 52.4103 11.4314C52.9269 11.1097 53.3362 10.6711 53.7456 10.2422C53.8431 10.1448 53.9406 9.89133 54.1647 10.096C54.1647 10.0863 54.155 10.0863 54.155 10.0863Z" fill="#056449"/>
<path d="M54.1747 9.82312C54.1649 9.91084 54.1649 9.99857 54.1552 10.0863C54.1552 10.0863 54.1649 10.0863 54.1747 10.0863C53.9602 9.97907 54.1552 9.91084 54.1942 9.82312H54.1747Z" fill="#056449"/>
<path d="M54.1943 9.82312C54.1943 9.83287 54.1943 9.83287 54.1943 9.84261C54.1845 9.83287 54.1748 9.83287 54.165 9.82312C54.1748 9.82312 54.1943 9.82312 54.1943 9.82312Z" fill="#056449"/>
<path d="M76.2515 19.1217C76.2223 19.765 75.6862 20.2718 75.0332 20.2426C74.3899 20.2133 73.8635 19.6675 73.8928 19.0339C73.922 18.3711 74.4776 17.8643 75.1404 17.8935C75.7934 17.9325 76.271 18.4686 76.2515 19.1217ZM75.6375 19.8234C75.618 19.7357 75.618 19.6772 75.5985 19.6382C75.462 19.3946 75.1794 19.2094 75.5692 18.8975C75.7544 18.7415 75.5985 18.4686 75.3548 18.3711C74.7895 18.1372 74.4678 18.3516 74.4678 18.956C74.4678 19.1509 74.4581 19.3458 74.4678 19.5408C74.4776 19.6382 74.3996 19.8137 74.5458 19.8332C74.7408 19.8624 74.6823 19.6675 74.7115 19.5603C74.7408 19.4433 74.6433 19.2874 74.8285 19.2386C74.9942 19.1996 75.0916 19.3166 75.1891 19.4336C75.3061 19.5603 75.3158 19.8332 75.6375 19.8234Z" fill="#056449"/>
<path d="M75.0232 18.5271C75.1986 18.5271 75.3643 18.5758 75.3351 18.7903C75.3058 19.0047 75.1109 18.9755 74.9549 19.0047C74.7698 19.0339 74.7015 18.9365 74.6918 18.761C74.682 18.4979 74.8672 18.5368 75.0232 18.5271Z" fill="#056449"/>
</svg>
