<svg width="94" height="42" viewBox="0 0 94 42" fill="none" xmlns="http://www.w3.org/2000/svg">
<g clip-path="url(#clip0_959_16344)">
<path d="M56.7299 7.82642H50.6846V33.9475H69.2248V28.8559H56.7299V7.82642Z" fill="#6B6B6B"/>
<path d="M82.4959 23.9904H87.4098V28.5648C86.5046 28.9043 84.7427 29.2599 83.0616 29.2599C77.6305 29.2599 75.8201 26.4958 75.8201 20.903C75.8201 15.5527 77.5497 12.4169 82.9808 12.4169C86.0035 12.4169 87.7169 13.3706 89.1393 15.181L92.8894 11.738C90.6103 8.45671 86.6016 7.4707 82.8515 7.4707C74.3977 7.4707 69.9688 12.0775 69.9688 20.8707C69.9688 29.6155 73.9774 34.3677 82.8192 34.3677C86.8764 34.3677 90.8366 33.3332 92.9864 31.8299V19.1573H82.5121V23.9904H82.4959Z" fill="#6B6B6B"/>
<path d="M21.46 41.2051C32.6132 41.2051 41.665 32.1532 41.665 21C41.665 9.8468 32.6132 0.794922 21.46 0.794922C10.3068 0.794922 1.25488 9.83063 1.25488 21C1.25488 32.1532 10.3068 41.2051 21.46 41.2051Z" fill="#A50034"/>
<path d="M20.6523 12.126V29.8418H26.2774V28.2577H22.2688V12.126H20.6523Z" fill="white"/>
<path d="M15.0105 16.9591C16.3522 16.9591 17.4352 15.8761 17.4352 14.5345C17.4352 13.1929 16.3522 12.1099 15.0105 12.1099C13.6851 12.1099 12.5859 13.1929 12.5859 14.5345C12.5859 15.8761 13.6851 16.9591 15.0105 16.9591Z" fill="white"/>
<path d="M22.2685 4.09234C22.0584 4.07617 21.6543 4.07617 21.4603 4.07617C12.1498 4.07617 4.55273 11.6571 4.55273 20.9838C4.55273 25.4936 6.29845 29.7447 9.49894 32.929C12.6994 36.1295 16.9506 37.8752 21.4603 37.8752C25.9701 37.8752 30.2213 36.1133 33.4218 32.929C36.6061 29.7447 38.368 25.4936 38.368 20.9838V20.2079H37.6891H26.2934V21.7758H36.7516V22.0021C36.2181 29.971 29.5585 36.2912 21.4442 36.2912C17.3547 36.2912 13.5076 34.6909 10.6143 31.7975C7.72089 28.9042 6.12065 25.0571 6.12065 20.9515C6.12065 16.8619 7.72089 13.0149 10.6143 10.1054C13.5076 7.212 17.3547 5.61176 21.4442 5.61176C21.622 5.61176 22.0584 5.61176 22.2524 5.62792V4.09234H22.2685Z" fill="white"/>
</g>
<defs>
<clipPath id="clip0_959_16344">
<rect width="92.4944" height="40.4102" fill="white" transform="translate(0.75293 0.794922)"/>
</clipPath>
</defs>
</svg>
