<svg width="145" height="29" viewBox="0 0 145 29" fill="none" xmlns="http://www.w3.org/2000/svg">
<path d="M122.637 25.7168H6.28446L5.34863 28.2848H121.694L122.637 25.7168Z" fill="#FCE500"/>
<path d="M74.7469 10.4212C71.7349 11.0384 67.6545 13.2508 67.6968 17.2889C67.7226 19.6174 70.5356 20.9106 73.7613 20.8204C75.02 20.7721 76.2735 20.6323 77.512 20.4022L78.7094 17.2926C77.1251 17.5431 75.6035 17.9226 74.4097 17.4455C72.2581 16.5852 73.5826 14.3469 75.1042 13.6524C75.9417 13.2595 76.8578 13.063 77.7828 13.0777C78.2378 13.0777 79.3486 13.1053 79.7797 14.0872L81.2848 10.4802C78.6947 9.83542 76.0953 10.1394 74.7469 10.4212ZM91.0686 10.3273L89.698 14.0245H87.1963L88.5577 10.3273H83.8196L80.0505 20.5938H84.7776L86.0671 17.1176H88.5743L87.2848 20.5938H92.0173L95.7938 10.3199L91.0686 10.3273ZM62.8556 10.3273L59.0736 20.5919H64.0475L67.8239 10.3273H62.8556ZM52.9667 10.3273L49.3339 15.8409C49.3339 15.8409 49.5642 12.9561 49.6231 12.2616C49.6655 11.7329 49.601 10.3273 48.3134 10.3273H42.5547L38.7764 20.5919H43.2823L46.0198 13.1661L45.4432 20.5919H49.4445L54.3557 13.2969L51.6753 20.5919H56.2126L59.991 10.3273H52.9667ZM140.697 10.3273L138.105 17.3663C138.14 16.657 138.289 13.8551 138.369 12.2395C138.404 11.5744 138.26 11.0678 137.943 10.7307C137.703 10.4856 137.381 10.3391 137.038 10.3199H131.261L127.479 20.5864H131.68L134.358 13.3153L134.041 20.5864H141.075L144.855 10.3199L140.697 10.3273ZM123.327 10.3273L119.558 20.5846H124.532L128.308 10.3199L123.327 10.3273ZM102.302 13.0003H107.974L108.973 10.3107H98.6032L94.8248 20.5772H105.309L106.327 17.8139H100.539L100.963 16.6718H106.364L107.285 14.1443H101.89L102.302 13.0003ZM116.561 10.3107H111.723L107.939 20.5772H117.653L118.91 17.1655H114.031L116.561 10.3107Z" fill="#27509B"/>
<path d="M0.950886 6.6817L0.961939 6.70749L1.03931 6.89171C1.34224 7.63863 1.68665 8.36804 2.07093 9.07654C2.28568 9.47342 2.5393 9.84799 2.82807 10.1947C2.55041 10.5937 2.34812 11.0401 2.2312 11.5119C2.09551 12.2331 2.1592 12.9777 2.41542 13.6654C2.51986 13.9742 2.65631 14.2712 2.82255 14.5515C2.81475 14.5755 2.8092 14.6002 2.80597 14.6252C2.71556 15.3687 2.82613 16.1228 3.12615 16.809C3.42617 17.4952 3.90467 18.0885 4.51183 18.5269C4.71025 18.6756 4.92033 18.8081 5.14001 18.923C5.3498 19.5289 5.73443 20.0591 6.24533 20.4465C6.62035 20.7402 7.04022 20.9716 7.4888 21.1318V21.1447C8.00684 21.8563 8.75768 22.364 9.611 22.5798C9.83814 22.6433 10.0697 22.6903 10.3037 22.7198C10.3143 22.7341 10.326 22.7476 10.3387 22.7603C10.8109 23.204 11.3845 23.5253 12.0095 23.6961C11.9078 24.3766 11.9709 25.0715 12.1937 25.7225H36.8184C36.8245 24.8966 36.5993 24.0855 36.1681 23.3811C36.1566 23.3629 36.1437 23.3456 36.1294 23.3295C36.4597 20.877 34.8248 18.5909 32.3972 18.1106C32.2737 18.0867 32.1448 18.0664 32.0177 18.0517H31.9661C31.0831 17.1923 30.052 16.4996 28.9226 16.0068C28.9374 15.9405 28.9502 15.876 28.965 15.8226L29.0147 15.806C30.3466 15.211 31.1332 14.2347 31.3175 12.9507C31.4399 11.9192 31.1775 10.8789 30.5806 10.0289C30.5813 10.0155 30.5813 10.0019 30.5806 9.98842C30.7169 8.61784 30.5106 7.42042 29.9671 6.43301C29.5427 5.64581 28.8806 5.01271 28.0752 4.62398H28.0642C27.8468 3.88711 26.9073 3.33445 25.9033 3.35287C25.1111 3.37498 24.2453 3.74526 23.9229 4.35318C22.7181 4.78794 20.8483 5.90983 20.2828 8.74863C19.8513 9.06481 19.492 9.46907 19.2286 9.93463C18.9653 10.4002 18.8038 10.9164 18.7551 11.4491C18.7063 11.9817 18.7713 12.5187 18.9457 13.0243C19.1202 13.53 19.4001 13.9928 19.767 14.382C18.6009 14.3921 17.4385 14.5155 16.2963 14.7505L16.2521 14.7615C15.6993 14.3651 15.0678 14.0922 14.4003 13.9613C13.7329 13.8303 13.045 13.8444 12.3835 14.0025C12.3328 14.0158 12.2852 14.0389 12.2435 14.0707C11.8557 13.9562 11.4588 13.8754 11.0571 13.8294C11.0308 13.8267 11.0042 13.8267 10.9779 13.8294C10.7946 13.2247 10.4664 12.6739 10.0218 12.2248C9.9997 12.2027 9.94812 12.1622 9.94812 12.1585C9.88893 11.7854 9.80711 11.4163 9.7031 11.0532C9.54354 10.4834 9.23217 9.96764 8.80228 9.56104C8.50531 9.26612 8.15856 9.02601 7.77802 8.85179C7.8203 8.7401 7.85477 8.62561 7.88118 8.50915C7.88773 8.48059 7.89265 8.45168 7.89592 8.42257C7.89592 8.40967 8.03961 7.03724 8.20357 6.223V6.19352C8.65859 3.39524 8.65859 3.35472 8.6678 3.3234V3.30682C8.67713 3.18153 8.66016 3.05568 8.61796 2.93734C8.57577 2.819 8.50928 2.7108 8.42279 2.61968C8.3066 2.49991 8.16697 2.40538 8.01261 2.34199C7.85825 2.27859 7.69247 2.2477 7.52564 2.25125C7.27865 2.25232 7.03615 2.31736 6.82177 2.44005C6.6074 2.56273 6.42847 2.73886 6.30243 2.95128C6.14642 3.21487 6.02271 3.4963 5.934 3.78947C5.46976 2.89049 4.86184 1.70596 4.42525 0.841976L4.4013 0.797764C4.29791 0.629957 4.15355 0.491194 3.98179 0.394518C3.81003 0.297842 3.61651 0.246428 3.41941 0.245109C3.27213 0.245385 3.1261 0.272219 2.98834 0.324323C2.77824 0.143752 2.51008 0.0449891 2.23305 0.0461527C2.09007 0.0471782 1.94822 0.0714431 1.81303 0.117998C1.57868 0.19593 1.37616 0.348184 1.23619 0.551653C1.09622 0.755122 1.02645 0.998698 1.03747 1.24541C0.854176 1.30979 0.691085 1.42133 0.564631 1.56881C0.438176 1.71628 0.352824 1.89448 0.317175 2.08545C0.283231 2.28909 0.293281 2.49763 0.34665 2.69706C0.34665 2.71364 0.355861 2.73943 0.368756 2.77811L0.333754 2.82969C0.0592688 3.26076 -0.0825794 4.05475 0.950886 6.67617" fill="black"/>
<path d="M36.0288 25.7116H35.0543C35.3708 25.3353 35.6268 24.912 35.8133 24.4571C35.9586 24.8592 36.031 25.284 36.027 25.7116M19.9908 15.1743C20.1859 15.1878 20.3789 15.2243 20.5655 15.283C20.934 15.4211 21.6487 16.112 22.0393 16.1727C22.1074 16.1727 22.2861 16.1377 22.0927 15.9996C22.0393 15.9609 21.5879 15.5593 21.7556 15.3511C21.7789 15.3156 21.8128 15.2883 21.8524 15.2731C21.8921 15.2579 21.9355 15.2556 21.9766 15.2664C22.5422 15.4064 23.0138 15.4875 23.1759 15.5114C23.2754 15.5261 23.3472 15.528 23.3877 15.493C23.4283 15.458 23.3988 15.434 23.2883 15.4027C22.4151 15.1688 21.4461 14.793 20.7792 14.2864C20.3371 13.9585 19.9891 13.5198 19.7705 13.0147C19.5519 12.5095 19.4703 11.9556 19.5339 11.4089C19.5863 11.0122 19.7171 10.63 19.9185 10.2843C20.12 9.93866 20.3881 9.63649 20.7074 9.39535C20.955 9.23881 21.2219 9.11497 21.5013 9.02691C21.8182 8.9127 21.2987 8.8298 21.2619 8.82243C21.1292 8.80032 21.1219 8.664 21.2305 8.24767C21.4385 7.50861 21.8258 6.83235 22.358 6.27896C22.8902 5.72556 23.5508 5.31214 24.2812 5.07543C24.5089 5.00302 24.7409 4.94458 24.9757 4.90042C25.2815 4.85437 25.1599 4.7162 24.8173 4.67567C24.8173 4.67567 24.6994 4.67567 24.7565 4.59278C24.8075 4.53396 24.8664 4.48251 24.9315 4.43987C25.2349 4.25672 25.5811 4.15636 25.9355 4.14881C26.6484 4.13039 27.2637 4.5283 27.3355 4.89489C27.3355 4.89489 27.3613 4.96858 27.2748 4.97227C27.1384 4.97227 27.0279 5.0349 27.2158 5.12885C27.26 5.15096 27.4498 5.20807 27.7169 5.33149L27.7556 5.35176C28.2935 5.60229 29.9662 6.61918 29.8446 9.49667C29.8446 9.58325 29.8335 9.66984 29.828 9.75458C29.8225 9.83932 29.8114 9.913 29.8022 9.99222C29.6456 9.9738 29.5756 10.0401 29.688 10.1543C29.8372 10.3126 29.9711 10.4847 30.0878 10.6683C30.4818 11.3339 30.645 12.111 30.552 12.8789C30.494 13.3036 30.3364 13.7085 30.0922 14.0606C29.8479 14.4128 29.5238 14.7022 29.1464 14.9053C28.5926 15.2112 27.9985 15.4376 27.3816 15.5777C27.214 15.6164 27.2932 15.8338 28.0706 15.8227C28.1369 15.8227 28.2787 15.8375 28.3193 15.9148C28.4095 16.0825 28.2548 16.4104 27.9158 16.6093C27.6248 16.7807 27.8569 16.8175 28.2622 16.6959C28.4246 16.71 28.5835 16.7517 28.7319 16.8194C30.1356 17.4502 31.3596 18.4216 32.2929 19.6453C33.155 20.8832 33.4682 21.8559 33.1974 22.4693C32.9266 23.0828 32.1565 23.173 32.151 23.173H32.1381C29.128 23.641 23.9054 22.8157 20.3039 21.7546C19.4813 21.5078 18.6742 21.2119 17.887 20.8685C18.2765 19.9885 18.4065 19.0155 18.2616 18.0641C18.1167 17.1128 17.7029 16.2226 17.069 15.4985L17.0156 15.4414C17.9959 15.274 18.9889 15.1927 19.9834 15.1982" fill="white"/>
<path d="M34.724 20.5349C35.8206 22.1706 35.5216 24.3676 34.0276 25.6507C34.046 24.9378 33.9208 24.1069 33.3957 23.4401C33.6256 23.2607 33.8084 23.028 33.9281 22.7621C34.326 21.8705 33.9963 20.6565 32.9481 19.1515V19.1423L32.8799 19.0538C33.6358 19.3396 34.2833 19.855 34.7313 20.5276M16.4826 15.9995C17.6856 17.3553 17.8882 19.4186 16.9635 20.9071C15.9281 22.5761 14.0712 23.4014 12.3433 22.9611C12.0998 22.8996 11.8634 22.8132 11.6377 22.7032C11.8016 22.6788 11.964 22.6449 12.124 22.6019C13.8244 22.1413 15.0936 20.5755 15.2834 18.6983C15.4082 17.5362 15.0781 16.3708 14.3623 15.4468C14.1185 15.1394 13.8297 14.8705 13.5057 14.6492C14.0681 14.6555 14.6231 14.7788 15.1353 15.0112C15.6475 15.2437 16.1058 15.5803 16.4808 15.9995" fill="white"/>
<path d="M13.745 15.9479C14.3315 16.7103 14.6002 17.6702 14.4947 18.6264C14.3381 20.1757 13.301 21.4689 11.9157 21.8447C11.4024 21.9863 10.8651 22.0179 10.3388 21.9376C9.81244 21.8573 9.30899 21.6668 8.86133 21.3786C9.72203 21.3469 10.5524 21.0524 11.2407 20.5346C11.929 20.0169 12.4423 19.3008 12.7115 18.4827C12.984 17.6353 12.9658 16.7212 12.6599 15.8852C12.5199 15.5075 12.3209 15.1544 12.0704 14.8389C12.723 15.0293 13.3016 15.415 13.7284 15.9442" fill="white"/>
<path d="M11.101 15.9883C11.1609 15.672 11.1881 15.3504 11.1821 15.0286C11.6009 15.4367 11.8971 15.954 12.0371 16.5218C12.1771 17.0896 12.1553 17.6853 11.9742 18.2413C11.4584 19.8459 9.74884 20.8646 8.16456 20.5109C7.41061 20.3419 6.73451 19.9264 6.24316 19.3301C6.52885 19.3921 6.82033 19.4236 7.11268 19.424C7.67124 19.4241 8.22379 19.3087 8.73564 19.0851C9.35376 18.8014 9.89321 18.371 10.3071 17.8313C10.7209 17.2916 10.9966 16.6589 11.1102 15.9883" fill="white"/>
<path d="M9.91717 13.3467C10.3513 14.1005 10.4936 14.9874 10.3169 15.8392C10.2317 16.4151 9.99515 16.9582 9.63143 17.4128C9.26772 17.8675 8.78986 18.2175 8.24664 18.4271C7.70343 18.6367 7.11433 18.6984 6.53948 18.6059C5.96462 18.5134 5.42462 18.27 4.97459 17.9006C4.58398 17.6174 4.25673 17.2559 4.01376 16.8391C3.77078 16.4223 3.61742 15.9594 3.56348 15.4799C3.64453 15.5518 3.72927 15.6181 3.81586 15.6807C4.46178 16.1371 5.2357 16.377 6.02648 16.366C6.38022 16.3685 6.73271 16.3239 7.07468 16.2334C8.52264 15.8244 9.23188 14.9549 9.57268 14.2972C9.72701 13.9986 9.84099 13.6808 9.91164 13.3522" fill="white"/>
<path d="M1.00996 3.23693L1.04128 3.21482C1.06887 3.18973 1.10154 3.17089 1.13707 3.15955H1.27708C1.30221 3.16314 1.3269 3.16931 1.35076 3.17798C1.57919 3.26087 1.74683 3.54641 1.80026 3.95353C1.88935 4.65031 2.13496 5.31789 2.51871 5.90625C2.53189 5.92464 2.54857 5.94024 2.56779 5.95219C2.587 5.96413 2.60838 5.97217 2.63071 5.97584C2.65303 5.97952 2.67586 5.97877 2.69789 5.97362C2.71993 5.96848 2.74073 5.95904 2.75911 5.94586C2.7775 5.93267 2.79311 5.916 2.80505 5.89678C2.81699 5.87756 2.82503 5.85618 2.82871 5.83386C2.83238 5.81153 2.83163 5.7887 2.82648 5.76667C2.82134 5.74464 2.81191 5.72384 2.79872 5.70545C2.44978 5.16203 2.22578 4.54795 2.1429 3.90748C2.07106 3.36772 1.82605 2.98639 1.47051 2.85375C1.38745 2.82307 1.29926 2.80868 1.21076 2.81138C1.16853 2.71902 1.13342 2.62356 1.10575 2.52584C1.07075 2.37847 1.00443 2.08556 1.33234 1.97319L1.39498 1.95476H1.42814C1.66578 1.92529 1.98079 2.03398 2.28844 3.14482C2.51752 3.87082 2.84279 4.56287 3.25558 5.20254C3.28176 5.23648 3.31971 5.25938 3.36194 5.26672C3.40418 5.27405 3.44763 5.26529 3.48372 5.24216C3.5198 5.21902 3.54591 5.1832 3.55688 5.14176C3.56785 5.10032 3.56288 5.05627 3.54296 5.01832C3.15171 4.40729 2.84205 3.74773 2.62187 3.05639C2.48739 2.57742 2.29765 2.05608 1.97526 1.78897C1.92921 1.67107 1.87763 1.54027 1.86473 1.4979C1.80947 1.33395 1.75236 0.969196 2.06553 0.866034C2.12121 0.846413 2.17967 0.83584 2.2387 0.834717C2.34042 0.844081 2.43683 0.884428 2.5149 0.950313C2.59298 1.0162 2.64896 1.10445 2.67529 1.20315C2.67529 1.22526 2.69556 1.24921 2.70661 1.275L4.11957 4.64988C4.12804 4.67403 4.14341 4.69517 4.16378 4.71067C4.19082 4.73555 4.22567 4.75026 4.26236 4.75228C4.29905 4.75429 4.3353 4.74349 4.3649 4.72172C4.3945 4.69996 4.41562 4.66857 4.42464 4.63295C4.43365 4.59733 4.43 4.55968 4.41432 4.52645L3.0382 1.25473C3.06753 1.18252 3.12364 1.12444 3.19479 1.09262C3.26338 1.053 3.34042 1.03027 3.41954 1.0263C3.48161 1.02764 3.54241 1.04412 3.59667 1.0743C3.65092 1.10447 3.69699 1.14744 3.73087 1.19947C3.73087 1.19947 5.55647 4.78804 5.89543 5.40702C5.79207 5.57244 5.70272 5.74621 5.62832 5.92651C5.60437 6.01862 5.66516 6.10152 5.70937 6.01494C5.82319 5.85033 5.9462 5.69226 6.07781 5.5415C6.08364 5.53585 6.08806 5.52891 6.0907 5.52123C6.17729 5.36833 6.4444 4.65541 6.55125 4.43066C6.63001 4.06105 6.7635 3.70527 6.94732 3.37509C7.0041 3.27523 7.08599 3.19193 7.18486 3.13345C7.28373 3.07497 7.39617 3.04332 7.51103 3.04165C7.71735 3.04165 7.87947 3.14666 7.87947 3.2535C7.87947 3.3014 7.43181 6.0702 7.43181 6.0702C7.31576 6.64865 7.21259 7.47763 7.15549 7.95844C7.15133 8.07531 7.1384 8.19169 7.1168 8.30662V8.34346C7.1168 8.34346 7.1168 8.36925 7.10022 8.41162C7.04117 8.66585 6.95469 8.91292 6.84232 9.14849L6.98601 9.808C7.04311 10.0862 7.10575 10.3846 7.1297 10.4749C7.2347 10.8433 7.10022 11.0681 7.16838 11.1436C7.26418 11.2486 7.49629 10.7494 7.55708 10.4914C7.57753 10.1811 7.54451 9.86953 7.45945 9.57035C7.74797 9.70534 8.01097 9.8892 8.23685 10.1138C8.57414 10.4267 8.81778 10.8273 8.94056 11.2707C9.0742 11.7022 9.1649 12.1459 9.21136 12.5952C9.22058 12.9508 9.09899 14.839 6.86626 15.4672C6.59571 15.5381 6.31695 15.5727 6.03728 15.5703C5.411 15.5798 4.798 15.3894 4.28721 15.0269C3.20769 14.2587 2.78583 12.5805 2.99768 11.6926C3.08375 11.3461 3.22761 11.0166 3.42322 10.718C3.5227 10.7792 3.62918 10.8286 3.74008 10.8654L3.80455 11.1712C3.80455 11.2081 3.98877 12.061 4.31668 12.3207C4.49813 12.4339 4.70899 12.491 4.92276 12.4847C5.02039 12.4847 5.25435 12.4736 5.2912 12.3723C5.29809 12.3546 5.29931 12.3351 5.29469 12.3166C5.29007 12.2982 5.27984 12.2816 5.26541 12.2692C5.23403 12.2432 5.19934 12.2215 5.16224 12.2047C5.00382 12.1181 4.70722 11.9597 4.64459 11.6686C4.60959 11.5046 4.47327 10.9317 4.39405 10.5909C4.72565 10.3275 4.76249 10.0383 4.32773 10.1285C4.20381 10.1458 4.0776 10.1355 3.95816 10.0982C3.83872 10.061 3.72901 9.9977 3.63691 9.913C2.76372 9.15218 1.85736 6.81076 1.67499 6.39627C0.938115 4.51724 0.779687 3.50957 1.00996 3.22771M12.7889 23.8436C12.9522 23.8615 13.1164 23.8708 13.2807 23.8712C14.9056 23.8712 16.4898 23.0146 17.4975 21.5372C18.3374 21.9089 19.2001 22.227 20.0803 22.4896C22.1708 23.095 24.3048 23.5384 26.4634 23.816C27.6745 23.9782 28.8946 24.0643 30.1165 24.0739C30.832 24.0801 31.547 24.0321 32.2552 23.9302C32.3962 23.9089 32.5349 23.875 32.6697 23.8289C33.1579 24.3428 33.2537 25.0871 33.2224 25.7171H13.0523C12.7807 25.1319 12.6896 24.479 12.7907 23.8418" fill="white"/>
<path d="M23.5493 11.3791C23.5308 11.3109 23.4443 11.3109 23.4148 11.3109C23.329 11.3139 23.2443 11.3313 23.1642 11.3625C23.0685 11.4007 22.985 11.4643 22.9227 11.5464C22.8604 11.6285 22.8216 11.7261 22.8105 11.8286C22.8107 11.85 22.8193 11.8706 22.8345 11.8857C22.844 11.8955 22.8555 11.9032 22.8682 11.9082C22.8809 11.9133 22.8945 11.9157 22.9082 11.9151C22.9254 11.9147 22.9418 11.9075 22.9539 11.8951C22.9659 11.8827 22.9727 11.8661 22.9727 11.8488C22.9808 11.7882 23.0087 11.7319 23.0519 11.6886C23.162 11.586 23.3021 11.5214 23.4516 11.5043C23.4977 11.4933 23.5622 11.4583 23.5437 11.3901" fill="black"/>
<path d="M26.6973 13.0114C26.4744 13.0764 26.2411 13.0977 26.0101 13.0741C25.7815 13.0577 25.5576 13.0009 25.3488 12.9064C25.1253 12.794 24.9232 12.6431 24.7519 12.4606C25.5788 12.678 26.4367 12.7522 27.2886 12.6798C27.1135 12.8257 26.9131 12.9381 26.6973 13.0114ZM28.4934 11.9061C28.4087 11.8969 28.3866 11.9688 28.4197 11.9964C28.4321 12.0069 28.4431 12.0185 28.4529 12.0314L28.37 12.0793C28.1777 12.1675 27.9763 12.2343 27.7694 12.2783C27.2613 12.3835 26.7403 12.4114 26.2238 12.3612C25.3723 12.2958 24.5363 12.0975 23.7461 11.7735L23.5379 11.6814C23.5029 11.6666 23.4698 11.6445 23.4348 11.6316C23.4097 11.6227 23.383 11.6198 23.3566 11.623C23.3303 11.6262 23.305 11.6355 23.2828 11.6502C23.2607 11.6648 23.2422 11.6844 23.229 11.7074C23.2157 11.7304 23.2079 11.7562 23.2063 11.7827C23.2041 11.8226 23.215 11.8622 23.2372 11.8955C23.2595 11.9287 23.292 11.9538 23.3298 11.9669C23.5431 12.0724 23.7634 12.1629 23.9893 12.2377C24.1747 12.3428 24.3385 12.4822 24.4719 12.6485C24.6467 12.8365 24.847 12.999 25.0669 13.1312C25.5038 13.3709 26.0077 13.4596 26.5002 13.3836C26.748 13.3449 26.9855 13.2565 27.1984 13.1238C27.3505 13.0236 27.4963 12.9141 27.6349 12.7959C27.7187 12.728 27.8074 12.6664 27.9002 12.6117C27.9555 12.5804 28.3423 12.4275 28.5468 12.3077C28.5468 12.3796 28.5468 12.4422 28.591 12.4514C28.6353 12.4606 28.6924 12.3612 28.7108 12.2783C28.7258 12.206 28.7187 12.1309 28.6905 12.0627C28.6706 12.0266 28.6429 11.9953 28.6095 11.9711C28.576 11.9469 28.5377 11.9303 28.4971 11.9227M23.8161 9.02311C23.8456 8.70257 24.0316 7.69674 24.8348 7.7778C25.4464 7.83859 25.6104 8.28992 25.6564 8.68415V8.73757C25.6905 9.0471 25.6455 9.3602 25.5256 9.64761C25.4871 9.74569 25.4396 9.84003 25.3838 9.92947C25.3366 10.0264 25.2682 10.1114 25.1837 10.1784C25.0992 10.2453 25.0008 10.2925 24.8956 10.3163H24.8496C25.0064 10.2115 25.1359 10.0707 25.2272 9.90568C25.3185 9.74064 25.3691 9.55615 25.3746 9.3676C25.428 8.77442 25.1462 8.26229 24.7427 8.22913C24.6429 8.22572 24.5437 8.24617 24.4533 8.28879C24.363 8.3314 24.2841 8.39494 24.2232 8.47414C24.299 8.49328 24.3665 8.53662 24.4154 8.59757C24.4643 8.65852 24.492 8.73377 24.4943 8.8119C24.4966 8.89002 24.4734 8.96676 24.4281 9.03048C24.3828 9.0942 24.318 9.14141 24.2435 9.16496C24.1798 9.16195 24.119 9.1376 24.0709 9.09582C24.0228 9.05405 23.9901 8.99729 23.9782 8.93469C23.9486 9.03446 23.9289 9.13688 23.9193 9.24049C23.8803 9.55933 23.9618 9.88122 24.1477 10.1432C24.1237 10.1231 24.1015 10.1009 24.0814 10.0768C23.9384 9.88067 23.8506 9.64975 23.8272 9.40813C23.8099 9.27931 23.8056 9.1491 23.8143 9.01943M23.9082 10.215C23.9956 10.3214 24.1102 10.4023 24.2398 10.449C24.3532 10.4892 24.4716 10.5134 24.5917 10.5208C24.6969 10.5314 24.8027 10.5363 24.9085 10.5355C25.4022 10.5153 25.8683 9.7563 25.883 9.0139C25.8978 8.33782 25.8075 7.81832 25.3193 7.51436C25.2686 7.48324 25.2149 7.45732 25.1591 7.43699C24.9468 7.35983 24.716 7.34954 24.4977 7.40752C24.2489 7.48356 24.0399 7.65422 23.9156 7.8828C23.7839 8.11615 23.6912 8.36939 23.6411 8.63257C23.5823 8.89678 23.5704 9.16928 23.6061 9.4376C23.6358 9.71989 23.7408 9.98902 23.9101 10.2168M28.7937 9.68446C28.7689 9.81056 28.7319 9.93396 28.6832 10.0529C28.601 10.2773 28.4612 10.4762 28.2779 10.6295C28.2113 10.6776 28.1343 10.7092 28.0531 10.7216C28.2007 10.613 28.3218 10.4724 28.4073 10.3103C28.4928 10.1482 28.5405 9.96891 28.5468 9.78578C28.6003 9.19259 28.3258 8.68047 27.9334 8.64915C27.8347 8.64622 27.7369 8.66713 27.648 8.7101C27.5592 8.75308 27.482 8.81685 27.4231 8.896C27.5007 8.90742 27.5712 8.94773 27.6204 9.00887C27.6696 9.07001 27.6939 9.14747 27.6884 9.22575C27.7036 9.30725 27.6863 9.39148 27.6401 9.46036C27.594 9.52924 27.5227 9.57728 27.4415 9.59419C27.3787 9.59136 27.3187 9.56718 27.2715 9.52564C27.2243 9.48411 27.1926 9.42771 27.1818 9.36576C27.1528 9.46558 27.1337 9.56801 27.1247 9.67156C27.1013 9.84143 27.1131 10.0143 27.1594 10.1794C27.2057 10.3445 27.2854 10.4983 27.3936 10.6313C27.244 10.5159 27.1397 10.3516 27.0989 10.1671C27.0691 10.0673 27.0487 9.96492 27.0381 9.86131C26.9981 9.555 27.0348 9.24355 27.1449 8.95495L27.1615 8.90337C27.3034 8.53493 27.5705 8.14623 28.1581 8.24018C28.93 8.36545 28.8489 9.37497 28.7955 9.68998M28.989 8.57362C28.9316 8.32529 28.7796 8.10916 28.5653 7.97123C28.3753 7.86094 28.1557 7.81265 27.9371 7.83306C27.8802 7.83923 27.824 7.85095 27.7694 7.86806C27.2352 8.03754 27.0215 8.51099 26.8631 9.15759C26.6899 9.87236 26.9331 10.7161 27.3881 10.8598C27.4869 10.887 27.5871 10.9085 27.6884 10.9242C27.8022 10.9476 27.9189 10.9544 28.0347 10.9445C28.1679 10.9322 28.2953 10.8838 28.4031 10.8045C28.62 10.6267 28.7858 10.3948 28.8839 10.1321C28.9848 9.88402 29.0421 9.62042 29.0534 9.35286C29.0733 9.0888 29.0509 8.82326 28.9871 8.56625" fill="black"/>
</svg>
