<svg width="57" height="48" viewBox="0 0 57 48" fill="none" xmlns="http://www.w3.org/2000/svg">
<path d="M33.5016 25.8701C33.4572 25.8812 33.2796 25.8812 33.2019 25.8812H27.4749V27.2131H33.3018C33.3462 27.2131 33.6902 27.2131 33.7568 27.202C34.9444 27.091 35.4882 26.1032 35.4882 25.2375C35.4882 24.3496 34.9222 23.3951 33.8456 23.2952C33.6347 23.273 33.4572 23.273 33.3795 23.273H29.5726C29.4061 23.273 29.2174 23.2619 29.1509 23.2397C28.8512 23.162 28.7402 22.8957 28.7402 22.6737C28.7402 22.4739 28.8512 22.2076 29.162 22.1188C29.2507 22.0966 29.3506 22.0855 29.5615 22.0855H35.0554V20.7758H29.4727C29.2396 20.7758 29.0621 20.7869 28.9178 20.8091C27.9633 20.9423 27.2974 21.7081 27.2974 22.6848C27.2974 23.4839 27.7968 24.4162 28.8956 24.5716C29.0954 24.5938 29.3728 24.5938 29.4949 24.5938H33.2019C33.2685 24.5938 33.435 24.5938 33.4683 24.6049C33.89 24.6604 34.0343 24.9711 34.0343 25.2486C34.0343 25.515 33.8678 25.8035 33.5016 25.8701Z" fill="#131314"/>
<path d="M22.6471 25.8701C22.6027 25.8812 22.4251 25.8812 22.3585 25.8812H16.6205V27.2131H22.4473C22.4917 27.2131 22.8357 27.2131 22.9023 27.202C24.0899 27.091 24.6337 26.1032 24.6337 25.2375C24.6337 24.3496 24.0677 23.3951 22.9911 23.2952C22.7802 23.273 22.6027 23.273 22.525 23.273H18.7181C18.5516 23.273 18.363 23.2619 18.2964 23.2397C17.9967 23.162 17.8857 22.8957 17.8857 22.6737C17.8857 22.4739 17.9967 22.2076 18.3075 22.1188C18.3962 22.0966 18.4961 22.0855 18.707 22.0855H24.2009V20.7758H18.6182C18.3851 20.7758 18.2076 20.7869 18.0633 20.8091C17.1088 20.9423 16.4429 21.7081 16.4429 22.6848C16.4429 23.4839 16.9423 24.4162 18.0411 24.5716C18.2409 24.5938 18.5183 24.5938 18.6404 24.5938H22.3474C22.414 24.5938 22.5805 24.5938 22.6138 24.6049C23.0355 24.6604 23.1798 24.9711 23.1798 25.2486C23.1798 25.515 23.0244 25.8035 22.6471 25.8701Z" fill="#131314"/>
<path d="M13.6347 20.7313H12.1919V27.2463H13.6347V20.7313Z" fill="#131314"/>
<path d="M9.00637 27.2463V20.7313H7.56354V25.5926L2.75779 20.7313H0.904297V27.2463H2.34713V22.3628L7.18618 27.2463H9.00637Z" fill="#131314"/>
<path d="M55.4102 20.7313V25.5926L50.6045 20.7313H48.751V27.2463H50.1938V22.3628L55.0218 27.2463H56.842V20.7313H55.4102Z" fill="#131314"/>
<path d="M41.2374 20.7313L37.1753 27.2463H38.9289L39.6503 26.0809H44.3895L45.1109 27.2463H46.8534L42.7913 20.7313H41.2374ZM43.6459 24.849H40.3939L42.0254 22.2297L43.6459 24.849Z" fill="#131314"/>
<path d="M8.92865 17.0352C11.8365 8.54472 19.8498 2.83997 28.8842 2.83997C37.9185 2.83997 45.9429 8.54472 48.8397 17.0352L48.8619 17.1018H55.2215V16.336L52.58 16.0253C50.9484 15.8366 50.6044 15.1152 50.1604 14.2051L50.0494 13.9831C46.2315 5.85882 37.9185 0.598022 28.8842 0.598022C19.8387 0.598022 11.5368 5.85882 7.71888 14.0053L7.6079 14.2273C7.16395 15.1374 6.81989 15.8588 5.18837 16.0475L2.54688 16.3582V17.124H8.89535L8.92865 17.0352Z" fill="#131314"/>
<path d="M48.8615 30.8867L48.8393 30.9533C45.9315 39.4438 37.9182 45.1375 28.8838 45.1375C19.8494 45.1375 11.8251 39.4327 8.92829 30.9422L8.90609 30.8756H2.55762V31.6414L5.19912 31.9522C6.83063 32.1409 7.17469 32.8623 7.61864 33.7724L7.72963 33.9944C11.5476 42.1408 19.8605 47.4016 28.8949 47.4016C37.9293 47.4016 46.2422 42.1408 50.0602 34.0055L50.1712 33.7835C50.6151 32.8734 50.9592 32.152 52.5907 31.9633L55.2322 31.6525V30.8867H48.8615Z" fill="#131314"/>
</svg>
