<svg width="118" height="28" viewBox="0 0 118 28" fill="none" xmlns="http://www.w3.org/2000/svg">
<g clip-path="url(#clip0_959_16198)">
<path d="M29.5631 10.2094C30.4696 10.2106 31.3561 9.94283 32.1104 9.44005C32.8647 8.93727 33.4529 8.22204 33.8006 7.38487C34.1483 6.5477 34.2399 5.6262 34.0637 4.73697C33.8876 3.84774 33.4517 3.03073 32.8111 2.38932C32.1705 1.74791 31.354 1.31092 30.465 1.13364C29.576 0.956364 28.6544 1.04676 27.8168 1.3934C26.9792 1.74004 26.2632 2.32733 25.7595 3.08099C25.2557 3.83464 24.9868 4.72078 24.9868 5.62729C24.9863 6.84169 25.4681 8.00658 26.3262 8.86584C27.1844 9.7251 28.3487 10.2084 29.5631 10.2094Z" fill="#EF373E"/>
<path d="M11.5282 4.32593C9.31131 4.32438 7.14373 4.98041 5.29973 6.21101C3.45573 7.44162 2.01816 9.19151 1.16888 11.2393C0.319609 13.2871 0.0967952 15.5408 0.528629 17.7152C0.960463 19.8897 2.02754 21.8872 3.59487 23.4551C5.16219 25.023 7.15934 26.0907 9.33364 26.5233C11.5079 26.9559 13.7617 26.7339 15.8098 25.8853C17.8579 25.0368 19.6083 23.5998 20.8395 21.7563C22.0708 19.9127 22.7276 17.7453 22.7268 15.5284C22.7237 12.559 21.543 9.71198 19.4436 7.61189C17.3443 5.5118 14.4977 4.33008 11.5282 4.32593ZM17.2745 21.2767C15.947 22.6055 14.1999 23.4329 12.3308 23.6181C10.4616 23.8033 8.5861 23.3348 7.02367 22.2923C5.46123 21.2498 4.30854 19.6979 3.76195 17.9009C3.21535 16.1039 3.30867 14.173 4.026 12.4371C4.74333 10.7012 6.0403 9.26766 7.69598 8.38071C9.35165 7.49375 11.2636 7.20825 13.1062 7.57281C14.9488 7.93738 16.6079 8.92948 17.8011 10.3801C18.9943 11.8307 19.6476 13.6501 19.6498 15.5284C19.6525 16.5959 19.444 17.6533 19.0363 18.6398C18.6287 19.6263 18.0299 20.5225 17.2745 21.2767Z" fill="#131314"/>
<path d="M88.7679 4.8139H87.2C87.2 4.8139 86.3906 4.8139 86.3906 5.62332V25.4276C86.3906 26.239 87.1981 26.239 87.1981 26.239H88.766C88.766 26.239 89.5754 26.239 89.5754 25.4276V5.63312C89.5754 4.8237 88.766 4.8237 88.766 4.8237" fill="#131314"/>
<path d="M47.0249 26.7348C43.7187 26.7756 40.4926 25.7175 37.8528 23.7265L37.6568 23.5638C37.5757 23.5003 37.5086 23.4207 37.4596 23.3301C37.4107 23.2395 37.3809 23.1397 37.3723 23.0371C37.3636 22.9344 37.3763 22.8311 37.4094 22.7336C37.4425 22.636 37.4954 22.5464 37.5647 22.4702C37.7078 22.2938 38.0978 21.8548 38.5447 21.3786C38.5919 21.3278 38.6423 21.28 38.6956 21.2355C39.1444 20.82 39.6637 21.1963 39.7676 21.2786C42.1312 23.1365 44.2929 23.9009 47.1249 23.9009C49.9569 23.9009 51.9167 22.5682 51.9167 20.6573V20.5966C51.9167 18.8895 51.0309 17.8528 46.1861 16.9238C41.3414 15.9948 38.0959 14.5034 38.0959 10.4955V10.4328C38.0959 6.90507 41.4609 4.32787 46.0979 4.32787C48.8654 4.23525 51.5908 5.02451 53.8805 6.58169L54.1196 6.75024C54.2793 6.86817 54.3865 7.04404 54.418 7.24008C54.4495 7.43613 54.4029 7.63671 54.2881 7.79876C54.1353 7.98299 53.6061 8.6121 53.3376 8.91979C52.9456 9.28433 52.7771 9.50775 51.8168 8.9002L51.5247 8.73753C49.9784 7.8262 48.0382 7.14417 46.0372 7.16965C43.3541 7.16965 41.4786 8.42983 41.4786 10.2329V10.2936C41.4786 12.0144 42.4075 13.0688 47.4757 14.0566C52.9829 15.1482 55.3327 17.0355 55.3327 20.3653V20.428C55.3327 24.1517 51.9187 26.7446 47.0328 26.7446" fill="#131314"/>
<path d="M78.6801 4.8139H61.1629C61.1629 4.8139 60.3535 4.8139 60.3535 5.62332V7.2206C60.3535 8.03198 61.1629 8.03198 61.1629 8.03198H68.3556V25.4276C68.3556 25.4276 68.3556 26.239 69.165 26.239H70.7329C71.5403 26.239 71.5423 25.4315 71.5423 25.4276V8.03198H78.6761C78.6761 8.03198 79.4856 8.03198 79.4856 7.2206V5.62332C79.4856 4.8139 78.6761 4.8139 78.6761 4.8139" fill="#131314"/>
<path d="M117.013 4.81409H115.41C114.6 4.81409 114.6 5.62547 114.6 5.62547V15.3581V15.3287C114.6 18.3625 114.6 21.2592 114.6 22.0098L102.232 5.4628C102.076 5.26786 101.879 5.10884 101.656 4.99656C101.433 4.88429 101.188 4.82139 100.938 4.81213H98.804C98.804 4.81213 97.9946 4.81213 97.9946 5.62351V25.418C97.9946 25.418 97.9946 26.2196 98.7943 26.2274H100.456C101.266 26.2274 101.266 25.416 101.266 25.416C101.266 25.416 101.266 15.2385 101.266 9.12968L113.642 25.5767C113.798 25.7717 113.994 25.9308 114.217 26.0431C114.44 26.1554 114.684 26.2183 114.934 26.2274H117.003C117.003 26.2274 117.813 26.2274 117.813 25.416V5.62155C117.813 5.62155 117.813 4.81801 117.011 4.81213" fill="#131314"/>
</g>
<defs>
<clipPath id="clip0_959_16198">
<rect width="117.926" height="26.2706" fill="white" transform="translate(0.0371094 0.864746)"/>
</clipPath>
</defs>
</svg>
