<svg width="120" height="32" viewBox="0 0 120 32" fill="none" xmlns="http://www.w3.org/2000/svg">
<g clip-path="url(#clip0_959_16032)">
<path d="M1.20898 9.77828C2.14346 7.61423 2.63529 5.25344 3.91405 3.28613C4.55343 2.25328 5.24199 1.22044 5.88137 0.285965C6.86503 -0.00913253 7.55359 0.433514 8.3897 0.728612C6.52074 3.53204 5.04526 6.38465 4.50424 9.67991C3.71732 14.549 5.43872 18.582 9.47172 21.0412C13.2096 23.3528 18.2755 23.156 21.9642 20.5493C25.5546 17.9918 27.1284 13.6145 26.0956 9.04053C25.407 6.04037 24.2266 3.28613 22.3085 0.876161C22.9479 0.187599 23.6856 0.335148 24.325 0.0892334C24.5217 0.187599 24.7184 0.236782 24.7676 0.335148C28.3088 4.90916 30.3745 9.97501 29.0465 15.877C27.7186 21.6806 22.4068 25.9103 16.259 26.4021C10.3078 26.7956 4.45506 23.156 2.19264 17.6476C1.84836 16.8114 1.89755 15.877 1.20898 15.1884C1.20898 13.3686 1.20898 11.5489 1.20898 9.77828Z" fill="#D3D600"/>
<path d="M36.9153 11.6963C35.0955 11.5488 33.5708 11.4012 32.0953 11.2537C31.4559 10.7127 31.8002 10.1717 31.8494 9.53229C36.4726 9.53229 41.0466 9.53229 45.6206 9.53229C46.1125 10.0241 46.0633 10.5159 45.719 11.2045C43.8992 11.3521 42.0795 11.5488 40.063 11.7455C40.063 15.2375 40.063 18.6803 40.063 22.0248C40.3581 22.9592 41.5385 22.0739 41.9319 23.1068C41.2925 24.6315 39.8662 24.5823 38.5383 24.4347C37.2595 24.2872 36.9153 23.156 36.9153 22.0248C36.8661 18.6311 36.9153 15.2867 36.9153 11.6963Z" fill="#D3D600"/>
<path d="M21.0785 2.1548C21.3244 2.59744 21.5703 3.08927 21.8654 3.63029C21.5703 3.72865 21.3736 3.8762 21.1768 3.82702C19.1603 3.18764 17.3405 3.63029 15.57 4.61395C13.2092 5.8927 10.7992 5.8927 8.2417 4.90904C8.43843 4.36803 8.58598 4.02375 8.88108 3.33519C13.16 5.69597 16.5044 0.580943 21.0785 2.1548Z" fill="#D3D600"/>
<path d="M64.2123 12.4833C61.3597 7.51586 57.3759 8.49952 53.4413 11.2538C52.9002 10.6636 53.2445 9.72909 52.3101 9.28645C51.0313 9.38481 49.6542 9.1389 48.4738 9.63073C47.6377 11.4013 49.6542 10.9095 49.8017 11.7456C49.8017 18.4837 49.8017 25.2217 49.8017 31.9106C50.7854 31.9106 51.769 31.9106 52.7527 31.9106C52.7527 29.3531 52.7527 26.7464 52.7527 23.9922C57.0316 25.1725 60.7695 25.1725 63.4254 21.7297C65.6878 18.9263 65.9829 15.5327 64.2123 12.4833ZM61.163 20.6477C59.7367 22.9101 56.5398 23.2052 53.1462 21.3363C53.1462 18.8279 53.1462 16.4672 53.1462 14.3031C55.3102 11.598 57.9661 10.9095 60.0318 12.385C62.1466 13.8605 62.7368 18.2377 61.163 20.6477Z" fill="#D3D600"/>
<path d="M117.281 21.9262C117.281 20.0081 117.281 17.8932 117.281 15.7292C117.33 10.3682 115.806 8.84356 110.445 9.04029C109.314 9.08947 108.133 9.18784 107.002 9.38457C106.166 9.53212 105.379 9.82722 105.871 11.0568C107.543 11.0568 109.264 11.0076 110.937 11.0568C113.642 11.2043 114.527 12.4831 113.888 15.3849C111.281 15.0406 108.674 14.7455 106.215 15.9751C104.149 17.0079 103.116 18.631 103.461 20.9426C103.805 23.205 105.428 24.1886 107.543 24.5329C110.199 24.9756 112.314 23.8935 114.084 21.6803C114.281 23.9427 115.363 24.6805 117.281 24.3362C117.921 24.2378 118.56 24.0903 119.199 23.9427C119.199 23.4509 119.199 22.9591 119.199 22.4672C118.658 22.3197 117.921 22.8607 117.281 21.9262ZM109.559 22.5656C107.936 22.5164 106.707 21.9262 106.412 20.1556C106.117 18.2375 107.248 17.2047 108.871 16.8112C110.543 16.4177 112.264 16.5653 114.035 16.9587C114.281 20.254 112.265 22.6148 109.559 22.5656Z" fill="#D3D600"/>
<path d="M102.377 22.6643C101.541 22.5659 100.853 22.5167 100.164 22.4184C99.8691 19.0247 99.5248 15.7787 99.3281 12.5326C99.2297 10.6145 98.2461 9.58161 96.4755 9.53243C93.3278 9.43406 90.1801 9.48324 87.1307 9.48324C86.1962 11.5489 88.5078 10.9587 88.8521 12.0899C88.5078 15.5327 87.6226 19.0247 86.2946 22.2216C85.7044 22.7135 84.8683 22.1724 84.4257 22.861C84.3765 24.2873 84.3765 25.7628 84.7699 27.1891C85.5077 27.5334 86.1962 27.4842 86.934 26.9924C86.934 26.3038 86.934 25.5661 86.934 24.6808C91.3113 24.6808 95.3443 24.6808 99.5248 24.6808C99.6232 25.5661 99.6724 26.353 99.7707 27.2383C100.508 27.3367 101.197 27.5334 102.033 27.1891C102.476 25.8612 102.476 24.3365 102.377 22.6643ZM89.098 22.3692C90.2292 18.8772 90.967 15.336 91.5572 11.7457C93.131 11.4506 94.5082 11.4014 96.0328 11.844C96.7214 15.2376 96.7214 18.7296 97.1641 22.3692C94.5082 22.3692 91.9015 22.3692 89.098 22.3692Z" fill="#D3D600"/>
<path d="M82.5575 22.8609C82.1148 22.1724 81.3771 22.8117 80.7869 22.1232C80.3442 20.6477 80.5901 19.1722 80.6393 17.7459C80.9836 9.97499 79.4097 8.45031 71.6388 9.23724C71.0486 9.28642 70.5076 9.38479 69.9666 9.53234C68.983 9.72907 68.8354 10.3193 69.2289 11.1062C70.9503 11.1062 72.6717 11.0078 74.3439 11.1062C77.0982 11.2537 77.9343 12.5817 77.049 15.3851C74.4423 15.09 71.8356 14.7949 69.3764 16.0737C67.4583 17.1065 66.3763 18.6804 66.7697 20.8936C67.1632 23.2052 68.7862 24.3364 71.0486 24.5823C73.557 24.8774 75.6227 24.0413 77.2949 21.8281C77.9834 24.4348 79.4589 24.8774 81.5246 24.0905C82.2624 23.8938 82.7542 23.6478 82.5575 22.8609ZM73.016 22.5658C71.2454 22.5658 69.9666 21.7789 69.7699 19.9591C69.5732 18.2377 70.6552 17.1557 72.229 16.8114C73.9013 16.418 75.5735 16.5163 77.3932 16.9098C77.6392 20.205 75.721 22.5658 73.016 22.5658Z" fill="#D3D600"/>
</g>
<defs>
<clipPath id="clip0_959_16032">
<rect width="118.8" height="31.8214" fill="white" transform="translate(0.600098 0.0892944)"/>
</clipPath>
</defs>
</svg>
