<svg width="139" height="22" viewBox="0 0 139 22" fill="none" xmlns="http://www.w3.org/2000/svg">
<g clip-path="url(#clip0_959_16208)">
<path d="M136.645 19.1455C135.537 20.314 134.282 21.0107 132.707 21.3288C131.644 21.5446 130.713 21.5899 129.633 21.4774C128.201 21.3297 127.019 20.868 125.866 20.0025C124.924 19.2974 124.249 18.5343 123.659 17.5119C123.204 16.7203 122.939 15.9799 122.792 15.0784C122.585 13.8276 122.64 12.7271 122.967 11.504C123.717 8.72215 125.802 6.75031 128.612 6.16354C130.217 5.8286 131.644 5.86302 133.231 6.27435C134.361 6.56731 135.258 7.0609 136.113 7.85921C136.652 8.36119 137.035 8.86569 137.375 9.51877C137.777 10.2911 137.94 11.0415 137.894 11.9112H132.881C132.772 11.2371 132.45 10.6999 131.909 10.2869C131.208 9.75046 130.304 9.70765 129.555 10.1727C129.043 10.4925 128.707 10.9274 128.525 11.504C128.094 12.8782 128.074 14.1567 128.459 15.5443C128.623 16.1277 128.898 16.5852 129.338 17.0015C129.839 17.4817 130.464 17.679 131.15 17.5774C131.575 17.5153 131.92 17.3289 132.206 17.0057C132.506 16.6725 132.678 16.3149 132.757 15.8725C132.812 15.5611 132.843 15.2975 132.859 14.9818H138.144C138.249 16.581 137.744 17.9854 136.645 19.1455Z" fill="#0056A8"/>
<path d="M116.441 4.34387H121.923V0.457233H116.441V4.34387Z" fill="#0056A8"/>
<path d="M116.441 21.0546H121.923V6.34162H116.441V21.0546Z" fill="#0056A8"/>
<path d="M105.086 7.89442C105.807 7.26148 106.495 6.8149 107.364 6.41113C108.78 5.75469 110.196 5.64808 111.694 6.08711C113.301 6.55971 114.459 7.69379 114.965 9.29628C115.209 10.066 115.314 10.7493 115.314 11.5569V21.0526H109.492V12.513C109.492 12.2276 109.458 11.9858 109.373 11.7122C109.224 11.222 108.901 10.861 108.429 10.6612C107.397 10.2213 106.224 10.6108 105.657 11.5812C105.421 11.9858 105.313 12.3846 105.313 12.8547V21.0526H99.6738V6.33894H104.964L105.086 7.89442Z" fill="#0056A8"/>
<path d="M40.2501 7.89454C40.9711 7.2616 41.6586 6.81502 42.5268 6.41125C43.9436 5.75481 45.3604 5.6482 46.8576 6.08723C48.4651 6.55983 49.6227 7.69391 50.1295 9.2964C50.3729 10.0662 50.4783 10.7495 50.4783 11.557V21.0527H44.6562V12.5131C44.6562 12.2277 44.6202 11.986 44.5374 11.7123C44.3869 11.2221 44.064 10.8611 43.5915 10.6613C42.5602 10.2215 41.3868 10.611 40.8214 11.5814C40.5839 11.986 40.476 12.3847 40.476 12.8548V21.0527H34.8379V6.33906H40.1272L40.2501 7.89454Z" fill="#0056A8"/>
<path d="M74.8023 15.6449C75.2222 15.7163 75.5734 15.8044 75.9766 15.9396C76.3136 16.0504 76.5453 16.3123 76.6189 16.659C76.6992 17.0376 76.593 17.3969 76.322 17.6697C76.0468 17.9492 75.7332 18.1104 75.3468 18.1708C74.8299 18.2539 74.3715 18.2111 73.8789 18.0315C73.6405 17.9458 73.4515 17.8376 73.2558 17.6755C73.0041 17.4623 72.8418 17.2181 72.7439 16.9024C72.662 16.6346 72.6294 16.3979 72.6344 16.1175H67.2656V16.4315C67.2656 16.9385 67.3442 17.3683 67.5216 17.8426C67.7909 18.5561 68.1597 19.1076 68.7168 19.6281C69.4436 20.3105 70.2022 20.7361 71.1582 21.0106C73.1429 21.5781 74.9303 21.6906 76.9702 21.3766C77.927 21.2297 78.7166 20.9712 79.5772 20.5238C79.9561 20.3265 80.2597 20.1225 80.5867 19.8472C82.037 18.625 82.5748 16.7597 81.9952 14.9507C81.7761 14.2691 81.4298 13.7436 80.8903 13.2735C80.151 12.6305 79.4024 12.2209 78.4623 11.9455C78.2566 11.8859 78.0809 11.8356 77.8735 11.7785C76.7235 11.4578 75.7357 11.2463 74.5547 11.07C74.2386 11.023 73.9726 10.9718 73.6606 10.8988C73.5168 10.8643 73.3972 10.824 73.2633 10.7628C72.933 10.6134 72.7866 10.223 72.9355 9.89227C72.9438 9.87464 72.9514 9.8587 72.9606 9.84191C73.1379 9.52376 73.4005 9.31642 73.7468 9.21485C74.3598 9.03689 74.9244 9.052 75.5258 9.25766C76.1029 9.45493 76.465 9.98629 76.4399 10.5982H81.613C81.6079 9.96027 81.5109 9.42135 81.2968 8.82199C81.0777 8.21424 80.7448 7.7517 80.2388 7.35129C79.7988 7.00041 79.3815 6.76201 78.8571 6.55802C78.3469 6.35908 77.8969 6.23484 77.3574 6.13998C76.0753 5.91837 74.9721 5.85373 73.674 5.93096C72.9321 5.97377 72.3065 6.06611 71.5805 6.23652C70.6036 6.46736 69.8166 6.84595 69.0271 7.46714C68.3563 7.99514 67.9172 8.61213 67.6361 9.41967C67.5082 9.78566 67.4471 10.1105 67.4304 10.4958C67.4011 11.1414 67.494 11.6912 67.7323 12.2914C68.1589 13.3659 68.9166 14.1272 69.9889 14.5562C70.5317 14.7736 71.0076 14.9163 71.5805 15.0338C72.7097 15.268 73.6656 15.4502 74.8023 15.6449Z" fill="#0056A8"/>
<path d="M10.6289 14.7093H6.86688V9.88169H9.31163C9.77583 9.88169 10.1689 9.87077 10.6331 9.84475C11.2763 9.80949 11.8107 9.52073 12.1938 9.00112C12.3971 8.72494 12.5116 8.44625 12.5601 8.10543C12.6003 7.81835 12.6062 7.57323 12.5777 7.28614C12.4732 6.21166 11.5866 5.4058 10.5118 5.4058H6.86688V21.0538H0.63916V0.455633H10.8188C11.2236 0.455633 11.5657 0.463188 11.9697 0.485851C14.6703 0.631075 16.8951 2.13619 18.0393 4.59574C18.6348 5.87589 18.8372 7.1065 18.6842 8.51172C18.3613 11.4699 16.2996 13.7708 13.4032 14.4079C12.4431 14.6195 11.6117 14.7093 10.6289 14.7093Z" fill="#0056A8"/>
<path d="M92.3872 6.05889C91.8076 5.96655 91.3124 5.92878 90.7261 5.92878C90.139 5.92878 89.6447 5.96655 89.0642 6.05889C87.3814 6.32331 86.0181 7.00242 84.7895 8.18603C83.4747 9.45442 82.7546 10.9553 82.5898 12.7778C82.4894 13.8967 82.5756 14.8612 82.8758 15.9433C83.3358 17.6037 84.1998 18.8863 85.5631 19.934C86.4606 20.6265 87.353 21.0412 88.4587 21.2829C89.2441 21.4559 89.9224 21.5272 90.7261 21.5272C91.5291 21.5272 92.2082 21.4559 92.9944 21.2829C94.0993 21.0412 94.9917 20.6265 95.8891 19.934L92.7393 16.4889C92.2383 17.6054 90.9336 18.1032 89.8203 17.6003C89.3076 17.3686 88.9438 17.0043 88.7121 16.4889C88.4988 16.013 88.3742 15.5865 88.2973 15.0694C88.1417 14.0361 88.1593 13.1387 88.3608 12.1121C88.4637 11.579 88.641 11.1442 88.9371 10.6901C89.5845 9.6987 90.9093 9.42168 91.8988 10.0706C92.1572 10.241 92.3462 10.4307 92.5143 10.6901C92.8112 11.1442 92.9886 11.579 93.0914 12.1121C93.2905 13.1387 93.3106 14.0361 93.155 15.0694C93.0772 15.5865 92.9526 16.013 92.7393 16.4889L95.8891 19.934C97.2533 18.8863 98.1173 17.6037 98.5764 15.9433C98.8767 14.8612 98.962 13.8967 98.8625 12.7778C98.6977 10.9553 97.9793 9.45442 96.6636 8.18603C95.4341 7.00074 94.0717 6.32331 92.3872 6.05889Z" fill="#0056A8"/>
<path d="M66.6647 19.9011C66.5828 18.6889 66.5368 17.6623 66.5125 16.4459C66.4807 14.8476 66.4615 13.4995 66.4506 11.9021C66.4439 11.04 66.3494 10.3122 66.1345 9.47776C65.8526 8.38397 65.2145 7.55292 64.2317 7.00057C63.6379 6.66732 63.0934 6.46249 62.4293 6.31811C60.3149 5.86397 58.4489 5.8262 56.3187 6.19723C55.7198 6.30132 55.2247 6.4457 54.6626 6.67907C53.3646 7.21799 52.4705 8.20013 52.0539 9.54575C51.8942 10.0603 51.8515 10.5271 51.9126 11.0635C51.9243 11.1617 51.9486 11.2448 51.9929 11.3346L56.9259 11.4555C56.9133 11.1398 56.9543 10.8729 57.0605 10.5766C57.222 10.125 57.5398 9.8043 57.9898 9.63977C58.6513 9.39549 59.2887 9.38626 59.9594 9.60619C60.4002 9.75141 60.713 10.0704 60.8502 10.5145C60.9363 10.7923 60.8937 11.066 60.7264 11.3035C60.5809 11.5134 60.4011 11.6544 60.1627 11.7459C60.0155 11.8022 59.89 11.8433 59.7395 11.8836C59.0536 12.0691 58.4682 12.1967 57.7681 12.3134C57.2136 12.4049 56.7469 12.4913 56.1974 12.6038C55.4505 12.7524 54.8266 12.9169 54.1031 13.152C53.4407 13.3669 52.9188 13.6724 52.4069 14.145C51.7411 14.7561 51.3606 15.4806 51.2334 16.3796C51.1498 16.979 51.169 17.5011 51.3012 18.0912C51.6466 19.6257 52.708 20.7606 54.2143 21.2005C55.8837 21.6865 57.4503 21.6068 59.062 20.9537C59.8465 20.6372 60.4437 20.1982 60.9832 19.5451L60.6352 17.0159C60.3868 17.4021 60.0782 17.6656 59.6609 17.8503C59.2694 18.0241 58.9156 18.1156 58.4899 18.1592C58.1353 18.1945 57.8275 18.1685 57.4838 18.0719C57.2044 17.9947 56.9861 17.8637 56.7879 17.6522C56.6206 17.4709 56.5211 17.2761 56.4701 17.0344C56.3923 16.6633 56.5135 16.3066 56.8021 16.0606C56.9953 15.8953 57.1843 15.7845 57.421 15.6972C57.9939 15.4856 58.4832 15.327 59.0695 15.1599C59.7788 14.9593 60.3659 14.7419 61.035 14.433C61.1011 14.971 61.0978 15.4319 61.0233 15.9675C60.969 16.3603 60.8502 16.6835 60.6352 17.0159L60.9832 19.5451C61.0911 19.9044 61.1906 20.2049 61.3127 20.5567C61.3821 20.7539 61.4725 20.9067 61.6096 21.0603H67.0436C66.8119 20.6952 66.694 20.3342 66.6647 19.9011Z" fill="#0056A8"/>
<path d="M33.7529 19.9009C33.671 18.6888 33.625 17.6622 33.6007 16.4458C33.5681 14.8475 33.5497 13.4994 33.5388 11.9019C33.533 11.0398 33.4385 10.312 33.2227 9.47763C32.9408 8.38385 32.3035 7.5528 31.3199 7.00045C30.7261 6.6672 30.1816 6.46237 29.5175 6.31799C27.4031 5.86385 25.5371 5.82608 23.406 6.19711C22.8089 6.3012 22.312 6.44558 21.7508 6.67895C20.4528 7.21787 19.5587 8.20001 19.1421 9.54563C18.9832 10.0602 18.9397 10.5269 19.0016 11.0633C19.0125 11.1615 19.0368 11.2447 19.0811 11.3345L24.0141 11.4553C24.0024 11.1397 24.0425 10.8728 24.1487 10.5765C24.3102 10.1248 24.628 9.80418 25.078 9.63965C25.7404 9.39537 26.3769 9.38614 27.0468 9.60607C27.4884 9.75129 27.8021 10.0703 27.9401 10.5143C28.0245 10.7922 27.9819 11.0659 27.8146 11.3034C27.6682 11.5133 27.4884 11.6543 27.2509 11.7458C27.1037 11.802 26.9782 11.8432 26.8268 11.8835C26.1418 12.069 25.5555 12.1966 24.8563 12.3133C24.3026 12.4048 23.8351 12.4912 23.2848 12.6037C22.5387 12.7523 21.9156 12.9168 21.1904 13.1519C20.5297 13.3668 20.0078 13.6723 19.4951 14.1449C18.8293 14.756 18.4496 15.4805 18.3216 16.3795C18.2372 16.9789 18.2572 17.501 18.3902 18.0911C18.734 19.6256 19.797 20.7605 21.3017 21.2004C22.9728 21.6864 24.5377 21.6067 26.1502 20.9536C26.9339 20.6371 27.5328 20.1981 28.0722 19.545L27.7243 17.0158C27.4759 17.4019 27.1664 17.6655 26.7482 17.8502C26.3576 18.024 26.003 18.1155 25.579 18.1591C25.2227 18.1944 24.9165 18.1683 24.572 18.0718C24.2926 17.9946 24.0743 17.8636 23.8769 17.6521C23.7088 17.4708 23.6093 17.276 23.5583 17.0343C23.4813 16.6632 23.6017 16.3065 23.8903 16.0605C24.0827 15.8951 24.2717 15.7843 24.5092 15.697C25.0821 15.4855 25.5723 15.3268 26.1586 15.1598C26.8678 14.9592 27.4541 14.7418 28.1241 14.4328C28.1893 14.9709 28.186 15.4318 28.1115 15.9673C28.0572 16.3602 27.9376 16.6834 27.7243 17.0158L28.0722 19.545C28.1793 19.9043 28.2788 20.2048 28.4018 20.5565C28.4703 20.7538 28.5607 20.9066 28.6978 21.0602H34.1318C33.9002 20.695 33.7831 20.3341 33.7529 19.9009Z" fill="#0056A8"/>
</g>
<defs>
<clipPath id="clip0_959_16208">
<rect width="138.081" height="21.207" fill="white" transform="translate(0.459473 0.396484)"/>
</clipPath>
</defs>
</svg>
