<svg width="146" height="20" viewBox="0 0 146 20" fill="none" xmlns="http://www.w3.org/2000/svg">
<g clip-path="url(#clip0_959_16043)">
<path d="M10.802 5.48492L8.70561 7.58129L6.60924 5.48492C5.46175 4.3264 5.46175 2.4507 6.62027 1.30322C7.77879 0.144696 9.65449 0.144696 10.802 1.30322C11.9605 2.4507 11.9605 4.3264 10.802 5.48492Z" fill="#5EB02E"/>
<path d="M6.62044 11.3657L8.71681 9.26929L10.8132 11.3657C11.9717 12.5242 11.9717 14.3999 10.8132 15.5474C9.65466 16.7059 7.77896 16.7059 6.63148 15.5474C5.46193 14.3888 5.46193 12.5242 6.62044 11.3657Z" fill="#005929"/>
<path d="M11.652 10.5162L9.55566 8.41979L11.652 6.32342C12.8106 5.1649 14.6862 5.1649 15.8337 6.32342C16.9923 7.48194 16.9923 9.35764 15.8337 10.5051C14.6752 11.6747 12.8106 11.6747 11.652 10.5162Z" fill="#1F8738"/>
<path d="M5.77129 6.33437L7.86766 8.43074L5.77129 10.5271C4.61278 11.6856 2.73708 11.6856 1.58959 10.5271C0.431073 9.36859 0.431073 7.49289 1.58959 6.34541C2.73708 5.17585 4.61278 5.17585 5.77129 6.33437Z" fill="#ABE540"/>
<path d="M123.786 5.34155H115.036V7.79099H118.137V15.2165H120.685V7.79099H123.786V5.34155Z" fill="#005929"/>
<path d="M39.556 13.1753C40.538 13.1753 41.3324 12.756 41.7627 12.1933L43.815 13.3739C42.8881 14.72 41.4097 15.4813 39.5119 15.4813C36.1908 15.4813 34.1055 13.2084 34.1055 10.2735C34.1055 7.33858 36.2129 5.06567 39.3133 5.06567C42.2372 5.06567 44.3004 7.37168 44.3004 10.2735C44.3004 10.6486 44.2563 10.9796 44.2011 11.3217H36.7645C37.1287 12.6236 38.2099 13.1753 39.556 13.1753ZM41.7627 9.34668C41.4428 7.92335 40.3835 7.34961 39.3133 7.34961C37.9562 7.34961 37.0293 8.07782 36.7314 9.34668H41.7627Z" fill="#005929"/>
<path d="M56.647 10.2847C56.647 13.2306 54.4734 15.4925 51.8363 15.4925C50.391 15.4925 49.3538 14.9629 48.6366 14.0471V19.1556H46.0879V5.34168H48.6366V6.5002C49.3428 5.59545 50.391 5.05481 51.8363 5.05481C54.4734 5.06584 56.647 7.33875 56.647 10.2847ZM54.0982 10.2847C54.0982 8.62967 52.9287 7.50425 51.3509 7.50425C49.7951 7.50425 48.6256 8.62967 48.6256 10.2847C48.6256 11.9397 49.7951 13.0651 51.3509 13.0651C52.9397 13.0651 54.0982 11.9397 54.0982 10.2847Z" fill="#005929"/>
<path d="M63.3773 13.1753C64.3593 13.1753 65.1537 12.756 65.584 12.1933L67.6363 13.3739C66.7094 14.72 65.2309 15.4813 63.3332 15.4813C60.0231 15.4813 57.9268 13.2084 57.9268 10.2735C57.9268 7.33858 60.0342 5.06567 63.1346 5.06567C66.0695 5.06567 68.1328 7.38271 68.1328 10.2845C68.1328 10.6597 68.0886 10.9907 68.0335 11.3327H60.5969C60.9499 12.6236 62.0423 13.1753 63.3773 13.1753ZM65.5951 9.34668C65.2751 7.92335 64.2159 7.34961 63.1456 7.34961C61.7885 7.34961 60.8617 8.07782 60.5638 9.34668H65.5951Z" fill="#005929"/>
<path d="M91.5688 10.2847C91.5688 13.2306 89.3952 15.4925 86.7582 15.4925C85.3128 15.4925 84.2757 14.9629 83.5585 14.0471V19.1556H81.0098V5.34168H83.5585V6.5002C84.2647 5.59545 85.3128 5.05481 86.7582 5.05481C89.3952 5.06584 91.5688 7.33875 91.5688 10.2847ZM89.0201 10.2847C89.0201 8.62967 87.8505 7.50425 86.2728 7.50425C84.717 7.50425 83.5475 8.62967 83.5475 10.2847C83.5475 11.9397 84.717 13.0651 86.2728 13.0651C87.8616 13.0651 89.0201 11.9397 89.0201 10.2847Z" fill="#005929"/>
<path d="M98.2982 13.1752C99.2802 13.1752 100.075 12.7559 100.505 12.1932L102.557 13.3738C101.63 14.7199 100.152 15.4812 98.2541 15.4812C94.944 15.4812 92.8477 13.2083 92.8477 10.2734C92.8477 7.33848 94.9551 5.06558 98.0555 5.06558C100.979 5.06558 103.043 7.37158 103.043 10.2734C103.043 10.6485 102.998 10.9795 102.943 11.3216H95.5067C95.8708 12.6235 96.9632 13.1752 98.2982 13.1752ZM94.7234 2.98024C94.7234 2.25203 95.3302 1.63416 96.0694 1.63416C96.7977 1.63416 97.3935 2.241 97.3935 2.98024C97.3935 3.70846 96.7977 4.30427 96.0694 4.30427C95.3412 4.30427 94.7234 3.70846 94.7234 2.98024ZM100.505 9.34658C100.185 7.92326 99.1257 7.34952 98.0555 7.34952C96.6984 7.34952 95.7715 8.07773 95.4736 9.34658H100.505ZM98.4747 2.98024C98.4747 2.25203 99.0816 1.63416 99.8208 1.63416C100.549 1.63416 101.145 2.241 101.145 2.98024C101.145 3.70846 100.549 4.30427 99.8208 4.30427C99.0926 4.30427 98.4747 3.70846 98.4747 2.98024Z" fill="#005929"/>
<path d="M104.246 10.2846C104.246 7.34969 106.453 5.07678 109.454 5.07678C111.385 5.07678 113.062 6.1029 113.878 7.62552L111.694 8.90541C111.297 8.09997 110.447 7.58139 109.443 7.58139C107.92 7.58139 106.795 8.70681 106.795 10.2846C106.795 11.8403 107.92 12.9657 109.443 12.9657C110.469 12.9657 111.319 12.4692 111.716 11.6638L113.922 12.9216C113.073 14.4553 111.396 15.4814 109.465 15.4814C106.453 15.4924 104.246 13.2195 104.246 10.2846Z" fill="#005929"/>
<path d="M124.613 10.2846C124.613 7.34969 126.919 5.07678 129.821 5.07678C132.723 5.07678 135.051 7.34969 135.051 10.2846C135.051 13.2306 132.723 15.4924 129.821 15.4924C126.919 15.4924 124.613 13.2195 124.613 10.2846ZM132.502 10.2846C132.502 8.68474 131.333 7.55932 129.821 7.55932C128.321 7.55932 127.162 8.68474 127.162 10.2846C127.162 11.8845 128.321 13.0099 129.821 13.0099C131.344 12.9988 132.502 11.8734 132.502 10.2846Z" fill="#005929"/>
<path d="M76.3745 15.2165H79.3425L75.558 10.2184L79.2212 5.34155H76.1759L73.3293 9.35775H72.4576V5.34155H69.9199V15.2165H72.4576V11.3217H73.5279L76.3745 15.2165Z" fill="#005929"/>
<path d="M143.028 15.2167H145.985L142.212 10.2185L145.864 5.34167H142.83L139.983 9.35787H139.111V5.34167H136.562V15.2167H139.111V11.3218H140.181L143.028 15.2167Z" fill="#005929"/>
<path d="M32.4394 15.2164H29.7141V4.1829H24.8373V15.2164H22.123V1.63416H32.4394V15.2164Z" fill="#005929"/>
</g>
<defs>
<clipPath id="clip0_959_16043">
<rect width="145.609" height="19.1371" fill="white" transform="translate(0.391602 0.431396)"/>
</clipPath>
</defs>
</svg>
