<svg width="62" height="46" viewBox="0 0 62 46" fill="none" xmlns="http://www.w3.org/2000/svg">
<g clip-path="url(#clip0_959_16065)">
<path d="M27.2919 17.4125C26.9931 17.4125 26.8935 17.8109 26.8935 18.2092C26.8935 18.6076 26.8935 22.2927 26.7939 23.0895C26.7939 23.4879 26.7939 23.6871 26.8935 23.7867C26.9931 23.8863 27.1923 23.7867 27.4911 23.6871C27.9891 23.4879 28.0887 23.0895 28.1883 20.5996C28.2879 18.6076 27.8895 17.8109 27.5907 17.6117C27.5907 17.5121 27.4911 17.4125 27.2919 17.4125Z" fill="#0074C2"/>
<path d="M17.3297 41.1028L16.9482 41.2177L17.5225 43.1249L17.904 43.0101L17.3297 41.1028Z" fill="#0074C2"/>
<path d="M19.3241 40.6184L19.7225 41.9132L18.6269 40.8176L18.2285 40.9172L18.7265 42.8095L19.0253 42.7099L18.7265 41.3156L19.8221 42.5107L20.2204 42.4111L19.7225 40.5188L19.3241 40.6184Z" fill="#0074C2"/>
<path d="M22.0125 40.0209L20.4189 40.3197L20.5185 40.7181L21.1161 40.5189L21.4149 42.1124H21.8133L21.5145 40.5189L22.1121 40.3197L22.0125 40.0209Z" fill="#0074C2"/>
<path d="M23.4072 41.4152L23.3076 40.9172L24.2039 40.8176V40.4192L23.3076 40.6184L23.208 40.22L24.2039 40.0208V39.722L22.8096 39.9212L23.0088 41.8136L24.5027 41.6144V41.3156L23.4072 41.4152Z" fill="#0074C2"/>
<path d="M26.6941 41.0168V40.9172C26.6941 40.8176 26.6941 40.718 26.5945 40.6184C26.5945 40.5188 26.4949 40.5188 26.3953 40.5188C26.4949 40.5188 26.5945 40.4192 26.5945 40.3196C26.5945 40.22 26.6941 40.1204 26.5945 40.0208C26.5945 39.9212 26.5945 39.9212 26.4949 39.8216C26.4949 39.722 26.3953 39.722 26.3953 39.6224C26.2957 39.5228 26.2957 39.5228 26.1961 39.5228C26.0965 39.5228 25.9969 39.5228 25.8973 39.5228L25.001 39.6224L25.2002 41.6144H25.5986L25.499 40.8176H25.8973C25.9969 40.8176 26.0965 40.8176 26.0965 40.8176C26.1961 40.9172 26.1961 41.0168 26.1961 41.0168V41.216C26.1961 41.3156 26.1961 41.3156 26.1961 41.4152V41.5148H26.6941L26.5945 41.4152C26.6941 41.1164 26.6941 41.1164 26.6941 41.0168ZM26.1961 40.3196C26.0965 40.3196 26.0965 40.3196 25.9969 40.4192H25.5986L25.499 39.9212H25.9969C26.0965 39.9212 26.0965 39.9212 26.1961 39.9212C26.2957 39.9212 26.2957 40.0208 26.2957 40.1204C26.2957 40.1204 26.1961 40.22 26.1961 40.3196Z" fill="#0074C2"/>
<path d="M28.6854 39.3236V40.6184L27.8886 39.3236H27.4902L27.5898 41.3155H27.9882L27.8886 39.9212L28.6854 41.3155L29.1834 41.2159L29.0838 39.3236H28.6854Z" fill="#0074C2"/>
<path d="M30.4784 39.3236L29.7812 41.3155H30.1796L30.2792 40.9172H30.9764L31.076 41.3155H31.4744L30.7772 39.3236H30.4784ZM30.4784 40.5188L30.7772 39.722L30.9764 40.5188H30.4784Z" fill="#0074C2"/>
<path d="M31.9727 39.6224H32.5702L32.4706 41.3155H32.869L32.9686 39.722H33.5662V39.4232L31.9727 39.3236V39.6224Z" fill="#0074C2"/>
<path d="M34.2856 39.3545L34.1064 41.3383L34.5032 41.3741L34.6823 39.3903L34.2856 39.3545Z" fill="#0074C2"/>
<path d="M37.0516 39.9212C36.7528 39.5228 36.1552 39.5228 35.7568 39.722C35.5576 39.9212 35.3584 40.22 35.3584 40.5188C35.2588 40.8176 35.3584 41.1164 35.5576 41.3156C35.8564 41.714 36.454 41.714 36.8524 41.5148C37.0516 41.3156 37.2507 41.0168 37.2507 40.718C37.2507 40.4192 37.2507 40.1204 37.0516 39.9212ZM36.8524 40.718C36.8524 40.9172 36.7528 41.1164 36.6532 41.216C36.6532 41.216 36.6532 41.216 36.5536 41.3156C36.3544 41.4152 36.0556 41.4152 35.8564 41.1164C35.7568 40.9172 35.7568 40.8176 35.7568 40.6184C35.7568 40.4192 35.8564 40.22 35.956 40.1204C35.956 40.1204 35.956 40.1204 36.0556 40.0208C36.2548 39.8216 36.6532 39.9212 36.7528 40.22C36.8524 40.3196 36.8524 40.5188 36.8524 40.718Z" fill="#0074C2"/>
<path d="M39.0438 41.4152L38.5458 40.0208L38.1474 39.9212L37.749 41.8135L38.1474 41.9131L38.4462 40.5188L38.9442 42.0127L39.3426 42.1123L39.741 40.22L39.3426 40.1204L39.0438 41.4152Z" fill="#0074C2"/>
<path d="M41.1356 40.5188L40.04 42.3115L40.4384 42.4111L40.6376 42.0127L41.3348 42.2119V42.6103L41.7332 42.7099L41.534 40.6184L41.1356 40.5188ZM40.8368 41.714L41.2352 41.0168L41.3348 41.8136L40.8368 41.714Z" fill="#0074C2"/>
<path d="M43.3261 41.1163L42.9277 41.0167L42.4297 42.9091L43.7244 43.2079L43.824 42.9091L42.9277 42.6103L43.3261 41.1163Z" fill="#0074C2"/>
<path d="M17.6307 38.5268C17.4315 38.4272 17.3319 38.4272 17.1327 38.5268L16.3359 38.726L16.9335 40.6184L17.3319 40.5188L17.1327 39.8216L17.5311 39.722C17.7303 39.722 17.8299 39.6224 17.9295 39.4232C18.0291 39.224 18.0291 39.0248 17.9295 38.9252C17.8299 38.8256 17.7303 38.6264 17.6307 38.5268ZM17.4315 39.3236C17.4315 39.4232 17.3319 39.4232 17.2323 39.4232L16.9335 39.5228L16.7343 38.9252L17.1327 38.8256C17.2323 38.8256 17.3319 38.8256 17.3319 38.8256C17.4315 38.8256 17.4315 38.9252 17.4315 39.0248C17.5311 39.1244 17.5311 39.224 17.4315 39.3236Z" fill="#0074C2"/>
<path d="M20.3201 37.7301L19.9217 37.8297L20.0213 38.5269L19.3241 38.7261L19.125 38.0289L18.7266 38.1285L19.2245 40.0208L19.6229 39.9212L19.4237 39.0249L20.1209 38.9253L20.3201 39.722L20.7185 39.6224L20.3201 37.7301Z" fill="#0074C2"/>
<path d="M21.8306 37.4081L21.4385 37.4786L21.791 39.4391L22.1831 39.3686L21.8306 37.4081Z" fill="#0074C2"/>
<path d="M23.6064 38.7261L23.3076 37.1325L22.9092 37.2321L23.208 39.224L24.6023 39.0248L24.5027 38.6265L23.6064 38.7261Z" fill="#0074C2"/>
<path d="M25.701 36.9211L25.3047 36.9613L25.5059 38.9431L25.9022 38.9028L25.701 36.9211Z" fill="#0074C2"/>
<path d="M27.7899 38.029C27.9891 38.029 28.0887 37.9294 28.2879 37.8298C28.3875 37.6306 28.3875 37.531 28.3875 37.3318C28.3875 37.1326 28.2879 37.033 28.1883 36.8338C28.0887 36.7343 27.8895 36.7343 27.6903 36.7343H26.8936L26.9932 38.7262H27.3915V38.029H27.7899ZM27.2919 37.1326H27.6903C27.7899 37.1326 27.8895 37.1326 27.8895 37.2322C27.9891 37.3318 27.9891 37.3318 27.9891 37.4314C27.9891 37.531 27.9891 37.6306 27.8895 37.6306C27.7899 37.7302 27.7899 37.7302 27.6903 37.7302H27.2919V37.1326Z" fill="#0074C2"/>
<path d="M31.2753 37.3317C31.2753 37.3317 31.2753 37.2321 31.2753 37.1325C31.2753 37.0329 31.2753 37.0329 31.2753 36.9333L31.5741 38.6265H31.9725L32.3709 37.0329C32.3709 37.0329 32.3709 37.1325 32.3709 37.2321C32.3709 37.3317 32.3709 37.3317 32.3709 37.4313V38.7261H32.7693L32.8689 36.7341H32.2713L31.8729 38.2281L31.5741 36.6345H30.9766L30.877 38.6265H31.2753V37.3317Z" fill="#0074C2"/>
<path d="M35.4588 37.1324C35.2596 36.9332 35.0604 36.8336 34.8612 36.8336C34.662 36.8336 34.3632 36.8336 34.164 37.0328C33.9648 37.232 33.7656 37.5308 33.7656 37.8296C33.7656 38.1284 33.7656 38.4272 33.9648 38.6264C34.2636 38.9251 34.8612 39.0247 35.2596 38.726C35.4588 38.5268 35.658 38.228 35.658 37.9292C35.7576 37.6304 35.658 37.3316 35.4588 37.1324ZM35.0604 38.4272C34.7616 38.6264 34.4628 38.6264 34.2636 38.3276C34.164 38.1284 34.164 38.0288 34.164 37.8296C34.164 37.6304 34.2636 37.4312 34.3632 37.3316C34.4628 37.232 34.662 37.1324 34.7616 37.232C34.8612 37.232 35.0604 37.3316 35.16 37.4312C35.3592 37.73 35.3592 38.1284 35.0604 38.4272Z" fill="#0074C2"/>
<path d="M38.1472 39.224L38.0477 39.1244C38.0477 39.0248 38.0477 39.0248 38.0477 38.9252V38.8256C38.0477 38.726 38.0477 38.6264 38.0477 38.5268C38.0477 38.4272 37.9481 38.4272 37.8485 38.3276C37.9481 38.3276 38.0476 38.228 38.1472 38.1284C38.2468 38.0288 38.2468 37.9292 38.2468 37.8296C38.2468 37.73 38.2468 37.73 38.2468 37.6304C38.2468 37.5308 38.2468 37.5308 38.1472 37.4312C38.1472 37.3316 38.0476 37.3316 37.9481 37.232C37.8485 37.1324 37.7489 37.1324 37.6493 37.1324L36.7529 37.0328L36.4541 38.9252L36.8525 39.0248L36.9521 38.228L37.3505 38.3276C37.4501 38.3276 37.5497 38.3276 37.5497 38.4272C37.5497 38.5268 37.5497 38.6264 37.5497 38.726V38.9252C37.5497 39.0248 37.5497 39.0248 37.5497 39.1244V39.224H38.1472ZM37.7489 38.0288C37.6493 38.0288 37.6493 38.0288 37.5497 38.0288L37.1513 37.9292L37.2509 37.4312L37.6493 37.5308C37.7489 37.5308 37.7489 37.5308 37.8485 37.6304C37.9481 37.73 37.9481 37.8296 37.9481 37.9292C37.9481 37.9292 37.8485 38.0288 37.7489 38.0288Z" fill="#0074C2"/>
<path d="M40.3387 39.0249C40.3387 39.1245 40.3387 39.2241 40.3387 39.3236V39.5228C40.3387 39.6224 40.3387 39.6224 40.3387 39.722V39.8216L40.7371 39.9212V39.8216C40.7371 39.722 40.7371 39.722 40.7371 39.6224V39.5228C40.7371 39.4232 40.7371 39.3236 40.7371 39.2241C40.7371 39.1245 40.6375 39.1245 40.5379 39.0249C40.6375 39.0249 40.7371 38.9253 40.8367 38.9253C40.9363 38.8257 41.0359 38.6265 40.9363 38.4273C40.9363 38.3277 40.9363 38.3277 40.8367 38.2281C40.8367 38.1285 40.7371 38.1285 40.6375 38.0289C40.5379 37.9293 40.4383 37.9293 40.3387 37.9293L39.4423 37.7301L39.0439 39.6224L39.4423 39.722L39.6415 38.9253L40.0399 39.0249C40.2391 38.8257 40.3387 38.9253 40.3387 39.0249ZM39.9403 37.9293L40.3387 38.0289C40.4383 38.0289 40.4383 38.0289 40.5379 38.1285C40.6375 38.2281 40.6375 38.3277 40.6375 38.4273C40.6375 38.5269 40.5379 38.6265 40.4383 38.6265C40.3387 38.6265 40.3387 38.6265 40.2391 38.6265L39.8407 38.5269L39.9403 37.9293Z" fill="#0074C2"/>
<path d="M42.2314 38.1285L41.7334 40.0209L42.1318 40.1205L42.6298 38.2281L42.2314 38.1285Z" fill="#0074C2"/>
<path d="M44.9199 39.5228C45.0195 39.3236 44.9199 39.1245 44.8203 39.0249C44.7208 38.8257 44.5216 38.7261 44.3224 38.7261C44.1232 38.6265 43.924 38.6265 43.7248 38.7261C43.5256 38.8257 43.426 38.9253 43.426 39.1244C43.3264 39.3236 43.426 39.4232 43.5256 39.6224C43.6252 39.722 43.7248 39.8216 43.924 39.9212L44.1232 40.0208C44.2228 40.0208 44.3224 40.1204 44.3224 40.22C44.3224 40.22 44.422 40.3196 44.3224 40.4192C44.3224 40.5188 44.2228 40.6184 44.1232 40.6184C44.0236 40.6184 43.924 40.6184 43.924 40.6184C43.8244 40.6184 43.7248 40.5188 43.6252 40.4192C43.6252 40.3196 43.6252 40.3196 43.6252 40.22L43.2268 40.1204C43.1272 40.3196 43.2268 40.5188 43.3264 40.6184C43.426 40.8176 43.6252 40.9172 43.8244 40.9172C44.0236 41.0168 44.2228 41.0168 44.422 40.9172C44.6212 40.8176 44.7208 40.718 44.7208 40.5188C44.8203 40.4192 44.7207 40.22 44.6212 40.1204C44.5216 40.0208 44.422 39.9212 44.3224 39.9212L44.0236 39.722C43.924 39.722 43.8244 39.6224 43.8244 39.5228C43.8244 39.5228 43.7248 39.4232 43.8244 39.3236C43.8244 39.224 43.924 39.224 43.924 39.224C44.0236 39.224 44.1232 39.224 44.2228 39.224C44.3224 39.224 44.422 39.3236 44.422 39.3236C44.5216 39.4232 44.5216 39.5228 44.5216 39.6224L44.9199 39.5228Z" fill="#0074C2"/>
<path d="M30.4786 33.0491C34.8608 33.0491 38.3467 28.7664 38.3467 23.4878C38.3467 18.2092 34.7612 13.9265 30.4786 13.9265C26.0963 13.9265 22.6104 18.2092 22.6104 23.4878C22.5108 28.7664 26.0963 33.0491 30.4786 33.0491ZM30.5782 17.9104C30.5782 17.8108 30.5782 17.7112 30.5782 17.7112C30.5782 17.7112 30.6778 17.7112 30.6778 17.9104V18.01C31.3749 19.4043 31.9725 20.8983 32.3709 22.4918V22.5914V22.4918C32.8689 20.8983 33.4665 19.4043 34.1636 17.9104C34.2632 17.7112 34.3628 17.7112 34.3628 17.7112C34.3628 17.7112 34.3628 17.8108 34.3628 17.9104V18.01C34.064 21.5955 34.3628 25.2805 35.3588 28.6668C35.4584 28.866 35.3588 28.866 35.3588 28.866C35.3588 28.866 35.2592 28.866 35.1596 28.7664C33.6657 27.7705 32.9685 24.683 32.9685 24.4838C32.9685 24.3842 32.9685 24.3842 32.9685 24.3842C32.8689 24.7826 32.4705 26.3761 32.2713 27.3721C32.1717 27.87 32.0721 28.1688 32.0721 28.2684V28.368C32.0721 28.4676 32.0721 28.4676 31.9725 28.4676C31.8729 28.4676 31.9725 28.4676 31.8729 28.2684C31.7733 28.0692 31.5741 26.9737 31.2753 26.0773C31.0761 25.4797 30.9765 24.8821 30.9765 24.7826V24.683L30.7774 25.2805C30.5782 26.5753 29.881 27.6709 28.885 28.5672C28.5862 28.7664 28.5862 28.7664 28.5862 28.7664C28.5862 28.7664 28.5862 28.6668 28.6858 28.5672C30.2794 24.9817 30.8769 21.3963 30.5782 17.9104ZM27.2915 24.2846C27.0923 24.3842 26.9927 24.5834 26.9927 24.683C26.6939 27.4717 25.5983 28.368 25.2995 28.5672C25.1999 28.6668 25.1003 28.6668 25.1003 28.5672C25.1003 28.5672 25.1003 28.5672 25.1003 28.4676V28.368C25.4987 25.9777 25.6979 23.5874 25.5983 21.1971C25.5983 20.1015 25.5983 19.2051 25.4987 18.8068C25.4987 18.7072 25.4987 18.6076 25.4987 18.508C25.4987 18.2092 25.5983 18.1096 25.7975 18.01C25.9967 18.01 26.1959 17.8108 26.2955 17.7112C26.4947 17.2132 26.8931 16.9144 27.3911 16.9144C27.7895 16.9144 29.4826 17.512 29.4826 20.4999C29.7814 22.193 28.7854 23.687 27.2915 24.2846ZM30.4786 14.4245C34.562 14.4245 37.9483 18.508 37.9483 23.4878C37.9483 28.1688 34.9604 32.0531 31.2753 32.4515C35.06 31.9535 37.9483 28.1688 37.9483 23.4878C37.8487 18.508 34.562 14.4245 30.4786 14.4245C30.1798 14.4245 29.9806 14.4245 29.6818 14.4245C29.881 14.5241 30.1798 14.4245 30.4786 14.4245Z" fill="#0074C2"/>
<path d="M30.3788 5.06236C30.8768 5.06236 31.1756 4.66397 31.1756 4.26558C31.1756 3.7676 30.7772 3.46881 30.3788 3.46881C29.9804 3.46881 29.582 3.8672 29.582 4.26558C29.582 4.66397 29.8808 5.06236 30.3788 5.06236ZM29.9804 4.16599C29.9804 3.96679 30.1796 3.7676 30.3788 3.7676C30.578 3.7676 30.7772 3.96679 30.7772 4.16599C30.7772 4.36518 30.578 4.56437 30.3788 4.56437C30.1796 4.56437 29.9804 4.36518 29.9804 4.16599Z" fill="#0074C2"/>
<path d="M60.258 15.6196C60.258 15.52 60.258 15.4204 60.1584 15.4204C59.9592 15.1217 59.6604 15.1217 59.3616 15.1217H59.262C59.1624 15.1217 58.9633 15.0221 58.8637 14.9225C58.5649 14.8229 58.2661 14.7233 57.8677 14.6237C57.5689 14.6237 57.3697 14.6237 57.0709 14.7233C56.7721 14.8229 56.4733 14.8229 56.075 14.8229C55.7762 14.7233 55.4774 14.6237 55.1786 14.5241C54.4814 14.2253 53.6846 14.3249 52.9875 14.6237C52.1907 14.9225 51.5931 15.52 51.1947 16.2172C50.5971 17.6116 50.5971 19.2051 51.3939 20.5995C51.5931 21.0975 52.4895 22.4918 52.9875 23.189C52.4895 23.4878 52.1907 24.0854 52.1907 24.6829C52.1907 24.7825 52.1907 24.8821 52.1907 24.9817C52.1907 25.1809 52.2903 25.3801 52.3899 25.4797C52.4895 25.4797 52.5891 25.4797 52.6887 25.4797C52.9875 25.2805 53.2862 25.1809 53.585 25.2805C54.2822 25.2805 54.8798 25.8781 54.8798 26.5753C54.8798 27.4716 54.1826 28.2684 53.1866 28.368C52.5891 28.4676 51.9915 28.0692 51.7923 27.5712C51.7923 26.9737 51.5931 26.2765 51.2943 25.7785C51.1947 25.6789 51.1947 25.5793 51.0951 25.5793C50.7963 25.2805 50.3979 24.9817 50.2983 23.2886C50.0991 21.5954 49.7008 20.0019 48.904 18.6075C49.0036 18.6075 49.1032 18.6075 49.3024 18.6075C49.9 18.5079 49.9 17.8108 49.9996 17.2132V16.9144C49.9996 16.4164 50.1987 16.4164 50.4975 16.3168H50.6967C50.9955 16.2172 51.0951 16.018 51.0951 15.8188C51.0951 15.7192 51.0951 15.6196 51.0951 15.52V15.3208V15.2212C51.0951 14.9225 51.2943 14.9225 51.4935 14.8229H51.5931C51.6927 14.8229 51.8919 14.7233 51.9915 14.6237H52.0911C52.2903 14.5241 52.3899 14.4245 52.2903 14.2253C52.2903 14.1257 52.2903 13.9265 52.1907 13.8269C52.1907 13.8269 52.1907 13.7273 52.1907 13.6277C52.1907 13.5281 52.2903 13.4285 52.4895 13.2293C52.6887 13.0301 52.7883 12.8309 52.7883 12.6317C52.7883 12.5321 52.7883 12.3329 52.6887 12.2333C52.5891 12.1337 52.5891 11.9346 52.5891 11.835C52.5891 11.7354 52.8879 11.5362 52.9875 11.4366L53.2862 11.2374C53.2862 10.7394 53.2862 10.5402 53.3858 10.341C53.3858 10.2414 53.3858 10.1418 53.2862 10.0422C53.1866 9.94262 53.087 9.94262 52.8879 9.94262C52.3899 10.1418 51.7923 9.74343 51.2943 9.24545C51.0951 8.94666 50.8959 8.54827 50.7963 8.24948C50.6967 7.95069 50.4975 7.6519 50.3979 7.35311C50.2983 7.15391 50.0992 7.05432 49.9996 6.85512C49.8004 6.65593 49.6012 6.45674 49.402 6.15795C49.3024 5.85916 49.2028 5.65996 49.2028 5.36117C49.2028 5.06238 49.1032 4.86319 49.0036 4.5644C48.904 4.4648 48.8044 4.36521 48.6052 4.36521C48.406 4.36521 48.2068 4.4648 48.1072 4.664C47.6092 5.06238 46.9121 5.26158 46.3145 5.36117H45.7169C45.3185 5.36117 44.8205 5.36117 44.5217 5.36117C44.2229 5.36117 44.0238 5.46077 43.8246 5.65996C43.725 5.75956 43.5258 5.75956 43.3266 5.85916C43.1274 5.85916 43.0278 5.85916 42.8286 5.85916C42.5298 5.85916 42.231 5.85916 41.8326 5.85916C41.6334 5.85916 41.4342 5.95875 41.3346 6.15795C41.235 6.35714 41.235 6.65593 41.3346 6.85512L41.4342 6.95472C41.5338 7.15391 41.5338 7.25351 41.5338 7.35311C41.235 7.7515 41.235 8.14988 41.3346 8.44867C41.3346 8.64787 41.5338 8.84706 41.6334 8.94666C41.733 9.04625 41.9322 9.04625 42.0318 8.94666C42.4302 8.84706 42.8286 8.94666 43.227 9.04625L43.3266 9.14585C43.3266 9.34504 43.3266 9.44464 42.9282 9.44464L42.5298 9.54424C42.231 9.54424 41.9322 9.74343 41.8326 10.0422C41.733 10.1418 41.8326 10.341 41.8326 10.4406L41.9322 10.5402C42.1314 10.7394 42.231 10.9386 42.4302 11.1378C42.5298 11.337 42.729 11.4366 43.0278 11.4366C43.227 11.4366 43.3266 11.337 43.4262 11.2374C43.8246 10.9386 44.2229 10.839 44.7209 10.839C45.2189 10.7394 45.6173 10.6398 46.1153 10.5402V10.6398C46.1153 10.7394 46.1153 10.9386 46.1153 11.0382V11.1378C45.7169 12.4325 44.5217 13.3289 43.1274 13.2293L42.1314 13.3289C40.2391 13.4285 38.9443 13.5281 38.9443 15.4204C38.6455 15.4204 38.3467 15.4204 38.1475 15.3208C38.048 15.2212 37.9484 15.1217 37.9484 15.0221C37.3508 14.2253 36.554 13.4285 35.7572 12.8309C35.2592 11.835 35.3588 10.7394 36.056 9.84303C36.1556 9.94262 36.3548 9.94262 36.4544 9.94262C36.9524 9.94262 37.2512 9.54424 37.2512 9.14585C37.2512 9.04625 37.2512 8.94666 37.1516 8.84706C37.2512 8.84706 37.3508 8.84706 37.4504 8.84706C37.9484 8.84706 38.4463 8.44867 38.4463 7.85109C38.4463 7.6519 38.4463 7.5523 38.3467 7.35311C38.3467 7.25351 38.4463 7.05432 38.4463 6.95472C38.1475 6.85512 37.8488 6.65593 37.8488 6.25754C37.8488 5.85916 38.1475 5.56037 38.5459 5.56037C38.6455 5.56037 38.7451 5.56037 38.8447 5.65996C39.1435 5.06238 39.4423 4.5644 39.9403 4.16601C39.9403 3.56843 39.4423 2.97085 38.7451 2.97085C38.5459 2.97085 38.3467 2.97085 38.2471 3.07045C38.2471 2.97085 38.3467 2.77166 38.3467 2.67206C38.3467 1.97489 37.7492 1.37731 37.052 1.37731C36.554 1.37731 36.1556 1.6761 35.9564 2.07448C35.8568 1.6761 35.558 1.4769 35.1596 1.37731H34.9605C34.8609 1.37731 34.7613 1.37731 34.7613 1.37731C34.3629 1.4769 34.0641 1.77569 34.0641 2.17408C33.8649 1.97489 33.6657 1.87529 33.4665 1.87529C33.1677 1.87529 32.8689 2.07448 32.6697 2.37327H32.4705C32.1717 2.37327 31.9726 2.17408 31.873 1.87529C31.873 1.5765 31.5742 1.37731 31.1758 1.37731H30.1798C29.7814 1.37731 29.4826 1.5765 29.4826 1.87529C29.4826 2.17408 29.1838 2.37327 28.8851 2.37327H28.6859C28.5863 2.07448 28.2875 1.87529 27.8891 1.87529C27.6899 1.87529 27.3911 1.97489 27.2915 2.17408C27.1919 1.6761 26.6939 1.27771 26.1959 1.27771C25.7976 1.27771 25.4988 1.5765 25.3992 1.97489C25.1004 1.37731 24.3036 1.17811 23.706 1.4769C23.3076 1.6761 23.0089 2.07448 23.0089 2.57247C23.0089 2.67206 23.0089 2.87126 23.1084 2.97085C22.9093 2.87126 22.8097 2.87126 22.6105 2.87126C22.6105 3.07045 22.6105 3.17005 22.6105 3.36924C23.0089 3.36924 23.3076 3.66803 23.3076 4.06642C23.3076 4.4648 23.0089 4.76359 22.6105 4.76359C22.5109 4.76359 22.5109 4.76359 22.4113 4.76359C22.0129 5.46077 21.7141 5.95875 21.4153 6.45674C21.4153 7.05432 21.9133 7.6519 22.6105 7.6519C22.7101 7.6519 22.7101 7.6519 22.8097 7.6519C22.7101 7.75149 22.7101 7.95069 22.7101 8.14988C22.7101 8.64787 23.1084 9.14585 23.706 9.14585C23.8056 9.14585 23.9052 9.14585 24.0048 9.14585C23.8056 9.54424 24.0048 10.0422 24.5028 10.2414C24.8016 10.341 25.1004 10.341 25.2996 10.1418C25.8972 10.5402 25.9968 12.0342 25.4988 13.1297C24.6024 13.7273 23.9052 14.5241 23.208 15.3208C22.3117 16.4164 21.7141 17.7112 21.2161 19.0059C21.3157 18.3087 21.2161 17.512 21.0169 16.8148C20.2201 14.8229 18.3278 14.0261 17.2322 13.4285L16.4355 13.0301C15.7383 12.6317 15.1407 12.1337 14.7423 11.4366L14.4435 11.1378H14.5431C14.9415 11.2374 15.3399 11.337 15.7383 11.6358L16.1367 11.9346C16.3359 12.1337 16.5351 12.3329 16.8339 12.4325C17.2322 12.6317 17.6306 12.6317 17.9294 12.4325C18.029 12.3329 18.029 12.2333 18.029 12.1337C18.029 12.0342 18.029 11.835 17.9294 11.7354C17.9294 11.6358 17.9294 11.6358 17.9294 11.6358L18.1286 11.7354C18.4274 11.835 18.8258 11.6358 19.025 11.337C19.2242 10.839 19.1246 10.2414 18.6266 9.94262C18.3278 9.74343 17.531 8.94666 16.8339 8.24948C16.3359 7.7515 15.9375 7.35311 15.7383 7.25351C15.6387 7.15391 15.4395 6.95472 15.3399 6.85512C15.4395 6.65593 15.4395 6.45674 15.3399 6.35714C15.2403 6.25754 15.0411 6.15795 14.9415 6.25754H14.8419C14.8419 6.25754 14.8419 6.25754 14.7423 6.25754C14.9415 5.85916 15.0411 5.36117 15.1407 4.96279C15.3399 4.4648 15.2403 3.86722 14.8419 3.36924C14.6427 3.07045 14.2443 2.97085 13.9456 3.07045C13.348 3.17005 12.9496 3.56843 12.5512 3.96682L12.4516 3.56843L12.1528 3.46884L11.0572 3.86722L11.1568 4.26561C10.5593 4.06642 9.96169 4.06642 9.4637 4.26561C9.16491 4.36521 8.96572 4.76359 8.86612 5.06238C8.86612 5.65996 9.16491 6.15795 9.5633 6.45674C9.76249 6.65593 9.96169 6.75553 10.0613 6.85512C10.0613 6.85512 9.96169 6.85512 9.96169 6.95472C9.86209 7.05432 9.76249 7.25351 9.5633 7.35311L9.4637 7.5523C8.66693 8.24948 7.67096 8.74746 6.67499 8.84706C6.5754 8.84706 6.4758 8.94666 6.3762 9.04625C6.3762 9.24545 6.5754 9.54424 6.97378 9.74343C7.47177 9.94262 7.57136 10.5402 7.37217 11.6358C7.37217 11.7354 7.37217 11.9346 7.47177 12.0342C7.57136 12.1337 7.77056 12.1337 8.16894 12.0342H8.26854H8.36814C8.36814 12.1337 8.36814 12.1337 8.36814 12.2333V12.3329V12.4325C8.26854 12.7313 8.26854 13.0301 8.26854 13.3289C8.26854 13.5281 8.26854 13.6277 8.36814 13.8269C8.56733 14.2253 8.76653 14.6237 9.06532 14.9225C9.16491 15.0221 9.26451 15.1217 9.4637 15.1217C9.6629 15.1217 9.76249 15.0221 9.86209 14.8229C9.86209 14.9225 9.96169 15.0221 9.96169 15.0221C10.1609 15.7192 10.7585 16.3168 11.4556 16.516C11.6548 16.6156 11.854 16.6156 12.0532 16.516C12.2524 16.4164 12.352 16.2172 12.352 16.018C12.352 15.9184 12.352 15.8188 12.4516 15.6196V15.52C12.4516 15.52 12.4516 15.52 12.5512 15.6196C13.1488 16.516 13.5472 17.512 13.5472 18.6075C13.5472 18.9063 13.5472 19.3047 13.4476 19.6035C13.348 20.1015 13.1488 20.4999 12.9496 20.8983C12.85 21.1971 12.7504 21.3962 12.6508 21.695C12.1528 22.0934 11.5552 22.4918 11.0572 22.7906L10.4597 22.9898C9.26451 23.8862 8.46773 25.1809 8.36814 26.6749V26.7745C7.47177 27.0733 6.87419 27.0733 6.5754 26.6749C5.87822 25.8781 6.3762 24.9817 7.17298 23.9858L7.37217 23.687L7.57136 23.3882L7.77056 23.0894C7.77056 23.189 7.77056 23.189 7.77056 23.2886L7.87015 23.687L7.96975 23.9858C7.96975 24.185 8.06935 24.2845 8.26854 24.2845C8.36814 24.2845 8.56733 24.4837 8.96572 23.5874C9.06532 23.3882 9.26451 23.0894 9.4637 22.7906L9.76249 22.2926C10.0613 21.8942 10.0613 21.3962 9.6629 21.0975C9.5633 20.9979 9.5633 20.9979 9.4637 20.9979C9.26451 20.7987 9.26451 20.7987 9.4637 20.4003L9.5633 20.3007C10.1609 18.9063 10.0613 17.3128 9.3641 16.018C8.66693 14.9225 7.57136 13.8269 6.17701 14.1257C5.47983 14.3249 4.88225 14.5241 4.28467 14.9225C3.78669 15.2212 3.18911 15.52 2.59153 15.6196C2.09355 15.7192 1.49597 15.9184 0.997983 16.018C0.898387 16.018 0.699193 16.1176 0.599597 16.3168C0.599597 16.516 0.79879 16.6156 1.19718 16.8148C1.39637 16.9144 1.59556 17.014 1.79476 17.2132C1.49597 17.6116 1.19718 18.01 0.79879 18.3087C0.699193 18.4083 0.599597 18.5079 0.599597 18.6075C0.599597 18.6075 0.599597 18.6075 0.599597 18.7071C0.599597 18.9063 0.898387 19.1055 1.29677 19.2051V19.3047C1.19718 19.9023 1.29677 20.4999 1.49597 20.9979L1.59556 21.0975C1.99395 21.3962 2.29274 21.8942 2.49193 22.3922C2.49193 22.4918 2.49193 22.5914 2.39234 22.691C2.29274 22.8902 2.29274 23.0894 2.39234 23.2886C2.49193 23.3882 2.59153 23.4878 2.69113 23.4878C3.18911 23.5874 3.3883 23.189 3.4879 22.8902L3.5875 22.691C3.78669 22.2926 4.08548 21.695 4.38427 21.1971L4.58346 20.8983C5.08145 20.2011 5.38024 19.4043 5.38024 18.5079H5.57943C5.67903 18.5079 5.77862 18.5079 5.87822 18.5079H5.97782C6.17701 18.5079 6.3762 18.4083 6.4758 18.2091C6.5754 18.01 6.3762 17.8108 6.17701 17.7112C5.87822 17.3128 5.67903 16.8148 5.77862 16.3168C5.87822 15.9184 6.07741 15.7192 6.27661 15.7192C6.97378 15.8188 7.57136 16.1176 7.96975 16.7152C8.26854 17.2132 8.46773 17.7112 8.46773 18.2091C8.46773 18.4083 8.46773 18.5079 8.46773 18.7071C8.36814 19.2051 8.26854 19.3047 8.26854 19.3047H8.16894H7.96975C7.57136 19.2051 7.17298 19.3047 6.87419 19.5039L6.67499 19.4043C6.4758 19.5039 6.17701 19.7031 6.17701 20.1015C6.17701 20.4003 6.4758 20.4999 6.67499 20.5995C6.77459 20.5995 6.87419 20.6991 6.87419 20.7987C6.87419 21.2966 6.67499 21.7946 6.3762 22.0934L6.27661 22.2926L5.97782 22.691C4.68306 24.3841 4.28467 25.9777 4.78266 27.0733C5.08145 27.7704 5.97782 28.5672 8.06935 28.5672C7.96975 28.9656 7.87015 29.2644 7.67096 29.6628C7.27257 30.2603 6.5754 30.6587 5.77862 30.6587H5.57943H5.47983C5.28064 30.6587 5.18104 30.7583 4.98185 30.8579C4.78266 31.0571 4.78266 31.4555 4.78266 32.2523C4.88225 32.9495 4.78266 33.6466 4.68306 34.3438C4.68306 34.543 4.58346 34.6426 4.58346 34.8418C4.58346 34.9414 4.58346 35.041 4.48387 35.2402C4.48387 35.4394 4.38427 35.539 4.38427 35.7382C4.38427 35.8378 4.38427 36.037 4.48387 36.1366C4.58346 36.2361 4.78266 36.3357 4.88225 36.3357H5.38024C5.47983 36.3357 5.57943 36.3357 5.67903 36.3357V36.4353H0.5L2.19314 39.4232C2.09355 39.6224 0.599597 42.5107 0.599597 42.5107H15.0411L15.8379 45.2994C20.5189 43.6063 25.4988 42.8095 30.379 42.7099C35.3588 42.7099 40.3387 43.6063 45.0197 45.2994L45.8165 42.5107H59.9592C59.9592 42.5107 58.4653 39.6224 58.3657 39.4232C58.4653 39.2241 60.0588 36.4353 60.0588 36.4353H53.9834C54.083 36.037 54.083 35.6386 54.083 35.3398C54.083 35.1406 53.9834 34.8418 53.9834 34.543C53.8838 34.2442 53.8838 34.045 53.8838 33.7462C53.8838 33.4474 53.8838 32.4515 53.8838 32.2523C53.9834 31.6547 53.2862 31.0571 52.9875 30.8579L52.8879 30.7583C52.5891 30.4595 52.2903 30.1608 51.9915 29.862C53.2862 30.3599 54.7802 29.9616 55.577 28.866C55.8758 28.4676 56.1745 27.9696 56.2741 27.5712V27.4716C56.3737 27.1729 56.5729 26.8741 56.8717 26.5753C57.1705 26.2765 58.4653 24.5833 58.0669 23.8862C57.7681 23.3882 57.0709 23.687 56.7721 23.7866C56.6725 23.7866 56.5729 23.7866 56.4733 23.3882C56.4733 23.0894 56.2741 22.3922 56.2741 22.2926C56.2741 22.193 56.2741 21.8942 55.9754 21.7946C55.7762 21.695 55.577 21.7946 55.4774 21.8942C55.3778 21.9938 55.3778 21.9938 55.2782 21.9938C55.1786 21.9938 55.1786 21.8942 55.079 21.7946C54.9794 21.5954 54.8798 21.2966 54.8798 21.0975L54.7802 20.8983V20.7987C54.7802 20.5995 54.6806 20.4003 54.4814 20.4003C54.2822 20.3007 54.083 20.4999 53.9834 20.6991C53.8838 20.7987 53.7842 20.8983 53.6846 21.0975C52.7883 20.4003 52.3899 19.3047 52.5891 18.1096C52.5891 17.4124 52.9875 16.8148 53.585 16.516C54.1826 16.3168 54.8798 16.3168 55.3778 16.516L55.4774 16.6156C55.577 16.6156 55.577 16.7152 55.6766 16.7152C55.6766 16.7152 55.6766 16.7152 55.577 16.8148C55.2782 17.1136 55.079 17.512 55.079 17.9104C55.2782 18.9063 55.6766 19.7031 56.4733 20.4003C56.3737 21.3962 56.6725 22.2926 57.2701 23.0894C57.4693 23.2886 57.7681 23.3882 58.0669 23.3882C58.5649 23.2886 58.9633 23.0894 59.3616 22.8902C59.4612 22.7906 59.8596 22.4918 59.262 22.2926C58.6645 22.0934 58.8637 21.5954 58.8637 21.3962C58.9633 20.8983 59.0629 20.4999 59.3616 20.1015C59.4612 19.9023 59.4612 19.7031 59.4612 19.5039C59.4612 19.2051 59.3616 18.8067 59.262 18.5079C59.3616 18.5079 59.4612 18.5079 59.5608 18.4083C59.8596 18.3087 60.0588 18.1096 60.1584 17.9104V17.8108C60.1584 17.6116 60.0588 17.512 59.9592 17.4124C59.8596 17.3128 59.8596 17.2132 59.8596 17.1136C59.8596 16.9144 59.9592 16.8148 59.9592 16.6156C60.1584 16.018 60.258 15.8188 60.258 15.6196ZM42.0318 13.9265L43.0278 13.8269C44.5217 13.8269 45.9161 12.8309 46.4141 11.4366V11.337C46.5137 11.0382 46.5137 10.6398 46.4141 10.2414V9.94262L46.1153 10.0422C45.6173 10.2414 45.1193 10.341 44.6213 10.4406C44.0238 10.4406 43.5258 10.6398 43.0278 10.9386C43.0278 10.9386 43.0278 10.9386 42.9282 10.9386C42.9282 10.9386 42.8286 10.9386 42.729 10.7394C42.5298 10.5402 42.4302 10.341 42.231 10.1418C42.231 10.1418 42.231 10.1418 42.231 10.0422C42.231 9.94262 42.3306 9.84303 42.6294 9.84303L42.9282 9.74343C43.3266 9.64383 43.725 9.54424 43.725 8.94666C43.725 8.74746 43.6254 8.54827 43.5258 8.44867C43.0278 8.14988 42.5298 8.14988 41.9322 8.24948C41.9322 8.24948 41.9322 8.24948 41.8326 8.24948C41.8326 8.14988 41.733 8.14988 41.733 8.05028C41.733 7.95069 41.733 7.85109 41.733 7.85109C41.733 7.7515 41.733 7.7515 41.8326 7.7515C41.9322 7.6519 42.0318 7.4527 42.0318 7.35311C42.0318 7.15391 41.9322 6.95472 41.8326 6.85512V6.75553C41.8326 6.65593 41.733 6.55633 41.733 6.45674C41.733 6.45674 41.733 6.45674 41.733 6.35714C41.733 6.45674 41.8326 6.45674 41.9322 6.45674C42.231 6.45674 42.5298 6.35714 42.8286 6.45674C43.0278 6.45674 43.227 6.45674 43.4262 6.45674C43.6254 6.45674 43.8246 6.35714 44.0238 6.25754C44.2229 6.15795 44.4221 6.05835 44.6213 6.05835C44.8205 6.05835 45.3185 6.05835 45.7169 6.05835H46.3145C47.1112 5.95875 47.8084 5.65996 48.5056 5.16198C48.5056 5.16198 48.6052 5.06238 48.7048 5.06238C48.8044 5.26158 48.8044 5.46077 48.904 5.65996C48.904 5.95875 49.0036 6.25754 49.2028 6.55633C49.402 6.85512 49.6012 7.05432 49.8004 7.35311C49.9 7.4527 50.0992 7.6519 50.1987 7.7515C50.1987 7.95069 50.2983 8.24948 50.3979 8.44867C50.4975 8.84706 50.7963 9.24545 51.0951 9.64383C51.3939 9.94262 52.0911 10.6398 52.8879 10.4406L52.6887 10.6398C52.3899 10.839 52.0911 11.1378 52.0911 11.4366C52.0911 11.6358 52.1907 11.835 52.2903 12.0342C52.2903 12.0342 52.2903 12.1337 52.3899 12.1337C52.3899 12.2333 52.2903 12.3329 52.1907 12.4325C51.8919 12.7313 51.7923 12.9305 51.7923 13.1297C51.7923 13.2293 51.7923 13.3289 51.8919 13.4285C51.8919 13.5281 51.9915 13.6277 51.9915 13.7273H51.8919C51.7923 13.8269 51.6927 13.8269 51.5931 13.8269C51.0951 13.9265 50.7963 14.2253 50.7963 14.7233V14.8229V15.0221C50.7963 15.1217 50.7963 15.2212 50.7963 15.3208C50.7963 15.3208 50.7963 15.3208 50.7963 15.4204H50.6967H50.5971C50.2983 15.52 49.8004 15.6196 49.8004 16.4164V16.7152C49.8004 17.4124 49.7008 17.7112 49.5016 17.7112C49.2028 17.7112 48.904 17.6116 48.8044 17.3128C48.8044 17.2132 48.7048 16.9144 48.7048 16.9144C48.406 16.018 48.5056 16.2172 48.1072 17.014C48.0076 17.1136 48.0076 17.3128 47.908 17.4124C47.8084 17.7112 47.5096 18.01 47.2108 18.2091L47.1112 18.3087H47.0117C46.9121 18.3087 46.9121 18.2092 46.8125 18.01C46.7129 17.6116 46.6133 17.2132 46.6133 16.8148C46.6133 16.2172 47.2108 15.52 45.9161 16.6156C45.9161 16.6156 45.7169 16.7152 45.6173 16.8148C45.4181 16.9144 44.4221 17.4124 44.1233 17.512C44.0238 17.512 43.725 17.6116 43.725 17.512V17.4124C43.9242 16.8148 44.1233 17.014 43.227 17.1136H42.8286H42.729C42.5298 17.2132 42.231 17.1136 42.0318 17.014C41.9322 16.9144 41.9322 16.8148 41.9322 16.6156C41.9322 16.018 42.3306 15.4204 42.9282 15.2212C43.5258 15.1217 45.6173 14.9225 46.6133 14.8229C47.8084 14.8229 48.904 14.1257 49.6012 13.2293C49.9996 12.1337 50.0992 10.9386 49.9996 9.84303C49.9 9.44464 49.6012 8.94666 49.8004 9.94262C49.9 11.0382 49.7008 12.0342 49.3024 13.0301C48.7048 13.9265 47.7088 14.4245 46.7129 14.4245C45.8165 14.5241 43.6254 14.7233 43.0278 14.8229C42.4302 14.9225 42.0318 15.3208 41.733 15.9184C41.5338 16.2172 41.0359 16.9144 40.5379 16.9144C40.0399 16.9144 39.5419 16.2172 39.5419 15.7192C39.2431 14.0261 40.1395 14.0261 42.0318 13.9265ZM38.9443 16.018C39.0439 16.7152 39.6415 17.3128 40.3387 17.4124C40.7371 17.4124 41.1354 17.2132 41.3346 16.9144C41.3346 17.3128 41.6334 17.7112 42.1314 17.7112C41.9322 18.01 41.8326 18.3087 41.8326 18.6075L39.5419 18.4083C39.2431 17.6116 38.8447 16.8148 38.3467 16.018C38.5459 16.018 38.7451 16.018 38.9443 16.018ZM42.0318 20.4999C41.8326 20.5995 41.6334 20.6991 41.4342 20.7987C41.0359 20.8983 40.7371 20.9979 40.4383 21.1971C40.3387 20.4003 40.1395 19.7031 39.8407 18.9063L41.8326 19.0059C41.733 19.5039 41.8326 20.0019 42.0318 20.4999ZM36.2552 9.64383C36.056 9.64383 35.8568 9.44464 35.8568 9.24545C35.8568 9.04625 36.056 8.84706 36.2552 8.84706C36.4544 8.84706 36.6536 9.04625 36.6536 9.24545C36.6536 9.54424 36.4544 9.64383 36.2552 9.64383ZM37.8488 8.05028C37.8488 8.34908 37.6496 8.54827 37.3508 8.54827C37.052 8.54827 36.8528 8.34908 36.8528 8.05028C36.8528 7.75149 37.052 7.5523 37.3508 7.5523C37.55 7.5523 37.8488 7.75149 37.8488 8.05028ZM38.5459 3.56843C38.9443 3.56843 39.2431 3.86722 39.2431 4.26561C39.2431 4.664 38.9443 4.96279 38.5459 4.96279C38.1475 4.96279 37.8488 4.664 37.8488 4.26561C37.8488 3.86722 38.1475 3.56843 38.5459 3.56843ZM36.056 2.77166C36.056 2.37327 36.4544 1.97489 36.8528 1.97489C37.2512 1.97489 37.6496 2.37327 37.6496 2.77166C37.6496 3.17005 37.2512 3.56843 36.8528 3.56843C36.4544 3.56843 36.056 3.26964 36.056 2.77166ZM34.2633 2.47287C34.2633 2.17408 34.4625 1.97489 34.7613 1.97489C35.0601 1.97489 35.2592 2.17408 35.2592 2.47287C35.2592 2.77166 35.0601 2.97085 34.7613 2.97085C34.4625 2.97085 34.2633 2.77166 34.2633 2.47287ZM33.1677 2.47287C33.3669 2.47287 33.5661 2.67206 33.5661 2.87126C33.5661 3.07045 33.3669 3.26964 33.1677 3.26964C32.9685 3.26964 32.7693 3.07045 32.7693 2.87126C32.7693 2.67206 32.9685 2.47287 33.1677 2.47287ZM32.3709 3.17005C32.5701 3.56843 32.9685 3.86722 33.4665 3.66803C33.7653 3.56843 33.9645 3.26964 33.9645 3.07045C34.1637 3.26964 34.4625 3.46884 34.7613 3.46884C35.0601 3.46884 35.3588 3.26964 35.558 3.07045C35.6576 3.66803 36.1556 4.16601 36.8528 4.16601C37.052 4.16601 37.2512 4.16601 37.4504 4.06642C37.3508 4.06642 37.3508 4.16601 37.3508 4.26561C37.9484 4.5644 38.1475 5.26158 37.8488 5.85916C37.7492 6.15795 37.4504 6.35714 37.1516 6.45674C37.1516 6.65593 37.2512 6.95472 37.3508 7.15391H37.2512C36.7532 7.15391 36.2552 7.5523 36.2552 8.14988C36.2552 8.34907 36.2552 8.44867 36.3548 8.54827C36.3548 8.44867 36.3548 8.44867 36.2552 8.44867C35.7572 8.44867 35.4584 8.84706 35.4584 9.24545C35.4584 9.34504 35.4584 9.34504 35.4584 9.44464C35.4584 9.44464 35.3588 9.54424 35.2592 9.64383C34.9605 9.44464 34.5621 9.34504 34.2633 9.24545C34.9605 8.64787 35.558 7.95069 36.056 7.25351C36.6536 6.65593 36.7532 5.65996 36.4544 4.96279C36.1556 4.4648 35.6576 4.16601 35.0601 4.06642C33.9645 3.96682 32.8689 4.36521 32.0721 4.96279L32.3709 3.17005ZM25.9968 12.5321C26.0963 12.1337 26.0963 11.835 26.0963 11.4366C28.8851 10.1418 32.0722 10.1418 34.7613 11.4366C34.7613 11.835 34.7613 12.1337 34.8609 12.5321C32.1717 10.839 28.6859 10.839 25.9968 12.5321ZM34.8609 11.0382C32.0721 9.74343 28.8851 9.74343 26.0963 11.0382C26.0963 10.7394 25.9968 10.4406 25.7976 10.1418C28.7855 8.84706 32.1717 8.84706 35.1596 10.1418C34.9605 10.4406 34.8609 10.7394 34.8609 11.0382ZM27.1919 9.14585C26.3951 8.54827 25.7976 7.85109 25.2 7.05432C24.702 6.55633 24.5028 5.75956 24.8016 5.06238C25.0008 4.76359 25.3992 4.4648 25.8972 4.4648C26.9927 4.4648 28.0883 4.86319 28.9847 5.46077L29.5822 8.64787C28.6859 8.74746 27.8891 8.94666 27.1919 9.14585ZM31.375 8.74746L31.9726 5.46077C32.8689 4.76359 33.9645 4.4648 35.0601 4.4648C35.4584 4.4648 35.8568 4.76359 36.056 5.06238C36.3548 5.75956 36.1556 6.45674 35.6576 7.05432C35.1596 7.85109 34.4625 8.54827 33.6657 9.14585C32.9685 8.94666 32.1717 8.74746 31.375 8.74746ZM29.6818 2.07448C29.6818 1.97489 29.7814 1.97489 29.881 1.97489H30.877C30.9766 1.97489 31.0762 1.97489 31.0762 2.07448C31.0762 2.47287 31.4746 2.87126 31.873 2.97085L30.7774 8.74746C30.5782 8.74746 30.4786 8.74746 30.2794 8.74746C30.0802 8.74746 29.9806 8.74746 29.7814 8.74746L28.6859 2.97085C29.383 2.87126 29.6818 2.47287 29.6818 2.07448ZM27.6899 2.47287C27.8891 2.47287 28.0883 2.67206 28.0883 2.87126C28.0883 3.07045 27.8891 3.26964 27.6899 3.26964C27.4907 3.26964 27.2915 3.07045 27.2915 2.87126C27.2915 2.67206 27.4907 2.47287 27.6899 2.47287ZM26.0963 1.97489C26.3951 1.97489 26.5943 2.17408 26.5943 2.47287C26.5943 2.77166 26.3951 2.97085 26.0963 2.97085C25.7976 2.97085 25.5984 2.77166 25.5984 2.47287C25.5984 2.17408 25.7976 1.97489 26.0963 1.97489ZM24.1044 1.97489C24.6024 1.97489 24.9012 2.37327 24.9012 2.77166C24.9012 3.17005 24.5028 3.56843 24.1044 3.56843C23.706 3.56843 23.3076 3.17005 23.3076 2.77166C23.3076 2.37327 23.6064 1.97489 24.1044 1.97489ZM22.5109 7.15391C22.1125 7.15391 21.8137 6.85512 21.8137 6.45674C21.8137 6.05835 22.1125 5.75956 22.5109 5.75956C22.9093 5.75956 23.208 6.05835 23.208 6.45674C23.208 6.85512 22.9093 7.15391 22.5109 7.15391ZM23.6064 8.54827C23.3076 8.54827 23.1084 8.34908 23.1084 8.05028C23.1084 7.75149 23.3076 7.5523 23.6064 7.5523C23.9052 7.5523 24.1044 7.75149 24.1044 8.05028C24.1044 8.34908 23.9052 8.54827 23.6064 8.54827ZM24.6024 9.64383C24.4032 9.64383 24.204 9.44464 24.204 9.24545C24.204 9.04625 24.4032 8.84706 24.6024 8.84706C24.8016 8.84706 25.0008 9.04625 25.0008 9.24545C25.0008 9.54424 24.8016 9.64383 24.6024 9.64383ZM25.5984 9.64383C25.5984 9.54424 25.4988 9.54424 25.4988 9.44464C25.4988 9.34504 25.4988 9.34504 25.4988 9.24545C25.4988 8.74746 25.1004 8.44867 24.702 8.44867C24.6024 8.44867 24.6024 8.44867 24.5028 8.44867C24.6024 8.34908 24.6024 8.14988 24.6024 8.05028C24.6024 7.5523 24.204 7.05432 23.6064 7.05432H23.5068C23.6064 6.85512 23.706 6.65593 23.706 6.35714C23.1084 6.15795 22.7101 5.56037 22.9093 4.86319C23.0089 4.5644 23.208 4.26561 23.5068 4.16601C23.5068 4.06642 23.5068 3.96682 23.4072 3.76763C23.6064 3.86722 23.8056 3.96682 24.0048 3.86722C24.6024 3.86722 25.2 3.36924 25.2 2.77166C25.3992 3.07045 25.698 3.17005 25.9968 3.17005C26.2955 3.17005 26.5943 3.07045 26.7935 2.77166C26.8931 3.26964 27.2915 3.56843 27.7895 3.46884C28.0883 3.46884 28.2875 3.17005 28.3871 2.97085L28.6859 4.76359C27.7895 4.16601 26.6939 3.86722 25.698 3.86722C25.1004 3.86722 24.6024 4.26561 24.3036 4.76359C24.0048 5.56037 24.1044 6.45674 24.702 7.05432C25.2 7.85109 25.7976 8.44867 26.4947 9.04625C26.2955 9.44464 25.8972 9.54424 25.5984 9.64383ZM21.2161 23.189C21.2161 22.691 21.3157 22.193 21.4153 21.7946C21.5149 21.4958 21.5149 21.1971 21.5149 20.9979C21.6145 20.5995 21.5149 20.2011 21.2161 20.0019C21.6145 18.4083 22.4113 16.8148 23.4072 15.52C25.9968 11.6358 31.2754 10.6398 35.1596 13.3289C36.056 13.9265 36.7532 14.6237 37.3508 15.52C38.6455 17.3128 39.5419 19.3047 39.8407 21.4958L39.6415 21.695C39.3427 21.8942 39.0439 22.2926 38.8447 22.691C38.7451 22.8902 38.7451 23.189 38.6455 23.3882C38.6455 23.4878 38.6455 23.5874 38.7451 23.687C38.8447 23.8862 39.0439 23.9858 39.2431 24.0854C39.2431 24.0854 39.3427 24.1849 39.3427 24.2845C39.3427 24.2845 39.3427 24.2845 39.3427 24.3841C39.3427 24.5833 39.4423 24.7825 39.8407 24.9817H39.9403C39.3427 30.7583 35.2592 35.2402 30.379 35.2402C25.698 35.2402 21.9133 31.2563 20.9173 25.9777C21.2161 25.7785 21.3157 25.2805 21.2161 24.9817V24.7825C21.2161 24.1849 21.2161 23.687 21.2161 23.189ZM43.4262 23.3882C43.9242 23.7866 44.6213 24.0854 45.2189 24.1849C45.6173 24.2845 46.0157 24.3841 46.4141 24.5833C46.4141 24.7825 46.5137 24.8821 46.5137 25.0813C45.4181 25.3801 44.3225 25.4797 43.3266 25.1809H43.227C43.0278 25.0813 42.729 24.9817 42.4302 25.0813C42.1314 25.2805 41.9322 25.4797 41.8326 25.8781C41.3346 26.7745 41.4342 27.87 41.9322 28.7664C42.1314 29.0652 42.3306 29.2644 42.5298 29.4636C42.729 29.6628 42.9282 29.9616 43.1274 30.2603C43.1274 30.3599 43.1274 30.3599 43.1274 30.4595C42.9282 30.6587 42.5298 30.7583 42.231 30.6587H41.8326C41.235 30.6587 40.7371 30.6587 40.1395 30.7583C39.8407 30.4595 39.5419 30.1608 39.2431 29.862L39.1435 29.7624C39.8407 28.2684 40.3387 26.6749 40.5379 25.0813C40.6375 25.0813 40.6375 25.0813 40.7371 25.0813L40.8367 25.1809C41.0359 25.4797 41.3346 25.5793 41.733 25.5793C42.1314 25.5793 42.4302 24.8821 42.5298 24.2845C42.5298 23.9858 42.6294 23.9858 42.8286 23.8862L43.0278 23.7866L43.3266 23.687C43.4262 23.4878 42.9282 23.687 43.4262 23.3882ZM49.9 36.4353H45.7169L44.5217 37.4313C43.227 37.0329 41.9322 36.7341 40.5379 36.4353C40.6375 36.3357 40.7371 36.3358 40.7371 36.2362C41.1354 35.7382 41.3346 35.041 41.3346 34.3438L41.6334 33.9454C41.8326 33.547 42.231 33.1487 42.6294 32.8499C43.227 32.6507 43.8246 32.4515 44.4221 32.3519H44.5217C45.0197 32.3519 46.1153 32.3519 46.3145 31.7543C46.5137 31.4555 46.4141 30.9575 46.1153 30.7583L46.0157 30.6587L45.9161 30.5591C45.6173 30.1608 45.6173 29.5632 46.0157 29.2644C46.0157 29.2644 46.1153 29.2644 46.1153 29.1648C46.4141 30.0612 47.0117 30.8579 47.8084 31.5551C48.5056 32.1527 49.3024 32.5511 50.1987 32.6507C50.5971 32.6507 50.9955 32.7503 51.3939 32.8499C51.5931 33.0491 51.7923 33.2483 51.7923 33.547C51.8919 34.045 51.6927 34.4434 51.2943 34.7422C50.5971 34.9414 50.0991 35.539 49.9 36.4353C49.9 36.3357 49.9 36.3357 49.9 36.4353ZM39.0439 34.543C39.0439 34.6426 39.0439 34.7422 38.9443 34.7422C38.7451 34.9414 38.048 34.8418 37.6496 34.7422C37.4504 34.7422 37.2512 34.6426 37.052 34.6426C36.4544 34.6426 35.8568 34.9414 35.4584 35.3398C35.3588 35.3398 35.3588 35.4394 35.2592 35.4394C34.3629 35.4394 33.5661 35.3398 32.6697 35.3398H32.8689C34.8609 34.7422 36.6536 33.4474 37.8488 31.7543C38.6455 32.4515 39.0439 33.4474 39.0439 34.543ZM38.1475 31.3559C38.4463 30.9575 38.6455 30.5591 38.9443 30.1608C39.1435 30.3599 39.3427 30.5591 39.6415 30.8579C39.4423 30.9575 39.2431 30.9575 39.1435 31.0571C38.8447 31.1567 38.6455 31.4555 38.5459 31.7543C38.3467 31.6547 38.2471 31.4555 38.1475 31.3559ZM36.9524 35.1406C37.1516 35.1406 37.3508 35.1406 37.55 35.2402C38.1475 35.3398 38.8447 35.4394 39.2431 35.1406C39.4423 35.041 39.5419 34.8418 39.4423 34.6426C39.4423 34.3438 39.4423 34.045 39.3427 33.7462C39.5419 33.9454 39.7411 33.9454 39.9403 33.8458C39.9403 33.9454 39.9403 34.045 40.0399 34.045V34.1446C40.1395 34.3438 40.3387 34.543 40.5379 34.6426C40.6375 34.6426 40.6375 34.6426 40.7371 34.6426C40.7371 35.1406 40.5379 35.539 40.2391 35.9374C40.0399 36.037 39.9403 36.2362 39.7411 36.3357C38.4463 36.037 37.052 35.8378 35.7572 35.7382C36.2552 35.3398 36.554 35.1406 36.9524 35.1406ZM45.8165 28.4676C45.8165 28.4676 45.9161 28.5672 45.8165 28.4676C45.7169 28.6668 45.7169 28.6668 45.6173 28.7664C45.2189 28.9656 44.7209 28.5672 44.4221 28.368C43.8246 27.87 43.3266 27.7704 44.1233 28.6668C44.4221 28.9656 44.8205 29.1648 45.2189 29.2644C45.0197 29.7624 45.0197 30.2603 45.4181 30.7583V30.8579C45.5177 30.9575 45.5177 31.0571 45.6173 31.1567C45.8165 31.3559 45.8165 31.3559 45.7169 31.6547C45.6173 32.0531 44.6213 32.0531 44.3225 32.0531C43.6254 32.1527 43.0278 32.3519 42.4302 32.5511C41.9322 32.8499 41.5338 33.2483 41.3346 33.7462C41.235 33.9454 41.0359 34.1446 40.9363 34.2442H40.8367C40.7371 34.2442 40.7371 34.1446 40.6375 34.1446L40.5379 33.7462C40.4383 33.3478 40.5379 33.1487 40.0399 33.4474C39.9403 33.4474 39.8407 33.4474 39.8407 33.4474C39.7411 33.3478 39.6415 33.2482 39.6415 33.1487L39.7411 32.9495C40.0399 32.4515 39.8407 32.4515 39.3427 32.4515H39.2431C39.1435 32.4515 39.0439 32.3519 38.9443 32.1527C38.8447 31.9535 38.9443 31.6547 39.2431 31.5551C39.4423 31.4555 39.6415 31.3559 39.8407 31.3559C40.0399 31.3559 40.1395 31.2563 40.3387 31.2563C40.8367 31.2563 41.235 31.2563 41.733 31.2563H42.1314C42.6294 31.2563 43.0278 31.1567 43.3266 30.8579C43.4262 30.6587 43.5258 30.4595 43.4262 30.2603C43.3266 29.862 43.0278 29.5632 42.729 29.2644C42.5298 29.0652 42.3306 28.866 42.1314 28.5672C41.733 27.87 41.733 26.8741 42.0318 26.1769C42.1314 25.9777 42.231 25.7785 42.4302 25.6789C42.5298 25.6789 42.6294 25.6789 42.8286 25.7785L42.9282 25.8781C44.0238 26.1769 45.1193 26.1769 46.2149 25.8781C46.2149 25.9777 46.1153 26.0773 46.1153 26.1769C45.9161 26.7745 45.8165 27.5712 45.8165 28.4676ZM7.96975 35.041L7.47177 34.6426C7.27257 34.4434 6.97378 34.2442 6.87419 34.1446C6.77459 33.8458 6.67499 33.6466 6.67499 33.3478C6.67499 33.2483 6.67499 33.2482 6.67499 33.1487C6.67499 32.9495 6.77459 32.6507 6.77459 32.4515C6.77459 32.4515 6.77459 32.3519 6.77459 32.2523C6.97378 32.1527 7.17298 32.1527 7.47177 32.1527C7.96975 32.2523 8.46773 32.2523 8.96572 32.0531C9.36411 31.8539 9.6629 31.5551 9.76249 31.1567C10.4597 31.1567 11.0572 30.8579 11.4556 30.3599C11.6548 30.0612 11.7544 29.7624 11.854 29.4636C12.4516 29.7624 13.0492 29.862 13.6468 29.7624C13.7464 29.7624 13.7464 29.7624 13.846 29.7624C13.5472 29.9616 13.2484 30.2604 13.0492 30.5591C12.85 30.7583 12.7504 31.0571 12.7504 31.2563C12.7504 31.3559 12.7504 31.3559 12.7504 31.4555C12.85 31.9535 13.348 32.1527 13.7464 32.3519H13.846C14.1447 32.5511 14.5431 32.6507 14.9415 32.7503L15.5391 32.9495C15.7383 33.0491 15.9375 33.1487 16.0371 33.3478C16.2363 33.547 16.4355 33.7462 16.7343 33.8458C17.3318 34.1446 17.6306 34.2442 17.9294 34.1446C17.9294 34.2442 17.9294 34.3438 17.9294 34.3438C18.029 34.9414 18.6266 35.041 19.025 35.041H19.2242H19.4234C19.523 35.2402 19.6226 35.539 19.8218 35.7382C19.8218 35.7382 20.021 35.8378 20.1205 35.9374C18.8258 36.2361 17.531 36.5349 16.2363 36.9333L14.9415 35.9374H8.56733C8.56733 35.8378 8.36814 35.3398 7.96975 35.041ZM19.8218 23.9858C19.6226 24.2845 19.6226 24.3841 19.3238 24.4837C19.2242 24.4837 19.1246 24.4837 19.1246 24.4837C18.9254 24.3841 18.8258 24.3841 18.6266 24.4837C17.9294 24.6829 18.029 25.0813 18.029 25.5793V25.8781C18.029 26.0773 18.029 26.1769 18.1286 26.3761C18.2282 26.4757 18.2282 26.5753 18.3278 26.5753C18.527 26.6749 18.8258 26.6749 19.025 26.5753C19.1246 26.5753 19.3238 26.4757 19.523 26.3761C19.8218 26.2765 20.2201 26.1769 20.5189 25.9777C20.7181 27.2724 21.1165 28.4676 21.7141 29.5632L21.6145 29.6628C20.6185 30.4595 20.021 31.5551 19.6226 32.7503C19.523 32.6507 19.4234 32.6507 19.2242 32.5511C18.8258 32.1527 18.3278 31.9535 17.8298 31.8539C17.2322 31.7543 16.7343 31.5551 16.1367 31.2563C15.9375 31.1567 15.8379 31.0571 15.8379 30.9575C15.8379 30.8579 15.8379 30.7583 15.9375 30.6587C16.2363 30.4595 16.5351 30.2604 16.8339 30.0612C17.3318 29.7624 18.6266 28.6668 18.527 27.87C18.4274 27.4716 18.2282 27.1729 18.029 26.8741L17.8298 26.4757C17.531 25.9777 16.9335 25.7785 16.4355 25.9777C15.5391 26.1769 14.5431 26.1769 13.6468 26.1769C14.2443 25.6789 14.9415 25.3801 15.6387 25.3801C16.5351 25.2805 17.4314 24.8821 18.029 24.1849C18.6266 23.5874 19.2242 22.8902 19.6226 22.0934C19.6226 22.0934 19.6226 21.9938 19.7222 21.9938C19.7222 22.0934 19.7222 22.0934 19.7222 22.193V22.2926C19.9214 23.0894 19.9214 23.5874 19.8218 23.9858ZM16.7343 26.7745C17.033 26.6749 17.4314 26.7745 17.6306 27.0733L17.8298 27.4716C18.029 27.7704 18.1286 27.9696 18.2282 28.2684C18.3278 28.5672 17.3318 29.6628 16.7343 29.9616C16.3359 30.1608 16.0371 30.3599 15.6387 30.6587C15.5391 30.8579 15.4395 30.9575 15.4395 31.1567C15.4395 31.2563 15.4395 31.2563 15.4395 31.3559C15.5391 31.6547 15.7383 31.8539 16.0371 31.8539C16.6347 32.1527 17.2322 32.3519 17.8298 32.4515C18.2282 32.5511 18.7262 32.7503 19.025 33.0491C19.2242 33.2483 19.4234 33.3478 19.7222 33.4474L19.9214 33.547C20.2201 33.9454 20.4193 34.4434 20.4193 34.9414V35.041C20.4193 35.1406 20.4193 35.1406 20.3197 35.2402C20.2201 35.3398 20.021 35.2402 19.8218 35.2402H19.6226H19.523H19.3238C18.9254 35.1406 18.6266 35.1406 18.6266 34.9414C18.6266 34.8418 18.6266 34.7422 18.527 34.6426C18.3278 33.8458 18.3278 34.1446 18.029 34.3438H17.9294C17.7302 34.3438 17.6306 34.3438 17.0331 34.045C16.8339 33.9454 16.6347 33.7462 16.4355 33.6466C16.2363 33.4474 16.0371 33.3478 15.7383 33.1487L15.1407 32.9495C14.7423 32.8499 14.4435 32.6507 14.1447 32.5511C13.846 32.3519 13.4476 32.1527 13.4476 31.9535C13.4476 31.7543 13.5472 31.5551 13.6468 31.4555C13.846 31.1567 14.0451 30.8579 14.3439 30.6587C14.4435 30.6587 14.7423 30.3599 14.6427 30.1608C14.5431 29.9616 14.4435 29.7624 13.7464 29.862C13.2484 29.9616 12.6508 29.862 12.1528 29.5632H12.0532C12.2524 29.0652 12.4516 28.6668 12.6508 28.2684C12.7504 27.9696 12.9496 27.7704 13.1488 27.4716L13.2484 27.372C14.5431 27.0733 15.6387 26.9737 16.7343 26.7745ZM20.2201 35.539C20.3197 35.539 20.4193 35.539 20.6185 35.4394C20.8177 35.3398 20.8177 35.1406 20.9173 34.9414C20.9173 34.2442 20.6185 33.547 20.1205 32.9495C20.4193 31.8539 21.1165 30.8579 22.0129 30.0612C22.2121 30.4595 22.5109 30.8579 22.8097 31.2563C21.9133 32.0531 21.4153 33.2482 21.4153 34.4434C21.4153 34.6426 21.5149 34.8418 21.6145 34.9414C22.0129 35.2402 22.7101 35.1406 23.3076 35.041C23.5068 35.041 23.706 34.9414 23.9052 34.9414C24.3036 35.041 24.702 35.1406 25.0008 35.4394C23.706 35.6386 22.3117 35.8378 21.0169 36.037C20.8177 35.9374 20.6185 35.8378 20.5189 35.6386C20.3197 35.7382 20.3197 35.6386 20.2201 35.539ZM23.8056 34.6426C23.6064 34.6426 23.4072 34.6426 23.208 34.7422C22.7101 34.8418 22.1125 34.9414 21.9133 34.7422C21.8137 34.6426 21.8137 34.6426 21.8137 34.543C21.8137 33.4474 22.2121 32.4515 23.0089 31.7543C24.3036 33.4474 25.9968 34.6426 27.9887 35.3398H28.1879C27.2915 35.3398 26.3951 35.4394 25.5984 35.539C25.4988 35.4394 25.4988 35.4394 25.4988 35.4394C25.0008 34.9414 24.4032 34.6426 23.8056 34.6426ZM9.86209 6.15795C9.5633 5.95875 9.3641 5.56037 9.3641 5.16198C9.3641 4.96279 9.5633 4.76359 9.6629 4.664C10.2605 4.4648 10.8581 4.4648 11.356 4.76359C11.4556 4.76359 11.5552 4.76359 11.6548 4.76359H11.7544C11.7544 4.76359 11.5552 4.16601 11.5552 4.06642C11.6548 4.06642 11.9536 3.96682 12.0532 3.86722L12.2524 4.5644H12.4516C12.5512 4.4648 12.6508 4.36521 12.6508 4.26561C12.9496 3.76763 13.348 3.36924 13.9456 3.26964C14.1447 3.26964 14.3439 3.26964 14.4435 3.46884C14.6427 3.66803 14.6427 3.86722 14.6427 4.16601C14.6427 4.36521 14.6427 4.4648 14.5431 4.664C14.4435 5.16198 14.2443 5.56037 14.1447 5.95875H14.0451C13.9456 5.95875 13.846 5.95875 13.846 5.95875C13.846 5.95875 13.846 5.95875 13.7464 5.95875C13.9456 5.56037 14.1447 5.06238 14.2443 4.5644C14.2443 4.4648 14.3439 4.26561 14.3439 4.16601C14.3439 4.06642 14.3439 3.86722 14.2443 3.76763C14.1447 3.66803 14.1447 3.66803 14.0451 3.66803C13.7464 3.76763 13.348 4.06642 12.9496 4.664C12.85 4.76359 12.7504 4.96279 12.5512 5.06238C12.5512 5.16198 12.85 5.95875 12.85 5.95875C12.85 5.95875 12.9496 6.15795 12.9496 6.25754C12.7504 6.25754 12.4516 6.15795 12.2524 6.15795V6.05835L12.0532 5.26158H11.9536C11.7544 5.26158 11.5552 5.26158 11.356 5.16198C10.8581 4.96279 10.3601 4.86319 9.86209 5.06238C9.76249 5.06238 9.6629 5.16198 9.6629 5.26158C9.6629 5.46077 9.86209 5.75956 10.0613 5.95875C10.3601 6.25754 10.6589 6.45674 10.9577 6.65593C10.8581 6.65593 10.7585 6.65593 10.6589 6.65593H10.5593C10.3601 6.55633 10.0613 6.35714 9.86209 6.15795ZM13.4476 5.75956C13.348 5.85916 13.348 5.95875 13.2484 5.95875L12.9496 5.06238C13.0492 4.96279 13.1488 4.86319 13.1488 4.86319C13.348 4.5644 13.6468 4.26561 13.9456 4.06642C13.9456 4.06642 13.9456 4.06642 13.9456 4.16601C13.9456 4.26561 13.9456 4.36521 13.9456 4.4648C13.846 4.86319 13.6468 5.36117 13.4476 5.75956ZM11.7544 5.95875C11.5552 5.95875 11.356 6.05835 11.2564 6.15795C11.2564 6.15795 11.2564 6.15795 11.2564 6.25754C10.9577 6.05835 10.6589 5.85916 10.3601 5.56037C10.2605 5.46077 10.1609 5.36117 10.1609 5.26158C10.5593 5.26158 10.8581 5.26158 11.2564 5.46077C11.356 5.46077 11.4556 5.56037 11.6548 5.56037L11.7544 5.95875ZM13.1488 16.2172C13.0492 15.9184 12.85 15.6196 12.6508 15.4204C12.6508 15.4204 12.6508 15.3208 12.5512 15.3208C11.6548 14.2253 11.854 14.6237 11.7544 15.52C11.7544 15.6196 11.7544 15.6196 11.7544 15.7192C11.7544 15.8188 11.7544 15.9184 11.7544 16.018C11.7544 16.1176 11.7544 16.1176 11.6548 16.2172C11.6548 16.2172 11.5552 16.2172 11.356 16.2172C10.7585 16.018 10.3601 15.6196 10.1609 15.0221C10.1609 14.9225 10.0613 14.8229 10.0613 14.7233C9.6629 13.4285 9.76249 13.9265 9.4637 14.3249L9.3641 14.4245L9.26451 14.5241C9.06532 14.2253 8.86612 13.9265 8.66693 13.6277C8.66693 13.5281 8.66693 13.4285 8.66693 13.3289C8.66693 13.0301 8.66693 12.8309 8.76653 12.5321V12.4325V12.3329C8.86612 11.9346 8.96572 11.7354 8.76653 11.6358C8.56733 11.5362 8.46773 11.5362 8.06935 11.6358H7.96975C7.87015 11.6358 7.87015 11.6358 7.77056 11.6358C7.87015 11.337 7.87015 11.0382 7.87015 10.6398C7.96975 10.1418 7.67096 9.54424 7.17298 9.34504C7.07338 9.34504 7.07338 9.24545 6.97378 9.24545C7.96975 9.04625 8.96572 8.54827 9.6629 7.85109L9.86209 7.6519C10.1609 7.4527 10.3601 7.25351 10.7585 7.05432C10.9577 7.05432 11.1568 7.15391 11.356 7.25351C11.4556 7.25351 11.5552 7.4527 11.6548 7.4527C11.7544 7.5523 11.9536 7.75149 12.0532 7.5523C12.1528 7.4527 12.1528 7.35311 12.0532 7.25351C11.7544 6.95472 11.5552 6.45674 11.6548 6.45674C11.6548 6.45674 11.7544 6.35714 12.2524 6.45674C12.6508 6.55633 13.7464 7.05432 13.1488 6.55633C13.2484 6.55633 13.4476 6.45674 13.5472 6.45674H13.7464C13.846 6.45674 13.9456 6.45674 14.0451 6.45674C14.3439 6.45674 14.5431 6.55633 14.6427 6.55633H14.8419V6.65593V6.75553C14.8419 7.05432 15.4395 7.5523 15.4395 7.5523C15.5391 7.6519 16.0371 8.05028 16.4355 8.54827C17.1326 9.24545 17.9294 10.0422 18.2282 10.2414C18.6266 10.6398 18.6266 10.9386 18.527 11.0382C18.4274 11.1378 18.3278 11.2374 18.2282 11.2374L18.1286 11.1378C17.9294 11.0382 17.7302 10.9386 17.531 11.1378C17.4314 11.2374 17.4314 11.337 17.4314 11.4366C17.4314 11.6358 17.4314 11.7354 17.531 11.835C17.531 11.9346 17.531 11.9346 17.531 12.0342C17.4314 12.1337 17.1326 12.1337 16.9335 12.0342C16.7343 11.9346 16.5351 11.7354 16.3359 11.5362L15.9375 11.2374C15.5391 10.9386 15.0411 10.7394 14.5431 10.7394C14.4435 10.7394 14.3439 10.6398 14.2443 10.6398C14.1447 10.6398 14.1447 10.5402 14.0451 10.5402C13.7464 10.341 13.5472 9.94262 13.4476 9.54424C13.4476 9.44464 13.348 9.34504 13.348 9.54424C13.2484 10.0422 13.4476 10.5402 13.6468 10.9386C13.7464 11.1378 13.846 11.337 14.0451 11.4366L14.2443 11.7354C14.7423 12.4325 15.3399 13.0301 16.1367 13.4285L16.7343 13.7273C17.9294 14.3249 19.6226 15.0221 20.3197 16.8148C20.6185 17.6116 20.6185 18.5079 20.4193 19.3047C19.9214 19.0059 19.3238 18.6075 18.7262 18.2091C18.3278 18.01 18.029 17.7112 17.6306 17.512L17.8298 17.4124C18.1286 17.2132 18.4274 17.014 18.527 16.6156C18.6266 16.2172 18.3278 15.8188 18.029 15.4204C17.3318 14.3249 15.8379 14.1257 14.7423 14.0261L14.0451 13.9265C12.9496 13.7273 11.854 13.2293 10.9577 12.5321C9.86209 11.5362 10.0613 9.74343 10.1609 9.14585C10.1609 9.04625 10.1609 8.74746 10.0613 9.04625C9.86209 9.64383 9.36411 11.7354 10.6589 12.8309C11.6548 13.6277 12.85 14.1257 14.0451 14.3249L14.6427 14.4245C15.5391 14.5241 17.0331 14.8229 17.531 15.7192C17.7302 16.1176 18.029 16.3168 17.9294 16.6156C17.9294 16.7152 17.7302 16.9144 17.4314 17.1136L17.0331 17.3128C16.8339 17.1136 16.5351 17.014 16.3359 16.8148C16.2363 16.7152 16.2363 16.6156 16.1367 16.6156C15.4395 16.018 15.7383 16.4164 15.6387 16.7152C15.5391 16.8148 15.2403 16.8148 14.5431 16.516C14.1447 16.4164 14.1447 16.3168 14.0451 16.1176C13.5472 15.52 13.6468 15.7192 13.5472 16.2172C13.5472 16.4164 13.4476 16.4164 13.348 16.4164C13.4476 16.4164 13.2484 16.3168 13.1488 16.2172ZM4.28467 20.6991L4.08548 21.0975C3.78669 21.695 3.4879 22.193 3.28871 22.5914L3.18911 22.7906C2.98992 23.189 2.98992 23.189 2.89032 23.0894C2.89032 22.9898 2.89032 22.8902 2.89032 22.8902C2.89032 22.7906 2.98992 22.5914 2.98992 22.4918C2.98992 22.4918 2.98992 22.4918 2.98992 22.3922C2.79072 21.7946 2.49193 21.1971 2.09355 20.6991L1.99395 20.5995C1.89435 20.4003 1.79476 20.1015 1.79476 19.8027C1.79476 19.6035 1.79476 19.4043 1.79476 19.2051C2.19314 19.3047 2.49193 19.2051 2.79072 18.9063C2.79072 19.2051 2.89032 19.5039 2.98992 19.9023V20.0019C3.08951 20.2011 3.18911 20.5995 3.4879 20.5995C3.78669 20.5995 3.98588 20.4003 4.38427 19.8027C4.68306 19.4043 4.78266 19.0059 4.88225 18.5079C4.88225 18.5079 4.88225 18.5079 4.98185 18.5079C4.98185 19.3047 4.68306 20.1015 4.28467 20.6991ZM5.28064 26.8741C4.78266 25.8781 5.18104 24.4837 6.3762 22.9898L6.67499 22.5914L6.77459 22.3922C7.17298 21.9938 7.37217 21.4958 7.37217 20.8983C7.37217 20.7987 7.37217 20.6991 7.37217 20.5995C7.27257 20.3007 7.07338 20.1015 6.87419 20.1015C6.77459 20.1015 6.67499 20.0019 6.67499 20.0019C6.77459 19.9023 6.87419 19.8027 6.97378 19.8027L7.07338 19.7031C7.27257 19.6035 7.57136 19.5039 7.77056 19.5039H7.87015C8.06935 19.6035 8.16894 19.6035 8.36814 19.5039C8.56733 19.4043 8.66693 19.1055 8.76653 18.6075C8.86612 17.8108 8.76653 16.9144 8.26854 16.3168C7.77056 15.6196 6.97378 15.1217 6.17701 15.1217C5.67903 15.2212 5.38024 15.52 5.28064 16.018C5.18104 16.2172 5.18104 16.3168 5.18104 16.516C5.18104 17.014 5.38024 17.6116 5.77862 18.01H5.67903H5.57943C5.28064 18.01 4.38427 17.8108 4.28467 18.5079V18.6075C4.28467 19.0059 4.08548 19.3047 3.88629 19.6035C3.78669 19.8027 3.68709 19.9023 3.4879 20.1015C3.4879 20.0019 3.3883 19.9023 3.3883 19.9023V19.8027C3.28871 19.6035 3.28871 19.3047 3.28871 19.0059V18.9063C3.28871 18.8067 3.28871 18.7071 3.28871 18.6075C3.4879 18.6075 3.4879 18.5079 3.4879 18.4083C3.4879 18.3087 3.4879 18.2091 3.3883 18.2091C3.18911 18.1096 2.98992 18.2092 2.59153 18.5079C2.19314 18.7071 2.09355 18.7071 1.89435 18.7071C1.69516 18.7071 1.59556 18.6075 1.39637 18.6075C1.29677 18.6075 1.19718 18.6075 1.19718 18.6075C1.69516 18.2092 1.99395 17.7112 2.29274 17.2132C2.29274 17.1136 2.29274 17.014 2.29274 17.014C2.19314 16.6156 1.89435 16.4164 1.49597 16.2172C1.89435 16.1176 2.29274 15.9184 2.69113 15.9184C3.3883 15.8188 3.98588 15.52 4.58346 15.1217C5.08145 14.8229 5.67903 14.5241 6.27661 14.4245C7.17298 14.2253 7.96975 14.7233 8.96572 16.1176C9.36411 16.7152 9.4637 17.3128 9.4637 18.01C9.4637 18.7071 9.36411 19.3047 9.06532 20.0019L8.96572 20.1015C8.86612 20.3007 8.76653 20.4999 8.76653 20.6991C8.76653 20.8983 8.86612 21.1971 9.16491 21.2966C9.4637 21.3962 9.5633 21.4958 9.5633 21.5954C9.5633 21.695 9.4637 21.8942 9.3641 21.9938L9.06532 22.4918C8.86612 22.7906 8.66693 23.0894 8.56733 23.3882C8.56733 23.3882 8.36814 23.687 8.36814 23.5874V23.3882L8.26854 23.0894C8.16894 22.3922 8.06935 22.193 7.87015 22.193C7.77056 22.193 7.57136 22.2926 7.57136 22.3922L7.37217 22.7906L7.17298 23.0894L6.97378 23.3882L6.77459 23.687C6.17701 24.4837 5.28064 25.6789 6.17701 26.8741C6.77459 27.372 7.57136 27.5712 8.26854 27.1729C8.26854 27.4716 8.26854 27.7704 8.16894 28.0692C6.77459 28.0692 5.67903 27.6708 5.28064 26.8741ZM5.87822 35.7382C5.77862 35.7382 5.67903 35.7382 5.57943 35.7382H5.18104H5.08145C5.08145 35.6386 5.08145 35.4394 5.18104 35.2402C5.18104 35.1406 5.28064 34.9414 5.28064 34.8418C5.28064 34.7422 5.28064 34.543 5.38024 34.4434C5.38024 33.8458 5.47983 33.3478 5.47983 32.7503C5.47983 32.5511 5.47983 32.3519 5.47983 32.1527C5.47983 31.9535 5.47983 31.7543 5.47983 31.6547C5.47983 31.2563 5.57943 31.1567 5.57943 31.0571C5.57943 31.0571 5.67903 31.0571 5.77862 31.0571H5.97782H6.07741C6.97378 31.0571 7.77056 30.6587 8.26854 29.862C8.76653 29.1648 8.86612 28.4676 8.96572 26.6749C9.06532 25.3801 9.76249 24.185 10.8581 23.3882L11.1568 23.189C11.5552 22.9898 12.0532 22.5914 12.4516 22.3922C12.6508 22.2926 12.85 22.0934 12.9496 21.8942C13.0492 21.5954 13.1488 21.3962 13.2484 21.0975C13.4476 20.6991 13.6468 20.2011 13.7464 19.7031C13.9456 18.7071 13.9456 17.7112 13.5472 16.7152C13.6468 16.7152 13.6468 16.7152 13.7464 16.7152C13.9456 16.7152 14.2443 16.6156 14.3439 16.4164C14.5431 16.516 14.6427 16.6156 14.8419 16.7152C15.3399 16.9144 16.0371 17.1136 16.3359 16.8148C16.3359 16.8148 16.3359 16.8148 16.3359 16.9144C17.033 17.512 17.8298 18.1096 18.6266 18.6075C19.523 19.2051 20.4193 19.8027 20.8177 20.2011C21.0169 20.4003 21.1165 20.4999 21.1165 20.6991C21.1165 20.7987 21.1165 20.8983 21.1165 20.8983C21.1165 21.0975 21.0169 21.3962 21.0169 21.5954C20.9173 22.0934 20.8177 22.5914 20.8177 23.0894C20.8177 23.5874 20.8177 24.0854 20.9173 24.6829V24.8821C20.9173 24.9817 20.9173 25.0813 20.9173 25.1809C20.9173 25.2805 20.9173 25.4797 20.7181 25.4797C20.3197 25.6789 19.8218 25.8781 19.4234 25.9777C19.1246 26.0773 18.9254 26.1769 18.8258 26.1769C18.7262 26.2765 18.6266 26.2765 18.527 26.1769C18.4274 26.1769 18.4274 26.0773 18.4274 25.8781V25.5793C18.4274 25.0813 18.4274 25.0813 18.7262 24.9817C18.8258 24.9817 18.9254 24.9817 18.9254 24.9817C19.1246 25.0813 19.3238 25.0813 19.4234 24.9817C19.7222 24.8821 20.021 24.5833 20.1205 24.2845C20.3197 23.9858 20.2201 23.5874 20.2201 22.8902V22.3922C20.2201 22.0934 20.4193 21.5954 19.523 21.2966C18.029 20.7987 17.1326 20.4999 16.8339 20.4999C16.5351 20.4003 16.1367 20.3007 15.8379 20.2011C15.7383 20.1015 15.6387 20.1015 15.5391 20.2011C15.4395 20.3007 15.4395 20.4003 15.5391 20.4999C15.9375 20.7987 16.3359 20.8983 16.7343 20.9979C16.9335 20.9979 17.531 21.1971 19.4234 21.7946C19.4234 21.7946 19.523 21.7946 19.523 21.8942C19.4234 22.0934 19.4234 22.193 19.3238 22.3922C18.9254 23.0894 18.4274 23.7866 17.8298 24.2845C17.2322 24.8821 16.5351 25.1809 15.6387 25.3801C14.1447 25.4797 12.85 26.3761 12.1528 27.7704C11.854 28.2684 11.6548 28.7664 11.4556 29.2644C11.356 29.6628 11.1568 29.9616 10.9577 30.2603C10.6589 30.6587 9.86209 31.0571 9.4637 30.8579C9.16491 30.6587 8.66693 30.6587 8.26854 30.7583C8.06935 30.8579 8.16894 30.9575 7.77056 30.9575C7.67096 30.9575 7.17298 30.9575 7.17298 31.0571C7.17298 31.1567 7.47177 31.2563 7.57136 31.3559C8.26854 31.4555 8.16894 31.3559 8.46773 31.1567C8.56733 31.0571 8.66693 31.0571 9.06532 31.1567C8.96572 31.4555 8.76653 31.6547 8.46773 31.7543C8.06935 31.8539 7.67096 31.8539 7.27257 31.7543C6.87419 31.7543 6.17701 31.8539 6.07741 32.1527L6.4758 32.3519C6.3762 32.5511 6.3762 32.8499 6.3762 33.0491C6.27661 33.547 6.3762 34.045 6.67499 34.4434C6.77459 34.543 7.07338 34.7422 7.27257 34.9414L7.67096 35.3398L7.77056 35.4394C7.96975 35.6386 8.16894 35.7382 8.16894 36.4353C8.16894 37.0329 7.96975 37.0329 7.17298 37.0329H7.07338C6.77459 37.0329 6.4758 37.0329 6.27661 36.8337C6.17701 36.7341 6.3762 36.4353 6.3762 36.3357V36.2362C6.4758 35.7382 6.87419 35.7382 5.87822 35.7382ZM1.39637 41.9132C1.59556 41.4152 2.69113 39.3237 2.69113 39.3237C2.69113 39.3237 1.59556 37.3317 1.29677 36.8337H5.77862C5.77862 36.8337 5.77862 36.8337 5.77862 36.9333C5.77862 37.0329 5.77862 37.1325 5.87822 37.2321C5.97782 37.4313 6.17701 37.5309 6.3762 37.5309C6.67499 37.5309 6.87419 37.6305 7.17298 37.6305H7.27257C7.77056 37.6305 8.46774 37.6305 8.56733 36.9333H15.0411C15.0411 36.9333 15.5391 37.2321 15.9375 37.6305C15.2403 37.8297 14.6427 38.0289 14.0451 38.3277L13.846 38.4273L14.9415 42.1124L1.39637 41.9132ZM44.7209 44.6023C40.1395 43.0087 35.2592 42.212 30.4786 42.212C25.5984 42.212 20.8177 43.1083 16.2363 44.6023L14.4435 38.5269C19.6226 36.7341 25.0008 35.7382 30.4786 35.7382C35.9564 35.7382 41.4342 36.7341 46.5137 38.5269L44.7209 44.6023ZM53.9834 36.8337H59.3616C59.0629 37.3317 57.9673 39.3237 57.9673 39.3237C57.9673 39.3237 59.0629 41.4152 59.262 41.9132H46.0157L47.1112 38.2281L46.9121 38.1285C46.3145 37.9293 45.7169 37.7301 45.0197 37.5309C45.4181 37.2321 45.8165 36.8337 45.9161 36.8337H50.0991C50.1987 36.9333 50.1987 36.9333 50.2983 37.0329C50.4975 37.1325 50.6967 37.1325 50.9955 37.0329C50.9955 37.1325 51.0951 37.2321 51.1947 37.3317C51.4935 37.7301 51.9915 37.8297 52.3899 37.6305L52.5891 37.5309C52.7883 37.7301 53.0871 37.7301 53.2862 37.7301C53.585 37.7301 53.7842 37.5309 53.8838 37.3317C53.8838 37.1325 53.9834 37.0329 53.9834 36.8337ZM52.5891 31.0571L52.6887 31.1567C52.9875 31.3559 53.4854 31.7543 53.4854 32.1527C53.4854 32.4515 53.4854 33.6466 53.4854 33.6466C53.4854 33.9454 53.585 34.2442 53.585 34.543C53.6846 34.8418 53.6846 35.1406 53.6846 35.2402C53.6846 35.8378 53.585 36.4353 53.4854 37.0329C53.3858 37.1325 53.2862 37.2321 53.1866 37.2321C53.0871 37.2321 52.9875 37.2321 52.8879 37.1325L52.7883 37.0329C52.4895 36.3358 52.3899 36.7341 52.1907 37.1325L52.0911 37.2321C51.7923 37.4313 51.5931 37.1325 51.4935 37.0329C51.3939 37.0329 51.3939 36.9333 51.3939 36.8337C51.3939 36.8337 51.3939 36.8337 51.3939 36.7341C51.4935 36.037 51.4935 36.1366 50.9955 36.4353H50.8959C50.7963 36.4353 50.5971 36.5349 50.5971 36.5349C50.4975 36.4353 50.3979 36.3357 50.3979 36.1366C50.5971 35.539 50.9955 35.1406 51.4935 34.8418C51.9915 34.543 52.2903 34.045 52.1907 33.4474C52.1907 33.3478 52.1907 33.2482 52.1907 33.2482C52.1907 32.7503 51.8919 32.3519 51.4935 32.1527C51.0951 32.0531 50.5971 31.9535 50.1987 31.9535C49.402 31.8539 48.6052 31.4555 48.0076 30.9575C47.2108 30.2603 46.6133 29.364 46.3145 28.368C46.3145 28.2684 46.3145 28.1688 46.3145 28.0692C46.3145 27.372 46.5137 26.7745 46.7129 26.0773C46.9121 25.7785 46.9121 25.3801 46.9121 25.0813V24.9817C47.2108 25.1809 47.41 25.3801 47.7088 25.6789C48.5056 26.4757 48.406 26.0773 48.0076 25.4797C47.8084 25.0813 47.5096 24.7825 47.1112 24.4837C46.6133 24.185 46.0157 23.8862 45.4181 23.7866C44.9201 23.687 44.4221 23.4878 43.9242 23.189C44.0238 23.189 44.0238 23.0894 44.1233 23.0894C44.1233 23.0894 44.5217 22.7906 44.8205 22.5914C44.9201 22.7906 45.1193 22.8902 45.3185 22.9898C45.7169 23.0894 46.1153 22.8902 46.4141 22.5914C46.5137 22.3922 46.6133 22.193 46.7129 21.9938L46.8125 21.7946C47.1112 21.4958 47.41 21.2966 47.7088 21.0975C47.908 20.9979 47.908 20.9979 47.6092 20.9979C47.41 20.9979 46.5137 21.2966 46.3145 21.5954L46.2149 21.8942C46.1153 22.0934 46.1153 22.193 46.0157 22.3922C45.8165 22.4918 45.6173 22.5914 45.4181 22.5914C45.3185 22.5914 45.2189 22.4918 45.1193 22.3922C45.2189 22.3922 45.2189 22.2926 45.3185 22.193C45.4181 22.0934 45.3185 21.9938 45.2189 21.8942C45.1193 21.7946 45.0197 21.8942 44.9201 21.9938C44.6213 22.2926 44.2229 22.5914 43.8246 22.7906C43.5258 22.9898 43.227 23.189 42.9282 23.2886L42.5298 23.3882H42.4302C42.0318 23.4878 41.8326 23.7866 41.8326 24.1849C41.8326 24.6829 41.6334 24.9817 41.4342 24.9817C41.235 24.9817 41.1354 24.8821 40.9363 24.7825L40.8367 24.6829C40.7371 24.2845 40.6375 24.2845 40.3387 24.5833C40.2391 24.6829 39.9403 24.5833 39.8407 24.5833C39.7411 24.5833 39.6415 24.4837 39.6415 24.2845C39.8407 23.4878 39.8407 23.4878 39.2431 23.5874C39.1435 23.5874 39.0439 23.5874 39.0439 23.4878C39.0439 23.3882 39.0439 23.189 39.1435 22.7906C39.2431 22.4918 39.5419 22.193 39.7411 21.9938C39.8407 21.8942 40.0399 21.695 40.1395 21.5954C40.4383 21.3962 40.8367 21.1971 41.235 21.0975C41.733 20.8983 42.1314 20.6991 42.5298 20.4003C43.0278 20.0019 43.5258 19.7031 44.0238 19.4043C44.2229 19.3047 44.2229 19.2051 43.8246 19.3047C43.227 19.5039 42.729 19.7031 42.1314 20.1015C42.1314 20.1015 42.0318 20.1015 42.0318 20.2011C41.6334 19.4043 41.733 18.4083 42.231 17.7112H42.3306H42.729C42.729 17.8108 42.729 18.01 42.8286 18.1096C43.1274 18.3087 43.4262 18.3087 43.725 18.2091C43.725 18.2091 45.0197 17.7112 45.2189 17.512C45.3185 17.4124 45.4181 17.4124 45.5177 17.4124C45.5177 17.7112 45.6173 18.2092 45.7169 18.5079C45.7169 18.8067 45.9161 19.0059 46.1153 19.1055C46.3145 19.2051 46.4141 19.2051 46.6133 19.1055H46.7129C47.1113 18.9063 47.5096 18.5079 47.6092 18.1096C47.6092 18.01 47.7088 18.01 47.7088 17.9104C47.7088 17.9104 47.7088 17.9104 47.7088 18.01L47.8084 18.2091L47.908 18.4083C48.8044 20.0019 49.3024 21.695 49.5016 23.4878L49.6012 24.3841C49.6012 25.0813 49.9 25.6789 50.3979 26.0773C50.4975 26.0773 50.4975 26.1769 50.4975 26.2765C50.6967 26.6749 50.7963 27.1729 50.8959 27.5712C50.8959 27.6708 50.8959 27.7704 50.8959 27.87C50.8959 28.368 50.8959 28.7664 50.6967 29.2644C50.5971 29.0652 50.4975 28.9656 50.3979 28.866C49.9 28.0692 48.8044 27.372 49.9996 29.0652C51.1947 29.6628 51.7923 30.3599 52.5891 31.0571ZM53.585 22.193C53.585 21.9938 53.6846 21.8942 53.6846 21.7946C53.7842 21.3962 53.9834 21.0975 54.2822 20.7987V20.8983V21.0975C54.3818 21.3962 54.4814 21.695 54.581 21.8942C54.7802 22.4918 54.7802 22.5914 55.4774 22.2926L55.6766 22.193C55.6766 22.2926 55.6766 22.2926 55.6766 22.3922C55.6766 22.5914 55.9754 23.5874 55.9754 23.8862C56.1745 24.7825 55.9754 24.6829 56.6725 24.3841C57.1705 24.185 57.4693 24.1849 57.4693 24.2845C57.6685 24.5833 56.7721 25.9777 56.3737 26.3761C56.0749 26.6749 55.8758 27.0733 55.6766 27.4716V27.5712C55.4774 27.9696 55.2782 28.368 54.9794 28.7664C54.1826 29.862 52.6887 30.1608 51.4935 29.4636H51.3939C51.4935 29.1648 51.5931 28.866 51.5931 28.4676C51.9915 28.7664 52.4895 28.9656 52.9875 28.9656C54.1826 28.866 55.079 27.87 55.079 26.6749C55.079 25.7785 54.2822 24.9817 53.3858 24.9817C52.9875 24.9817 52.6887 24.9817 52.3899 25.1809C52.3899 25.1809 52.3899 25.0813 52.3899 24.9817C52.3899 24.6829 52.4895 24.0854 52.8879 23.8862C52.9875 23.8862 53.087 23.7866 53.087 23.7866C53.7842 23.5874 53.7842 23.5874 53.2862 23.2886C53.2862 23.2886 53.2862 23.2886 53.1866 23.2886V23.189C53.4854 22.691 53.585 22.3922 53.585 22.193ZM59.0629 19.5039C58.7641 20.1015 58.5649 20.7987 58.5649 21.4958C58.5649 21.7946 58.7641 22.0934 58.9633 22.193V22.2926L58.7641 22.3922C58.5649 22.4918 58.3657 22.5914 58.0669 22.5914C57.8677 22.5914 57.7681 22.5914 57.6685 22.3922C57.2701 21.8942 57.0709 21.1971 57.0709 20.5995C57.3697 20.8983 57.5689 20.9979 57.7681 20.9979C57.9673 20.8983 58.0669 20.6991 58.0669 20.4999V20.3007C58.2661 19.7031 58.3657 19.1055 58.4653 18.5079C58.4653 18.3087 58.4653 18.2092 58.5649 18.01C58.5649 18.01 58.6645 18.01 58.7641 18.1096C58.9633 18.4083 59.0629 18.8067 59.0629 19.2051C59.0629 19.3047 59.0629 19.4043 59.0629 19.5039ZM59.6604 17.3128L59.76 17.4124C59.76 17.512 59.6604 17.512 59.4612 17.6116C59.262 17.7112 58.9633 17.7112 58.7641 17.512H58.6645C57.8677 17.2132 58.1665 17.3128 57.9673 18.1096C57.9673 18.2092 57.9673 18.3087 57.9673 18.4083C57.8677 19.0059 57.7681 19.5039 57.5689 20.1015V20.4003C57.4693 20.3007 57.3697 20.2011 57.2701 20.1015L57.0709 19.9023C56.3737 19.3047 55.8758 18.5079 55.6766 17.6116C55.6766 17.3128 55.7762 17.014 55.9754 16.8148C56.075 16.7152 56.1745 16.6156 56.2741 16.4164C56.2741 16.1176 55.9754 16.018 55.7762 15.9184H55.6766C54.9794 15.6196 54.1826 15.6196 53.3858 15.9184C52.6887 16.3168 52.1907 17.014 52.0911 17.9104C51.7923 19.2051 52.2903 20.4999 53.3858 21.2966C53.3858 21.3962 53.2862 21.4958 53.2862 21.695C53.2862 21.7946 53.1866 21.9938 53.1866 22.0934C53.1866 22.2926 53.087 22.3922 53.087 22.5914C52.5891 21.8942 51.9915 20.7987 51.7923 20.4999C51.0951 19.3047 51.0951 17.8108 51.5931 16.516C51.8919 15.9184 52.3899 15.4204 53.087 15.2212C53.6846 14.9225 54.3818 14.9225 55.079 15.1217C55.3778 15.3208 55.7762 15.4204 56.1745 15.4204C56.5729 15.4204 56.9713 15.4204 57.2701 15.2212C57.4693 15.1217 57.6685 15.1217 57.8677 15.1217C58.1665 15.2212 58.4653 15.3208 58.6645 15.4204C58.8637 15.52 58.9633 15.52 59.1624 15.6196C59.262 15.6196 59.3616 15.6196 59.4612 15.6196C59.5608 15.6196 59.76 15.6196 59.8596 15.6196C59.8596 15.7192 59.76 15.8188 59.76 15.9184C59.6604 16.1176 59.5608 16.4164 59.5608 16.6156C59.4612 16.9144 59.5608 17.1136 59.6604 17.3128Z" fill="#0074C2"/>
<path d="M22.3114 3.56842C21.913 3.56842 21.6143 3.86721 21.6143 4.2656C21.6143 4.56439 21.8135 4.86318 22.1122 4.96277C22.3114 4.46479 22.411 4.0664 22.3114 3.56842C22.411 3.56842 22.411 3.56842 22.3114 3.56842Z" fill="#0074C2"/>
<path d="M38.3467 7.15395C38.7451 7.15395 39.0438 6.85516 39.0438 6.45677C39.0438 6.15798 38.8446 5.95879 38.6455 5.85919C38.4463 6.25758 38.3467 6.75556 38.2471 7.15395C38.2471 7.15395 38.3467 7.15395 38.3467 7.15395Z" fill="#0074C2"/>
<path d="M45.8163 6.75554C45.5175 6.55635 45.1191 6.45675 44.8203 6.55635C44.7207 6.55635 44.6211 6.65594 44.6211 6.75554C44.6211 6.85514 44.9199 7.05433 45.0195 7.15393C45.2187 7.25352 45.4179 7.25352 45.6171 7.15393C45.7167 7.05433 45.9159 7.05433 46.0154 7.05433C46.2146 7.05433 46.2146 6.95473 46.115 6.85514C45.9159 6.95473 45.9159 6.85514 45.8163 6.75554Z" fill="#0074C2"/>
<path d="M14.0454 8.34908C14.2446 8.44868 14.4438 8.54828 14.643 8.64787C14.9418 8.74747 15.0414 8.64787 15.141 8.34908C15.2406 8.05029 15.0414 8.05029 14.9418 8.05029C14.8422 8.05029 14.5434 8.05029 14.2446 8.05029C13.7466 8.14989 13.9458 8.24949 14.0454 8.34908Z" fill="#0074C2"/>
</g>
<defs>
<clipPath id="clip0_959_16065">
<rect width="60.6522" height="45" fill="white" transform="translate(0.5 0.5)"/>
</clipPath>
</defs>
</svg>
