<svg width="83" height="43" viewBox="0 0 83 43" fill="none" xmlns="http://www.w3.org/2000/svg">
<g clip-path="url(#clip0_959_16236)">
<path d="M44.4449 42.0006H47.5712V29.4957H44.4449V42.0006ZM3.80396 31.3193V29.4957H0.677734V42.0006H3.80396V36.0955C3.80396 34.3587 3.97764 33.7508 4.49868 33.1429C4.93288 32.6219 5.6276 32.2745 6.32231 32.3614C6.75651 32.3614 7.19071 32.4482 7.62491 32.6219L9.18802 29.843C8.40647 29.4088 7.62491 29.2352 6.84335 29.2352C5.54076 29.1483 4.23816 30.0167 3.80396 31.3193ZM14.2247 31.8403C15.7878 31.8403 16.5694 33.2298 16.5694 34.7061H11.6195C11.8801 32.7956 12.8353 31.8403 14.2247 31.8403ZM8.40647 35.835C8.40647 40.0033 10.7511 42.3479 14.9194 42.3479C16.3957 42.3479 17.872 42.0874 19.2614 41.4796L18.2193 38.8744C17.2641 39.3086 16.222 39.5691 15.18 39.5691C13.0958 39.5691 11.9669 38.7007 11.7064 37.0507H19.6088C19.6956 36.4428 19.6956 35.9218 19.6956 35.3139C19.6956 32.1877 18.393 29.322 14.5721 29.322C10.4038 29.2352 8.4933 32.4482 8.40647 35.835ZM20.7377 35.835C20.7377 40.0033 23.2561 42.3479 27.077 42.3479C28.3796 42.3479 29.5953 42.0874 30.8111 41.5664L29.769 38.8744C28.9875 39.3086 28.1191 39.5691 27.2507 39.4822C25.2534 39.4822 23.9508 38.2665 23.9508 35.7481C23.9508 33.4035 25.1665 32.014 27.3375 32.014C28.2059 32.014 29.0743 32.1877 29.8559 32.7087L30.9848 30.0167C29.769 29.4957 28.4664 29.2352 27.1638 29.2352C23.0824 29.2352 20.7377 31.9272 20.7377 35.835ZM58.0788 27.2378V29.4957H53.8236V25.0669L50.6974 27.2378V29.4957H48.7869V32.1009H50.6974V38.2665C50.4369 40.177 51.7395 42.0006 53.6499 42.3479C53.9973 42.4348 54.3447 42.4348 54.692 42.3479C55.6472 42.3479 56.6025 42.1743 57.4709 41.7401L56.4288 39.1349C55.9946 39.3954 55.5604 39.4822 55.1262 39.4822C54.171 39.4822 53.8236 38.9612 53.8236 38.0928V32.1877H58.0788V38.3533C57.8182 40.2638 59.1208 42.0874 61.0313 42.4348C61.3787 42.5216 61.726 42.5216 62.0734 42.4348C63.0286 42.4348 63.9839 42.2611 64.8523 41.8269L63.8102 39.2217C63.376 39.4822 62.9418 39.5691 62.5076 39.5691C61.5523 39.5691 61.205 39.048 61.205 38.0928V32.1877H64.5049V29.5825H61.205V25.0669L58.0788 27.2378ZM44.0107 26.1958C44.0107 27.2378 44.8791 28.1062 46.008 28.1062C47.0501 28.1062 47.9185 27.2378 47.9185 26.1089C47.9185 25.0669 47.0501 24.1985 46.008 24.1985C44.8791 24.1985 44.0107 25.0669 44.0107 26.1958ZM32.1137 25.8484V42.0006H35.2399V36.1823L39.2346 42.0006H43.1423L38.1925 35.0534L43.2292 29.4957H39.1477L35.2399 34.0982V23.5906L32.1137 25.8484Z" fill="url(#paint0_linear_959_16236)"/>
<path d="M54.1416 15.8621C54.1416 18.6409 54.7495 21.333 55.9652 23.8513L59.6125 21.2461C58.7441 19.4225 58.3099 17.4252 58.3967 15.4279C58.3967 9.1754 62.9992 4.39922 68.9043 4.39922C74.6358 4.39922 78.1962 8.48068 78.1962 13.6911C78.1962 18.3804 75.07 21.4198 70.9885 21.4198C67.0807 21.4198 64.3887 18.7278 64.3887 14.9937C64.3887 11.6938 66.4728 9.43592 68.9912 9.43592C70.9017 9.43592 71.9437 10.3043 71.9437 11.6938C71.9437 13.2569 70.2938 14.1253 68.6438 13.6911L66.907 14.9068C68.3833 16.7305 70.0333 18.2936 71.9437 19.5962L73.7674 18.2936C72.7253 17.512 71.6832 16.6436 70.8148 15.6884C72.899 15.5147 74.5489 13.6911 74.5489 11.6069C74.5489 8.82804 72.5516 6.83073 69.078 6.83073C64.9097 6.83073 61.4361 10.2175 61.4361 15.0805C61.4361 20.4646 65.3439 24.4592 71.0753 24.4592C77.3278 24.546 81.7566 19.8567 81.7566 13.6042C81.7566 6.22285 76.6331 0.751953 68.7307 0.751953C60.6546 0.751953 54.1416 7.00441 54.1416 15.8621Z" fill="url(#paint1_linear_959_16236)"/>
</g>
<defs>
<linearGradient id="paint0_linear_959_16236" x1="0.677734" y1="32.9983" x2="64.9391" y2="32.9983" gradientUnits="userSpaceOnUse">
<stop stop-color="#C41974"/>
<stop offset="0.25" stop-color="#FF007F"/>
<stop offset="1" stop-color="#FF007F"/>
</linearGradient>
<linearGradient id="paint1_linear_959_16236" x1="54.1413" y1="12.6404" x2="81.7566" y2="12.6404" gradientUnits="userSpaceOnUse">
<stop stop-color="#FF007F"/>
<stop offset="0.5" stop-color="#FF007F"/>
<stop offset="1" stop-color="#FF593D"/>
</linearGradient>
<clipPath id="clip0_959_16236">
<rect width="81.6408" height="41.7482" fill="white" transform="translate(0.677734 0.751953)"/>
</clipPath>
</defs>
</svg>
