<svg width="55" height="48" viewBox="0 0 55 48" fill="none" xmlns="http://www.w3.org/2000/svg">
<g clip-path="url(#clip0_959_16102)">
<path d="M40.6777 45.2022L42.9608 47.7962H41.4816L39.7237 45.8025V47.7962H38.5017V42.9727H39.7237V44.7199L41.4602 42.9727H42.9072L40.6777 45.2022ZM3.97581 44.2589C4.87621 44.2589 5.28353 43.8302 5.28353 43.187C5.28353 42.5439 4.87621 42.1151 3.97581 42.1151H2.20718V44.2589H3.97581ZM4.01869 40.9682C5.55151 40.9682 6.56981 41.7614 6.56981 43.187C6.56981 44.6234 5.56222 45.4059 4.01869 45.4059H2.20718V47.7855H0.920898V40.9682H4.01869ZM9.46394 46.7779C10.1821 46.7779 10.8574 46.2634 10.8574 45.3737C10.8574 44.484 10.1821 43.9695 9.46394 43.9695C8.74577 43.9695 8.07047 44.484 8.07047 45.3737C8.07047 46.2634 8.74577 46.7779 9.46394 46.7779ZM9.46394 42.8226C10.7931 42.8226 12.1008 43.6801 12.1008 45.3737C12.1008 47.0673 10.7824 47.9248 9.46394 47.9248C8.13478 47.9248 6.82707 47.0673 6.82707 45.3737C6.82707 43.6801 8.1455 42.8226 9.46394 42.8226ZM15.2415 46.7779C14.5019 46.7779 13.9552 46.2419 13.9552 45.3737C13.9552 44.5162 14.5233 43.9695 15.2415 43.9695C15.681 43.9695 16.0561 44.1732 16.3563 44.6341L17.4067 44.0338C17.053 43.2835 16.2919 42.8226 15.2415 42.8226C13.8694 42.8226 12.7011 43.8302 12.7011 45.3737C12.7011 46.9172 13.8159 47.9248 15.2415 47.9248C16.2705 47.9248 16.9672 47.4532 17.4496 46.6278L16.442 46.0704C16.1526 46.4778 15.8417 46.7779 15.2415 46.7779ZM28.2972 45.6953C28.2436 46.4349 28.0936 46.5957 27.8363 46.5957C27.6648 46.5957 27.5791 46.5742 27.4611 46.5421L27.4719 47.7962C27.4719 47.7962 27.6219 47.8391 27.9113 47.8391C28.9511 47.8391 29.337 47.1638 29.4442 45.7382L29.5621 44.0553H30.9341V47.7748H32.1561V42.9512H28.5009L28.2972 45.6953ZM26.0355 44.7306C25.9176 44.1303 25.4567 43.7551 24.7814 43.7551C24.1383 43.7551 23.6559 44.1839 23.4737 44.7306H26.0355ZM24.8135 42.8226C26.1963 42.8226 27.1717 43.8302 27.1717 45.2344V45.6631H23.4522C23.5273 46.4027 24.0525 46.8744 24.7814 46.8744C25.4352 46.8744 25.7032 46.5957 26.0034 46.2098L26.9788 46.6921C26.4964 47.5175 25.8211 47.9141 24.76 47.9141C23.4201 47.9141 22.2731 46.8958 22.2731 45.363C22.2731 43.8409 23.4201 42.8226 24.8135 42.8226ZM36.6044 44.7306C36.4865 44.1303 36.0256 43.7551 35.3503 43.7551C34.7072 43.7551 34.2248 44.1839 34.0426 44.7306H36.6044ZM35.3932 42.8226C36.776 42.8226 37.7514 43.8302 37.7514 45.2344V45.6631H34.0319C34.1069 46.4027 34.6321 46.8744 35.361 46.8744C36.0149 46.8744 36.2829 46.5957 36.583 46.2098L37.5584 46.6921C37.0761 47.5175 36.4008 47.9141 35.3396 47.9141C33.9997 47.9141 32.8528 46.8958 32.8528 45.363C32.8528 43.8409 33.989 42.8226 35.3932 42.8226ZM17.8355 44.0338H19.2718V47.7962H20.4938V44.0338H21.9301V42.9619H17.8248V44.0338H17.8355ZM45.394 46.7779C46.1122 46.7779 46.7875 46.2634 46.7875 45.3737C46.7875 44.484 46.1122 43.9695 45.394 43.9695C44.6759 43.9695 44.0006 44.484 44.0006 45.3737C44.0006 46.2634 44.6759 46.7779 45.394 46.7779ZM45.394 42.8226C46.7232 42.8226 48.0309 43.6801 48.0309 45.3737C48.0309 47.0673 46.7125 47.9248 45.394 47.9248C44.0649 47.9248 42.7571 47.0673 42.7571 45.3737C42.7571 43.6801 44.0649 42.8226 45.394 42.8226ZM52.908 42.9619L51.5789 46.3384L50.2497 42.9619H48.6419V47.7855H49.8103V44.7306L51.1073 47.7855H52.0612L53.3582 44.7306V47.7855H54.5159V42.9619H52.908Z" fill="#131314"/>
<path d="M35.5436 34.1616H21.6411C20.6335 34.1616 20.0439 33.2612 20.0439 32.4787C20.0439 32.0178 20.2369 31.589 20.537 31.2889L26.604 25.2219L35.5436 34.1616Z" fill="#FF4F12"/>
<path d="M21.6405 34.1616C20.59 34.1616 19.2823 33.3255 19.2823 31.6534V12.9594C19.2823 10.4297 19.1537 8.66111 20.9544 6.8496L27.7181 0.0751953L39.7234 12.1019L20.5364 31.2889C20.2363 31.5891 20.0433 32.0178 20.0433 32.4787C20.0433 33.2612 20.6329 34.1616 21.6405 34.1616Z" fill="#7700FF"/>
</g>
<defs>
<clipPath id="clip0_959_16102">
<rect width="54.2296" height="47.8496" fill="white" transform="translate(0.385742 0.0751953)"/>
</clipPath>
</defs>
</svg>
