<svg width="141" height="22" viewBox="0 0 141 22" fill="none" xmlns="http://www.w3.org/2000/svg">
<path d="M19.955 4.28137C20.4701 4.95626 20.9061 5.68947 21.2543 6.46628L11.3774 13.8451L7.24951 11.2227V8.06785L11.3774 10.6903L19.955 4.28137Z" fill="#21A038"/>
<path d="M3.03674 11C3.03674 10.8585 3.04014 10.7179 3.04696 10.578L0.545362 10.4538C0.536848 10.635 0.531741 10.818 0.531741 11.0026C0.530677 12.4453 0.810677 13.8739 1.35569 15.2066C1.90069 16.5394 2.69998 17.75 3.70769 18.7689L5.48213 16.9714C4.70643 16.1885 4.09106 15.2578 3.6714 14.2331C3.25174 13.2083 3.03605 12.1095 3.03674 11Z" fill="url(#paint0_linear_959_16161)"/>
<path d="M11.375 2.54962C11.5146 2.54962 11.6533 2.5548 11.7913 2.5617L11.9164 0.0255857C11.7371 0.0169565 11.5566 0.0126424 11.375 0.0126424C9.95074 0.0108823 8.54031 0.294242 7.22451 0.846449C5.90871 1.39866 4.7135 2.20884 3.70752 3.23047L5.48196 5.0288C6.25457 4.2424 7.17294 3.61853 8.18427 3.19306C9.1956 2.7676 10.2799 2.54893 11.375 2.54962Z" fill="url(#paint1_linear_959_16161)"/>
<path d="M11.3749 19.4506C11.2353 19.4506 11.0964 19.4506 10.9577 19.4394L10.8325 21.9747C11.0125 21.9839 11.1933 21.9885 11.3749 21.9885C12.7985 21.99 14.2082 21.7064 15.5233 21.1541C16.8384 20.6017 18.0329 19.7914 19.0381 18.7698L17.267 16.9724C16.4943 17.7583 15.576 18.3818 14.5649 18.8072C13.5538 19.2325 12.4697 19.4512 11.3749 19.4506Z" fill="url(#paint2_linear_959_16161)"/>
<path d="M16.0751 4.02413L18.1833 2.4493C16.2564 0.867964 13.8511 0.00714603 11.3716 0.0115525V2.5494C13.0506 2.54729 14.6906 3.06151 16.0751 4.02413Z" fill="url(#paint3_linear_959_16161)"/>
<path d="M22.2178 11.0001C22.2191 10.3399 22.1621 9.68081 22.0475 9.03088L19.7136 10.774C19.7136 10.8491 19.7136 10.9241 19.7136 11.0001C19.7142 12.1808 19.47 13.3485 18.9969 14.4274C18.5236 15.5063 17.832 16.4724 16.9668 17.2631L18.6502 19.1487C19.775 18.1195 20.6738 16.8623 21.2884 15.4586C21.9031 14.0548 22.2197 12.5358 22.2178 11.0001Z" fill="#21A038"/>
<path d="M11.3753 19.4506C10.2102 19.451 9.05796 19.2034 7.99321 18.7239C6.92851 18.2443 5.97504 17.5435 5.19455 16.6668L3.33496 18.3719C4.35029 19.5121 5.59074 20.4232 6.97588 21.0462C8.361 21.6692 9.85986 21.9902 11.3753 21.9884V19.4506Z" fill="url(#paint4_linear_959_16161)"/>
<path d="M5.78356 4.73692L4.10107 2.85144C2.97592 3.88036 2.07674 5.13748 1.46184 6.54125C0.846945 7.94501 0.530062 9.46409 0.531745 11H3.03674C3.03623 9.81932 3.28048 8.65164 3.75366 7.57271C4.22685 6.49382 4.91841 5.52768 5.78356 4.73692Z" fill="url(#paint5_linear_959_16161)"/>
<path d="M63.1051 6.29571L66.2075 4.00549H55.8242V17.7677H66.2075V15.4775H58.787V11.9523H65.117V9.66209H58.787V6.29571H63.1051Z" fill="#21A038"/>
<path d="M48.8378 9.36678H45.233V6.2948H50.9862L54.0868 3.99762H42.272V17.7599H48.4565C51.9239 17.7599 53.9139 16.1852 53.9139 13.4391C53.9139 10.8119 52.1114 9.36678 48.8378 9.36678ZM48.3232 15.4689H45.233V11.6556H48.3232C50.1986 11.6556 51.0779 12.2946 51.0779 13.5623C51.0779 14.8299 50.1423 15.4689 48.3232 15.4689Z" fill="#21A038"/>
<path d="M73.84 4.00354H68.188V17.7657H71.1504V13.8671H73.84C77.446 13.8671 79.6767 11.9659 79.6767 8.92799C79.6767 5.89018 77.446 4.00354 73.84 4.00354ZM73.7775 11.5752H71.1504V6.29551H73.7775C75.6742 6.29551 76.721 7.23361 76.721 8.93639C76.721 10.6392 75.6742 11.5752 73.7775 11.5752Z" fill="#21A038"/>
<path d="M37.8264 14.5178C37.0612 14.933 36.2038 15.1481 35.3336 15.1429C32.7291 15.1429 30.8396 13.2799 30.8396 10.7144C30.8396 8.14881 32.7291 6.28168 35.3336 6.28168C36.2728 6.26569 37.1926 6.55107 37.9585 7.09615L40.0307 5.56699L39.8906 5.46722C38.6818 4.40233 37.0666 3.83832 35.2178 3.83832C33.2126 3.83832 31.3943 4.51431 30.096 5.74414C29.4396 6.37735 28.9205 7.13935 28.5709 7.98258C28.2214 8.82581 28.0489 9.73212 28.0644 10.6451C28.0505 11.5673 28.2222 12.4829 28.5692 13.3372C28.9161 14.1915 29.4313 14.967 30.0839 15.6174C31.3882 16.896 33.2024 17.6005 35.1934 17.6005C37.2738 17.6005 39.0922 16.8736 40.3233 15.5502L38.4684 14.1656L37.8264 14.5178Z" fill="#21A038"/>
<path d="M91.4233 9.36678H87.82V6.2948H95.5635V3.99762H84.8569V17.7599H91.0337C94.5006 17.7599 96.4908 16.1852 96.4908 13.4391C96.4988 10.8119 94.6968 9.36678 91.4233 9.36678ZM90.9087 15.4689H87.82V11.6556H90.9087C92.7839 11.6556 93.6628 12.2946 93.6628 13.5623C93.6628 14.8299 92.7356 15.4689 90.9087 15.4689Z" fill="#21A038"/>
<path d="M130.172 17.7402H127.168V3.97791H130.172V9.75813H131.807L136.221 3.97791H139.625L134.389 10.5248L140.469 17.7402H136.484L132.015 12.3276H130.172V17.7402Z" fill="#21A038"/>
<path d="M107.403 15.1248H101.049L99.9721 17.7972H96.7759L102.735 4.03503H105.93L111.793 17.7972H108.48L107.403 15.1248ZM106.407 12.6312L104.245 7.28622L102.07 12.6312H106.407Z" fill="#21A038"/>
<path d="M115.836 4.03503V9.7819H122.051V4.03503H125.148V17.7972H122.051V12.3745H115.836V17.7972H112.739V4.03503H115.836Z" fill="#21A038"/>
<defs>
<linearGradient id="paint0_linear_959_16161" x1="4.21431" y1="18.4522" x2="1.41168" y2="10.458" gradientUnits="userSpaceOnUse">
<stop offset="0.14" stop-color="#F1E813"/>
<stop offset="0.3" stop-color="#E6E418"/>
<stop offset="0.58" stop-color="#C9DA26"/>
<stop offset="0.89" stop-color="#A2CC39"/>
</linearGradient>
<linearGradient id="paint1_linear_959_16161" x1="4.42274" y1="3.67919" x2="11.4956" y2="1.0196" gradientUnits="userSpaceOnUse">
<stop offset="0.06" stop-color="#0FA7DF"/>
<stop offset="0.54" stop-color="#0098F8"/>
<stop offset="0.92" stop-color="#0290EA"/>
</linearGradient>
<linearGradient id="paint2_linear_959_16161" x1="10.6674" y1="20.4568" x2="18.6489" y2="18.6776" gradientUnits="userSpaceOnUse">
<stop offset="0.12" stop-color="#A2CC39"/>
<stop offset="0.28" stop-color="#86C239"/>
<stop offset="0.87" stop-color="#219F38"/>
</linearGradient>
<linearGradient id="paint3_linear_959_16161" x1="10.8505" y1="0.861527" x2="17.6813" y2="2.94148" gradientUnits="userSpaceOnUse">
<stop offset="0.06" stop-color="#0290EA"/>
<stop offset="0.79" stop-color="#0C89CA"/>
</linearGradient>
<linearGradient id="paint4_linear_959_16161" x1="3.96334" y1="18.063" x2="11.4054" y2="20.8074" gradientUnits="userSpaceOnUse">
<stop offset="0.13" stop-color="#F1E813"/>
<stop offset="0.3" stop-color="#EAE616"/>
<stop offset="0.53" stop-color="#D8DF1F"/>
<stop offset="0.8" stop-color="#BAD52D"/>
<stop offset="0.98" stop-color="#A2CC39"/>
</linearGradient>
<linearGradient id="paint5_linear_959_16161" x1="1.46494" y1="11.3072" x2="4.51256" y2="3.4845" gradientUnits="userSpaceOnUse">
<stop offset="0.07" stop-color="#A2CC39"/>
<stop offset="0.26" stop-color="#81C45E"/>
<stop offset="0.92" stop-color="#0FA7DF"/>
</linearGradient>
</defs>
</svg>
