<svg width="57" height="46" viewBox="0 0 57 46" fill="none" xmlns="http://www.w3.org/2000/svg">
<path d="M5.4317 40.7821C5.32746 39.8462 4.79325 39.4719 3.86816 39.4719C2.96911 39.4719 2.44796 39.8596 2.44796 40.5415C2.44796 41.2634 3.1776 41.4239 4.15479 41.6244C5.18417 41.8383 6.48711 42.1726 6.48711 43.523C6.48711 44.9535 5.23627 45.4884 4.03753 45.4884C2.53915 45.4884 1.43164 44.7664 1.43164 43.2155H2.23946C2.27855 44.392 3.11244 44.7931 4.1157 44.7931C4.84539 44.7931 5.67929 44.5257 5.67929 43.6166C5.67929 42.7876 4.88448 42.6138 3.85515 42.3731C2.83883 42.1325 1.66616 41.9587 1.66616 40.6083C1.66616 39.2847 2.81276 38.7632 3.94634 38.7632C5.27536 38.7632 6.20044 39.405 6.25258 40.7821H5.4317Z" fill="#FD7C59"/>
<path d="M13.1847 42.0657C13.1847 43.9643 12.1684 45.5018 10.1749 45.5018C8.15528 45.5018 7.16504 43.9241 7.16504 42.039C7.16504 40.0201 8.33771 38.7232 10.1749 38.7232C12.1163 38.7366 13.1847 40.1404 13.1847 42.0657ZM7.98592 42.1058C7.98592 43.7236 8.84584 44.7664 10.1749 44.7664C11.4909 44.7664 12.3508 43.7102 12.3508 42.1058C12.3508 40.5148 11.4909 39.4719 10.1618 39.4719C8.67648 39.4853 7.98592 40.7287 7.98592 42.1058Z" fill="#FD7C59"/>
<path d="M18.409 45.3547H14.2266V38.897H15.0605V44.606H18.409V45.3547Z" fill="#FD7C59"/>
<path d="M24.8195 42.0658C24.8195 43.9643 23.8032 45.5019 21.8096 45.5019C19.79 45.5019 18.7998 43.9242 18.7998 42.039C18.7998 40.0202 19.9725 38.7233 21.8096 38.7233C23.738 38.7366 24.8195 40.1405 24.8195 42.0658ZM19.6207 42.1059C19.6207 43.7237 20.4806 44.7665 21.8096 44.7665C23.1256 44.7665 23.9856 43.7103 23.9856 42.1059C23.9856 40.5148 23.1256 39.472 21.7966 39.472C20.3112 39.4854 19.6207 40.7288 19.6207 42.1059Z" fill="#FD7C59"/>
<path d="M28.4815 38.897C29.6802 38.897 30.5791 39.4185 30.5791 40.7555C30.5791 42.2128 29.6542 42.7075 28.4294 42.7075H26.7226V45.3547H25.8887V38.897H28.4815ZM26.7226 41.9855H28.3252C29.133 41.9855 29.7454 41.7582 29.7454 40.8089C29.7454 39.7795 29.0288 39.6324 28.2079 39.6324H26.7226V41.9855Z" fill="#FD7C59"/>
<path d="M36.5723 45.3547H35.7384V42.3331H32.4159V45.3547H31.582V38.897H32.4159V41.5844H35.7384V38.897H36.5723V45.3547Z" fill="#FD7C59"/>
<path d="M43.0618 45.3547H42.1368L41.433 43.376H38.788L38.0716 45.3547H37.1855L39.6609 38.897H40.5991L43.0618 45.3547ZM40.1303 39.7126L39.0488 42.6941H41.2113L40.1303 39.7126Z" fill="#FD7C59"/>
<path d="M46.4607 38.897C47.6464 38.897 48.5715 39.2981 48.5715 40.6886C48.5715 41.4373 48.1416 42.0657 47.49 42.2529C48.376 42.4401 48.415 43.0551 48.4413 43.8439C48.4672 44.3654 48.4672 45.0205 48.8059 45.3547H47.855C47.6464 45.0338 47.6596 44.2985 47.6464 43.9241C47.5943 42.8412 47.3209 42.547 46.1741 42.547H44.5194V45.3414H43.6855V38.897H46.4607ZM44.5194 41.8785H46.0829C46.8905 41.8785 47.7376 41.7983 47.7376 40.7421C47.7376 39.7795 47.047 39.619 46.3042 39.619H44.5194V41.8785Z" fill="#FD7C59"/>
<path d="M50.9046 38.897L52.937 44.3654L54.8786 38.897H56.0381V45.3547H55.2563V39.9666L53.2888 45.3547H52.5592L50.5527 39.9666V45.3547H49.7578V38.897H50.9046Z" fill="#FD7C59"/>
<path d="M7.48464 12.4527C5.98766 11.8517 4.88121 11.6513 3.97 11.6513C3.97 11.6513 3.97 11.6513 3.9049 11.6513C3.83983 11.6513 3.83983 11.6513 3.77473 11.6513C3.70965 11.6513 3.70965 11.6513 3.64455 11.6513C3.57948 11.6513 3.57948 11.6513 3.51439 11.6513H3.44931C3.38422 11.6513 3.31913 11.6513 3.25405 11.6513C3.05879 11.6513 2.92862 11.7181 2.79844 11.7849C2.27776 11.9852 1.88724 12.3192 1.75707 12.7867C1.69198 12.987 1.6269 13.1206 1.56181 13.321C1.49673 13.7217 1.49673 13.9888 1.43164 14.3895V31.3534C1.43164 31.4202 1.43164 31.5537 1.43164 31.6205C1.49673 32.7559 2.21267 33.4237 3.25405 33.624C3.25405 33.624 3.25405 33.624 3.31913 33.624C3.57948 33.6908 3.77473 33.6908 4.03508 33.6908C4.16525 33.6908 4.36051 33.6908 4.49068 33.6908H24.9277C28.7028 28.3481 18.0285 16.5935 7.48464 12.4527Z" fill="#FD7C59"/>
<path d="M36.5781 3.43713C36.1876 0.565308 28.898 0.565308 28.898 0.565308H3.70965C2.40793 0.632094 1.43164 1.36675 1.43164 2.76927C1.43164 2.76927 3.25405 9.38115 17.4428 10.2494C20.3717 10.4497 26.685 9.64829 30.9806 7.97862C35.2113 6.30896 36.7733 4.77286 36.5781 3.43713Z" fill="#FD7C59"/>
<path d="M53.4345 0.498291C52.9788 0.498291 52.5233 0.565077 52.1328 0.765436C51.8073 0.89901 33.9737 8.77983 30.1337 14.8574C26.2286 21.0018 28.3764 25.8105 30.8497 28.8826C33.3229 32.0215 35.5359 33.6912 35.5359 33.6912H53.4995C54.9315 33.6912 56.038 33.0234 56.038 31.554V31.4872V2.76903C56.038 1.23294 54.9315 0.498291 53.4345 0.498291Z" fill="#FD7C59"/>
</svg>
