<svg width="119" height="46" viewBox="0 0 119 46" fill="none" xmlns="http://www.w3.org/2000/svg">
<g clip-path="url(#clip0_959_16263)">
<path d="M59.7009 11.2702H61.2296V15.1319H59.8046C59.8046 14.4409 58.7977 12.5279 54.6524 12.3677C50.4201 12.2062 49.9937 14.2835 51.4261 14.7269C53.2697 15.2956 56.9153 15.1734 59.1773 15.9044C62.1559 16.8682 62.9989 20.073 60.3917 21.7797C58.0518 23.3113 53.9557 23.1304 51.0498 22.1245C50.5191 21.9414 49.6671 21.4738 49.7092 22.0845V22.4484H47.9489V18.2222H49.5207C49.5409 18.4662 49.3315 19.4013 51.091 20.3768C53.1311 21.5075 56.8514 21.5545 58.3392 20.742C59.2205 20.2607 59.3434 18.7165 57.7519 18.5066C56.0446 18.2808 53.3351 18.1138 51.3103 17.6545C49.8763 17.3264 48.7722 16.9155 48.117 16.0677C47.6135 15.4164 46.7763 12.8555 49.6671 11.5555C53.2506 9.94185 58.2132 11.0674 59.0934 11.7984C59.4498 12.0965 59.8469 12.0012 59.7009 11.2702Z" fill="#131314"/>
<path d="M77.4375 16.8671C77.4425 13.9605 75.4044 12.3157 72.7215 12.3157C70.0386 12.3157 68.0024 13.9605 68.0051 16.8671C68.007 19.7731 70.1093 21.4892 72.7215 21.4175C75.333 21.3443 77.4338 19.7529 77.4375 16.8671ZM72.7895 10.6476C76.7689 10.6476 81.0015 12.5575 80.917 16.9478C80.8336 21.3387 76.644 23.0453 72.7895 23.0453C68.9356 23.0453 64.3693 21.3387 64.2843 16.9478C64.2009 12.5575 68.8933 10.6476 72.7895 10.6476Z" fill="#131314"/>
<path d="M115.948 13.2066C115.632 13.5239 111.675 18.213 111.675 18.213V20.7255C111.669 20.9976 111.69 20.9868 111.989 20.9868H113.624V22.4235H106.123V20.9868C106.123 20.9868 107.632 21.0077 107.946 20.9868C108.26 20.9666 108.286 20.893 108.292 20.7255V18.1909C108.292 18.1909 103.903 13.3734 103.858 13.3092C103.709 13.0967 103.303 12.7279 102.584 12.7105H101.349V11.2582H108.931V12.7105H108.156C107.99 12.7105 107.758 13.0593 108.073 13.3734C108.386 13.6867 110.649 16.3893 110.649 16.3893L113.224 13.3525C113.377 13.1536 113.329 12.7105 113.015 12.7105H112.072V11.2582H118.273V12.7105H116.828C116.361 12.7105 116.053 13.1015 115.948 13.2066Z" fill="#131314"/>
<path d="M86.987 20.3102C86.987 21.0431 87.3675 21.0028 87.7028 20.9924H89.1967V22.4244H82.6196V21.0444H84.0741C84.6643 21.0029 84.7497 20.6964 84.7702 20.362V13.5754C84.7871 13.1244 84.7912 12.7465 83.9906 12.7277H82.5977L82.5869 11.2401H88.1485L95.6589 18.1933V13.5023C95.6589 12.7045 95.2638 12.7045 94.93 12.6641H93.5328V11.2401H99.9006V12.6845H98.3711C98.0134 12.6845 97.8577 13.0411 97.8376 13.3764V22.4245H95.7525L86.9868 14.7165V20.3102H86.987Z" fill="#131314"/>
<path d="M50.6892 29.4856H52.9099C53.8056 29.4652 54.3332 29.2433 54.3332 28.4427C54.3332 27.6946 53.8112 27.3877 53.0291 27.3877H50.6892V29.4856ZM47.7871 33.3638V32.4711H48.5684C48.8733 32.4711 48.9442 32.3507 48.9442 32.0914L48.9422 27.8055C48.9422 27.5442 48.8655 27.408 48.5609 27.408H47.8258V26.4952H53.648C55.6412 26.4952 56.2778 26.963 56.2778 28.3935C56.2778 29.824 55.3845 30.4044 53.1472 30.4044H50.6892V32.0942C50.6892 32.3547 50.7605 32.474 51.0651 32.474H51.8656L51.852 33.3638H47.7871Z" fill="#131314"/>
<path d="M60.0886 32.089C60.0886 32.3508 60.1594 32.4685 60.4643 32.4685H61.2483V33.3595H57.1865V32.4658H57.9676C58.2714 32.4658 58.3435 32.3476 58.3435 32.0863V27.7948C58.3435 27.5335 58.2714 27.3632 57.9676 27.3632H57.1865V26.4709H61.2483V27.3603H60.4643C60.1594 27.3603 60.0886 27.5295 60.0886 27.79V32.089Z" fill="#131314"/>
<path d="M70.2087 31.2432C70.0676 32.3038 68.8492 33.7076 66.6476 33.7076C64.5634 33.7076 61.9712 32.8247 61.9273 29.9989C61.8834 27.2371 64.3653 26.0672 66.4081 26.1058C67.6229 26.1292 68.7096 26.5429 68.9891 26.8227C69.166 26.9987 69.3945 27.0114 69.3084 26.4903H70.1097V28.8497H69.3633C69.2936 27.6158 67.8613 26.8283 66.3236 27.0181C64.7006 27.2169 63.8994 28.4531 63.9013 29.9825C63.9022 31.6777 65.2983 32.8343 66.7116 32.8323C67.6431 32.8314 69.1064 32.5558 69.4054 31.2395L70.2087 31.2432Z" fill="#131314"/>
<path d="M71.3281 29.1049V26.4931H79.5064V29.1049H78.6839C78.7031 27.2611 78.5253 27.4378 77.8896 27.368L76.2963 27.3637V32.1096C76.2963 32.3716 76.3641 32.5403 76.6684 32.5403H77.4505V33.3821H73.3858V32.5403H74.1671C74.4707 32.5403 74.5413 32.3716 74.5413 32.1096V27.3637L72.9598 27.3691C72.2545 27.4378 72.1625 27.3149 72.1625 29.1058L71.3281 29.1049Z" fill="#131314"/>
<path d="M85.0054 33.6695C83.3643 33.6695 81.6298 33.2954 81.6298 31.1744V27.8002C81.6298 27.5389 81.5576 27.3701 81.254 27.3701H80.4727V26.4744H84.5334V27.3649H83.7502C83.4457 27.3649 83.3737 27.535 83.3737 27.7973V31.277C83.3737 31.5073 83.2794 32.876 85.0053 32.876C86.9339 32.876 87.1143 32.0379 87.1143 31.2689L87.1181 27.8001C87.1181 27.5388 87.0493 27.37 86.7455 27.37H85.963V26.4743H89.4102V27.3648H88.625C88.4331 27.3648 88.2562 27.5619 88.2655 28.0817L88.281 31.2404C88.281 33.2751 86.6782 33.6695 85.0054 33.6695Z" fill="#131314"/>
<path d="M93.2254 29.4844H95.4457C96.2978 29.4844 96.7549 29.0887 96.7549 28.4405C96.7549 27.794 96.2077 27.3866 95.5265 27.3866H93.2254V29.4844ZM96.977 30.0415C97.6619 30.2071 98.1473 30.3493 98.1848 31.1846V32.1767C98.1848 32.3756 98.2193 32.6637 98.5467 32.6637C98.8978 32.6637 98.874 32.2653 98.8555 31.8853V31.4669H99.582V31.9731C99.582 33.2066 99.2877 33.5518 98.2104 33.551C97.3005 33.5499 96.4269 33.2685 96.4269 31.8954V31.143C96.4269 30.6336 96.0063 30.4017 95.224 30.4026L93.2253 30.4037V32.0933C93.2253 32.3535 93.2973 32.4729 93.6009 32.4729H94.3832L94.3867 33.3887H90.3223V32.4692H91.1044C91.4084 32.4692 91.4795 32.3501 91.4795 32.0886V27.8047C91.4795 27.5443 91.4003 27.3483 91.0979 27.3483H90.3617V26.494H96.0543C98.0492 26.494 98.7112 27.1339 98.7009 28.4301C98.6918 29.5408 97.7695 29.8947 96.977 30.0415Z" fill="#131314"/>
<path d="M103.392 32.4905L107.049 32.5058C107.754 32.4374 107.881 32.1031 107.881 30.7705H108.666V33.3848L100.479 33.3875V32.4952H101.262C101.565 32.4952 101.637 32.3759 101.637 32.1166V27.8249C101.637 27.564 101.565 27.3937 101.262 27.3937H100.479V26.4951H108.666V29.1039H107.881C107.881 27.773 107.754 27.4083 107.049 27.3384L103.392 27.3357V29.3999L105.094 29.3979C105.315 29.3979 105.459 29.3163 105.459 28.9578V28.2452H106.218V31.4727H105.463V30.7577C105.463 30.4002 105.317 30.3159 105.097 30.3159L103.391 30.3148V32.4905H103.392Z" fill="#131314"/>
<path d="M116.701 26.5707H117.502V28.9622H116.756C116.756 28.5438 116.217 27.2364 114.041 27.1758C111.813 27.1143 111.519 28.333 112.364 28.7164C113.297 29.1391 115.24 28.9878 116.426 29.4296C117.987 30.0118 118.429 31.9483 117.062 32.98C115.836 33.9058 113.689 33.7979 112.165 33.1888C111.888 33.078 111.44 32.7956 111.462 33.1643V33.3858H110.54V30.8307H111.364C111.363 30.9774 111.266 31.5424 112.188 32.1316C113.553 33.0057 114.88 33.0971 115.987 32.3995C116.498 32.0777 116.714 31.1589 115.68 31.0013C114.784 30.8662 113.363 30.7638 112.303 30.4865C111.55 30.2896 110.972 30.0386 110.627 29.5276C110.34 29.0986 109.856 27.6221 111.44 26.7992C113.318 25.8242 115.408 26.4008 116.382 26.9475C116.61 27.0742 116.777 27.0684 116.701 26.5707Z" fill="#131314"/>
<path d="M12.129 39.308V32.4353C12.129 31.4617 11.2827 29.0263 11.2827 26.4291C11.2827 23.9239 12.2058 20.8382 12.2058 19.7703L12.2064 12.5491L9.62464 13.7536C9.62352 19.5713 9.62352 24.8077 9.62817 25.0316C9.64731 25.9546 10.3796 25.965 10.3677 26.861C10.3536 27.9012 9.60503 28.4048 9.62817 28.9877C9.64054 29.3019 9.64101 34.7205 9.63795 40.4677L12.129 39.308Z" fill="#131314"/>
<path d="M12.8672 38.9645L15.2963 37.8339C15.2957 36.1208 15.2968 34.9089 15.2993 34.6835C15.3386 31.3729 14.3987 29.1177 14.3909 25.0157C14.3839 21.3192 15.3761 18.6543 15.453 15.6066C15.4583 15.4107 15.4603 13.55 15.4608 11.0312L12.9036 12.2238L12.8992 19.6257C12.9135 20.6628 13.6319 22.8793 13.6319 25.3378C13.6319 27.7959 12.8558 31.3329 12.8717 32.1848L12.8672 38.9645Z" fill="#131314"/>
<path d="M16.0215 37.4968L18.6447 36.2761C18.4167 33.7561 17.5703 28.7396 17.5703 23.5176C17.5703 17.3946 18.7776 11.5342 18.7776 10.0476V9.48413L16.1959 10.6886C16.1963 13.2553 16.1973 15.158 16.1998 15.353C16.2396 18.2576 16.9049 20.6948 16.9044 23.8427C16.9034 26.9359 16.0659 31.2904 16.0265 34.4153C16.024 34.6399 16.0225 35.8222 16.0215 37.4968Z" fill="#131314"/>
<path d="M2.88825 16.8964L0.633789 17.9482V44.658L2.88677 43.6095L2.88825 16.8964Z" fill="#131314"/>
<path d="M3.52148 43.3139L5.82576 42.2415L5.82741 15.5254L3.52349 16.5998L3.52148 43.3139Z" fill="#131314"/>
<path d="M8.95833 14.0645L6.45801 15.2308L6.46019 41.9464L8.9528 40.7863C8.96363 34.8165 8.97123 29.3857 8.95892 29.2534C8.88248 28.4055 8.27926 28.6884 8.26501 27.806C8.24729 26.747 8.95939 26.1916 8.95939 25.5425C8.95933 25.3001 8.95886 19.9703 8.95833 14.0645Z" fill="#131314"/>
<path d="M21.8623 34.7788C21.5224 31.354 21.0286 26.3797 21.0286 21.9424C21.0286 17.4466 21.5285 11.7151 21.8646 8.04401L19.4953 9.14892C19.4953 9.381 19.4953 9.54354 19.4948 9.62116C19.4897 11.1078 20.4053 16.0562 20.4233 22.1881C20.4407 28.0247 19.639 33.2281 19.4727 35.8908L21.8623 34.7788Z" fill="#131314"/>
<path d="M24.3404 20.3272C24.3651 16.2819 24.7073 11.1145 25.0263 6.56866L22.957 7.53365C23.217 10.8865 23.7544 15.6408 23.7563 20.6182C23.7585 25.0795 23.4565 30.4036 23.2368 34.1389L25.0697 33.2857C24.7104 29.1878 24.3159 24.3004 24.3404 20.3272Z" fill="#131314"/>
<path d="M28.3911 31.7402C28.0281 27.1352 27.6735 21.9871 27.6821 18.7975C27.6925 14.9251 28.0508 9.58646 28.3649 5.01123L26.4707 5.89465C26.7539 9.93362 27.161 14.8217 27.1822 19.0472C27.2007 22.8279 26.8843 27.9378 26.6548 32.5483L28.3911 31.7402Z" fill="#131314"/>
<path d="M30.0739 30.9566L31.5821 30.2548C31.2856 26.1713 30.9261 21.3779 30.9273 17.3175C30.9282 12.6109 31.2605 8.57279 31.5463 3.52686L29.7725 4.35415C30.1098 8.70653 30.5033 13.2379 30.4998 17.4873C30.4968 21.4769 30.3054 26.5627 30.0739 30.9566Z" fill="#131314"/>
<path d="M34.78 3.8734C34.8085 3.2415 34.8173 2.61808 34.8179 2.00073L33.0664 2.81761C33.1274 3.47771 33.1768 4.07322 33.1976 4.64346C33.4146 10.516 33.8095 10.6224 33.7957 15.9513C33.7819 21.3001 33.5958 24.6286 33.3388 29.4372L34.6176 28.8423C34.4379 23.9009 34.1665 21.2831 34.1635 15.8232C34.161 11.3043 34.5207 9.6656 34.78 3.8734Z" fill="#131314"/>
<path d="M36.9571 14.4741C36.969 16.2438 36.6351 22.5841 36.3281 28.0465L37.6941 27.4108C37.5046 21.8368 37.2368 16.2246 37.2175 14.3366C37.1993 12.5074 37.448 7.2731 37.7327 1.70916C37.7369 1.35864 37.74 1.00206 37.7424 0.63623L36.3464 1.28762C36.6398 7.07706 36.9989 12.2144 36.9571 14.4741Z" fill="#131314"/>
</g>
<defs>
<clipPath id="clip0_959_16263">
<rect width="118.37" height="45" fill="white" transform="translate(0.5 0.5)"/>
</clipPath>
</defs>
</svg>
