<svg width="43" height="40" viewBox="0 0 43 40" fill="none" xmlns="http://www.w3.org/2000/svg">
<g clip-path="url(#clip0_959_15919)">
<path d="M42.4084 0.457397H1.02246V39.5427H42.4084V0.457397Z" fill="#BA0C2F"/>
<path d="M10.3275 17.1755V15.8207C10.3275 15.1816 10.1486 15.0282 9.7907 15.0282C9.43282 15.0282 9.25389 15.1816 9.25389 15.8207V17.38C9.25389 18.3002 12.0658 20.8054 12.0658 22.0835V24.333C12.0658 25.9946 10.8643 26.4803 9.7907 26.4803C8.71707 26.4803 7.51562 25.9946 7.51562 24.333V23.6428L9.25389 22.6203V24.1797C9.25389 24.8187 9.43282 24.9721 9.7907 24.9721C10.123 24.9721 10.3275 24.8187 10.3275 24.1797V22.8504C10.3275 21.061 7.51562 19.5528 7.51562 17.4822V15.6673C7.51562 14.0057 8.71707 13.52 9.7907 13.52C10.8643 13.52 12.0658 14.0057 12.0658 15.6673V16.1274L10.3275 17.1755Z" fill="white"/>
<path d="M21.9839 24.7676H23.3898L23.8755 26.4803H20.2456V13.52H21.9839V24.7676Z" fill="white"/>
<path d="M35.9158 13.52V15.2327H34.2542V26.4803H32.5159V15.2327H30.9822L30.8032 13.52H35.9158Z" fill="white"/>
<path d="M29.0392 13.52H26.4318L25.1025 26.4803H26.6874L27.0709 23.0293H28.2979L28.6302 26.4803H30.394L29.0392 13.52ZM27.2242 21.3166L27.6077 16.562H27.8122L28.1189 21.3166H27.2242Z" fill="white"/>
<path d="M15.6953 13.52H13.8804V26.4803H15.6186V15.0793C16.3344 15.0793 16.6923 15.1049 16.6923 16.3319V19.425C16.6923 19.834 16.3344 19.9618 15.9254 20.0129L16.3344 21.5467C17.7148 21.3933 18.4305 20.7543 18.4305 18.9137V16.0507C18.405 14.3125 17.6125 13.52 15.6953 13.52Z" fill="white"/>
<path d="M36.4014 11.9606V10.7592H36.9382C37.0404 10.7592 37.1171 10.7592 37.1938 10.7847L37.3216 10.887C37.3472 10.9381 37.3727 10.9892 37.3727 11.0659C37.3727 11.1426 37.3472 11.2193 37.2961 11.2704C37.2449 11.3215 37.1682 11.3727 37.0404 11.3727L37.1427 11.4238C37.1938 11.4749 37.2194 11.526 37.2705 11.5772L37.475 11.9095H37.2705L37.1171 11.6538C37.066 11.5772 37.0404 11.526 37.0149 11.5005L36.9382 11.4238L36.8615 11.3982H36.7848H36.5547V11.9606H36.4014ZM36.5547 11.296H36.8871C36.9637 11.296 37.0149 11.296 37.066 11.2704L37.1682 11.1937L37.1938 11.0915L37.1171 10.9637C37.0916 10.9381 37.0149 10.9125 36.9126 10.9125H36.5547V11.296Z" fill="white"/>
<path d="M35.7368 11.3983C35.7368 12.0118 36.2481 12.5231 36.8871 12.5231C37.5006 12.5231 38.0119 12.0118 38.0119 11.3983C38.0119 10.7848 37.5006 10.2736 36.8871 10.2736C36.2481 10.2736 35.7368 10.7848 35.7368 11.3983ZM35.8646 11.3983C35.8646 10.8359 36.3248 10.4014 36.8616 10.4014C37.3984 10.4014 37.8585 10.8359 37.8585 11.3983C37.8585 11.9351 37.424 12.3953 36.8616 12.3953C36.3248 12.3953 35.8646 11.9607 35.8646 11.3983Z" fill="white"/>
</g>
<defs>
<clipPath id="clip0_959_15919">
<rect width="42.5596" height="39.0853" fill="white" transform="translate(0.220215 0.457336)"/>
</clipPath>
</defs>
</svg>
