<svg width="99" height="34" viewBox="0 0 99 34" fill="none" xmlns="http://www.w3.org/2000/svg">
<path d="M1.35352 12.245V16.9537L15.4673 15.5564V10.46L1.35352 12.245ZM5.85746 17.2401V33.3753H11.0247V16.7648L5.85746 17.2401ZM17.3734 10.219V33.3753H22.8182V9.53001L17.3734 10.219ZM23.8326 9.4016V14.7285L31.6948 13.95V8.4074L23.8326 9.4016ZM23.8326 18.6933V24.1172L28.9936 23.8639V18.2935L23.8326 18.6933ZM23.8326 28.0268V33.3753H31.6948V27.8134L23.8326 28.0268ZM52.0275 5.82734V33.3753H59.1652V4.92444L52.0275 5.82734ZM60.4981 4.75564V11.0923L70.8999 10.063V3.43966L60.4981 4.75564ZM60.4981 15.8579V22.3119L67.3159 21.9768V15.3324L60.4981 15.8579ZM60.4981 27.0294V33.3753H70.8999V26.7467L60.4981 27.0294ZM33.7751 8.1438V33.3753H39.9773V7.35902L33.7751 8.1438ZM41.1349 27.5571V33.375H50.1378V27.3125L41.1349 27.5571ZM94.2203 3.12815C91.9644 1.20998 88.6568 0.423194 85.0391 0.89095V7.91908C86.5041 7.84584 87.6912 8.33517 88.2201 9.32034C89.0553 10.8736 88.1937 13.2041 86.161 15.3633C83.0237 18.6953 74.681 25.5152 74.681 25.5152L86.6573 25.1608C93.9751 18.7266 96.603 14.821 97.0745 9.9466C97.3222 7.3678 96.2822 4.88305 94.2203 3.12815ZM97.4964 33.3753V26.0214L73.2049 26.68M73.2049 26.6797L73.2074 33.375H97.4964M83.6426 1.04871C76.5857 2.40131 73.1204 7.07386 73.5203 14.6982L81.0445 14.0972C80.7018 9.78985 82.1656 8.76806 83.6462 8.20625L83.6426 1.04871Z" fill="#131314"/>
</svg>
