<svg width="128" height="36" viewBox="0 0 128 36" fill="none" xmlns="http://www.w3.org/2000/svg">
<g clip-path="url(#clip0_959_15937)">
<path d="M117.534 19.0822L119.495 13.959L121.457 19.0822H117.534ZM121.524 11.0508H117.466L111.785 24.9662H115.302L116.587 21.5677H122.387L123.689 24.9662H127.205L121.524 11.0508ZM92.8649 22.5314C90.5653 22.5314 88.7223 20.4686 88.7223 17.9155C88.7223 15.3624 90.5823 13.2996 92.8649 13.2996C95.1475 13.2996 97.0074 15.3624 97.0074 17.9155C97.0243 20.4686 95.1644 22.5314 92.8649 22.5314ZM92.8649 10.5604C88.8069 10.5604 85.5098 13.8575 85.5098 17.9155C85.5098 21.9735 88.8069 25.2706 92.8649 25.2706C96.9228 25.2706 100.22 21.9904 100.22 17.9324C100.22 13.8575 96.9228 10.5604 92.8649 10.5604ZM63.8673 22.5314C61.5847 22.5314 59.7248 20.4686 59.7248 17.9155C59.7248 15.3624 61.5847 13.2996 63.8673 13.2996C66.1668 13.2996 68.0267 15.3624 68.0267 17.9155C68.0267 20.4686 66.1668 22.5314 63.8673 22.5314ZM63.8673 10.5604C59.8093 10.5604 56.5291 13.8575 56.5291 17.9155C56.5291 21.9735 59.8093 25.2706 63.8673 25.2706C67.9252 25.2706 71.2223 21.9904 71.2223 17.9324C71.2223 13.8575 67.9252 10.5604 63.8673 10.5604ZM82.0436 11.0508L78.4422 16.6812L74.8407 11.0508H71.3238L76.9035 19.7754V24.9662H79.9977V19.7754L85.5774 11.0508C85.5605 11.0508 82.0436 11.0508 82.0436 11.0508ZM112.529 11.0508H100.643V13.7223H105.056V24.9662H108.15V13.7054H112.529V11.0508ZM43.9832 13.7054H48.3963V24.9493H51.4905V13.7054H55.8697V11.0508H43.9663V13.7054H43.9832Z" fill="#131314"/>
<path d="M35.2757 0.5H0.394043V35.3816H35.2757V0.5Z" fill="#EB0A1E"/>
<path d="M23.6426 10.3574C22.0194 9.83328 20.0074 9.52893 17.8262 9.52893C15.6451 9.52893 13.633 9.83328 12.0098 10.3574C7.69819 11.7439 4.73926 14.6183 4.73926 17.9323C4.73926 22.599 10.5895 26.3864 17.8093 26.3864C25.0291 26.3864 30.8794 22.599 30.8794 17.9323C30.9132 14.6183 27.9542 11.7439 23.6426 10.3574ZM17.8262 22.7681C16.7441 22.7681 15.8649 20.6545 15.8141 17.983C16.4566 18.0338 17.133 18.0676 17.8262 18.0676C18.5194 18.0676 19.1789 18.0338 19.8383 17.983C19.7876 20.6376 18.9083 22.7681 17.8262 22.7681ZM15.9494 15.8864C16.2368 14.0096 16.9639 12.6908 17.8262 12.6908C18.6716 12.6908 19.3987 14.0096 19.703 15.8864C19.1112 15.9371 18.4687 15.971 17.8262 15.971C17.1837 15.971 16.5581 15.9541 15.9494 15.8864ZM20.8528 15.7512C20.4132 12.8091 19.2296 10.7125 17.8262 10.7125C16.4228 10.7125 15.2393 12.8091 14.7996 15.7512C12.1451 15.3284 10.2852 14.3985 10.2852 13.2995C10.2852 11.8115 13.6499 10.6111 17.8093 10.6111C21.9687 10.6111 25.3335 11.8115 25.3335 13.2995C25.3673 14.3985 23.5074 15.3454 20.8528 15.7512ZM6.66679 17.628C6.66679 16.1908 7.22476 14.855 8.17162 13.7053C8.15472 13.7898 8.15472 13.8743 8.15472 13.942C8.15472 15.7512 10.86 17.2729 14.6306 17.8309C14.6306 17.9661 14.6306 18.1014 14.6306 18.2367C14.6306 21.5845 15.5605 24.4251 16.8455 25.4057C11.1306 25.0676 6.66679 21.7198 6.66679 17.628ZM18.8238 25.4057C20.1088 24.4251 21.0388 21.5845 21.0388 18.2367C21.0388 18.1014 21.0388 17.9661 21.0388 17.8309C24.8093 17.2729 27.5146 15.7342 27.5146 13.942C27.5146 13.8574 27.5146 13.7729 27.4977 13.7053C28.4615 14.855 29.0025 16.2077 29.0025 17.628C29.0025 21.7198 24.5219 25.0676 18.8238 25.4057Z" fill="white"/>
</g>
<defs>
<clipPath id="clip0_959_15937">
<rect width="127.556" height="35" fill="white" transform="translate(0.222168 0.5)"/>
</clipPath>
</defs>
</svg>
