<svg width="43" height="48" viewBox="0 0 43 48" fill="none" xmlns="http://www.w3.org/2000/svg">
<g clip-path="url(#clip0_959_15947)">
<path d="M5.80241 41.8608C5.73275 41.6388 5.5293 41.1396 5.47388 40.7711C5.35157 39.955 5.77827 39.4174 6.17013 39.2943C6.60988 39.1716 6.78167 39.3925 6.95187 39.9059C7.17195 40.6876 7.19649 41.712 7.12247 43.1785C7.02629 45.1818 6.02407 47.601 3.53278 47.5507C1.3823 47.5036 0.430746 46.1107 0.331791 43.9856C0.285084 42.9838 0.356728 41.9823 0.771546 40.5661C0.991622 39.8077 1.18795 39.5378 1.87074 39.3925C2.40747 39.2943 2.35918 39.8556 2.23766 40.5174C1.97009 41.9823 1.8458 42.6897 1.94476 44.3517C2.04054 46.1107 2.84841 46.7951 3.72792 46.7951C5.04719 46.8204 5.633 45.7213 5.87841 44.1316C6.07197 42.8619 5.92591 42.2511 5.80241 41.8608ZM33.9309 43.5957C34.4447 43.5957 34.5919 44.2033 34.4692 44.5714C34.3465 44.9371 33.9076 45.3543 33.224 45.4759C33.0768 45.1085 33.0031 43.5957 33.9309 43.5957ZM24.3814 44.4238C24.3814 44.0101 24.1601 43.6677 23.8937 43.6677C23.6713 43.6677 23.1603 43.9112 23.1603 44.6933C23.1603 45.306 23.378 45.5966 23.4777 45.7213C24.1843 45.5004 24.3814 44.9126 24.3814 44.4238ZM16.7824 39.4412C16.748 39.0493 16.4409 38.7825 16.0252 38.7825C15.5617 38.7825 15.1251 39.269 15.1715 39.8802C15.2011 40.2831 15.4386 40.6144 15.9053 40.6144C16.4409 40.6148 16.8315 40.004 16.7824 39.4412ZM20.7553 40.876C20.7129 40.1928 20.5475 39.8845 20.1806 39.9098C19.6941 39.9391 19.4693 41.4698 19.5686 43.0788C19.632 44.1285 19.7883 44.2904 19.934 44.2801C20.2031 44.2639 20.8487 42.3885 20.7553 40.876ZM36.9605 43.4477C36.6577 44.7036 35.7398 46.5513 34.3703 46.5513C34.0532 46.5513 33.4912 46.4282 33.4912 46.1107C33.4912 45.7684 35.6425 45.7213 35.6425 44.0834C35.6425 43.4734 35.0808 42.6172 34.2496 42.6172C33.1504 42.6172 32.0781 43.8154 32.0781 45.4762C32.0781 46.9653 33.0031 47.4542 33.9313 47.4542C35.5443 47.4542 36.5216 46.1341 37.0342 45.0357C37.2796 45.7688 37.4236 47.4542 38.0368 47.4542C38.2802 47.4542 38.4524 47.3318 38.7457 46.6732C39.4768 45.0353 40.1861 43.1544 41.1637 43.1544C41.5291 43.1544 41.3102 43.8154 42.1893 43.8154C42.6037 43.8154 42.8958 43.4734 42.8958 43.0807C42.8958 42.5183 42.3837 42.0801 41.6027 42.0801C39.3058 42.0801 38.8189 45.5249 38.452 45.5249C37.8408 45.5249 38.0364 42.7641 37.5958 42.7641C37.2048 42.7637 37.0128 43.2296 36.9605 43.4477ZM17.4181 46.3787C17.7843 46.3787 18.414 46.26 18.9096 45.4664C18.6262 44.837 18.4239 43.5652 18.3958 43.1021C18.2501 40.7339 19.1625 38.5063 20.1612 38.4445C20.8934 38.4002 21.4792 39.0933 21.5465 40.2162C21.7266 43.167 20.7438 44.3988 20.2518 45.4616C20.3349 45.8737 21.0339 46.575 21.6934 46.575C21.9368 46.575 22.2313 46.4527 22.3053 46.3538C22.2562 46.184 22.2064 45.9643 22.2064 45.6457C22.2064 43.9357 23.3059 42.4937 24.2591 42.4937C25.0163 42.4937 25.456 43.4952 25.456 44.1562C25.456 44.9367 24.7958 45.5732 23.8193 46.184C23.9911 46.3538 24.307 46.4773 24.5769 46.4773C25.9706 46.4773 26.6997 44.7911 27.2396 43.2513C27.337 42.9576 27.5092 42.5432 27.8504 42.5432C28.4366 42.5432 28.682 46.4033 29.6565 46.4033C30.0733 46.4033 30.4145 45.5475 30.4145 44.8896C30.4145 44.4004 30.2435 44.3513 30.2435 43.6428C30.2435 42.8619 30.6591 42.2028 31.2223 42.2028C31.5639 42.2028 31.6874 42.5432 31.6874 42.9576C31.6874 44.5215 30.5621 47.4292 28.9032 47.4292C27.6552 47.4292 27.7526 45.2791 27.3132 45.2791C26.8224 45.2791 26.1384 47.4534 23.7223 47.4534C23.3297 47.4534 22.9153 47.2582 22.5741 46.8664C21.9887 47.2582 21.4986 47.4292 20.9366 47.4292C20.0337 47.4292 19.6418 46.5006 19.2765 46.5006C18.836 46.5006 18.3487 47.4534 16.8814 47.4534C15.709 47.4534 15.5134 45.8915 15.099 45.8915C14.7317 45.8915 14.17 47.4534 13.5597 47.4534C12.5321 47.4534 12.3144 44.7424 11.4088 44.7424C10.7007 44.7424 8.46232 47.4957 7.85474 47.4328C7.61052 47.4074 7.5076 47.225 7.53333 46.9804C7.56777 46.6423 7.8587 45.7375 7.97665 45.3096C8.17416 44.5667 8.35545 43.7525 8.45678 43.4928C8.55732 43.2308 8.82845 43.0439 9.04615 43.0641C9.1558 43.0744 9.18865 43.2791 9.22269 43.4481C9.34618 44.0521 9.51837 44.668 9.71271 44.668C10.0559 44.668 11.1891 42.4934 11.8486 42.4934C12.656 42.4934 12.7526 45.9144 13.8514 45.9144C14.2187 45.9144 14.4883 45.4755 14.7317 44.9363C14.7566 44.0311 15.0009 42.7392 15.7335 42.7392C16.2469 42.7392 16.4915 43.8862 16.1238 44.8892C16.123 46.0854 16.904 46.3787 17.4181 46.3787Z" fill="#1766A6"/>
<path d="M34.4336 8.06997C34.2524 8.06997 33.9927 8.06997 33.8498 7.78537C33.7326 7.55184 33.7722 7.17542 33.5518 7.00719C33.7722 7.07171 34.0054 7.07171 34.1867 7.07171C34.7709 7.07171 35.329 6.66995 35.7573 6.66995C36.0395 6.66995 36.1305 6.85164 36.1305 7.03252C36.1309 7.60369 34.9791 8.06997 34.4336 8.06997ZM34.7186 9.5349C36.0656 9.5349 37.299 8.45906 37.299 7.51305C37.299 7.07171 37.0908 6.70914 36.5592 6.64423C36.6498 6.76099 36.6886 6.85164 36.6886 7.05905C36.6886 7.77231 35.6021 8.56316 34.421 8.56316C33.9927 8.56316 33.8629 8.86082 33.8629 9.01637C33.8629 9.37973 34.2136 9.5349 34.7186 9.5349ZM34.6153 10.0795C34.7843 11.3105 36.6498 12.9702 37.1553 12.931C37.4933 12.9025 37.6228 11.3236 37.6228 10.0795C37.6228 9.36667 37.6619 8.80896 37.2855 8.67913C36.6882 9.8852 35.1216 10.1314 34.6153 10.0795Z" fill="#1766A6"/>
<path d="M5.43811 18.233C5.87826 18.233 5.78762 15.5362 6.50049 15.5362C6.66951 15.5362 6.72136 15.7049 6.72136 15.9123C6.72136 16.5214 6.42291 17.4164 6.42291 17.9084C6.42291 18.155 6.48783 18.233 6.60459 18.233C6.9161 18.233 7.46036 15.2639 7.99155 15.2639C8.16016 15.2639 8.23774 15.4325 8.23774 15.6012C8.23774 16.2234 7.44769 18.0121 7.44769 18.5176C7.44769 18.5955 7.47302 18.66 7.53833 18.66C7.86251 18.66 8.51046 17.2604 8.71748 16.5606C8.83424 16.1973 8.9898 16.0025 9.13269 16.0025C9.26213 16.0025 9.37929 16.1454 9.37929 16.4439C9.37929 17.1437 8.73054 18.7899 8.16016 19.8922C7.72001 20.7476 7.03287 21.9782 7.03287 22.6653C7.03287 23.0156 7.0966 23.3782 7.60245 23.8192C6.77282 23.7673 6.43597 23.6897 6.12526 23.0418C4.73791 25.8026 8.67869 25.5307 7.33053 27.9796C7.08393 27.5399 5.14006 27.0859 5.14006 24.5194C5.14006 22.3028 7.08393 21.0065 7.08393 20.0866C7.08393 19.9053 7.01981 19.7497 6.85119 19.6072C6.42291 19.2435 6.40985 18.9462 6.07301 18.9462C5.8272 18.9462 5.52796 19.5162 5.83947 20.0217C5.94357 20.1903 6.03422 20.294 6.03422 20.4495C6.03422 20.8121 5.46345 21.7839 5.06208 21.7839C4.65993 21.7839 4.34961 20.7872 4.34961 19.179C4.34961 17.7524 4.67299 16.3144 5.07515 16.3144C5.19152 16.3144 5.23031 16.392 5.23031 16.4961C5.23031 16.6647 5.17885 17.0012 5.17885 17.5715C5.17885 18.1807 5.32135 18.233 5.43811 18.233Z" fill="#1766A6"/>
<path d="M8.74259 22.0303C9.28764 22.0303 9.74085 21.6278 9.74085 20.7348V19.412C9.74085 18.9065 9.78004 18.3365 10.1173 17.934C10.0781 18.103 10.0781 18.2843 10.0781 18.4529C10.0781 19.5679 10.6999 20.3331 10.6999 21.4085C10.6999 21.8099 10.5832 22.0307 10.2728 22.0307C9.97438 22.0307 10.0005 21.7584 9.9352 21.7584C9.88374 21.7584 9.80576 21.9266 9.80576 22.1083C9.80576 22.3806 10.0001 22.8081 10.5444 22.8081C11.0114 22.8081 11.3867 22.3806 11.3867 21.9009C11.3867 20.7352 10.4794 19.4381 10.4794 18.1941C10.4794 17.6494 10.6219 17.2868 10.7387 17.0011C10.7387 19.581 12.9292 21.4604 12.9292 22.5358C12.9292 22.7824 12.7479 22.9771 12.4756 22.9771C12.1775 22.9771 12.0346 22.7432 12.0346 22.5615C12.0346 22.4709 12.0216 22.4452 11.9828 22.4452C11.9056 22.4452 11.6721 22.7044 11.6721 23.042C11.6721 23.4691 12.0216 23.9885 12.6699 23.9885C13.4081 23.9885 13.8103 23.3654 13.8103 22.8081C13.8103 21.4477 11.1531 19.3863 11.1531 17.1831C11.1531 16.8067 11.2173 16.1975 11.4904 15.7313C9.77924 16.8324 9.24805 18.2978 9.24805 19.581C9.24805 20.696 9.20926 21.2525 8.63889 21.2525C8.34044 21.2525 8.26286 20.981 8.15876 20.981C8.08118 20.981 8.04199 21.2142 8.04199 21.2787C8.04278 21.758 8.39308 22.0303 8.74259 22.0303Z" fill="#1766A6"/>
<path d="M28.3807 7.43478C28.5454 7.32435 29.2761 7.4993 30.2209 7.03223C30.3372 6.96851 30.454 6.94238 30.5577 6.94238C31.0121 6.94238 30.8954 7.46051 31.3106 7.46051C31.634 7.46051 32.05 7.18819 32.2966 7.18819C32.6829 7.18819 33.2406 8.40692 33.2406 8.97729C33.2406 9.63831 32.2443 10.0405 31.064 10.0405C29.341 10.0405 28.3027 8.53674 28.3027 7.56421C28.3031 7.48663 28.3423 7.46051 28.3807 7.43478ZM31.2069 9.081C31.7776 9.081 32.2055 8.82173 32.2055 8.66578C32.2055 8.61472 32.1279 8.57553 31.9589 8.57553C31.7903 8.57553 31.4531 8.56287 30.8174 8.45877C30.2719 8.36812 29.8571 8.16071 29.7016 8.16071C29.6497 8.16071 29.6236 8.18644 29.6236 8.22523C29.6236 8.56287 30.2466 9.081 31.2069 9.081Z" fill="#1766A6"/>
<path d="M9.01541 26.9172C8.58793 27.0213 7.90039 27.6942 7.90039 28.7586C7.90039 30.0279 9.26161 31.9861 11.5039 31.9861C13.3959 31.9861 13.863 30.6767 13.863 29.7944C13.863 27.8375 12.6581 26.4632 11.0899 26.4632C10.2341 26.4632 9.46902 27.0854 9.46902 28.0053C9.46902 28.8619 10.1174 30.1447 11.6595 30.1447C12.3854 30.1447 12.8129 29.6254 12.8129 29.0309C12.8129 28.447 12.2817 27.6439 11.5035 27.6439C11.2704 27.6439 11.1022 27.7979 11.1022 28.0453C11.1022 28.3556 11.5293 28.6675 12.0612 28.6675C12.1903 28.6675 12.2944 28.6414 12.3466 28.6153C12.372 28.6552 12.3854 28.7194 12.3854 28.7712C12.3854 29.0697 12.1 29.2513 11.6595 29.2513C10.9985 29.2513 10.3632 28.7589 10.3632 27.9796C10.3632 27.5141 10.7653 27.1773 11.3484 27.1773C12.5018 27.1773 13.1885 28.2008 13.1885 29.2256C13.1885 30.1451 12.6839 30.6775 11.6464 30.6775C9.57233 30.6771 8.5622 28.81 9.01541 26.9172Z" fill="#1766A6"/>
<path d="M23.8122 34.5123C24.434 34.5123 24.4015 34.4604 24.5963 34.4604C24.7902 34.4604 24.8037 34.5772 24.8037 34.6552C24.8037 34.9406 24.168 35.2905 23.0403 35.2905C22.3793 35.2905 21.9771 34.9402 21.8608 34.5515C21.2128 34.9663 20.228 35.3423 19.2555 35.3423C16.5987 35.3423 15.9247 34.1877 15.0946 33.8129C14.4593 33.5275 13.4872 34.0852 12.126 32.5684C12.3077 32.6076 12.5543 32.6203 12.7486 32.6203C13.9404 32.6203 14.5757 32.038 14.5757 31.1039C14.5757 30.9867 14.5626 30.8585 14.5496 30.7421C14.9129 30.8846 15.743 31.506 15.9377 32.6076C15.9631 32.7374 16.4942 32.8538 16.8315 32.8538C17.2985 32.8538 17.8946 32.659 17.9853 31.8951C19.5409 31.7657 20.5914 30.8458 20.8118 29.6777C21.3684 29.8594 22.0037 30.3649 22.1592 30.6249C22.3797 30.5473 22.6385 30.5082 22.9366 30.5082C23.3514 30.5082 23.8185 30.5861 24.3754 30.7548C24.4015 30.5861 24.4273 30.3787 24.6869 30.3787C25.0756 30.3787 24.9719 30.8066 25.1017 31.0516C25.1666 31.1815 25.4912 31.259 25.4912 31.5187C25.4912 31.7657 25.2826 31.8567 25.1532 31.8567C25.1013 31.8567 25.0364 31.8437 24.9972 31.831C24.7384 31.9216 24.7249 33.7871 23.6364 33.7871C22.8333 33.7871 22.0943 33.1261 21.7697 32.2973C21.6791 32.0511 21.4847 31.8951 21.3031 31.8951C21.096 31.8951 20.9793 31.9343 20.7335 32.2066C20.0337 32.9706 18.8668 33.6316 17.428 33.6316C16.987 33.6316 16.6371 33.592 16.5461 33.592C16.4938 33.592 16.4938 33.6051 16.4938 33.6177C16.4938 33.7088 16.9344 34.0591 17.8939 34.0591C20.1754 34.0591 20.7331 32.7754 21.0956 32.7754C21.1483 32.7754 21.3027 32.7754 21.3933 32.9832C21.9257 34.2269 23.0862 34.5123 23.8122 34.5123ZM22.8072 31.9216C22.8072 32.207 23.0407 32.4406 23.3261 32.4406C23.6115 32.4406 23.8446 32.207 23.8446 31.9216C23.8446 31.6359 23.6115 31.4023 23.3261 31.4023C23.0407 31.4023 22.8072 31.6359 22.8072 31.9216Z" fill="#1766A6"/>
<path d="M33.0725 25.4523C32.8909 25.4523 32.6965 25.5952 32.6965 25.9459C32.6965 26.3334 32.995 26.5804 33.1632 26.6575C33.2542 26.7102 33.3971 26.762 33.5384 26.762C33.9148 26.762 34.2137 26.6575 34.2137 26.346C34.2133 25.9459 33.6291 25.4523 33.0725 25.4523ZM31.6741 26.2554C31.4018 26.2554 29.8961 28.2646 28.9259 28.2646C28.6928 28.2646 28.498 27.824 28.498 27.4884C28.498 27.3067 28.6144 27.1769 29.0304 27.0854C31.2593 26.58 30.7661 24.9072 32.67 24.9072C33.7197 24.9072 34.8882 25.6213 34.8882 27.2279C34.8882 28.939 32.4527 31.0642 32.0893 31.0642C31.7909 31.0642 31.4667 30.6367 31.4667 30.3517C31.4667 30.2611 31.5059 30.1443 31.7651 30.0406C33.008 29.5474 33.7201 28.4071 33.7201 27.8232C33.7201 27.6934 33.6556 27.5652 33.487 27.5652C33.2669 27.5652 32.3232 29.716 31.2719 29.716C30.5448 29.716 29.8054 29.0566 29.8054 28.7447C29.8054 28.2254 31.9076 27.2671 31.9076 26.5404C31.9072 26.2677 31.7778 26.2554 31.6741 26.2554Z" fill="#1766A6"/>
<path d="M6.02105 9.26291C6.02105 9.26291 5.64541 9.5475 5.17874 9.5475C4.62183 9.5475 4.18088 9.13308 4.18088 8.54964C4.18088 8.14749 4.38829 7.73306 4.86763 7.52526C4.85496 7.60324 4.85496 7.66775 4.85496 7.74573C4.85457 8.48512 5.26939 9.04204 6.02105 9.26291ZM8.79495 11.7518C8.50996 12.0883 8.21151 12.659 8.21151 13.2421C8.21151 13.9419 8.63979 14.5249 9.30081 14.5249C9.9357 14.5249 10.2341 13.9807 10.2341 13.4238C10.2341 12.5553 9.4433 11.9454 8.79495 11.7518ZM4.492 12.2699C4.46746 12.3099 4.45281 12.361 4.45281 12.4128C4.45281 12.5296 4.58264 12.659 4.69861 12.659C4.80232 12.659 4.86723 12.6333 4.91909 12.6333C5.2298 12.6333 5.5801 12.8534 6.08557 12.8534C6.38322 12.8534 6.73352 12.7623 7.17407 12.5427C8.10741 12.0756 8.47077 10.9222 8.47077 10.7274C8.47077 10.4808 8.27286 10.5133 8.10741 10.2865C7.94196 10.0605 8.00529 9.86059 7.9 9.75491C7.84023 9.69435 7.6542 9.69039 7.42027 9.66427C7.34229 9.65595 7.23859 9.65121 7.13488 9.65121C6.70779 9.65121 6.20075 9.70385 5.63156 10.0664C4.50743 10.784 4.67289 11.9719 4.492 12.2699ZM7.53783 10.6625C7.62768 10.7848 7.87546 10.9352 7.87546 11.0259C7.87546 11.2068 7.77097 11.4407 7.56395 11.4407C7.10995 11.4407 6.74738 10.7536 6.74738 10.3641C6.74738 10.1183 6.89027 10.0925 7.08422 10.0925C7.17486 10.0925 7.21405 10.1056 7.27857 10.1444C7.39494 10.2093 7.39494 10.4682 7.53783 10.6625ZM6.34483 12.2442C5.91734 12.2442 5.45067 11.713 5.45067 11.2329C5.45067 10.974 5.64502 10.6495 5.78751 10.6495C5.83937 10.6495 5.86549 10.6886 5.87816 10.7797C5.95574 11.4146 6.37095 11.7779 6.76004 11.9588C6.79883 11.9846 6.82496 11.9976 6.82496 12.0234C6.82496 12.1144 6.57836 12.2442 6.34483 12.2442ZM7.44719 8.97752C7.5117 8.76972 7.56356 8.51124 7.56356 8.22546C7.56356 7.60363 7.27777 6.65723 6.39668 6.65723C5.89161 6.65723 5.52786 7.05898 5.52786 7.53872C5.52786 8.5631 6.55224 8.97752 7.44719 8.97752ZM4.08984 14.1624C4.08984 15.1472 4.38829 15.6142 4.91948 15.6142C5.3343 15.6142 5.89161 15.3158 6.55224 14.7454C6.04717 14.8622 5.65768 14.9401 5.30818 14.9401C4.8415 14.9401 4.47893 14.7585 4.08984 14.1624ZM4.54385 13.0085C4.53118 13.0739 4.53118 13.1384 4.53118 13.2029C4.53118 13.8121 4.85457 14.1493 5.28245 14.1493C5.60544 14.1493 5.98226 13.955 6.31831 13.5267C6.1766 13.5524 6.00759 13.5655 5.85203 13.5655C5.37309 13.5655 4.85457 13.4364 4.54385 13.0085ZM7.71951 12.8273C7.42067 12.9048 6.79883 13.2678 6.79883 13.9158C6.79883 14.382 7.1614 14.6809 7.61541 14.6809C7.84894 14.6809 8.01717 14.6286 8.12087 14.5511C7.7583 14.2011 7.62847 13.8121 7.62847 13.4238C7.62847 13.151 7.66726 12.9828 7.71951 12.8273ZM8.18578 9.27557C8.18578 9.56056 8.41892 9.79449 8.70391 9.79449C8.9893 9.79449 9.22283 9.56096 9.22283 9.27557C9.22283 8.99058 8.9893 8.75665 8.70391 8.75665C8.41892 8.75665 8.18578 8.99058 8.18578 9.27557ZM8.85947 10.4421C8.85947 10.7274 9.0934 10.961 9.37918 10.961C9.66377 10.961 9.89731 10.7274 9.89731 10.4421C9.89731 10.1575 9.66377 9.92392 9.37918 9.92392C9.093 9.92392 8.85947 10.1575 8.85947 10.4421Z" fill="#1766A6"/>
<path d="M29.0821 16.8062C29.0821 16.5474 29.3156 16.3269 29.5717 16.3269C29.8575 16.3269 30.078 16.5474 30.078 16.8062C30.078 17.1043 29.8571 17.3121 29.5717 17.3121C29.3156 17.3121 29.0821 17.1043 29.0821 16.8062ZM24.531 12.814C24.531 13.099 24.7649 13.3325 25.0491 13.3325C25.3353 13.3325 25.5688 13.099 25.5688 12.814C25.5688 12.5294 25.3349 12.2959 25.0491 12.2959C24.7649 12.2959 24.531 12.5294 24.531 12.814ZM24.0908 14.6415C24.0908 15.0437 24.4269 15.3801 24.8294 15.3801C25.2308 15.3801 25.5688 15.0437 25.5688 14.6415C25.5688 14.2402 25.2308 13.9025 24.8294 13.9025C24.4269 13.9025 24.0908 14.2402 24.0908 14.6415ZM25.7244 13.8119C25.7244 14.2532 26.0747 14.6027 26.5128 14.6027C26.9534 14.6027 27.3049 14.2532 27.3049 13.8119C27.3049 13.3713 26.9534 13.0214 26.5128 13.0214C26.0747 13.0214 25.7244 13.3713 25.7244 13.8119ZM25.7897 12.1269C25.7897 12.3996 26.0101 12.6205 26.2797 12.6205C26.552 12.6205 26.7725 12.3996 26.7725 12.1269C26.7725 11.8553 26.5516 11.6349 26.2797 11.6349C26.0101 11.6349 25.7897 11.8553 25.7897 12.1269ZM28.1349 10.8832C28.1349 11.1547 28.3554 11.3752 28.6281 11.3752C28.9004 11.3752 29.1213 11.1547 29.1213 10.8832C29.1213 10.6105 28.9004 10.39 28.6281 10.39C28.3554 10.39 28.1349 10.6105 28.1349 10.8832ZM27.162 12.4776C27.162 12.9308 27.538 13.3064 27.992 13.3064C28.4464 13.3064 28.8228 12.9308 28.8228 12.4776C28.8228 12.0232 28.4468 11.6479 27.992 11.6479C27.538 11.6479 27.162 12.0232 27.162 12.4776ZM25.8281 15.5103C25.8281 15.7957 26.0616 16.0285 26.3446 16.0285C26.63 16.0285 26.8639 15.7957 26.8639 15.5103C26.8639 15.2249 26.63 14.9918 26.3446 14.9918C26.0616 14.9918 25.8281 15.2249 25.8281 15.5103ZM27.5253 14.4729C27.5253 14.7583 27.7585 14.9918 28.0447 14.9918C28.3297 14.9918 28.5632 14.7583 28.5632 14.4729C28.5632 14.1883 28.3297 13.9548 28.0447 13.9548C27.7585 13.9548 27.5253 14.1883 27.5253 14.4729ZM27.0456 16.3008C27.0456 16.7932 27.4474 17.1953 27.9406 17.1953C28.4334 17.1953 28.8363 16.7932 28.8363 16.3008C28.8363 15.8084 28.4334 15.4062 27.9406 15.4062C27.4474 15.4062 27.0456 15.8084 27.0456 16.3008ZM28.9131 15.1984C28.9131 15.5361 29.1858 15.8084 29.5207 15.8084C29.8579 15.8084 30.1302 15.5361 30.1302 15.1984C30.1302 14.862 29.8579 14.5897 29.5207 14.5897C29.1858 14.5897 28.9131 14.862 28.9131 15.1984ZM28.8743 13.5653C28.8743 13.8641 29.1213 14.1103 29.4162 14.1103C29.715 14.1103 29.9616 13.8641 29.9616 13.5653C29.9616 13.2676 29.715 13.0214 29.4162 13.0214C29.1213 13.0214 28.8743 13.2676 28.8743 13.5653Z" fill="#1766A6"/>
<path d="M30.195 30.5728C29.8577 30.8325 29.0693 31.4147 27.7587 31.4147C27.0585 31.4147 26.747 31.1943 26.6433 31.1943C26.5135 31.1943 26.371 31.3237 26.2281 31.4927C25.9201 31.8561 25.5176 32.5302 25.5176 33.2684C25.5176 33.7865 25.9201 34.3042 26.669 34.3042C29.0954 34.3042 30.9086 32.7882 30.9086 31.5576C30.9086 30.8582 30.4938 30.5728 30.195 30.5728ZM29.5209 30.4303C29.6258 30.3409 29.6503 30.1972 29.6503 30.0539V29.7559C29.6503 29.3794 29.0823 29.1602 28.3038 29.1602C27.3566 29.1602 26.8507 29.5868 26.8507 29.7689V30.365C26.8507 30.612 27.4219 30.8582 28.1225 30.8582C28.6802 30.8582 29.186 30.7157 29.5209 30.4303ZM29.4164 31.7136C29.4817 31.7136 29.5589 31.752 29.5589 31.9859C29.5589 32.2705 29.4299 32.6461 28.9652 32.9438C28.641 33.1651 28.1997 33.3467 27.5513 33.3582C27.655 33.0483 27.733 32.7233 27.733 32.4138C27.733 32.3097 27.7203 32.2317 27.7073 32.1153H27.8759C28.9006 32.1157 29.342 31.7136 29.4164 31.7136Z" fill="#1766A6"/>
<path d="M24.4661 15.8738C24.6086 16.975 26.0878 16.4177 26.0878 17.7524C26.0878 17.9471 26.036 18.2329 26.036 18.4787C26.036 18.7641 26.0613 19.0103 26.2798 19.0103C26.4999 19.0103 26.5521 18.8552 26.5521 18.6473C26.5521 18.4395 26.4999 18.1807 26.4999 18.0382C26.4999 17.5842 26.8244 17.4809 27.0196 17.4809C27.5124 17.4809 27.8884 17.9863 28.6282 17.9863C28.4592 18.816 26.7469 18.5955 26.7469 19.5031C26.7469 19.9571 27.2009 20.06 27.4993 20.06C27.7716 20.06 27.8627 20.0212 27.8627 19.7885C27.8627 19.6583 27.8365 19.5158 27.8365 19.4251C27.8365 19.3729 27.8757 19.321 27.9406 19.321C28.2268 19.321 29.6241 20.3842 29.6241 20.7088C29.6241 21.0064 28.1481 21.3045 27.7202 21.3045C27.5903 21.3045 27.5642 21.2138 27.5642 21.162C27.5642 21.0713 27.7847 20.799 27.7847 20.6439C27.7847 20.5271 27.5903 20.4491 27.071 20.4491C26.8244 20.4491 26.6428 20.4752 26.6428 20.67C26.6428 21.0191 27.2135 21.4474 27.2135 21.7708C27.2135 22.0304 27.058 22.186 26.6428 22.186C26.2925 22.186 25.7628 21.9133 25.7628 21.46C25.7628 21.0971 26.1369 20.7349 26.1369 20.514C26.1369 20.4491 26.0874 20.3454 25.9319 20.3454C25.4513 20.3454 25.3219 21.6152 23.623 21.7581C23.8954 21.5119 24.1281 21.2396 24.1281 20.683C24.1281 20.4107 24.064 20.1899 24.064 19.8922C24.064 19.5031 24.2449 19.3084 24.5041 19.3084C24.9835 19.3084 25.217 19.9821 25.5293 19.9821C25.6983 19.9821 25.8796 19.8273 25.8796 19.5938C25.8796 18.6086 23.9864 18.7511 23.9864 17.3641C23.9868 16.9881 24.1158 16.5214 24.4661 15.8738ZM30.6488 19.6717C30.6488 19.9951 30.7533 20.3711 31.0775 20.3711C31.3498 20.3711 31.583 19.9571 31.583 19.5031C31.583 18.9846 31.4923 18.5824 31.4923 18.3746C31.4923 18.2844 31.5315 18.2456 31.583 18.2456C31.7777 18.2587 31.959 18.7898 32.1672 18.7898C32.4007 18.7898 32.7487 18.3616 32.8908 18.3616C32.93 18.3616 32.9426 18.4138 32.9426 18.4265C32.9426 18.6212 32.6442 19.0495 32.6442 19.2177C32.6442 19.3602 33.3966 19.3859 33.3966 19.5158C33.3966 19.7105 32.6078 19.7105 32.2321 19.8791C31.8692 20.0343 31.6475 20.2286 31.6475 20.4883C31.6475 20.7476 31.9072 20.799 32.2705 20.799C33.1366 20.799 33.7461 20.3327 33.9405 20.3327C33.9793 20.3327 34.005 20.3581 34.005 20.3973C34.005 20.5271 33.5644 20.9546 33.5644 21.1493C33.5644 21.3694 34.3688 21.6279 34.3557 21.7581C34.343 21.7969 34.2908 21.8095 34.2001 21.8095C34.0568 21.8095 33.8368 21.7708 33.6678 21.7708C33.5641 21.7708 33.4734 21.7834 33.4338 21.8353C33.344 21.9394 33.46 22.6265 33.2795 22.6265C33.1104 22.6265 32.6695 21.0971 31.6736 21.0971C31.5307 21.0971 31.427 21.2138 31.427 21.4082C31.427 21.9263 31.9329 22.5224 32.413 22.8078C32.6303 22.9507 32.9941 23.0932 32.9941 23.1716C32.9941 23.3263 32.1664 23.1842 32.1664 23.4431C32.1664 23.6766 32.2701 24.0273 32.2701 24.2339C32.2701 24.2989 32.2571 24.376 32.1795 24.376C32.0239 24.376 31.6471 23.6636 31.4658 23.6636C31.3103 23.6636 30.973 24.0911 30.8301 24.0911C30.7913 24.0911 30.7656 24.0523 30.7656 24.0139C30.7656 23.7154 31.2457 23.0417 31.2457 22.3803C31.2457 22.0692 31.2066 21.3951 30.8301 21.3951C30.519 21.3951 30.1683 21.8875 30.0128 22.3803C29.9225 22.6653 29.987 23.7673 29.7792 23.7673C29.5849 23.7673 29.6367 23.0287 29.3767 23.0287C29.1855 23.0287 28.7703 23.3782 28.6274 23.3782C28.6013 23.3782 28.5751 23.3651 28.5751 23.3394C28.5751 23.1842 28.9516 22.6784 28.9516 22.5747C28.9516 22.3803 28.0954 22.3546 28.0954 22.199C28.0954 22.108 28.4327 22.0435 28.7438 21.9912C29.4032 21.8745 30.3757 21.3951 30.3757 20.7214C30.3757 19.9698 29.6494 19.6452 29.172 19.3341C28.9254 19.1785 28.6531 19.0495 28.6531 18.9458C28.6531 18.8417 28.9642 18.8417 29.0941 18.8417C29.2884 18.8417 29.4808 18.8286 29.4808 18.6735C29.4808 18.5563 29.4547 18.3236 29.4547 18.1419C29.4547 18.0121 29.4673 17.9084 29.52 17.9084C29.7143 17.9084 29.9866 18.5432 30.1169 18.5432C30.3239 18.5432 30.6093 18.0247 30.8044 18.0247C30.8685 18.0247 30.895 18.0639 30.895 18.1803C30.8958 18.66 30.6488 19.2043 30.6488 19.6717Z" fill="#1766A6"/>
<path d="M24.8419 23.2613C25.4388 23.3393 25.5817 23.5463 25.5817 23.7153C25.5817 24.0007 25.322 24.0909 25.075 24.0909C24.8941 24.0909 24.6863 24.0521 24.4658 24.0521C24.1801 24.0521 23.8955 24.117 23.6623 24.3894C23.8306 24.4151 24.0772 24.5323 24.0772 24.7919C24.0772 25.5436 21.9904 24.9206 21.9904 26.853C21.9904 27.8765 23.0536 28.992 24.6602 28.992C25.491 28.992 26.0226 28.7196 26.0226 28.4077C26.0226 28.1619 25.5821 28.3298 25.5821 28.1223C25.5821 28.0317 25.7376 27.8627 25.7376 27.7194C25.7376 27.6569 25.6858 27.5393 25.5821 27.5393C25.3477 27.5393 24.9068 27.9141 24.0122 27.9141C23.312 27.9141 22.6249 27.5136 22.6249 26.9685C22.6249 26.8522 22.6771 26.7869 22.7547 26.7869C22.8327 26.7869 22.936 26.8391 23.027 26.8391C23.105 26.8391 23.1177 26.7869 23.1177 26.6448C23.1177 26.5019 23.1177 26.0997 23.3635 26.0997C23.6105 26.0997 24.0771 27.0073 25.867 27.0073C26.4612 27.0073 27.6158 26.8913 28.0441 26.5019C28.031 27.928 26.9148 29.8073 24.5826 29.8073C22.1586 29.8073 20.8623 27.8627 20.8623 26.0736C20.8623 24.0909 22.482 22.2896 24.6994 22.2896C25.269 22.2896 25.7499 22.4835 25.7499 22.7301C25.7495 23.0677 24.9064 22.8599 24.8419 23.2613ZM28.8218 23.9492C28.9125 24.0909 28.9517 24.2338 28.9517 24.3632C28.9517 24.7266 28.7051 25.0635 28.7051 25.4399C28.7051 25.8674 29.0296 26.2169 29.5201 26.2169C30.0517 26.2169 30.415 25.7902 30.415 25.2839C30.415 24.5968 29.7924 24.0137 28.8218 23.9492ZM24.5304 24.7785C24.6594 24.9075 24.699 25.0373 24.699 25.1672C24.699 25.3615 24.6083 25.5693 24.6083 25.7898C24.6083 26.0997 24.8419 26.3724 25.1783 26.3724C25.5421 26.3724 25.7891 26.0866 25.7891 25.751C25.7891 25.2582 25.2816 24.7785 24.5304 24.7785ZM26.2534 22.5745C27.6154 22.8338 28.3548 23.8582 28.3548 24.8177C28.3548 25.4791 27.94 26.087 27.2132 26.087C26.5514 26.087 26.0741 25.6338 26.0741 24.9079C26.0741 24.3636 26.4992 23.7933 26.4992 23.2356C26.4992 23.0155 26.4347 22.795 26.2534 22.5745ZM26.9278 24.2987C26.9278 24.48 27.0577 24.6229 27.2394 24.6229C27.4464 24.6229 27.5766 24.4412 27.5766 24.2338C27.5766 23.9619 27.33 23.5859 27.0965 23.5859C26.9924 23.5859 27.0315 23.7414 27.0058 23.91C26.9924 24.0391 26.9278 24.1946 26.9278 24.2987Z" fill="#1766A6"/>
<path d="M12.6195 10.9608C13.06 10.9608 13.5651 8.5756 13.5651 8.17345C13.5651 8.06974 13.5267 7.99177 13.4361 7.99177C13.0339 7.99177 12.477 10.2606 12.477 10.7665C12.4766 10.8571 12.5023 10.9608 12.6195 10.9608ZM15.7951 11.6737C16.1185 11.6737 16.4815 10.4288 16.4815 9.65104C16.4815 9.48242 16.4558 9.30153 16.3774 9.30153C16.1051 9.30153 15.6515 10.5848 15.6515 11.2846C15.6519 11.5569 15.7172 11.6737 15.7951 11.6737ZM13.6811 10.5199C13.8236 10.5199 14.0052 10.3635 14.3433 9.98868C14.3686 9.82006 14.3686 9.6641 14.3686 9.46976C14.3686 9.21089 14.2649 8.9255 14.1097 8.9255C13.7203 8.9255 13.5263 9.96255 13.5263 10.2353C13.5267 10.39 13.6039 10.5199 13.6811 10.5199ZM15.4575 9.98868C15.4575 9.76781 15.4053 9.71596 15.3538 9.71596C15.224 9.71596 15.0819 9.87191 14.8745 10.2218C14.9002 10.6885 14.9782 10.8959 15.1076 10.8959C15.2501 10.8959 15.4575 10.4419 15.4575 9.98868ZM16.4558 8.45883C17.3115 8.45883 17.6998 9.19783 17.6998 10.0275C17.6998 10.39 17.5969 10.922 17.4283 10.922C17.2597 10.922 17.2858 10.6236 17.2597 10.3512C17.2339 10.0013 17.1686 9.92376 17.0519 9.92376C16.8314 9.92376 16.6893 10.4419 16.6893 10.922C16.6893 11.2197 16.7411 11.5569 16.9739 11.5569C17.1037 11.5569 17.2205 11.492 17.2985 11.4144C17.2466 12.0101 16.8053 12.5294 16.1834 12.5294C15.0427 12.5294 14.6148 11.1939 14.4858 10.4162C13.7986 11.1421 13.1637 11.6737 12.0226 11.6737C10.9602 11.6737 10.4805 10.8959 10.4805 10.1573C10.4805 9.93643 10.558 9.36645 10.8308 9.36645C11.1545 9.36645 10.8696 10.4288 11.5045 10.4288C11.6604 10.4288 11.9446 10.299 12.101 9.87191C12.1916 9.61225 12.2434 9.34072 12.2434 9.10679C12.2434 8.75649 12.1659 8.53681 11.9066 8.53681C11.6857 8.53681 11.4134 8.70464 11.3228 8.79568C11.6343 7.86233 12.3859 7.383 13.2144 7.383C14.2396 7.383 14.7834 8.29021 14.7834 9.30153C14.7834 9.44363 14.7704 9.59919 14.7442 9.74208C15.1852 9.01615 15.7951 8.45883 16.4558 8.45883Z" fill="#1766A6"/>
<path d="M14.0311 11.9453C13.4738 11.9453 13.4481 12.6206 13.4481 13.9806C13.0329 13.0865 12.3465 12.127 11.5426 12.127C10.9983 12.127 10.7913 12.4904 10.7913 13.1249C10.7913 13.2547 10.804 13.4494 10.8301 13.5654C10.895 13.3457 11.1024 13.2547 11.3613 13.2547C11.9194 13.2547 12.5931 13.6822 13.0337 14.266C12.5286 14.1754 12.0358 14.0843 11.6214 14.0843C11.3617 14.0843 11.1286 14.1104 10.9342 14.2011C10.5582 14.3693 10.0527 14.927 10.0527 15.7697C10.0527 15.8995 10.0658 16.0416 10.0919 16.1972C10.5455 15.1859 11.7508 14.7323 12.5286 14.7323C12.6845 14.7323 12.8005 14.7453 12.8916 14.7584C12.4894 15.121 12.3992 15.7563 12.3726 16.1841C12.3604 16.3916 12.282 16.405 12.1391 16.405C12.1391 16.8321 12.4767 17.4678 12.4767 17.7916C12.4767 17.9083 12.4118 18.012 12.3473 18.0382C12.3473 18.6085 12.9169 19.0234 12.9169 19.3859C12.9169 19.4766 12.8916 19.5545 12.852 19.5937C12.8916 19.8273 13.5185 20.2195 13.5997 20.4162C13.6994 20.6553 13.8114 20.6957 13.8763 20.6957C14.0968 20.6957 14.4459 20.436 14.4459 20.2025C14.4459 20.1249 14.381 20.0343 14.33 19.9951C14.0834 19.8142 13.9535 19.4251 13.8498 19.1662C13.7588 19.1662 13.6416 19.1279 13.6005 18.9751C13.5296 18.7067 13.526 18.2068 13.4223 17.9083C13.2537 17.8695 13.1758 17.8046 13.1758 17.4547C13.1758 17.2861 13.2798 16.6247 13.2798 16.3912C13.2023 16.3912 13.0986 16.3393 13.0986 16.1837C13.0986 15.7693 13.5138 15.4451 13.6298 14.914C14.3688 15.4578 14.5496 16.0151 14.5496 16.5083C14.5496 16.7668 14.5108 17.0134 14.459 17.2473C15.0036 16.9746 15.8202 16.5728 15.8202 15.7563C15.8202 15.2761 15.5997 14.7449 14.1348 14.5375C14.5884 14.3689 15.1592 14.2787 15.6385 14.2787C16.4686 14.2787 16.9479 14.5375 17.0512 15.1206C17.2198 14.8617 17.3497 14.5633 17.3497 14.2913C17.3497 13.6556 16.8177 13.2416 16.144 13.2416C15.3532 13.2416 14.6533 13.6556 13.9013 14.1619C14.2393 13.4621 14.4713 13.0473 14.8869 13.0473C14.9514 13.0473 15.0163 13.0603 15.0812 13.0734C14.9257 12.5034 14.3426 11.9453 14.0311 11.9453Z" fill="#1766A6"/>
<path d="M35.8718 21.2915C36.5209 21.2915 37.0394 22.1338 37.0394 23.1194C37.0394 24.1691 36.5463 25.3103 35.6671 26.0873C35.6541 24.3377 33.5127 24.895 33.5127 23.6253C33.5127 23.081 33.9026 22.7176 34.3696 22.7176C34.7849 22.7176 35.109 22.8344 35.3426 23.0683C35.109 22.8475 34.9923 22.536 34.9923 22.2383C34.9923 21.7447 35.3038 21.2915 35.8718 21.2915Z" fill="#1766A6"/>
<path d="M24.2968 8.97736C24.6344 9.30153 24.9317 9.44363 25.2951 9.44363C25.4383 9.44363 25.6074 9.40524 25.6984 9.40524C25.8152 9.40524 25.8924 9.4567 25.8924 9.54734C25.8924 9.69023 25.7625 9.92376 25.6074 10.0536C25.7625 10.1181 25.9315 10.1442 26.1132 10.1442C26.8494 10.1442 27.6925 9.67717 27.6925 8.51108C27.8489 8.7177 27.9395 9.14598 27.9395 9.34072C27.9395 10.7534 26.9013 11.2977 25.9442 11.2977C25.3216 11.2977 25.0097 11.0898 24.9313 11.0898C24.6855 11.0898 24.6986 11.583 24.5299 11.57C24.2315 11.5181 23.96 10.8571 23.96 10.1573C23.9604 9.74208 24.0641 9.30153 24.2968 8.97736ZM26.2533 8.03095C26.1496 7.86233 25.7625 7.77209 25.5816 7.77209C25.0101 7.77209 24.621 8.17345 24.5434 8.53681C24.4915 8.40698 24.4528 8.25143 24.4528 8.09587C24.4528 7.52549 24.8418 6.82568 25.7894 6.82568C26.6167 6.82568 26.9409 7.26623 27.058 7.26623C27.1875 7.26623 27.3173 7.1364 27.4214 7.1364C27.5639 7.1364 27.5639 7.35687 27.5639 7.51283C27.5639 8.03095 27.33 8.92551 26.7465 9.24968C26.6424 9.02921 26.435 8.78262 26.1002 8.62745C26.0095 8.58866 25.9707 8.51108 25.9707 8.43311C25.9703 8.29022 26.0998 8.10853 26.2533 8.03095Z" fill="#1766A6"/>
<path d="M15.2884 5.20517C15.2884 5.65878 16.9085 7.87537 17.22 7.87537C17.4796 7.87537 17.6736 7.42176 17.6736 7.03227C17.6736 6.92936 17.6475 6.82605 17.5964 6.74768C17.3629 6.4235 15.7167 5.12719 15.3533 5.12719C15.3141 5.12719 15.2884 5.16638 15.2884 5.20517ZM5.76102 3.87007C5.76102 4.12973 4.77622 4.99776 4.42671 4.99776C4.29727 4.99776 4.25769 4.8426 4.25769 4.70011C4.25769 4.44124 4.37446 4.07788 4.51735 3.96071C4.68518 3.80516 5.07427 3.72837 5.37232 3.72837C5.55361 3.72837 5.76102 3.76637 5.76102 3.87007ZM17.5964 4.62213C17.5964 3.84395 15.4934 2.43127 15.4701 1.8225C15.4677 1.76669 15.4982 1.71127 15.5453 1.66179C15.9055 1.28181 17.4013 1.00473 17.4013 0.680954C17.4013 0.513126 17.0898 0.513126 16.9342 0.513126C15.7289 0.513126 13.966 0.953674 13.966 1.38116C13.966 1.8225 15.5473 2.89833 15.5473 3.42992C15.5473 3.57242 15.4566 3.62427 15.3137 3.62427C14.8736 3.62427 13.9141 3.09229 13.4605 3.09229C13.2531 3.09229 13.1747 3.23478 13.1747 3.44298C13.1747 4.06481 13.9137 5.24436 13.9137 5.59347C13.9137 5.63266 13.9006 5.68451 13.8488 5.68451C13.6153 5.68451 12.5145 4.38899 12.125 4.38899C11.9829 4.38899 11.9694 4.58294 11.9694 4.86833V5.30888C11.9694 5.60693 11.9564 5.78861 11.8147 5.78861C11.4766 5.78861 11.3215 4.8426 10.9977 4.8426C10.6605 4.8426 10.5956 6.52721 10.2722 6.52721C9.89575 6.52721 10.2199 4.67358 9.85696 4.67358C9.4552 4.67358 9.00119 5.90538 8.71581 5.90538C8.6125 5.90538 8.58677 5.80127 8.58677 5.71063C8.58677 5.335 8.80645 4.72583 8.80645 4.36326C8.80645 4.18119 8.7546 4.07788 8.59983 4.07788C8.19729 4.07788 7.31619 4.72583 6.97935 4.72583C6.9275 4.72583 6.86258 4.70011 6.86258 4.64786C6.86258 4.33753 8.27526 3.35194 8.27526 2.9114C8.27526 2.48312 6.3302 2.7689 6.3302 2.27571C6.3302 1.86129 7.71834 1.43341 7.71834 1.00553C7.71834 0.629497 6.07173 0.46167 5.43684 0.46167C4.67172 0.46167 4.2573 0.551521 4.2573 0.771992C4.2573 1.10923 5.99455 1.21333 5.99455 1.51099C5.99455 1.79637 4.19238 2.5611 4.19238 3.00164C4.19238 3.39073 6.73275 3.02737 6.73275 3.42992C6.73275 3.87007 4.51696 5.77515 4.51696 6.41044C4.51696 6.55333 4.62066 6.61825 4.76276 6.61825C5.43684 6.61825 7.18597 5.335 7.66609 5.335C7.83471 5.335 7.84778 5.54201 7.84778 5.72369C7.84778 6.06093 7.73141 6.57906 7.73141 6.95548C7.73141 7.25314 7.80899 7.46055 8.06785 7.46055C8.54838 7.46055 8.98813 6.64397 9.3131 6.64397C9.72752 6.64397 9.48132 9.04185 10.1036 9.04185C10.6347 9.04185 10.8548 6.44963 11.1921 6.44963C11.5293 6.44963 11.802 7.20129 12.1127 7.20129C12.501 7.20129 12.3197 5.89231 12.735 5.89231C13.1882 5.89231 14.4845 7.44788 15.0679 7.44788C15.2492 7.44788 15.3137 7.30499 15.3137 7.12331C15.3137 6.43617 14.3551 4.88139 14.3551 4.38899C14.3551 4.25956 14.3934 4.22037 14.5359 4.22037C15.0414 4.22037 16.5198 4.92018 17.2192 4.92018C17.4543 4.92018 17.5964 4.79075 17.5964 4.62213ZM16.2479 2.05563C16.2479 2.28877 17.0644 2.79463 17.4409 2.79463C17.6609 2.79463 17.7258 2.49618 17.7258 2.18507C17.7258 1.79637 17.558 1.78331 17.2204 1.78331C16.7925 1.78331 16.2479 1.90008 16.2479 2.05563ZM13.2016 0.733202C13.2016 0.655226 12.8129 0.577249 12.2817 0.577249C11.439 0.577249 11.5558 1.27825 10.9079 1.27825C10.2338 1.27825 10.4016 0.551521 9.54624 0.551521C9.02771 0.551521 8.54877 0.642559 8.54877 0.75893C8.54877 0.914883 9.15754 0.849969 9.15754 1.27825C9.15754 1.73146 7.84817 1.86129 7.84817 2.13361C7.84817 2.22425 7.95148 2.26304 8.08131 2.26304C8.36709 2.26304 8.81991 2.13361 9.14448 2.13361C9.32616 2.13361 9.49478 2.17201 9.49478 2.34063C9.49478 2.6648 8.79418 3.24824 8.79418 3.5075C8.79418 3.58548 8.8587 3.6116 8.92361 3.6116C9.18327 3.6116 9.62421 2.95019 10.0386 2.95019C10.7258 2.95019 10.2726 4.41472 10.6478 4.41472C11.0365 4.41472 10.8683 2.97552 11.4256 2.97552C11.88 2.97552 12.2164 3.97378 12.5275 3.97378C12.6055 3.97378 12.67 3.90926 12.67 3.81822C12.67 3.54669 12.2814 2.98858 12.2814 2.62601C12.2814 2.40554 12.4369 2.30144 12.6443 2.30144C12.942 2.30144 13.3441 2.48312 13.5638 2.48312C13.6414 2.48312 13.7194 2.45739 13.7194 2.36675C13.7194 2.05564 12.5667 1.71879 12.5667 1.31704C12.5671 0.914883 13.2016 0.914883 13.2016 0.733202Z" fill="#1766A6"/>
<path d="M36.1826 2.83397C36.1826 3.98699 35.3423 4.86848 33.824 5.11468C33.993 5.12735 34.1485 5.12735 34.3045 5.12735C36.0789 5.12735 36.7281 4.32423 36.7281 3.65054C36.7281 3.27412 36.5203 2.93767 36.1826 2.83397ZM33.993 4.14255C33.993 3.22227 31.791 2.98873 31.791 2.78172C31.791 2.6135 33.0204 2.32771 33.6557 2.31465C32.6836 1.07059 31.2982 1.20042 31.2982 0.979948C31.2982 0.85012 32.3357 0.590462 33.2936 0.590462C34.0971 0.590462 34.8491 0.772143 34.8491 1.38131C34.8491 1.71894 34.5768 2.06924 34.5768 2.58698C34.5768 2.87236 34.7185 3.11856 35.0957 3.11856C35.4987 3.11856 35.5885 2.69108 35.5885 2.23668C35.5885 1.86144 35.524 1.57605 35.524 1.39437C35.524 0.85012 35.8973 0.487549 36.4292 0.487549C36.8702 0.487549 36.9743 0.681105 37.623 0.681105C37.2723 0.889306 37.1429 1.26533 37.1429 1.44622C37.1429 1.99127 37.494 2.3669 37.494 3.48192C37.494 5.5291 35.5759 6.25504 33.2286 6.25504C32.5835 6.25504 31.8951 6.20318 31.2203 6.09987C31.1169 6.08681 31.0908 6.06108 31.0908 5.99617C31.0908 5.82755 32.0123 5.73651 32.0123 4.90767C32.0123 4.58309 31.9082 4.27238 31.9082 4.156C31.9082 4.09109 31.96 4.0519 32.0123 4.0519C32.2066 4.0519 32.5965 4.80357 33.3201 4.80357C33.5124 4.80357 33.993 4.73865 33.993 4.14255ZM36.1051 1.2784C36.1051 1.45929 36.2476 1.60178 36.4292 1.60178C36.6109 1.60178 36.7538 1.45929 36.7538 1.2784C36.7538 1.09672 36.6109 0.953824 36.4292 0.953824C36.2476 0.953824 36.1051 1.09672 36.1051 1.2784Z" fill="#1766A6"/>
<path d="M34.9528 13.2546C34.9528 12.9827 34.2649 12.957 34.2004 12.1918C34.1869 12.0755 34.1481 11.8685 34.0053 11.8685C33.7721 11.8685 33.9534 12.5813 33.6941 12.5813C33.098 12.5813 32.9037 11.4145 32.6832 11.4145C32.631 11.4145 32.5692 11.4532 32.5692 11.6088C32.5692 11.7517 32.5953 11.8423 32.5953 12.0102C32.5953 12.1792 32.5558 12.2959 32.4006 12.2959C32.0503 12.2959 31.7388 11.479 31.4403 11.479C31.3754 11.479 31.3109 11.5182 31.3109 11.5831C31.3109 11.7386 31.5698 12.0232 31.5698 12.1661C31.5698 12.4776 30.7267 12.3086 30.7267 12.5683C30.7267 12.685 30.8431 12.7234 30.999 12.7234C31.2717 12.7234 31.7 12.6075 31.9205 12.6075C32.0503 12.6075 32.2446 12.6332 32.2446 12.801C32.2446 12.9827 31.7776 13.2158 31.7776 13.3844C31.7776 13.4624 31.8552 13.5008 31.9201 13.5008C32.2704 13.5008 32.8902 12.892 33.3312 12.892C33.4088 12.892 33.6031 12.9308 33.6031 13.0476C33.6031 13.2158 33.1626 13.5135 33.1626 13.7601C33.1626 13.825 33.2021 13.9026 33.2797 13.9026C33.5117 13.9026 33.8232 13.2938 34.2645 13.2938C34.4331 13.2938 34.6797 13.3587 34.81 13.3587C34.9141 13.3587 34.9528 13.2938 34.9528 13.2546ZM35.2901 19.5414C35.4979 18.8939 35.7575 18.4395 36.1823 17.7396C35.7575 17.52 34.6283 17.0525 34.6283 16.2878C34.6283 15.3932 35.7433 14.6934 35.9745 14.6934C36.0786 14.6934 36.1043 14.7845 36.1043 14.9531C36.1043 15.4194 35.8838 16.171 35.8838 16.5732C35.8838 16.9357 36.1173 17.2864 36.3248 17.2864C36.5452 17.2864 37.1548 16.5086 37.1548 15.7435C37.1548 14.3692 35.9483 13.9548 35.5751 13.9548C35.2248 13.9548 34.5891 14.5248 33.0976 14.5248C30.3115 14.5248 29.6758 11.7648 29.6758 10.5587C29.6758 10.5068 29.6881 10.4938 29.7011 10.4938C29.766 10.4938 30.0391 10.8314 30.9206 10.8314C31.3746 10.8314 31.7899 10.7142 32.4517 10.7142C34.0045 10.7142 34.6924 11.7909 35.6527 13.164C36.2333 13.5265 37.6219 14.1104 37.6219 15.7566C37.6219 17.2085 36.0782 18.012 35.7045 19.5675C36.2982 19.503 36.6489 18.4395 37.2585 18.4395C37.57 18.4395 37.7125 18.6861 37.7125 19.0755C37.7125 19.6451 37.3879 20.5013 36.7653 21.0325C36.778 20.9806 36.778 20.9153 36.778 20.8377C36.778 20.4752 36.6359 19.957 36.2199 19.957C35.5743 19.957 35.3669 20.6568 35.0039 21.2395C34.6275 19.9178 34.1216 18.7248 33.2144 17.9989C32.2965 17.2603 30.7132 17.6617 30.7132 16.3139C30.7132 15.9505 30.9472 15.4324 30.9472 15.0176C30.9472 14.8751 30.921 14.7453 30.8427 14.6416C32.0883 15.1086 31.647 15.9375 32.4133 16.7932C32.8902 17.3383 34.2131 17.8564 34.9782 20.0987C34.9908 20.0342 35.0039 19.866 35.0039 19.7492C35.0039 17.8307 32.4643 15.9505 32.2439 15.1728C33.7191 15.3414 33.9783 15.7047 34.6789 17.649C34.8226 18.0512 35.2901 19.0494 35.2901 19.5414Z" fill="#1766A6"/>
<path d="M28.2005 5.82752C27.2921 5.82752 26.6956 5.37431 26.6956 5.14038C26.6956 5.02361 26.7732 4.94643 26.8777 4.94643C27.1627 4.94643 27.7853 5.38658 27.9923 5.38658C28.0449 5.38658 28.0833 5.36125 28.0833 5.28327C28.0833 5.04974 27.8629 4.66104 27.8629 4.46709C27.8629 4.41484 27.9021 4.37645 27.9796 4.37645C28.3295 4.37645 28.8485 4.51894 29.1216 4.51894C29.2122 4.51894 29.2379 4.46709 29.2379 4.41484C29.2379 4.12985 28.3945 3.57254 28.3945 3.40392C28.3945 3.24836 29.4426 3.01443 29.4426 2.76902C29.4426 2.50937 28.0176 2.69105 28.0176 2.44445C28.0176 2.26317 28.2904 1.95205 28.2904 1.80956C28.2904 1.74464 28.2381 1.71892 28.1479 1.71892C28.0311 1.71892 27.4085 1.96512 27.1488 1.96512C27.0194 1.96512 26.8634 1.93939 26.8634 1.75731C26.8634 1.45926 27.3693 1.13548 28.1609 1.13548C29.4422 1.13548 30.2081 2.01697 30.2081 3.49456C30.2089 5.36125 28.9011 5.82752 28.2005 5.82752ZM25.6736 3.36513C25.6736 3.22224 25.1669 2.95031 25.1669 2.79475C25.1669 2.76902 25.1923 2.75596 25.2315 2.75596C25.3748 2.75596 25.6213 2.80781 25.8165 2.80781C25.9851 2.80781 26.0108 2.08188 26.1383 2.08188C26.2289 2.08188 26.3841 2.76902 26.5278 2.76902C26.696 2.76902 27.0071 2.57428 27.1369 2.57428C27.1627 2.57428 27.1888 2.58695 27.1888 2.61347C27.1888 2.70411 26.8646 3.05362 26.8646 3.15732C26.8646 3.27409 27.5913 3.41698 27.5913 3.52069C27.5913 3.65051 26.8516 3.63745 26.8516 3.75422C26.8516 3.84407 27.1243 4.20743 27.1243 4.3242C27.1243 4.35032 27.1108 4.36339 27.0851 4.36339C26.981 4.36339 26.5792 4.18131 26.4625 4.18131C26.3196 4.18131 26.0888 4.71289 25.972 4.71289C25.9333 4.71289 25.9075 4.66104 25.9075 4.59613L25.8814 4.078C25.8814 4.02615 25.8561 3.9739 25.7908 3.9739C25.6348 3.9739 25.3364 3.96084 25.2449 3.96084C25.18 3.96084 25.1543 3.94817 25.1543 3.92205C25.1539 3.81834 25.6736 3.45577 25.6736 3.36513ZM25.2964 5.48989C25.5046 5.48989 25.5434 5.99614 25.583 6.2938C25.6087 6.44975 25.6348 6.46242 25.6997 6.46242C25.8557 6.46242 26.1015 5.86631 26.2681 5.86631C26.5139 5.86631 27.1761 6.55345 28.2785 6.55345C29.8459 6.55345 31.3247 5.4511 31.3247 3.50762C31.3247 1.62788 30.0007 0.525915 28.1744 0.525915C27.306 0.525915 26.6695 0.953796 26.3322 0.953796C26.1276 0.966858 25.8165 0.44873 25.6601 0.44873C25.5956 0.44873 25.5307 0.577372 25.5307 0.798239C25.5307 0.94113 25.5307 1.39434 25.3748 1.39434C25.0628 1.39434 23.858 0.500583 23.858 0.823967C23.858 1.12242 24.6607 2.03003 24.6607 2.26317C24.6607 2.4963 23.8706 2.71717 23.8706 2.87233C23.8706 3.15732 24.7129 3.20918 24.7129 3.57254C24.7129 3.93511 23.8311 4.22049 23.8311 4.49282C23.8311 4.71289 24.7129 4.55773 24.7129 4.82966C24.7129 5.10159 24.065 6.0092 24.065 6.26767C24.065 6.33298 24.0776 6.33298 24.1291 6.33298C24.3757 6.33298 25.1147 5.48989 25.2964 5.48989Z" fill="#1766A6"/>
<path d="M19.4242 28.2521C19.4242 28.3689 19.385 28.4987 19.2813 28.6278C19.1396 28.3689 18.737 28.2391 18.5554 28.2395C17.2203 28.2395 17.7257 30.1711 16.3 30.1711C15.7039 30.1711 15.6516 30.0931 15.432 30.0931C15.3409 30.0931 15.2891 30.1323 15.2891 30.2099C15.2891 30.5475 15.7688 31.3763 17.1039 31.3763C18.439 31.3763 19.7226 30.5602 19.7226 29.548C19.7226 29.3794 19.6838 29.1993 19.6059 29.0176C19.6577 28.9397 19.7879 28.8878 19.9043 28.8878C20.1113 28.8878 20.2281 29.1221 20.4224 29.1221C20.6303 29.1221 20.7858 28.9658 20.7858 28.7588C20.7858 28.5894 20.6952 28.4734 20.54 28.3946C20.6437 28.3174 20.7213 28.1876 20.7213 28.0451C20.7213 27.8239 20.5653 27.6176 20.3057 27.6176C20.1889 27.6176 20.1117 27.6572 20.0211 27.7459C19.9958 27.5139 19.8655 27.2935 19.6189 27.2935C19.4246 27.2935 19.2813 27.4356 19.2813 27.6568C19.2813 27.8626 19.4242 28.0321 19.4242 28.2521Z" fill="#1766A6"/>
<path d="M12.3204 25.8423C13.3575 26.0999 13.876 26.6576 13.9793 27.3191C14.083 27.954 14.2124 28.4733 14.4586 28.7317C14.7828 29.0955 15.4181 29.4177 15.9758 29.4177C16.4425 29.4177 16.8177 29.2637 16.8177 28.8354C16.8177 28.3684 16.1828 27.3187 15.2495 27.3187C15.1588 27.3187 15.0421 27.3321 14.9123 27.3321C14.7955 27.3321 14.6269 27.3064 14.5236 27.2154C14.3165 27.0333 14.2512 26.0611 13.8625 25.4781C13.4351 24.8298 12.9684 24.6481 12.3335 24.6481C11.8803 24.6481 11.374 24.8939 11.374 25.2572C11.374 25.4789 11.4908 25.6341 12.3204 25.8423ZM15.937 28.7452C15.5475 28.7452 14.9645 28.3296 14.9645 28.0961C14.9645 27.9013 15.1462 27.7976 15.2879 27.7976C15.6125 27.7976 16.1951 28.2006 16.1951 28.5374C16.1955 28.628 16.1306 28.7452 15.937 28.7452Z" fill="#1766A6"/>
<path d="M14.7449 18.6473C14.7449 17.8177 16.7157 17.3771 16.7157 16.3528C16.7157 16.1841 16.6508 15.8865 16.534 15.666C17.2203 16.0416 17.7262 16.6773 17.7262 17.1955C17.7262 18.09 16.7933 18.5048 16.7933 19.0625C16.7933 19.7105 17.7911 19.8142 17.7911 20.6177C17.7911 21.2783 16.8447 22.0435 16.8447 22.8988C16.8447 23.5598 17.3118 24.1037 18.0239 24.1947C17.7907 24.2466 17.5837 24.2854 17.3632 24.2854C16.0535 24.2854 14.7057 23.2099 14.7057 21.9263C14.7057 21.2914 14.978 20.7349 15.3921 20.3327C15.7558 20.6438 16.1184 20.8509 16.3519 20.8509C16.5589 20.8509 16.6504 20.7475 16.6504 20.592C16.6508 20.1119 14.7449 19.6717 14.7449 18.6473ZM18.88 25.1934C18.4355 25.3968 18.2582 25.362 18.2582 25.816C18.2582 25.9842 18.219 26.2035 18.219 26.3207C18.219 26.4762 18.2447 26.5673 18.426 26.5673C18.8931 26.5673 19.6321 25.7768 19.6321 25.1024C19.6321 24.9203 19.528 24.8439 19.4112 24.8439C19.3075 24.8439 19.1915 25.0505 18.88 25.1934ZM18.8282 24.2597C18.8282 23.6766 17.6225 23.6635 17.6225 22.7821C17.6225 22.5612 17.7646 22.186 18.0504 21.7834C18.1675 22.4575 18.4387 22.8078 19.0229 23.0287C20.1759 23.4557 20.3319 24.1037 20.3319 24.7916C20.3319 25.9585 19.5153 27.41 17.4155 27.41C15.7301 27.41 14.5244 25.9059 14.5244 24.6357C14.5244 24.2854 14.6151 23.8971 14.8355 23.8971C15.0303 23.8971 15.0948 24.0522 15.2503 24.2074C15.8342 24.7916 16.4691 24.9464 17.3894 24.9464C18.219 24.9468 18.8282 24.61 18.8282 24.2597Z" fill="#1766A6"/>
<path d="M9.64827 24.5407C9.67994 24.8114 9.48638 25.0556 9.21604 25.0873C8.9453 25.119 8.69989 24.925 8.66901 24.6547C8.63735 24.3835 8.8309 24.1385 9.10164 24.1069C9.37238 24.0752 9.617 24.2695 9.64827 24.5407ZM7.22586 25.0505C7.28088 25.493 7.69371 25.8287 8.15959 25.7768C8.32782 25.7582 8.48377 25.7123 8.58787 25.6474C8.69158 26.0618 9.0395 26.3286 9.50973 26.2668C9.98709 26.2047 10.3117 25.8287 10.2602 25.3489C10.2468 25.2199 10.221 25.1411 10.1826 25.0505C10.1826 25.0505 10.2456 25.0438 10.2931 25.035C10.7613 24.9464 11.0768 24.5708 11.0376 24.1171C10.9861 23.6505 10.5674 23.3041 10.1316 23.358C9.96255 23.3785 9.8066 23.4431 9.7025 23.5337C9.58534 23.1454 9.21999 22.8078 8.72126 22.8901C8.27042 22.9649 7.97237 23.3473 8.0175 23.8322C8.02502 23.9109 8.04322 24.0008 8.08241 24.091C8.08241 24.091 8.00602 24.1025 7.95337 24.11C7.57497 24.1662 7.1645 24.547 7.22586 25.0505Z" fill="#1766A6"/>
</g>
<defs>
<clipPath id="clip0_959_15947">
<rect width="42.9156" height="47.1029" fill="white" transform="translate(0.0419922 0.44873)"/>
</clipPath>
</defs>
</svg>
