<svg width="151" height="30" viewBox="0 0 151 30" fill="none" xmlns="http://www.w3.org/2000/svg">
<path d="M63.4257 10.759C61.4519 10.759 59.9756 11.4894 59.2453 12.6975H59.0874V11.1301H55.4795V27.7313H59.0874V22.4686H59.2453C59.9717 23.6767 61.4519 24.4071 63.4257 24.4071C67.1283 24.4071 70.0651 21.383 70.0651 17.5811C70.0651 13.7831 67.1283 10.759 63.4257 10.759ZM62.6954 21.1224C60.6822 21.1224 59.0874 19.555 59.0874 17.5811C59.0874 15.5874 60.6822 14.0398 62.6954 14.0398C64.7678 14.0398 66.3428 15.5874 66.3428 17.5811C66.3428 19.5748 64.748 21.1224 62.6954 21.1224Z" fill="#3B175C"/>
<path d="M144.122 11.7337C142.059 11.7337 140.443 12.5154 139.46 13.8736H139.299C139.567 11.4179 140.957 10.2256 143.949 9.79922L149.187 9.04127V5.72101L143.601 6.51454C138.442 7.23307 135.967 9.96501 135.967 14.8882C135.967 18.4491 136.196 19.5744 136.832 20.9206C137.83 23.0801 140.306 24.4066 143.297 24.4066C147.328 24.4066 150.438 21.5483 150.438 17.8057C150.434 14.2051 147.865 11.7337 144.122 11.7337ZM143.258 21.1061C141.206 21.1061 139.69 19.7046 139.69 17.8057C139.69 15.8869 141.186 14.4855 143.258 14.4855C145.291 14.4855 146.791 15.8869 146.791 17.8057C146.791 19.7046 145.272 21.1061 143.258 21.1061Z" fill="#3B175C"/>
<path d="M51.6967 7.23142L47.6348 15.4194L42.1005 7.23142H37.7861L45.819 19.0832L45.598 19.5332C45.2506 20.2517 44.7927 20.6387 43.7349 20.6387H40.8927V24.0497H44.1374C46.6125 24.0497 47.6111 23.422 48.6454 21.3572L55.7468 7.22748H51.6967V7.23142Z" fill="#3B175C"/>
<path d="M90.907 11.1453L90.2912 19.1677C90.1964 20.4231 89.774 20.881 88.7754 20.881H87.8911V24.1459H90.0425C92.4622 24.1459 93.5359 23.0405 93.7096 20.7349L94.1833 14.5012H98.6202V24.0354H102.268V11.1453H90.907Z" fill="#3B175C"/>
<path d="M111.671 14.0777C113.148 14.0777 114.32 14.9068 114.877 16.0162L118.102 14.8003C117.202 12.3485 114.648 10.7615 111.596 10.7615C107.507 10.7615 104.42 13.7106 104.42 17.5875C104.42 21.4605 107.511 24.4135 111.596 24.4135C114.648 24.4135 117.202 22.8263 118.102 20.3747L114.877 19.1587C114.32 20.2641 113.148 21.0972 111.671 21.0972C109.619 21.0972 108.138 19.6404 108.138 17.5914C108.138 15.5345 109.619 14.0777 111.671 14.0777Z" fill="#3B175C"/>
<path d="M129.494 11.1259L123.893 19.3219V11.1259H120.285V24.0358H124.276L129.841 15.899V24.0358H133.45V11.1259H129.494Z" fill="#3B175C"/>
<path d="M82.4571 12.6925H82.2993C81.5729 11.4844 80.0927 10.754 78.1189 10.754C74.4164 10.754 71.4795 13.7782 71.4795 17.58C71.4795 21.378 74.4164 24.406 78.1189 24.406C80.0927 24.406 81.5691 23.6758 82.2993 22.4677H82.4571V24.035H86.0651V11.1252H82.4571V12.6925ZM78.8532 21.1213C76.8005 21.1213 75.2059 19.5738 75.2059 17.58C75.2059 15.5863 76.7808 14.0387 78.8532 14.0387C80.8663 14.0387 82.4611 15.5863 82.4611 17.58C82.4572 19.5541 80.8663 21.1213 78.8532 21.1213Z" fill="#3B175C"/>
<path d="M27.6165 16.0163C27.6165 11.3419 25.0705 7.23208 21.2454 4.89096L21.2968 8.06511C23.5705 10.0194 25.0112 12.8618 25.0112 16.0163C25.0112 17.4573 24.7033 18.8312 24.1625 20.0867C22.5165 18.5232 21.3441 16.6835 20.6138 14.5121C19.7336 11.8828 19.5283 9.00474 19.4968 5.4871L19.5007 3.97503C18.7112 3.63551 17.8862 3.36704 17.0415 3.17755L17.0454 5.48315C17.1283 17.627 19.2323 22.6331 22.3625 26.3954L22.3665 26.3915L22.3625 26.3954C25.5638 23.9793 27.6165 20.2288 27.6165 16.0163C27.6165 16.0202 27.6165 16.0202 27.6165 16.0163Z" fill="#3B175C"/>
<path d="M10.7518 5.48559L10.7558 3.17999C9.91104 3.3695 9.08603 3.63795 8.29655 3.97748L8.3005 5.48954C8.26497 9.00324 8.06365 11.8853 7.18338 14.5146C6.45706 16.6859 5.28074 18.5217 3.63468 20.089C3.09388 18.8336 2.78599 17.4597 2.78599 16.0187C2.78599 12.8603 4.22284 10.0218 6.50049 8.06755L6.5518 4.8934C2.72283 7.23058 0.176758 11.3404 0.176758 16.0148V16.0187C0.176758 20.2312 2.23335 23.9817 5.43074 26.3979L5.4268 26.3939L5.43074 26.3979C8.56891 22.6395 10.6689 17.6295 10.7518 5.48559Z" fill="#3B175C"/>
<path d="M15.1286 0.836971C14.6826 0.801434 14.28 0.785645 13.901 0.785645C13.5221 0.785645 13.1194 0.801434 12.6694 0.836971V3.56499C12.6694 15.5194 12.2076 20.7148 10.4194 28.7845C12.6852 29.357 15.0932 29.357 17.3629 28.7884C15.5866 20.7781 15.1286 15.5825 15.1286 3.56499V0.836971Z" fill="#3B175C"/>
</svg>
