<svg width="139" height="26" viewBox="0 0 139 26" fill="none" xmlns="http://www.w3.org/2000/svg">
<g clip-path="url(#clip0_959_15988)">
<path d="M42.1874 15.9147C42.1874 17.7522 40.4766 19.0828 38.0689 19.0828H32.4297V7.67773H37.8787C40.2232 7.67773 41.8706 8.94497 41.8706 10.7191C41.8706 11.9229 41.237 12.6833 40.2865 13.1268C41.3003 13.507 42.1874 14.5208 42.1874 15.9147ZM34.9008 9.76867V12.2398H37.8154C38.7025 12.2398 39.2728 11.7329 39.2728 11.0359C39.2728 10.3389 38.6391 9.76867 37.8154 9.76867H34.9008ZM38.0689 16.9919C39.0193 16.9919 39.7163 16.4216 39.7163 15.5979C39.7163 14.7742 39.0827 14.204 38.0689 14.204H34.9008V16.9919H38.0689Z" fill="#131314"/>
<path d="M51.5016 19.0195L47.5734 14.5208H46.9398V19.0195H44.4053V7.67773H46.9398V12.0497H47.5734L51.3751 7.67773H54.3532L49.6009 13.1268L54.7964 19.0195H51.5016Z" fill="#131314"/>
<path d="M54.7959 13.3803C54.7959 9.95876 57.3308 7.48767 60.8787 7.48767C64.4271 7.48767 66.9615 9.95876 66.9615 13.3803C66.9615 16.8018 64.4271 19.2729 60.8787 19.2729C57.3308 19.2729 54.7959 16.8018 54.7959 13.3803ZM64.3006 13.3803C64.3006 11.226 62.9063 9.76871 60.8787 9.76871C58.8511 9.76871 57.4573 11.226 57.4573 13.3803C57.4573 15.5346 58.8511 16.9919 60.8787 16.9919C62.9063 16.9919 64.3006 15.5346 64.3006 13.3803Z" fill="#131314"/>
<path d="M76.6559 7.67767H79.1907V19.0194H76.6559V14.4574H71.5871V19.0194H69.0527V7.67767H71.5871V12.1763H76.6559V7.67767Z" fill="#131314"/>
<path d="M84.6396 19.0194V9.95866H80.7109V7.67767H91.0391V9.95866H87.1104V19.0194H84.6396Z" fill="#131314"/>
<path d="M101.937 12.6833V19.0195H100.1L99.5928 17.2454C99.0225 18.1958 97.8189 19.2729 95.9814 19.2729C93.7001 19.2729 92.0527 17.7523 92.0527 15.6613C92.0527 13.5704 93.7001 12.1131 97.0585 12.1131H99.5293C99.4027 10.6557 98.6423 9.64199 97.2486 9.64199C96.1079 9.64199 95.3475 10.2756 94.9673 10.9726L92.6866 10.5924C93.2569 8.62819 95.221 7.48767 97.3751 7.48767C100.163 7.48767 101.937 9.3885 101.937 12.6833ZM99.4663 14.0773H97.122C95.221 14.0773 94.5871 14.7109 94.5871 15.5346C94.5871 16.485 95.3475 17.1187 96.6147 17.1187C98.2621 17.1187 99.4663 15.9148 99.4663 14.0773Z" fill="#131314"/>
<path d="M111.695 19.0194L107.767 14.5207H107.133V19.0194H104.599V7.67767H107.133V12.0496H107.767L111.568 7.67767H114.547L109.794 13.1268L114.99 19.0194H111.695Z" fill="#131314"/>
<path d="M119.551 19.0195V9.95872H115.623V7.67773H125.951V9.95872H122.023V19.0195H119.551Z" fill="#131314"/>
<path d="M138.624 14.0773H129.5C129.753 15.8514 131.021 16.9919 132.921 16.9919C134.252 16.9919 135.266 16.4217 135.836 15.598L138.181 15.9781C137.357 18.1325 135.139 19.2729 132.731 19.2729C129.31 19.2729 126.839 16.8018 126.839 13.3803C126.839 9.95876 129.31 7.48767 132.731 7.48767C136.153 7.48767 138.624 9.95876 138.624 13.2536C138.687 13.5704 138.624 13.8239 138.624 14.0773ZM129.69 12.1131H135.963C135.519 10.7191 134.378 9.70533 132.795 9.70533C131.274 9.64199 130.07 10.6557 129.69 12.1131Z" fill="#131314"/>
<path d="M0.115234 12.5159C0.115234 7.03915 0.115234 4.30078 1.81665 2.59937C3.51807 0.897949 6.25643 0.897949 11.7332 0.897949H12.7014C18.1782 0.897949 20.9165 0.897949 22.618 2.59937C24.3194 4.30078 24.3194 7.03915 24.3194 12.5159V13.4841C24.3194 18.9609 24.3194 21.6993 22.618 23.4007C20.9165 25.1021 18.1782 25.1021 12.7014 25.1021H11.7332C6.25643 25.1021 3.51807 25.1021 1.81665 23.4007C0.115234 21.6993 0.115234 18.9609 0.115234 13.4841V12.5159Z" fill="#0077FF"/>
<path d="M12.9933 18.335C7.47682 18.335 4.33032 14.5531 4.19922 8.26001H6.96253C7.05329 12.879 9.09043 14.8355 10.704 15.2389V8.26001H13.3061V12.2436C14.8995 12.0722 16.5734 10.2569 17.1382 8.26001H19.7402C19.3065 10.7208 17.4912 12.5361 16.2003 13.2824C17.4912 13.8875 19.5588 15.4708 20.3454 18.335H17.4812C16.866 16.4188 15.3332 14.9363 13.3061 14.7346V18.335H12.9933Z" fill="white"/>
</g>
<defs>
<clipPath id="clip0_959_15988">
<rect width="138.771" height="24.2042" fill="white" transform="translate(0.115234 0.897949)"/>
</clipPath>
</defs>
</svg>
