<svg width="91" height="33" viewBox="0 0 91 33" fill="none" xmlns="http://www.w3.org/2000/svg">
<g clip-path="url(#clip0_959_16003)">
<path fill-rule="evenodd" clip-rule="evenodd" d="M7.09289 0.499939L5.57604 4.65487H26.5961L28.113 0.499939H7.09289ZM4.81715 6.73139L3.3003 10.8854H24.3204L25.8372 6.73139H4.81715ZM2.54614 12.9628L1.0293 17.1168H22.0494L23.5653 12.9628H2.54614Z" fill="#009FDF"/>
<path fill-rule="evenodd" clip-rule="evenodd" d="M45.7169 18.6999V18.7876C46.6776 19.1402 47.5952 19.7567 48.076 20.1527C49.5613 21.3858 50.2171 23.0149 50.2171 25.1285C50.2171 28.6082 48.3818 31.1177 45.3671 31.9106C44.4495 32.1745 43.4889 32.2632 41.6966 32.2632H32.5664V6.81104H40.649C42.3093 6.81104 43.4449 6.8987 44.4495 7.16266C47.3772 7.95551 49.2995 9.98147 49.2995 13.1953C49.2995 14.9129 48.6877 16.3667 47.6831 17.3348C47.2463 17.7751 46.6345 18.304 45.7169 18.6999ZM37.6343 21.3858V28.0793H41.1298C42.1774 28.0793 43.139 27.9916 43.8387 27.3307C44.5374 26.6699 44.8433 25.8337 44.8433 24.7325C44.8433 23.8963 44.6244 23.1035 44.1876 22.5312C43.4449 21.6064 42.5273 21.3858 40.9549 21.3858H37.6343ZM37.5903 16.9823H40.4302C41.3038 16.9823 41.7406 16.9823 42.1774 16.8503C43.3579 16.4977 44.1006 15.4418 44.1006 13.9881C44.1006 12.2714 43.3139 11.5219 42.1774 11.1703C41.6967 11.0383 41.2168 10.994 40.2552 10.994H37.5903V16.9823ZM57.8189 32.2632V11.0816H50.5229V6.81104H70.7955L69.3541 11.0816H62.8868V32.2632H57.8189ZM72.3678 32.2632V6.81104H88.796L87.3546 11.0816H77.3927V16.7183H81.456C84.7327 16.7183 86.4369 17.5111 87.6165 18.5236C88.5341 19.3165 90.1064 21.0775 90.1064 24.5572C90.1064 27.9916 88.4901 29.8846 87.1357 30.8538C85.5633 31.9539 83.903 32.2632 80.5384 32.2632H72.3678ZM77.3927 27.9916H81.1941C82.6355 27.9916 83.5092 27.639 84.1209 26.8462C84.4268 26.4502 84.8636 25.745 84.8636 24.4243C84.8636 23.1035 84.4268 22.1787 83.5532 21.5178C83.0294 21.1218 82.3297 20.9022 81.1502 20.9022H77.3927V27.9916Z" fill="#0A2973"/>
</g>
<defs>
<clipPath id="clip0_959_16003">
<rect width="89.6436" height="31.7635" fill="white" transform="translate(0.5 0.5)"/>
</clipPath>
</defs>
</svg>
