<svg width="12" height="18" viewBox="0 0 12 18" fill="none" xmlns="http://www.w3.org/2000/svg">
<path d="M6.27897 3.18637C4.4369 3.18637 3.51586 3.76661 3.51586 4.92709C3.51586 5.44286 3.74401 5.83775 4.2003 6.11176C4.65659 6.38576 5.7255 6.78065 7.40702 7.29642C9.08855 7.81219 10.2673 8.39646 10.9433 9.04923C11.6193 9.702 11.9573 10.7053 11.9573 12.0592C11.9573 13.7838 11.408 15.0894 10.3096 15.9759C9.21107 16.8624 7.77459 17.3056 6.00012 17.3056C4.68194 17.3056 3.06802 17.1122 1.15835 16.7254L0.245765 16.5561L0.60066 13.9692C2.86522 14.2593 4.59745 14.4044 5.79733 14.4044C7.5887 14.4044 8.48438 13.6952 8.48438 12.2768C8.48438 11.7611 8.27736 11.3581 7.86332 11.068C7.44927 10.7779 6.62541 10.4636 5.39173 10.1251C3.43136 9.59321 2.04981 8.96058 1.24707 8.22722C0.444337 7.49386 0.0429688 6.47441 0.0429688 5.16886C0.0429688 3.52484 0.56686 2.29989 1.61464 1.49399C2.66243 0.688102 4.0989 0.285156 5.92407 0.285156C7.17465 0.285156 8.76323 0.446335 10.6898 0.768691L11.6024 0.937929L11.3235 3.5732C8.94067 3.31531 7.25915 3.18637 6.27897 3.18637Z" fill="#131314"/>
</svg>
