<svg width="19" height="16" viewBox="0 0 19 16" fill="none" xmlns="http://www.w3.org/2000/svg">
<path d="M1.60404 7.0457C1.60404 7.0457 9.56501 3.64316 12.326 2.44504C13.3844 1.96583 16.9737 0.432235 16.9737 0.432235C16.9737 0.432235 18.6304 -0.238655 18.4923 1.39072C18.4463 2.06167 18.0782 4.40989 17.71 6.94986C17.1578 10.5441 16.5596 14.4738 16.5596 14.4738C16.5596 14.4738 16.4676 15.5761 15.6853 15.7678C14.903 15.9595 13.6145 15.0969 13.3844 14.9052C13.2003 14.7614 9.93312 12.6048 8.73669 11.5505C8.41455 11.263 8.04644 10.6879 8.78267 10.017C10.4393 8.4355 12.418 6.47065 13.6145 5.22464C14.1667 4.64953 14.7189 3.30768 12.418 4.93705C9.15085 7.28533 5.92965 9.48982 5.92965 9.48982C5.92965 9.48982 5.19335 9.96903 3.81286 9.53771C2.4323 9.10645 0.821697 8.53134 0.821697 8.53134C0.821697 8.53134 -0.282649 7.8125 1.60404 7.0457Z" fill="#131314"/>
</svg>
