<svg width="22" height="13" viewBox="0 0 22 13" fill="none" xmlns="http://www.w3.org/2000/svg">
<path fill-rule="evenodd" clip-rule="evenodd" d="M21.4957 1.60797C21.6486 1.13958 21.4957 0.79541 20.7678 0.79541H18.361C17.749 0.79541 17.4669 1.09273 17.3139 1.42058C17.3139 1.42058 16.09 4.16061 14.3561 5.94044C13.7951 6.45565 13.5401 6.61957 13.2341 6.61957C13.0812 6.61957 12.8597 6.45565 12.8597 5.9873V1.60797C12.8597 1.04591 12.6821 0.79541 12.1721 0.79541H8.38994C8.00751 0.79541 7.77752 1.05628 7.77752 1.30351C7.77752 1.83634 8.64441 1.95921 8.73377 3.45805V6.71329C8.73377 7.42699 8.59344 7.55638 8.28745 7.55638C7.47153 7.55638 5.4868 4.80411 4.30968 1.65479C4.07899 1.04267 3.84761 0.79541 3.2325 0.79541H0.825687C0.138027 0.79541 0.000488281 1.09273 0.000488281 1.42058C0.000488281 2.00607 0.81645 4.91003 3.79974 8.75072C5.78859 11.3736 8.59074 12.7954 11.1406 12.7954C12.6705 12.7954 12.8597 12.4796 12.8597 11.9357V9.9533C12.8597 9.32173 13.0047 9.19568 13.4891 9.19568C13.8461 9.19568 14.4581 9.35961 15.886 10.6242C17.5179 12.123 17.7869 12.7954 18.7048 12.7954H21.1116C21.7993 12.7954 22.1431 12.4796 21.9448 11.8564C21.7277 11.2353 20.9486 10.3342 19.9148 9.26593C19.3538 8.65705 18.5123 8.00134 18.2573 7.67341C17.9004 7.25193 18.0024 7.06453 18.2573 6.68986C18.2573 6.68986 21.1897 2.89599 21.4957 1.60797Z" fill="#131314"/>
</svg>
